<svg version="1.1" viewBox="0.0 0.0 600.0 371.0" fill="none" stroke="none" stroke-linecap="square" stroke-miterlimit="10" width="600" height="371" xmlns:xlink="http://www.w3.org/1999/xlink" xmlns="http://www.w3.org/2000/svg"><path fill="#ffffff" d="M0 0L600.0 0L600.0 371.0L0 371.0L0 0Z" fill-rule="nonzero"/><path stroke="#333333" stroke-width="1.0" stroke-linecap="butt" d="M140.5 18.5L140.5 332.5" fill-rule="nonzero"/><path stroke="#cccccc" stroke-width="1.0" stroke-linecap="butt" d="M228.5 18.5L228.5 332.5" fill-rule="nonzero"/><path stroke="#cccccc" stroke-width="1.0" stroke-linecap="butt" d="M316.5 18.5L316.5 332.5" fill-rule="nonzero"/><path stroke="#cccccc" stroke-width="1.0" stroke-linecap="butt" d="M404.5 18.5L404.5 332.5" fill-rule="nonzero"/><path stroke="#cccccc" stroke-width="1.0" stroke-linecap="butt" d="M493.5 18.5L493.5 332.5" fill-rule="nonzero"/><path stroke="#cccccc" stroke-width="1.0" stroke-linecap="butt" d="M581.5 18.5L581.5 332.5" fill-rule="nonzero"/><clipPath id="id_0"><path d="M140.13 18.55L581.45 18.55L581.45 332.45L140.13 332.45L140.13 18.55Z" clip-rule="nonzero"/></clipPath><path stroke="#000000" stroke-width="2.0" stroke-linecap="butt" stroke-opacity="0.0" clip-path="url(#id_0)" d="M140.0 56.0L140.0 32.0L226.0 32.0C227.10457 32.0 228.0 32.89543 228.0 34.0L228.0 54.0C228.0 55.10457 227.10457 56.0 226.0 56.0Z" fill-rule="nonzero"/><path fill="#4472c4" clip-path="url(#id_0)" d="M140.0 56.0L140.0 32.0L226.0 32.0C227.10457 32.0 228.0 32.89543 228.0 34.0L228.0 54.0C228.0 55.10457 227.10457 56.0 226.0 56.0Z" fill-rule="nonzero"/><path stroke="#000000" stroke-width="2.0" stroke-linecap="butt" stroke-opacity="0.0" clip-path="url(#id_0)" d="M140.0 94.0L140.0 70.0L562.0 70.0C563.10455 70.0 564.0 70.89543 564.0 72.0L564.0 92.0C564.0 93.10457 563.10455 94.0 562.0 94.0Z" fill-rule="nonzero"/><path fill="#4472c4" clip-path="url(#id_0)" d="M140.0 94.0L140.0 70.0L562.0 70.0C563.10455 70.0 564.0 70.89543 564.0 72.0L564.0 92.0C564.0 93.10457 563.10455 94.0 562.0 94.0Z" fill-rule="nonzero"/><path stroke="#000000" stroke-width="2.0" stroke-linecap="butt" stroke-opacity="0.0" clip-path="url(#id_0)" d="M140.0 131.0L140.0 107.0L385.0 107.0C386.10458 107.0 387.0 107.89543 387.0 109.0L387.0 129.0C387.0 130.10457 386.10458 131.0 385.0 131.0Z" fill-rule="nonzero"/><path fill="#4472c4" clip-path="url(#id_0)" d="M140.0 131.0L140.0 107.0L385.0 107.0C386.10458 107.0 387.0 107.89543 387.0 109.0L387.0 129.0C387.0 130.10457 386.10458 131.0 385.0 131.0Z" fill-rule="nonzero"/><path stroke="#000000" stroke-width="2.0" stroke-linecap="butt" stroke-opacity="0.0" clip-path="url(#id_0)" d="M140.0 169.0L140.0 145.0L191.0 145.0C192.10457 145.0 193.0 145.89543 193.0 147.0L193.0 167.0C193.0 168.10457 192.10457 169.0 191.0 169.0Z" fill-rule="nonzero"/><path fill="#4472c4" clip-path="url(#id_0)" d="M140.0 169.0L140.0 145.0L191.0 145.0C192.10457 145.0 193.0 145.89543 193.0 147.0L193.0 167.0C193.0 168.10457 192.10457 169.0 191.0 169.0Z" fill-rule="nonzero"/><path stroke="#000000" stroke-width="2.0" stroke-linecap="butt" stroke-opacity="0.0" clip-path="url(#id_0)" d="M140.0 206.0L140.0 182.0L244.0 182.0C245.10457 182.0 246.0 182.89543 246.0 184.0L246.0 204.0C246.0 205.10457 245.10457 206.0 244.0 206.0Z" fill-rule="nonzero"/><path fill="#4472c4" clip-path="url(#id_0)" d="M140.0 206.0L140.0 182.0L244.0 182.0C245.10457 182.0 246.0 182.89543 246.0 184.0L246.0 204.0C246.0 205.10457 245.10457 206.0 244.0 206.0Z" fill-rule="nonzero"/><path stroke="#000000" stroke-width="2.0" stroke-linecap="butt" stroke-opacity="0.0" clip-path="url(#id_0)" d="M140.0 244.0L140.0 220.0L315.0 220.0C316.10458 220.0 317.0 220.89543 317.0 222.0L317.0 242.0C317.0 243.10457 316.10458 244.0 315.0 244.0Z" fill-rule="nonzero"/><path fill="#4472c4" clip-path="url(#id_0)" d="M140.0 244.0L140.0 220.0L315.0 220.0C316.10458 220.0 317.0 220.89543 317.0 222.0L317.0 242.0C317.0 243.10457 316.10458 244.0 315.0 244.0Z" fill-rule="nonzero"/><path stroke="#000000" stroke-width="2.0" stroke-linecap="butt" stroke-opacity="0.0" clip-path="url(#id_0)" d="M140.0 281.0L140.0 257.0L385.0 257.0C386.10458 257.0 387.0 257.89542 387.0 259.0L387.0 279.0C387.0 280.10458 386.10458 281.0 385.0 281.0Z" fill-rule="nonzero"/><path fill="#4472c4" clip-path="url(#id_0)" d="M140.0 281.0L140.0 257.0L385.0 257.0C386.10458 257.0 387.0 257.89542 387.0 259.0L387.0 279.0C387.0 280.10458 386.10458 281.0 385.0 281.0Z" fill-rule="nonzero"/><path stroke="#000000" stroke-width="2.0" stroke-linecap="butt" stroke-opacity="0.0" clip-path="url(#id_0)" d="M140.0 319.0L140.0 295.0L403.0 295.0C404.10458 295.0 405.0 295.89542 405.0 297.0L405.0 317.0C405.0 318.10458 404.10458 319.0 403.0 319.0Z" fill-rule="nonzero"/><path fill="#4472c4" clip-path="url(#id_0)" d="M140.0 319.0L140.0 295.0L403.0 295.0C404.10458 295.0 405.0 295.89542 405.0 297.0L405.0 317.0C405.0 318.10458 404.10458 319.0 403.0 319.0Z" fill-rule="nonzero"/><path stroke="#4472c4" stroke-width="3.0" stroke-linejoin="round" stroke-linecap="round" d="M217.79712 44.21875L218.23462 39.96875L222.60962 39.96875L222.60962 40.96875L219.1565 40.96875L218.89087 43.296875Q219.5315 42.921875 220.32837 42.921875Q221.48462 42.921875 222.17212 43.703125Q222.85962 44.46875 222.85962 45.78125Q222.85962 47.09375 222.14087 47.859375Q221.43774 48.625 220.1565 48.625Q219.0315 48.625 218.31274 48.0Q217.594 47.359375 217.50024 46.25L218.51587 46.25Q218.62524 46.984375 219.04712 47.359375Q219.469 47.734375 220.1565 47.734375Q220.9065 47.734375 221.344 47.21875Q221.7815 46.703125 221.7815 45.796875Q221.7815 44.9375 221.31274 44.421875Q220.844 43.90625 220.06274 43.90625Q219.35962 43.90625 218.95337 44.203125L218.67212 44.4375L217.79712 44.21875Z" fill-rule="nonzero"/><path fill="#ffffff" d="M217.79712 44.21875L218.23462 39.96875L222.60962 39.96875L222.60962 40.96875L219.1565 40.96875L218.89087 43.296875Q219.5315 42.921875 220.32837 42.921875Q221.48462 42.921875 222.17212 43.703125Q222.85962 44.46875 222.85962 45.78125Q222.85962 47.09375 222.14087 47.859375Q221.43774 48.625 220.1565 48.625Q219.0315 48.625 218.31274 48.0Q217.594 47.359375 217.50024 46.25L218.51587 46.25Q218.62524 46.984375 219.04712 47.359375Q219.469 47.734375 220.1565 47.734375Q220.9065 47.734375 221.344 47.21875Q221.7815 46.703125 221.7815 45.796875Q221.7815 44.9375 221.31274 44.421875Q220.844 43.90625 220.06274 43.90625Q219.35962 43.90625 218.95337 44.203125L218.67212 44.4375L217.79712 44.21875Z" fill-rule="nonzero"/><path stroke="#4472c4" stroke-width="3.0" stroke-linejoin="round" stroke-linecap="round" d="M551.29407 86.5L545.7003 86.5L545.7003 85.71875L548.65344 82.4375Q549.3097 81.6875 549.5597 81.234375Q549.8097 80.765625 549.8097 80.265625Q549.8097 79.59375 549.40344 79.171875Q549.0128 78.734375 548.3253 78.734375Q547.52844 78.734375 547.0753 79.203125Q546.6222 79.65625 546.6222 80.484375L545.54407 80.484375Q545.54407 79.296875 546.29407 78.578125Q547.0597 77.84375 548.3253 77.84375Q549.52844 77.84375 550.21594 78.46875Q550.90344 79.09375 550.90344 80.140625Q550.90344 81.390625 549.29407 83.140625L547.0128 85.609375L551.29407 85.609375L551.29407 86.5ZM557.27844 83.640625L558.46594 83.640625L558.46594 84.515625L557.27844 84.515625L557.27844 86.5L556.2003 86.5L556.2003 84.515625L552.3097 84.515625L552.3097 83.875L556.1222 77.96875L557.27844 77.96875L557.27844 83.640625ZM553.54407 83.640625L556.2003 83.640625L556.2003 79.453125L556.0597 79.6875L553.54407 83.640625Z" fill-rule="nonzero"/><path fill="#ffffff" d="M551.29407 86.5L545.7003 86.5L545.7003 85.71875L548.65344 82.4375Q549.3097 81.6875 549.5597 81.234375Q549.8097 80.765625 549.8097 80.265625Q549.8097 79.59375 549.40344 79.171875Q549.0128 78.734375 548.3253 78.734375Q547.52844 78.734375 547.0753 79.203125Q546.6222 79.65625 546.6222 80.484375L545.54407 80.484375Q545.54407 79.296875 546.29407 78.578125Q547.0597 77.84375 548.3253 77.84375Q549.52844 77.84375 550.21594 78.46875Q550.90344 79.09375 550.90344 80.140625Q550.90344 81.390625 549.29407 83.140625L547.0128 85.609375L551.29407 85.609375L551.29407 86.5ZM557.27844 83.640625L558.46594 83.640625L558.46594 84.515625L557.27844 84.515625L557.27844 86.5L556.2003 86.5L556.2003 84.515625L552.3097 84.515625L552.3097 83.875L556.1222 77.96875L557.27844 77.96875L557.27844 83.640625ZM553.54407 83.640625L556.2003 83.640625L556.2003 79.453125L556.0597 79.6875L553.54407 83.640625Z" fill-rule="nonzero"/><path stroke="#4472c4" stroke-width="3.0" stroke-linejoin="round" stroke-linecap="round" d="M372.73483 123.5L371.6567 123.5L371.6567 116.28125L369.4692 117.078125L369.4692 116.09375L372.57858 114.921875L372.73483 114.921875L372.73483 123.5ZM380.75046 120.640625L381.93796 120.640625L381.93796 121.515625L380.75046 121.515625L380.75046 123.5L379.67233 123.5L379.67233 121.515625L375.7817 121.515625L375.7817 120.875L379.5942 114.96875L380.75046 114.96875L380.75046 120.640625ZM377.01608 120.640625L379.67233 120.640625L379.67233 116.453125L379.5317 116.6875L377.01608 120.640625Z" fill-rule="nonzero"/><path fill="#ffffff" d="M372.73483 123.5L371.6567 123.5L371.6567 116.28125L369.4692 117.078125L369.4692 116.09375L372.57858 114.921875L372.73483 114.921875L372.73483 123.5ZM380.75046 120.640625L381.93796 120.640625L381.93796 121.515625L380.75046 121.515625L380.75046 123.5L379.67233 123.5L379.67233 121.515625L375.7817 121.515625L375.7817 120.875L379.5942 114.96875L380.75046 114.96875L380.75046 120.640625ZM377.01608 120.640625L379.67233 120.640625L379.67233 116.453125L379.5317 116.6875L377.01608 120.640625Z" fill-rule="nonzero"/><path stroke="#4472c4" stroke-width="3.0" stroke-linejoin="round" stroke-linecap="round" d="M183.56966 156.70312L184.38216 156.70312Q185.1634 156.6875 185.6009 156.29688Q186.0384 155.90625 186.0384 155.23438Q186.0384 153.73438 184.5384 153.73438Q183.83528 153.73438 183.4134 154.14062Q183.00716 154.54688 183.00716 155.20312L181.9134 155.20312Q181.9134 154.1875 182.64778 153.51562Q183.39778 152.84375 184.5384 152.84375Q185.74153 152.84375 186.42903 153.48438Q187.11653 154.125 187.11653 155.26562Q187.11653 155.82812 186.75716 156.34375Q186.39778 156.85938 185.77278 157.125Q186.4759 157.34375 186.8509 157.85938Q187.24153 158.375 187.24153 159.125Q187.24153 160.26562 186.49153 160.95312Q185.74153 161.625 184.5384 161.625Q183.3509 161.625 182.58528 160.96875Q181.83528 160.3125 181.83528 159.25L182.92903 159.25Q182.92903 159.92188 183.36653 160.32812Q183.80403 160.73438 184.55403 160.73438Q185.33528 160.73438 185.74153 160.32812Q186.1634 159.90625 186.1634 159.14062Q186.1634 158.40625 185.71028 158.01562Q185.25716 157.60938 184.38216 157.59375L183.56966 157.59375L183.56966 156.70312Z" fill-rule="nonzero"/><path fill="#ffffff" d="M183.56966 156.70312L184.38216 156.70312Q185.1634 156.6875 185.6009 156.29688Q186.0384 155.90625 186.0384 155.23438Q186.0384 153.73438 184.5384 153.73438Q183.83528 153.73438 183.4134 154.14062Q183.00716 154.54688 183.00716 155.20312L181.9134 155.20312Q181.9134 154.1875 182.64778 153.51562Q183.39778 152.84375 184.5384 152.84375Q185.74153 152.84375 186.42903 153.48438Q187.11653 154.125 187.11653 155.26562Q187.11653 155.82812 186.75716 156.34375Q186.39778 156.85938 185.77278 157.125Q186.4759 157.34375 186.8509 157.85938Q187.24153 158.375 187.24153 159.125Q187.24153 160.26562 186.49153 160.95312Q185.74153 161.625 184.5384 161.625Q183.3509 161.625 182.58528 160.96875Q181.83528 160.3125 181.83528 159.25L182.92903 159.25Q182.92903 159.92188 183.36653 160.32812Q183.80403 160.73438 184.55403 160.73438Q185.33528 160.73438 185.74153 160.32812Q186.1634 159.90625 186.1634 159.14062Q186.1634 158.40625 185.71028 158.01562Q185.25716 157.60938 184.38216 157.59375L183.56966 157.59375L183.56966 156.70312Z" fill-rule="nonzero"/><path stroke="#4472c4" stroke-width="3.0" stroke-linejoin="round" stroke-linecap="round" d="M239.21555 189.96875L239.21555 190.875L239.01242 190.875Q237.7468 190.90625 236.9968 191.64062Q236.2468 192.35938 236.1218 193.67188Q236.8093 192.90625 237.96555 192.90625Q239.07492 192.90625 239.7468 193.6875Q240.41867 194.46875 240.41867 195.71875Q240.41867 197.03125 239.69992 197.82812Q238.98117 198.625 237.76242 198.625Q236.54367 198.625 235.77805 197.6875Q235.02805 196.73438 235.02805 195.25L235.02805 194.84375Q235.02805 192.48438 236.02805 191.23438Q237.02805 189.98438 239.01242 189.96875L239.21555 189.96875ZM237.79367 193.8125Q237.23117 193.8125 236.76242 194.14062Q236.29367 194.46875 236.10617 194.98438L236.10617 195.375Q236.10617 196.4375 236.57492 197.07812Q237.0593 197.71875 237.76242 197.71875Q238.4968 197.71875 238.91867 197.1875Q239.34055 196.64062 239.34055 195.76562Q239.34055 194.89062 238.91867 194.35938Q238.4968 193.8125 237.79367 193.8125Z" fill-rule="nonzero"/><path fill="#ffffff" d="M239.21555 189.96875L239.21555 190.875L239.01242 190.875Q237.7468 190.90625 236.9968 191.64062Q236.2468 192.35938 236.1218 193.67188Q236.8093 192.90625 237.96555 192.90625Q239.07492 192.90625 239.7468 193.6875Q240.41867 194.46875 240.41867 195.71875Q240.41867 197.03125 239.69992 197.82812Q238.98117 198.625 237.76242 198.625Q236.54367 198.625 235.77805 197.6875Q235.02805 196.73438 235.02805 195.25L235.02805 194.84375Q235.02805 192.48438 236.02805 191.23438Q237.02805 189.98438 239.01242 189.96875L239.21555 189.96875ZM237.79367 193.8125Q237.23117 193.8125 236.76242 194.14062Q236.29367 194.46875 236.10617 194.98438L236.10617 195.375Q236.10617 196.4375 236.57492 197.07812Q237.0593 197.71875 237.76242 197.71875Q238.4968 197.71875 238.91867 197.1875Q239.34055 196.64062 239.34055 195.76562Q239.34055 194.89062 238.91867 194.35938Q238.4968 193.8125 237.79367 193.8125Z" fill-rule="nonzero"/><path stroke="#4472c4" stroke-width="3.0" stroke-linejoin="round" stroke-linecap="round" d="M302.12363 236.5L301.0455 236.5L301.0455 229.28125L298.858 230.07812L298.858 229.09375L301.96738 227.92188L302.12363 227.92188L302.12363 236.5ZM310.9205 232.85938Q310.9205 234.76562 310.26425 235.70312Q309.62363 236.625 308.233 236.625Q306.87363 236.625 306.21738 235.71875Q305.56113 234.8125 305.52988 233.0L305.52988 231.5625Q305.52988 229.67188 306.1705 228.76562Q306.82675 227.84375 308.21738 227.84375Q309.59238 227.84375 310.24863 228.73438Q310.90488 229.60938 310.9205 231.45312L310.9205 232.85938ZM309.82675 231.375Q309.82675 230.0 309.43613 229.375Q309.06113 228.73438 308.21738 228.73438Q307.38925 228.73438 306.99863 229.375Q306.62363 230.0 306.62363 231.29688L306.62363 233.03125Q306.62363 234.40625 307.01425 235.07812Q307.4205 235.73438 308.233 235.73438Q309.02988 235.73438 309.4205 235.10938Q309.81113 234.48438 309.82675 233.15625L309.82675 231.375Z" fill-rule="nonzero"/><path fill="#ffffff" d="M302.12363 236.5L301.0455 236.5L301.0455 229.28125L298.858 230.07812L298.858 229.09375L301.96738 227.92188L302.12363 227.92188L302.12363 236.5ZM310.9205 232.85938Q310.9205 234.76562 310.26425 235.70312Q309.62363 236.625 308.233 236.625Q306.87363 236.625 306.21738 235.71875Q305.56113 234.8125 305.52988 233.0L305.52988 231.5625Q305.52988 229.67188 306.1705 228.76562Q306.82675 227.84375 308.21738 227.84375Q309.59238 227.84375 310.24863 228.73438Q310.90488 229.60938 310.9205 231.45312L310.9205 232.85938ZM309.82675 231.375Q309.82675 230.0 309.43613 229.375Q309.06113 228.73438 308.21738 228.73438Q307.38925 228.73438 306.99863 229.375Q306.62363 230.0 306.62363 231.29688L306.62363 233.03125Q306.62363 234.40625 307.01425 235.07812Q307.4205 235.73438 308.233 235.73438Q309.02988 235.73438 309.4205 235.10938Q309.81113 234.48438 309.82675 233.15625L309.82675 231.375Z" fill-rule="nonzero"/><path stroke="#4472c4" stroke-width="3.0" stroke-linejoin="round" stroke-linecap="round" d="M372.73483 273.5L371.6567 273.5L371.6567 266.28125L369.4692 267.07812L369.4692 266.09375L372.57858 264.92188L372.73483 264.92188L372.73483 273.5ZM380.75046 270.64062L381.93796 270.64062L381.93796 271.51562L380.75046 271.51562L380.75046 273.5L379.67233 273.5L379.67233 271.51562L375.7817 271.51562L375.7817 270.875L379.5942 264.96875L380.75046 264.96875L380.75046 270.64062ZM377.01608 270.64062L379.67233 270.64062L379.67233 266.45312L379.5317 266.6875L377.01608 270.64062Z" fill-rule="nonzero"/><path fill="#ffffff" d="M372.73483 273.5L371.6567 273.5L371.6567 266.28125L369.4692 267.07812L369.4692 266.09375L372.57858 264.92188L372.73483 264.92188L372.73483 273.5ZM380.75046 270.64062L381.93796 270.64062L381.93796 271.51562L380.75046 271.51562L380.75046 273.5L379.67233 273.5L379.67233 271.51562L375.7817 271.51562L375.7817 270.875L379.5942 264.96875L380.75046 264.96875L380.75046 270.64062ZM377.01608 270.64062L379.67233 270.64062L379.67233 266.45312L379.5317 266.6875L377.01608 270.64062Z" fill-rule="nonzero"/><path stroke="#4472c4" stroke-width="3.0" stroke-linejoin="round" stroke-linecap="round" d="M390.38763 311.5L389.3095 311.5L389.3095 304.28125L387.122 305.07812L387.122 304.09375L390.23138 302.92188L390.38763 302.92188L390.38763 311.5ZM394.32513 307.21875L394.76263 302.96875L399.13763 302.96875L399.13763 303.96875L395.6845 303.96875L395.41888 306.29688Q396.0595 305.92188 396.85638 305.92188Q398.01263 305.92188 398.70013 306.70312Q399.38763 307.46875 399.38763 308.78125Q399.38763 310.09375 398.66888 310.85938Q397.96576 311.625 396.6845 311.625Q395.5595 311.625 394.84076 311.0Q394.122 310.35938 394.02826 309.25L395.04388 309.25Q395.15326 309.98438 395.57513 310.35938Q395.997 310.73438 396.6845 310.73438Q397.4345 310.73438 397.872 310.21875Q398.3095 309.70312 398.3095 308.79688Q398.3095 307.9375 397.84076 307.42188Q397.372 306.90625 396.59076 306.90625Q395.88763 306.90625 395.48138 307.20312L395.20013 307.4375L394.32513 307.21875Z" fill-rule="nonzero"/><path fill="#ffffff" d="M390.38763 311.5L389.3095 311.5L389.3095 304.28125L387.122 305.07812L387.122 304.09375L390.23138 302.92188L390.38763 302.92188L390.38763 311.5ZM394.32513 307.21875L394.76263 302.96875L399.13763 302.96875L399.13763 303.96875L395.6845 303.96875L395.41888 306.29688Q396.0595 305.92188 396.85638 305.92188Q398.01263 305.92188 398.70013 306.70312Q399.38763 307.46875 399.38763 308.78125Q399.38763 310.09375 398.66888 310.85938Q397.96576 311.625 396.6845 311.625Q395.5595 311.625 394.84076 311.0Q394.122 310.35938 394.02826 309.25L395.04388 309.25Q395.15326 309.98438 395.57513 310.35938Q395.997 310.73438 396.6845 310.73438Q397.4345 310.73438 397.872 310.21875Q398.3095 309.70312 398.3095 308.79688Q398.3095 307.9375 397.84076 307.42188Q397.372 306.90625 396.59076 306.90625Q395.88763 306.90625 395.48138 307.20312L395.20013 307.4375L394.32513 307.21875Z" fill-rule="nonzero"/><path fill="#000000" d="M69.6925 49.597023L69.6925 49.925148L64.58312 49.925148L64.58312 49.597023L65.005 49.597023Q65.73937 49.597023 66.0675 49.175148Q66.28625 48.893898 66.28625 47.815773L66.28625 40.112648Q66.28625 39.206398 66.17687 38.925148Q66.08312 38.706398 65.80187 38.550148Q65.42687 38.331398 65.005 38.331398L64.58312 38.331398L64.58312 38.003273L69.6925 38.003273L69.6925 38.331398L69.255 38.331398Q68.52062 38.331398 68.1925 38.768898Q67.97375 39.050148 67.97375 40.112648L67.97375 47.815773Q67.97375 48.722023 68.08312 49.003273Q68.17687 49.237648 68.45812 49.393898Q68.83312 49.597023 69.255 49.597023L69.6925 49.597023ZM73.03625 43.347023Q74.45812 41.643898 75.73937 41.643898Q76.39562 41.643898 76.86437 41.972023Q77.34875 42.300148 77.63 43.050148Q77.8175 43.581398 77.8175 44.675148L77.8175 48.112648Q77.8175 48.862648 77.9425 49.143898Q78.03625 49.362648 78.255 49.487648Q78.47375 49.612648 79.05187 49.612648L79.05187 49.925148L75.0675 49.925148L75.0675 49.612648L75.23937 49.612648Q75.80187 49.612648 76.02062 49.440773Q76.255 49.268898 76.33312 48.925148Q76.36437 48.800148 76.36437 48.112648L76.36437 44.815773Q76.36437 43.706398 76.08312 43.222023Q75.80187 42.722023 75.13 42.722023Q74.08312 42.722023 73.03625 43.862648L73.03625 48.112648Q73.03625 48.925148 73.13 49.112648Q73.255 49.378273 73.47375 49.503273Q73.6925 49.612648 74.34875 49.612648L74.34875 49.925148L70.36437 49.925148L70.36437 49.612648L70.53625 49.612648Q71.16125 49.612648 71.36437 49.300148Q71.58312 48.987648 71.58312 48.112648L71.58312 45.112648Q71.58312 43.659523 71.52062 43.347023Q71.45812 43.034523 71.3175 42.925148Q71.1925 42.800148 70.95812 42.800148Q70.70812 42.800148 70.36437 42.940773L70.23937 42.628273L72.66125 41.643898L73.03625 41.643898L73.03625 43.347023ZM82.83312 42.503273L82.83312 47.800148Q82.83312 48.925148 83.08312 49.222023Q83.41125 49.612648 83.95812 49.612648L84.6925 49.612648L84.6925 49.925148L79.88 49.925148L79.88 49.612648L80.23937 49.612648Q80.58312 49.612648 80.88 49.440773Q81.17687 49.253273 81.28625 48.956398Q81.39562 48.659523 81.39562 47.800148L81.39562 42.503273L79.8175 42.503273L79.8175 41.878273L81.39562 41.878273L81.39562 41.347023Q81.39562 40.143898 81.77062 39.315773Q82.16125 38.472023 82.95812 37.956398Q83.755 37.440773 84.73937 37.440773Q85.67687 37.440773 86.4425 38.034523Q86.95812 38.440773 86.95812 38.925148Q86.95812 39.190773 86.72375 39.425148Q86.48937 39.659523 86.23937 39.659523Q86.03625 39.659523 85.80187 39.518898Q85.58312 39.362648 85.255 38.893898Q84.92687 38.409523 84.66125 38.237648Q84.38 38.081398 84.05187 38.081398Q83.64562 38.081398 83.36437 38.300148Q83.08312 38.503273 82.95812 38.956398Q82.83312 39.409523 82.83312 41.300148L82.83312 41.878273L84.91125 41.878273L84.91125 42.503273L82.83312 42.503273ZM87.05187 44.909523Q87.03625 46.706398 87.91125 47.722023Q88.80187 48.737648 89.98937 48.737648Q90.77062 48.737648 91.34875 48.300148Q91.9425 47.862648 92.33312 46.815773L92.61437 46.987648Q92.42687 48.190773 91.53625 49.190773Q90.64562 50.175148 89.3175 50.175148Q87.86437 50.175148 86.83312 49.050148Q85.80187 47.909523 85.80187 46.003273Q85.80187 43.940773 86.84875 42.784523Q87.91125 41.628273 89.52062 41.628273Q90.86437 41.628273 91.73937 42.518898Q92.61437 43.409523 92.61437 44.909523L87.05187 44.909523ZM87.05187 44.393898L90.77062 44.393898Q90.72375 43.628273 90.58312 43.300148Q90.36437 42.815773 89.92687 42.534523Q89.505 42.253273 89.02062 42.253273Q88.30187 42.253273 87.72375 42.815773Q87.14562 43.378273 87.05187 44.393898ZM96.05187 41.643898L96.05187 43.440773Q97.05187 41.643898 98.13 41.643898Q98.59875 41.643898 98.91125 41.940773Q99.23937 42.222023 99.23937 42.612648Q99.23937 42.956398 99.005 43.190773Q98.78625 43.425148 98.45812 43.425148Q98.16125 43.425148 97.77062 43.128273Q97.39562 42.815773 97.20812 42.815773Q97.05187 42.815773 96.86437 43.003273Q96.47375 43.362648 96.05187 44.190773L96.05187 48.050148Q96.05187 48.706398 96.20812 49.050148Q96.33312 49.284523 96.61437 49.456398Q96.91125 49.612648 97.45812 49.612648L97.45812 49.925148L93.33312 49.925148L93.33312 49.612648Q93.9425 49.612648 94.23937 49.409523Q94.47375 49.268898 94.55187 48.972023Q94.59875 48.815773 94.59875 48.112648L94.59875 44.987648Q94.59875 43.581398 94.53625 43.315773Q94.48937 43.050148 94.33312 42.925148Q94.17687 42.800148 93.9425 42.800148Q93.67687 42.800148 93.33312 42.940773L93.23937 42.628273L95.67687 41.643898L96.05187 41.643898ZM101.73937 37.425148Q102.11437 37.425148 102.36437 37.690773Q102.63 37.940773 102.63 38.315773Q102.63 38.690773 102.36437 38.956398Q102.11437 39.206398 101.73937 39.206398Q101.36437 39.206398 101.09875 38.956398Q100.84875 38.690773 100.84875 38.315773Q100.84875 37.940773 101.09875 37.690773Q101.36437 37.425148 101.73937 37.425148ZM102.47375 41.643898L102.47375 48.112648Q102.47375 48.862648 102.58312 49.112648Q102.6925 49.362648 102.89562 49.487648Q103.11437 49.612648 103.6925 49.612648L103.6925 49.925148L99.78625 49.925148L99.78625 49.612648Q100.36437 49.612648 100.5675 49.503273Q100.77062 49.378273 100.88 49.112648Q101.005 48.847023 101.005 48.112648L101.005 45.003273Q101.005 43.690773 100.92687 43.300148Q100.86437 43.018898 100.73937 42.909523Q100.61437 42.800148 100.38 42.800148Q100.13 42.800148 99.78625 42.940773L99.66125 42.628273L102.08312 41.643898L102.47375 41.643898ZM107.63 41.643898Q109.45812 41.643898 110.5675 43.018898Q111.505 44.206398 111.505 45.753273Q111.505 46.831398 110.98937 47.940773Q110.47375 49.050148 109.55187 49.612648Q108.64562 50.175148 107.53625 50.175148Q105.70812 50.175148 104.64562 48.722023Q103.73937 47.503273 103.73937 45.972023Q103.73937 44.878273 104.28625 43.784523Q104.83312 42.675148 105.72375 42.159523Q106.63 41.643898 107.63 41.643898ZM107.36437 42.206398Q106.89562 42.206398 106.42687 42.487648Q105.95812 42.768898 105.66125 43.456398Q105.36437 44.143898 105.36437 45.237648Q105.36437 47.003273 106.0675 48.284523Q106.77062 49.550148 107.91125 49.550148Q108.77062 49.550148 109.3175 48.847023Q109.86437 48.143898 109.86437 46.425148Q109.86437 44.284523 108.9425 43.050148Q108.3175 42.206398 107.36437 42.206398ZM115.05187 41.643898L115.05187 43.440773Q116.05187 41.643898 117.13 41.643898Q117.59875 41.643898 117.91125 41.940773Q118.23937 42.222023 118.23937 42.612648Q118.23937 42.956398 118.005 43.190773Q117.78625 43.425148 117.45812 43.425148Q117.16125 43.425148 116.77062 43.128273Q116.39562 42.815773 116.20812 42.815773Q116.05187 42.815773 115.86437 43.003273Q115.47375 43.362648 115.05187 44.190773L115.05187 48.050148Q115.05187 48.706398 115.20812 49.050148Q115.33312 49.284523 115.61437 49.456398Q115.91125 49.612648 116.45812 49.612648L116.45812 49.925148L112.33312 49.925148L112.33312 49.612648Q112.9425 49.612648 113.23937 49.409523Q113.47375 49.268898 113.55187 48.972023Q113.59875 48.815773 113.59875 48.112648L113.59875 44.987648Q113.59875 43.581398 113.53625 43.315773Q113.48937 43.050148 113.33312 42.925148Q113.17687 42.800148 112.9425 42.800148Q112.67687 42.800148 112.33312 42.940773L112.23937 42.628273L114.67687 41.643898L115.05187 41.643898ZM128.255 48.768898Q127.02062 49.722023 126.6925 49.878273Q126.22375 50.097023 125.6925 50.097023Q124.84875 50.097023 124.30187 49.534523Q123.77062 48.956398 123.77062 48.018898Q123.77062 47.425148 124.03625 47.003273Q124.39562 46.393898 125.28625 45.878273Q126.17687 45.347023 128.255 44.597023L128.255 44.268898Q128.255 43.065773 127.86437 42.628273Q127.48937 42.175148 126.755 42.175148Q126.20812 42.175148 125.88 42.472023Q125.55187 42.768898 125.55187 43.159523L125.5675 43.659523Q125.5675 44.065773 125.34875 44.284523Q125.14562 44.503273 124.8175 44.503273Q124.48937 44.503273 124.28625 44.284523Q124.08312 44.050148 124.08312 43.659523Q124.08312 42.909523 124.84875 42.284523Q125.63 41.643898 127.02062 41.643898Q128.09875 41.643898 128.78625 42.003273Q129.30188 42.268898 129.55188 42.847023Q129.70813 43.222023 129.70813 44.393898L129.70813 47.128273Q129.70813 48.284523 129.73938 48.550148Q129.78625 48.800148 129.88 48.893898Q129.98938 48.972023 130.13 48.972023Q130.27063 48.972023 130.38 48.909523Q130.55188 48.800148 131.08313 48.268898L131.08313 48.768898Q130.09875 50.081398 129.20813 50.081398Q128.77063 50.081398 128.52063 49.784523Q128.27063 49.487648 128.255 48.768898ZM128.255 48.190773L128.255 45.128273Q126.92687 45.659523 126.53625 45.878273Q125.84875 46.253273 125.55187 46.675148Q125.255 47.097023 125.255 47.597023Q125.255 48.237648 125.63 48.659523Q126.005 49.065773 126.48937 49.065773Q127.16125 49.065773 128.255 48.190773Z" fill-rule="nonzero"/><path fill="#000000" d="M51.239376 76.76797L54.145626 75.34609L54.426876 75.34609L54.426876 85.42422Q54.426876 86.42422 54.505 86.67422Q54.59875 86.90859 54.864376 87.04922Q55.13 87.17422 55.926876 87.18984L55.926876 87.51797L51.458126 87.51797L51.458126 87.18984Q52.301876 87.17422 52.53625 87.04922Q52.78625 86.92422 52.88 86.70547Q52.97375 86.48672 52.97375 85.42422L52.97375 78.98672Q52.97375 77.68984 52.895626 77.31484Q52.833126 77.03359 52.66125 76.90859Q52.505 76.76797 52.270626 76.76797Q51.958126 76.76797 51.364376 77.03359L51.239376 76.76797ZM58.78625 81.62734Q58.78625 79.59609 59.395626 78.12734Q60.005 76.64297 61.03625 75.92422Q61.8175 75.34609 62.66125 75.34609Q64.036255 75.34609 65.130005 76.75234Q66.48938 78.48672 66.48938 81.43984Q66.48938 83.51797 65.880005 84.97109Q65.286255 86.42422 64.36438 87.08047Q63.4425 87.73672 62.583126 87.73672Q60.88 87.73672 59.739376 85.72109Q58.78625 84.01797 58.78625 81.62734ZM60.505 81.84609Q60.505 84.31484 61.114376 85.86172Q61.614376 87.17422 62.59875 87.17422Q63.083126 87.17422 63.583126 86.75234Q64.098755 86.31484 64.36438 85.31484Q64.77063 83.81484 64.77063 81.06484Q64.77063 79.01797 64.348755 77.65859Q64.02063 76.64297 63.520626 76.22109Q63.16125 75.93984 62.66125 75.93984Q62.051876 75.93984 61.59875 76.47109Q60.958126 77.20547 60.72375 78.76797Q60.505 80.33047 60.505 81.84609ZM77.255005 86.36172Q76.02063 87.31484 75.692505 87.47109Q75.223755 87.68984 74.692505 87.68984Q73.848755 87.68984 73.30188 87.12734Q72.77063 86.54922 72.77063 85.61172Q72.77063 85.01797 73.036255 84.59609Q73.39563 83.98672 74.286255 83.47109Q75.17688 82.93984 77.255005 82.18984L77.255005 81.86172Q77.255005 80.65859 76.86438 80.22109Q76.48938 79.76797 75.755005 79.76797Q75.20813 79.76797 74.880005 80.06484Q74.55188 80.36172 74.55188 80.75234L74.567505 81.25234Q74.567505 81.65859 74.348755 81.87734Q74.14563 82.09609 73.817505 82.09609Q73.48938 82.09609 73.286255 81.87734Q73.08313 81.64297 73.08313 81.25234Q73.08313 80.50234 73.848755 79.87734Q74.630005 79.23672 76.02063 79.23672Q77.098755 79.23672 77.786255 79.59609Q78.30188 79.86172 78.55188 80.43984Q78.70813 80.81484 78.70813 81.98672L78.70813 84.72109Q78.70813 85.87734 78.73938 86.14297Q78.786255 86.39297 78.880005 86.48672Q78.98938 86.56484 79.130005 86.56484Q79.27063 86.56484 79.380005 86.50234Q79.55188 86.39297 80.08313 85.86172L80.08313 86.36172Q79.098755 87.67422 78.20813 87.67422Q77.77063 87.67422 77.52063 87.37734Q77.27063 87.08047 77.255005 86.36172ZM77.255005 85.78359L77.255005 82.72109Q75.92688 83.25234 75.536255 83.47109Q74.848755 83.84609 74.55188 84.26797Q74.255005 84.68984 74.255005 85.18984Q74.255005 85.83047 74.630005 86.25234Q75.005005 86.65859 75.48938 86.65859Q76.161255 86.65859 77.255005 85.78359ZM86.05188 77.86172Q86.55188 76.65859 87.33313 76.00234Q88.11438 75.34609 89.27063 75.34609Q90.70813 75.34609 91.473755 76.28359Q92.05188 76.98672 92.05188 77.76797Q92.05188 79.06484 90.411255 80.45547Q91.505005 80.89297 92.067505 81.68984Q92.630005 82.48672 92.630005 83.56484Q92.630005 85.11172 91.64563 86.25234Q90.36438 87.73672 87.92688 87.73672Q86.723755 87.73672 86.286255 87.43984Q85.86438 87.12734 85.86438 86.78359Q85.86438 86.53359 86.067505 86.34609Q86.27063 86.14297 86.567505 86.14297Q86.786255 86.14297 87.005005 86.22109Q87.161255 86.26797 87.67688 86.54922Q88.20813 86.81484 88.411255 86.86172Q88.73938 86.97109 89.11438 86.97109Q90.005005 86.97109 90.661255 86.28359Q91.33313 85.58047 91.33313 84.62734Q91.33313 83.92422 91.02063 83.26797Q90.80188 82.78359 90.52063 82.51797Q90.14563 82.17422 89.48938 81.89297Q88.83313 81.59609 88.14563 81.59609L87.86438 81.59609L87.86438 81.34609Q88.55188 81.25234 89.255005 80.84609Q89.95813 80.42422 90.27063 79.84609Q90.58313 79.26797 90.58313 78.56484Q90.58313 77.65859 90.02063 77.11172Q89.45813 76.54922 88.61438 76.54922Q87.255005 76.54922 86.33313 78.00234L86.05188 77.86172ZM94.786255 81.62734Q94.786255 79.59609 95.39563 78.12734Q96.005005 76.64297 97.036255 75.92422Q97.817505 75.34609 98.661255 75.34609Q100.036255 75.34609 101.130005 76.75234Q102.48938 78.48672 102.48938 81.43984Q102.48938 83.51797 101.880005 84.97109Q101.286255 86.42422 100.36438 87.08047Q99.442505 87.73672 98.58313 87.73672Q96.880005 87.73672 95.73938 85.72109Q94.786255 84.01797 94.786255 81.62734ZM96.505005 81.84609Q96.505005 84.31484 97.11438 85.86172Q97.61438 87.17422 98.598755 87.17422Q99.08313 87.17422 99.58313 86.75234Q100.098755 86.31484 100.36438 85.31484Q100.77063 83.81484 100.77063 81.06484Q100.77063 79.01797 100.348755 77.65859Q100.02063 76.64297 99.52063 76.22109Q99.161255 75.93984 98.661255 75.93984Q98.05188 75.93984 97.598755 76.47109Q96.95813 77.20547 96.723755 78.76797Q96.505005 80.33047 96.505005 81.84609ZM106.08313 80.93984Q106.95813 80.06484 107.11438 79.93984Q107.52063 79.59609 107.973755 79.42422Q108.42688 79.23672 108.880005 79.23672Q109.630005 79.23672 110.17688 79.67422Q110.723755 80.11172 110.911255 80.93984Q111.817505 79.89297 112.442505 79.56484Q113.067505 79.23672 113.723755 79.23672Q114.36438 79.23672 114.848755 79.56484Q115.348755 79.89297 115.64563 80.64297Q115.83313 81.14297 115.83313 82.23672L115.83313 85.70547Q115.83313 86.45547 115.95813 86.73672Q116.036255 86.92422 116.27063 87.06484Q116.52063 87.20547 117.05188 87.20547L117.05188 87.51797L113.08313 87.51797L113.08313 87.20547L113.23938 87.20547Q113.77063 87.20547 114.05188 87.00234Q114.255005 86.86172 114.348755 86.54922Q114.380005 86.40859 114.380005 85.70547L114.380005 82.23672Q114.380005 81.25234 114.14563 80.84609Q113.80188 80.28359 113.05188 80.28359Q112.58313 80.28359 112.11438 80.51797Q111.64563 80.75234 110.973755 81.37734L110.95813 81.48672L110.973755 81.86172L110.973755 85.70547Q110.973755 86.51797 111.067505 86.72109Q111.161255 86.92422 111.411255 87.06484Q111.661255 87.20547 112.286255 87.20547L112.286255 87.51797L108.20813 87.51797L108.20813 87.20547Q108.880005 87.20547 109.130005 87.04922Q109.380005 86.87734 109.473755 86.56484Q109.52063 86.42422 109.52063 85.70547L109.52063 82.23672Q109.52063 81.25234 109.223755 80.81484Q108.848755 80.25234 108.14563 80.25234Q107.67688 80.25234 107.20813 80.51797Q106.473755 80.89297 106.08313 81.37734L106.08313 85.70547Q106.08313 86.48672 106.192505 86.73672Q106.30188 86.97109 106.52063 87.09609Q106.73938 87.20547 107.39563 87.20547L107.39563 87.51797L103.411255 87.51797L103.411255 87.20547Q103.95813 87.20547 104.17688 87.09609Q104.411255 86.97109 104.52063 86.70547Q104.630005 86.43984 104.630005 85.70547L104.630005 82.62734Q104.630005 81.29922 104.55188 80.90859Q104.48938 80.61172 104.348755 80.50234Q104.223755 80.39297 104.005005 80.39297Q103.755005 80.39297 103.411255 80.53359L103.286255 80.22109L105.70813 79.23672L106.08313 79.23672L106.08313 80.93984ZM120.08313 80.93984Q120.95813 80.06484 121.11438 79.93984Q121.52063 79.59609 121.973755 79.42422Q122.42688 79.23672 122.880005 79.23672Q123.630005 79.23672 124.17688 79.67422Q124.723755 80.11172 124.911255 80.93984Q125.817505 79.89297 126.442505 79.56484Q127.067505 79.23672 127.723755 79.23672Q128.36438 79.23672 128.84875 79.56484Q129.34875 79.89297 129.64563 80.64297Q129.83313 81.14297 129.83313 82.23672L129.83313 85.70547Q129.83313 86.45547 129.95813 86.73672Q130.03625 86.92422 130.27063 87.06484Q130.52063 87.20547 131.05188 87.20547L131.05188 87.51797L127.08313 87.51797L127.08313 87.20547L127.23938 87.20547Q127.77063 87.20547 128.05188 87.00234Q128.255 86.86172 128.34875 86.54922Q128.38 86.40859 128.38 85.70547L128.38 82.23672Q128.38 81.25234 128.14563 80.84609Q127.80188 80.28359 127.05188 80.28359Q126.58313 80.28359 126.11438 80.51797Q125.64563 80.75234 124.973755 81.37734L124.95813 81.48672L124.973755 81.86172L124.973755 85.70547Q124.973755 86.51797 125.067505 86.72109Q125.161255 86.92422 125.411255 87.06484Q125.661255 87.20547 126.286255 87.20547L126.286255 87.51797L122.20813 87.51797L122.20813 87.20547Q122.880005 87.20547 123.130005 87.04922Q123.380005 86.87734 123.473755 86.56484Q123.52063 86.42422 123.52063 85.70547L123.52063 82.23672Q123.52063 81.25234 123.223755 80.81484Q122.848755 80.25234 122.14563 80.25234Q121.67688 80.25234 121.20813 80.51797Q120.473755 80.89297 120.08313 81.37734L120.08313 85.70547Q120.08313 86.48672 120.192505 86.73672Q120.30188 86.97109 120.52063 87.09609Q120.73938 87.20547 121.39563 87.20547L121.39563 87.51797L117.411255 87.51797L117.411255 87.20547Q117.95813 87.20547 118.17688 87.09609Q118.411255 86.97109 118.52063 86.70547Q118.630005 86.43984 118.630005 85.70547L118.630005 82.62734Q118.630005 81.29922 118.55188 80.90859Q118.48938 80.61172 118.348755 80.50234Q118.223755 80.39297 118.005005 80.39297Q117.755005 80.39297 117.411255 80.53359L117.286255 80.22109L119.70813 79.23672L120.08313 79.23672L120.08313 80.93984Z" fill-rule="nonzero"/><path fill="#000000" d="M50.051876 115.45453Q50.551876 114.2514 51.333126 113.59515Q52.114376 112.9389 53.270626 112.9389Q54.708126 112.9389 55.47375 113.8764Q56.051876 114.57953 56.051876 115.36078Q56.051876 116.65765 54.41125 118.04828Q55.505 118.48578 56.0675 119.28265Q56.63 120.07953 56.63 121.15765Q56.63 122.70453 55.645626 123.84515Q54.364376 125.32953 51.926876 125.32953Q50.72375 125.32953 50.28625 125.03265Q49.864376 124.72015 49.864376 124.3764Q49.864376 124.1264 50.0675 123.9389Q50.270626 123.73578 50.5675 123.73578Q50.78625 123.73578 51.005 123.8139Q51.16125 123.86078 51.676876 124.14203Q52.208126 124.40765 52.41125 124.45453Q52.739376 124.5639 53.114376 124.5639Q54.005 124.5639 54.66125 123.8764Q55.333126 123.17328 55.333126 122.22015Q55.333126 121.51703 55.020626 120.86078Q54.801876 120.3764 54.520626 120.11078Q54.145626 119.76703 53.489376 119.48578Q52.833126 119.1889 52.145626 119.1889L51.864376 119.1889L51.864376 118.9389Q52.551876 118.84515 53.255 118.4389Q53.958126 118.01703 54.270626 117.4389Q54.583126 116.86078 54.583126 116.15765Q54.583126 115.2514 54.020626 114.70453Q53.458126 114.14203 52.614376 114.14203Q51.255 114.14203 50.333126 115.59515L50.051876 115.45453ZM58.78625 119.22015Q58.78625 117.1889 59.395626 115.72015Q60.005 114.23578 61.03625 113.51703Q61.8175 112.9389 62.66125 112.9389Q64.036255 112.9389 65.130005 114.34515Q66.48938 116.07953 66.48938 119.03265Q66.48938 121.11078 65.880005 122.5639Q65.286255 124.01703 64.36438 124.67328Q63.4425 125.32953 62.583126 125.32953Q60.88 125.32953 59.739376 123.3139Q58.78625 121.61078 58.78625 119.22015ZM60.505 119.4389Q60.505 121.90765 61.114376 123.45453Q61.614376 124.76703 62.59875 124.76703Q63.083126 124.76703 63.583126 124.34515Q64.098755 123.90765 64.36438 122.90765Q64.77063 121.40765 64.77063 118.65765Q64.77063 116.61078 64.348755 115.2514Q64.02063 114.23578 63.520626 113.8139Q63.16125 113.53265 62.66125 113.53265Q62.051876 113.53265 61.59875 114.0639Q60.958126 114.79828 60.72375 116.36078Q60.505 117.92328 60.505 119.4389ZM77.255005 123.95453Q76.02063 124.90765 75.692505 125.0639Q75.223755 125.28265 74.692505 125.28265Q73.848755 125.28265 73.30188 124.72015Q72.77063 124.14203 72.77063 123.20453Q72.77063 122.61078 73.036255 122.1889Q73.39563 121.57953 74.286255 121.0639Q75.17688 120.53265 77.255005 119.78265L77.255005 119.45453Q77.255005 118.2514 76.86438 117.8139Q76.48938 117.36078 75.755005 117.36078Q75.20813 117.36078 74.880005 117.65765Q74.55188 117.95453 74.55188 118.34515L74.567505 118.84515Q74.567505 119.2514 74.348755 119.47015Q74.14563 119.6889 73.817505 119.6889Q73.48938 119.6889 73.286255 119.47015Q73.08313 119.23578 73.08313 118.84515Q73.08313 118.09515 73.848755 117.47015Q74.630005 116.82953 76.02063 116.82953Q77.098755 116.82953 77.786255 117.1889Q78.30188 117.45453 78.55188 118.03265Q78.70813 118.40765 78.70813 119.57953L78.70813 122.3139Q78.70813 123.47015 78.73938 123.73578Q78.786255 123.98578 78.880005 124.07953Q78.98938 124.15765 79.130005 124.15765Q79.27063 124.15765 79.380005 124.09515Q79.55188 123.98578 80.08313 123.45453L80.08313 123.95453Q79.098755 125.26703 78.20813 125.26703Q77.77063 125.26703 77.52063 124.97015Q77.27063 124.67328 77.255005 123.95453ZM77.255005 123.3764L77.255005 120.3139Q75.92688 120.84515 75.536255 121.0639Q74.848755 121.4389 74.55188 121.86078Q74.255005 122.28265 74.255005 122.78265Q74.255005 123.42328 74.630005 123.84515Q75.005005 124.2514 75.48938 124.2514Q76.161255 124.2514 77.255005 123.3764ZM93.192505 112.9389L93.192505 113.26703Q92.036255 113.39203 91.30188 113.73578Q90.567505 114.07953 89.848755 114.79828Q89.14563 115.5014 88.661255 116.3764Q88.192505 117.2514 87.880005 118.45453Q89.14563 117.57953 90.42688 117.57953Q91.64563 117.57953 92.536255 118.5639Q93.442505 119.54828 93.442505 121.09515Q93.442505 122.59515 92.536255 123.82953Q91.442505 125.32953 89.64563 125.32953Q88.42688 125.32953 87.567505 124.51703Q85.911255 122.9389 85.911255 120.4389Q85.911255 118.82953 86.55188 117.39203Q87.192505 115.95453 88.380005 114.84515Q89.567505 113.72015 90.661255 113.32953Q91.755005 112.9389 92.692505 112.9389L93.192505 112.9389ZM87.73938 119.09515Q87.567505 120.28265 87.567505 121.01703Q87.567505 121.86078 87.880005 122.84515Q88.192505 123.82953 88.817505 124.42328Q89.255005 124.82953 89.89563 124.82953Q90.661255 124.82953 91.255005 124.11078Q91.86438 123.39203 91.86438 122.04828Q91.86438 120.54828 91.27063 119.45453Q90.67688 118.34515 89.58313 118.34515Q89.23938 118.34515 88.848755 118.48578Q88.473755 118.6264 87.73938 119.09515ZM94.786255 119.22015Q94.786255 117.1889 95.39563 115.72015Q96.005005 114.23578 97.036255 113.51703Q97.817505 112.9389 98.661255 112.9389Q100.036255 112.9389 101.130005 114.34515Q102.48938 116.07953 102.48938 119.03265Q102.48938 121.11078 101.880005 122.5639Q101.286255 124.01703 100.36438 124.67328Q99.442505 125.32953 98.58313 125.32953Q96.880005 125.32953 95.73938 123.3139Q94.786255 121.61078 94.786255 119.22015ZM96.505005 119.4389Q96.505005 121.90765 97.11438 123.45453Q97.61438 124.76703 98.598755 124.76703Q99.08313 124.76703 99.58313 124.34515Q100.098755 123.90765 100.36438 122.90765Q100.77063 121.40765 100.77063 118.65765Q100.77063 116.61078 100.348755 115.2514Q100.02063 114.23578 99.52063 113.8139Q99.161255 113.53265 98.661255 113.53265Q98.05188 113.53265 97.598755 114.0639Q96.95813 114.79828 96.723755 116.36078Q96.505005 117.92328 96.505005 119.4389ZM106.08313 118.53265Q106.95813 117.65765 107.11438 117.53265Q107.52063 117.1889 107.973755 117.01703Q108.42688 116.82953 108.880005 116.82953Q109.630005 116.82953 110.17688 117.26703Q110.723755 117.70453 110.911255 118.53265Q111.817505 117.48578 112.442505 117.15765Q113.067505 116.82953 113.723755 116.82953Q114.36438 116.82953 114.848755 117.15765Q115.348755 117.48578 115.64563 118.23578Q115.83313 118.73578 115.83313 119.82953L115.83313 123.29828Q115.83313 124.04828 115.95813 124.32953Q116.036255 124.51703 116.27063 124.65765Q116.52063 124.79828 117.05188 124.79828L117.05188 125.11078L113.08313 125.11078L113.08313 124.79828L113.23938 124.79828Q113.77063 124.79828 114.05188 124.59515Q114.255005 124.45453 114.348755 124.14203Q114.380005 124.0014 114.380005 123.29828L114.380005 119.82953Q114.380005 118.84515 114.14563 118.4389Q113.80188 117.8764 113.05188 117.8764Q112.58313 117.8764 112.11438 118.11078Q111.64563 118.34515 110.973755 118.97015L110.95813 119.07953L110.973755 119.45453L110.973755 123.29828Q110.973755 124.11078 111.067505 124.3139Q111.161255 124.51703 111.411255 124.65765Q111.661255 124.79828 112.286255 124.79828L112.286255 125.11078L108.20813 125.11078L108.20813 124.79828Q108.880005 124.79828 109.130005 124.64203Q109.380005 124.47015 109.473755 124.15765Q109.52063 124.01703 109.52063 123.29828L109.52063 119.82953Q109.52063 118.84515 109.223755 118.40765Q108.848755 117.84515 108.14563 117.84515Q107.67688 117.84515 107.20813 118.11078Q106.473755 118.48578 106.08313 118.97015L106.08313 123.29828Q106.08313 124.07953 106.192505 124.32953Q106.30188 124.5639 106.52063 124.6889Q106.73938 124.79828 107.39563 124.79828L107.39563 125.11078L103.411255 125.11078L103.411255 124.79828Q103.95813 124.79828 104.17688 124.6889Q104.411255 124.5639 104.52063 124.29828Q104.630005 124.03265 104.630005 123.29828L104.630005 120.22015Q104.630005 118.89203 104.55188 118.5014Q104.48938 118.20453 104.348755 118.09515Q104.223755 117.98578 104.005005 117.98578Q103.755005 117.98578 103.411255 118.1264L103.286255 117.8139L105.70813 116.82953L106.08313 116.82953L106.08313 118.53265ZM120.08313 118.53265Q120.95813 117.65765 121.11438 117.53265Q121.52063 117.1889 121.973755 117.01703Q122.42688 116.82953 122.880005 116.82953Q123.630005 116.82953 124.17688 117.26703Q124.723755 117.70453 124.911255 118.53265Q125.817505 117.48578 126.442505 117.15765Q127.067505 116.82953 127.723755 116.82953Q128.36438 116.82953 128.84875 117.15765Q129.34875 117.48578 129.64563 118.23578Q129.83313 118.73578 129.83313 119.82953L129.83313 123.29828Q129.83313 124.04828 129.95813 124.32953Q130.03625 124.51703 130.27063 124.65765Q130.52063 124.79828 131.05188 124.79828L131.05188 125.11078L127.08313 125.11078L127.08313 124.79828L127.23938 124.79828Q127.77063 124.79828 128.05188 124.59515Q128.255 124.45453 128.34875 124.14203Q128.38 124.0014 128.38 123.29828L128.38 119.82953Q128.38 118.84515 128.14563 118.4389Q127.80188 117.8764 127.05188 117.8764Q126.58313 117.8764 126.11438 118.11078Q125.64563 118.34515 124.973755 118.97015L124.95813 119.07953L124.973755 119.45453L124.973755 123.29828Q124.973755 124.11078 125.067505 124.3139Q125.161255 124.51703 125.411255 124.65765Q125.661255 124.79828 126.286255 124.79828L126.286255 125.11078L122.20813 125.11078L122.20813 124.79828Q122.880005 124.79828 123.130005 124.64203Q123.380005 124.47015 123.473755 124.15765Q123.52063 124.01703 123.52063 123.29828L123.52063 119.82953Q123.52063 118.84515 123.223755 118.40765Q122.848755 117.84515 122.14563 117.84515Q121.67688 117.84515 121.20813 118.11078Q120.473755 118.48578 120.08313 118.97015L120.08313 123.29828Q120.08313 124.07953 120.192505 124.32953Q120.30188 124.5639 120.52063 124.6889Q120.73938 124.79828 121.39563 124.79828L121.39563 125.11078L117.411255 125.11078L117.411255 124.79828Q117.95813 124.79828 118.17688 124.6889Q118.411255 124.5639 118.52063 124.29828Q118.630005 124.03265 118.630005 123.29828L118.630005 120.22015Q118.630005 118.89203 118.55188 118.5014Q118.48938 118.20453 118.348755 118.09515Q118.223755 117.98578 118.005005 117.98578Q117.755005 117.98578 117.411255 118.1264L117.286255 117.8139L119.70813 116.82953L120.08313 116.82953L120.08313 118.53265Z" fill-rule="nonzero"/><path fill="#000000" d="M50.9425 150.78172L57.333126 150.78172L57.333126 151.12547L53.364376 162.9536L52.38 162.9536L55.926876 152.21922L52.66125 152.21922Q51.66125 152.21922 51.239376 152.4536Q50.505 152.85985 50.051876 153.7036L49.801876 153.60985L50.9425 150.78172ZM58.78625 156.81297Q58.78625 154.78172 59.395626 153.31297Q60.005 151.8286 61.03625 151.10985Q61.8175 150.53172 62.66125 150.53172Q64.036255 150.53172 65.130005 151.93797Q66.48938 153.67235 66.48938 156.62547Q66.48938 158.7036 65.880005 160.15672Q65.286255 161.60985 64.36438 162.2661Q63.4425 162.92235 62.583126 162.92235Q60.88 162.92235 59.739376 160.90672Q58.78625 159.2036 58.78625 156.81297ZM60.505 157.03172Q60.505 159.50047 61.114376 161.04735Q61.614376 162.35985 62.59875 162.35985Q63.083126 162.35985 63.583126 161.93797Q64.098755 161.50047 64.36438 160.50047Q64.77063 159.00047 64.77063 156.25047Q64.77063 154.2036 64.348755 152.84422Q64.02063 151.8286 63.520626 151.40672Q63.16125 151.12547 62.66125 151.12547Q62.051876 151.12547 61.59875 151.65672Q60.958126 152.3911 60.72375 153.9536Q60.505 155.5161 60.505 157.03172ZM77.255005 161.54735Q76.02063 162.50047 75.692505 162.65672Q75.223755 162.87547 74.692505 162.87547Q73.848755 162.87547 73.30188 162.31297Q72.77063 161.73485 72.77063 160.79735Q72.77063 160.2036 73.036255 159.78172Q73.39563 159.17235 74.286255 158.65672Q75.17688 158.12547 77.255005 157.37547L77.255005 157.04735Q77.255005 155.84422 76.86438 155.40672Q76.48938 154.9536 75.755005 154.9536Q75.20813 154.9536 74.880005 155.25047Q74.55188 155.54735 74.55188 155.93797L74.567505 156.43797Q74.567505 156.84422 74.348755 157.06297Q74.14563 157.28172 73.817505 157.28172Q73.48938 157.28172 73.286255 157.06297Q73.08313 156.8286 73.08313 156.43797Q73.08313 155.68797 73.848755 155.06297Q74.630005 154.42235 76.02063 154.42235Q77.098755 154.42235 77.786255 154.78172Q78.30188 155.04735 78.55188 155.62547Q78.70813 156.00047 78.70813 157.17235L78.70813 159.90672Q78.70813 161.06297 78.73938 161.3286Q78.786255 161.5786 78.880005 161.67235Q78.98938 161.75047 79.130005 161.75047Q79.27063 161.75047 79.380005 161.68797Q79.55188 161.5786 80.08313 161.04735L80.08313 161.54735Q79.098755 162.85985 78.20813 162.85985Q77.77063 162.85985 77.52063 162.56297Q77.27063 162.2661 77.255005 161.54735ZM77.255005 160.96922L77.255005 157.90672Q75.92688 158.43797 75.536255 158.65672Q74.848755 159.03172 74.55188 159.4536Q74.255005 159.87547 74.255005 160.37547Q74.255005 161.0161 74.630005 161.43797Q75.005005 161.84422 75.48938 161.84422Q76.161255 161.84422 77.255005 160.96922ZM86.08313 162.9536L86.08313 162.62547Q87.223755 162.60985 88.20813 162.09422Q89.192505 161.5786 90.098755 160.29735Q91.02063 159.0161 91.39563 157.46922Q90.005005 158.35985 88.89563 158.35985Q87.630005 158.35985 86.73938 157.3911Q85.848755 156.42235 85.848755 154.81297Q85.848755 153.25047 86.73938 152.03172Q87.817505 150.53172 89.567505 150.53172Q91.02063 150.53172 92.067505 151.75047Q93.36438 153.25047 93.36438 155.4536Q93.36438 157.4536 92.380005 159.17235Q91.411255 160.8911 89.661255 162.0161Q88.255005 162.9536 86.58313 162.9536L86.08313 162.9536ZM91.536255 156.8286Q91.692505 155.68797 91.692505 155.00047Q91.692505 154.1411 91.39563 153.15672Q91.11438 152.17235 90.567505 151.6411Q90.036255 151.10985 89.36438 151.10985Q88.58313 151.10985 87.98938 151.81297Q87.411255 152.5161 87.411255 153.90672Q87.411255 155.7661 88.192505 156.81297Q88.755005 157.56297 89.598755 157.56297Q90.005005 157.56297 90.55188 157.37547Q91.11438 157.17235 91.536255 156.8286ZM94.786255 156.81297Q94.786255 154.78172 95.39563 153.31297Q96.005005 151.8286 97.036255 151.10985Q97.817505 150.53172 98.661255 150.53172Q100.036255 150.53172 101.130005 151.93797Q102.48938 153.67235 102.48938 156.62547Q102.48938 158.7036 101.880005 160.15672Q101.286255 161.60985 100.36438 162.2661Q99.442505 162.92235 98.58313 162.92235Q96.880005 162.92235 95.73938 160.90672Q94.786255 159.2036 94.786255 156.81297ZM96.505005 157.03172Q96.505005 159.50047 97.11438 161.04735Q97.61438 162.35985 98.598755 162.35985Q99.08313 162.35985 99.58313 161.93797Q100.098755 161.50047 100.36438 160.50047Q100.77063 159.00047 100.77063 156.25047Q100.77063 154.2036 100.348755 152.84422Q100.02063 151.8286 99.52063 151.40672Q99.161255 151.12547 98.661255 151.12547Q98.05188 151.12547 97.598755 151.65672Q96.95813 152.3911 96.723755 153.9536Q96.505005 155.5161 96.505005 157.03172ZM106.08313 156.12547Q106.95813 155.25047 107.11438 155.12547Q107.52063 154.78172 107.973755 154.60985Q108.42688 154.42235 108.880005 154.42235Q109.630005 154.42235 110.17688 154.85985Q110.723755 155.29735 110.911255 156.12547Q111.817505 155.0786 112.442505 154.75047Q113.067505 154.42235 113.723755 154.42235Q114.36438 154.42235 114.848755 154.75047Q115.348755 155.0786 115.64563 155.8286Q115.83313 156.3286 115.83313 157.42235L115.83313 160.8911Q115.83313 161.6411 115.95813 161.92235Q116.036255 162.10985 116.27063 162.25047Q116.52063 162.3911 117.05188 162.3911L117.05188 162.7036L113.08313 162.7036L113.08313 162.3911L113.23938 162.3911Q113.77063 162.3911 114.05188 162.18797Q114.255005 162.04735 114.348755 161.73485Q114.380005 161.59422 114.380005 160.8911L114.380005 157.42235Q114.380005 156.43797 114.14563 156.03172Q113.80188 155.46922 113.05188 155.46922Q112.58313 155.46922 112.11438 155.7036Q111.64563 155.93797 110.973755 156.56297L110.95813 156.67235L110.973755 157.04735L110.973755 160.8911Q110.973755 161.7036 111.067505 161.90672Q111.161255 162.10985 111.411255 162.25047Q111.661255 162.3911 112.286255 162.3911L112.286255 162.7036L108.20813 162.7036L108.20813 162.3911Q108.880005 162.3911 109.130005 162.23485Q109.380005 162.06297 109.473755 161.75047Q109.52063 161.60985 109.52063 160.8911L109.52063 157.42235Q109.52063 156.43797 109.223755 156.00047Q108.848755 155.43797 108.14563 155.43797Q107.67688 155.43797 107.20813 155.7036Q106.473755 156.0786 106.08313 156.56297L106.08313 160.8911Q106.08313 161.67235 106.192505 161.92235Q106.30188 162.15672 106.52063 162.28172Q106.73938 162.3911 107.39563 162.3911L107.39563 162.7036L103.411255 162.7036L103.411255 162.3911Q103.95813 162.3911 104.17688 162.28172Q104.411255 162.15672 104.52063 161.8911Q104.630005 161.62547 104.630005 160.8911L104.630005 157.81297Q104.630005 156.48485 104.55188 156.09422Q104.48938 155.79735 104.348755 155.68797Q104.223755 155.5786 104.005005 155.5786Q103.755005 155.5786 103.411255 155.71922L103.286255 155.40672L105.70813 154.42235L106.08313 154.42235L106.08313 156.12547ZM120.08313 156.12547Q120.95813 155.25047 121.11438 155.12547Q121.52063 154.78172 121.973755 154.60985Q122.42688 154.42235 122.880005 154.42235Q123.630005 154.42235 124.17688 154.85985Q124.723755 155.29735 124.911255 156.12547Q125.817505 155.0786 126.442505 154.75047Q127.067505 154.42235 127.723755 154.42235Q128.36438 154.42235 128.84875 154.75047Q129.34875 155.0786 129.64563 155.8286Q129.83313 156.3286 129.83313 157.42235L129.83313 160.8911Q129.83313 161.6411 129.95813 161.92235Q130.03625 162.10985 130.27063 162.25047Q130.52063 162.3911 131.05188 162.3911L131.05188 162.7036L127.08313 162.7036L127.08313 162.3911L127.23938 162.3911Q127.77063 162.3911 128.05188 162.18797Q128.255 162.04735 128.34875 161.73485Q128.38 161.59422 128.38 160.8911L128.38 157.42235Q128.38 156.43797 128.14563 156.03172Q127.80188 155.46922 127.05188 155.46922Q126.58313 155.46922 126.11438 155.7036Q125.64563 155.93797 124.973755 156.56297L124.95813 156.67235L124.973755 157.04735L124.973755 160.8911Q124.973755 161.7036 125.067505 161.90672Q125.161255 162.10985 125.411255 162.25047Q125.661255 162.3911 126.286255 162.3911L126.286255 162.7036L122.20813 162.7036L122.20813 162.3911Q122.880005 162.3911 123.130005 162.23485Q123.380005 162.06297 123.473755 161.75047Q123.52063 161.60985 123.52063 160.8911L123.52063 157.42235Q123.52063 156.43797 123.223755 156.00047Q122.848755 155.43797 122.14563 155.43797Q121.67688 155.43797 121.20813 155.7036Q120.473755 156.0786 120.08313 156.56297L120.08313 160.8911Q120.08313 161.67235 120.192505 161.92235Q120.30188 162.15672 120.52063 162.28172Q120.73938 162.3911 121.39563 162.3911L121.39563 162.7036L117.411255 162.7036L117.411255 162.3911Q117.95813 162.3911 118.17688 162.28172Q118.411255 162.15672 118.52063 161.8911Q118.630005 161.62547 118.630005 160.8911L118.630005 157.81297Q118.630005 156.48485 118.55188 156.09422Q118.48938 155.79735 118.348755 155.68797Q118.223755 155.5786 118.005005 155.5786Q117.755005 155.5786 117.411255 155.71922L117.286255 155.40672L119.70813 154.42235L120.08313 154.42235L120.08313 156.12547Z" fill-rule="nonzero"/><path fill="#000000" d="M41.083126 200.5464L41.083126 200.21828Q42.22375 200.20265 43.208126 199.68703Q44.1925 199.1714 45.09875 197.89015Q46.020626 196.6089 46.395626 195.06203Q45.005 195.95265 43.895626 195.95265Q42.63 195.95265 41.739376 194.9839Q40.84875 194.01515 40.84875 192.40578Q40.84875 190.84328 41.739376 189.62453Q42.8175 188.12453 44.5675 188.12453Q46.020626 188.12453 47.0675 189.34328Q48.364376 190.84328 48.364376 193.0464Q48.364376 195.0464 47.38 196.76515Q46.41125 198.4839 44.66125 199.6089Q43.255 200.5464 41.583126 200.5464L41.083126 200.5464ZM46.53625 194.4214Q46.6925 193.28078 46.6925 192.59328Q46.6925 191.7339 46.395626 190.74953Q46.114376 189.76515 45.5675 189.2339Q45.03625 188.70265 44.364376 188.70265Q43.583126 188.70265 42.989376 189.40578Q42.41125 190.1089 42.41125 191.49953Q42.41125 193.3589 43.1925 194.40578Q43.755 195.15578 44.59875 195.15578Q45.005 195.15578 45.551876 194.96828Q46.114376 194.76515 46.53625 194.4214ZM49.78625 194.40578Q49.78625 192.37453 50.395626 190.90578Q51.005 189.4214 52.03625 188.70265Q52.8175 188.12453 53.66125 188.12453Q55.03625 188.12453 56.13 189.53078Q57.489376 191.26515 57.489376 194.21828Q57.489376 196.2964 56.88 197.74953Q56.28625 199.20265 55.364376 199.8589Q54.4425 200.51515 53.583126 200.51515Q51.88 200.51515 50.739376 198.49953Q49.78625 196.7964 49.78625 194.40578ZM51.505 194.62453Q51.505 197.09328 52.114376 198.64015Q52.614376 199.95265 53.59875 199.95265Q54.083126 199.95265 54.583126 199.53078Q55.09875 199.09328 55.364376 198.09328Q55.770626 196.59328 55.770626 193.84328Q55.770626 191.7964 55.34875 190.43703Q55.020626 189.4214 54.520626 188.99953Q54.16125 188.71828 53.66125 188.71828Q53.051876 188.71828 52.59875 189.24953Q51.958126 189.9839 51.72375 191.5464Q51.505 193.1089 51.505 194.62453ZM68.255005 199.14015Q67.02063 200.09328 66.692505 200.24953Q66.223755 200.46828 65.692505 200.46828Q64.848755 200.46828 64.30188 199.90578Q63.770626 199.32765 63.770626 198.39015Q63.770626 197.7964 64.036255 197.37453Q64.39563 196.76515 65.286255 196.24953Q66.17688 195.71828 68.255005 194.96828L68.255005 194.64015Q68.255005 193.43703 67.86438 192.99953Q67.48938 192.5464 66.755005 192.5464Q66.20813 192.5464 65.880005 192.84328Q65.55188 193.14015 65.55188 193.53078L65.567505 194.03078Q65.567505 194.43703 65.348755 194.65578Q65.14563 194.87453 64.817505 194.87453Q64.48938 194.87453 64.286255 194.65578Q64.08313 194.4214 64.08313 194.03078Q64.08313 193.28078 64.848755 192.65578Q65.630005 192.01515 67.02063 192.01515Q68.098755 192.01515 68.786255 192.37453Q69.30188 192.64015 69.55188 193.21828Q69.70813 193.59328 69.70813 194.76515L69.70813 197.49953Q69.70813 198.65578 69.73938 198.9214Q69.786255 199.1714 69.880005 199.26515Q69.98938 199.34328 70.130005 199.34328Q70.27063 199.34328 70.380005 199.28078Q70.55188 199.1714 71.08313 198.64015L71.08313 199.14015Q70.098755 200.45265 69.20813 200.45265Q68.77063 200.45265 68.52063 200.15578Q68.27063 199.8589 68.255005 199.14015ZM68.255005 198.56203L68.255005 195.49953Q66.92688 196.03078 66.536255 196.24953Q65.848755 196.62453 65.55188 197.0464Q65.255005 197.46828 65.255005 197.96828Q65.255005 198.6089 65.630005 199.03078Q66.005005 199.43703 66.48938 199.43703Q67.161255 199.43703 68.255005 198.56203ZM78.23938 189.5464L81.14563 188.12453L81.42688 188.12453L81.42688 198.20265Q81.42688 199.20265 81.505005 199.45265Q81.598755 199.68703 81.86438 199.82765Q82.130005 199.95265 82.92688 199.96828L82.92688 200.2964L78.45813 200.2964L78.45813 199.96828Q79.30188 199.95265 79.536255 199.82765Q79.786255 199.70265 79.880005 199.4839Q79.973755 199.26515 79.973755 198.20265L79.973755 191.76515Q79.973755 190.46828 79.89563 190.09328Q79.83313 189.81203 79.661255 189.68703Q79.505005 189.5464 79.27063 189.5464Q78.95813 189.5464 78.36438 189.81203L78.23938 189.5464ZM92.942505 188.37453L92.255005 189.87453L88.67688 189.87453L87.89563 191.46828Q90.223755 191.81203 91.58313 193.20265Q92.755005 194.40578 92.755005 196.01515Q92.755005 196.95265 92.36438 197.76515Q91.98938 198.56203 91.411255 199.12453Q90.83313 199.68703 90.11438 200.03078Q89.098755 200.51515 88.036255 200.51515Q86.973755 200.51515 86.473755 200.15578Q85.98938 199.78078 85.98938 199.34328Q85.98938 199.09328 86.192505 198.90578Q86.39563 198.71828 86.70813 198.71828Q86.92688 198.71828 87.098755 198.7964Q87.27063 198.8589 87.692505 199.14015Q88.348755 199.6089 89.02063 199.6089Q90.05188 199.6089 90.83313 198.82765Q91.61438 198.0464 91.61438 196.93703Q91.61438 195.84328 90.911255 194.9214Q90.223755 193.9839 89.005005 193.46828Q88.036255 193.07765 86.380005 193.01515L88.67688 188.37453L92.942505 188.37453ZM94.786255 194.40578Q94.786255 192.37453 95.39563 190.90578Q96.005005 189.4214 97.036255 188.70265Q97.817505 188.12453 98.661255 188.12453Q100.036255 188.12453 101.130005 189.53078Q102.48938 191.26515 102.48938 194.21828Q102.48938 196.2964 101.880005 197.74953Q101.286255 199.20265 100.36438 199.8589Q99.442505 200.51515 98.58313 200.51515Q96.880005 200.51515 95.73938 198.49953Q94.786255 196.7964 94.786255 194.40578ZM96.505005 194.62453Q96.505005 197.09328 97.11438 198.64015Q97.61438 199.95265 98.598755 199.95265Q99.08313 199.95265 99.58313 199.53078Q100.098755 199.09328 100.36438 198.09328Q100.77063 196.59328 100.77063 193.84328Q100.77063 191.7964 100.348755 190.43703Q100.02063 189.4214 99.52063 188.99953Q99.161255 188.71828 98.661255 188.71828Q98.05188 188.71828 97.598755 189.24953Q96.95813 189.9839 96.723755 191.5464Q96.505005 193.1089 96.505005 194.62453ZM106.08313 193.71828Q106.95813 192.84328 107.11438 192.71828Q107.52063 192.37453 107.973755 192.20265Q108.42688 192.01515 108.880005 192.01515Q109.630005 192.01515 110.17688 192.45265Q110.723755 192.89015 110.911255 193.71828Q111.817505 192.6714 112.442505 192.34328Q113.067505 192.01515 113.723755 192.01515Q114.36438 192.01515 114.848755 192.34328Q115.348755 192.6714 115.64563 193.4214Q115.83313 193.9214 115.83313 195.01515L115.83313 198.4839Q115.83313 199.2339 115.95813 199.51515Q116.036255 199.70265 116.27063 199.84328Q116.52063 199.9839 117.05188 199.9839L117.05188 200.2964L113.08313 200.2964L113.08313 199.9839L113.23938 199.9839Q113.77063 199.9839 114.05188 199.78078Q114.255005 199.64015 114.348755 199.32765Q114.380005 199.18703 114.380005 198.4839L114.380005 195.01515Q114.380005 194.03078 114.14563 193.62453Q113.80188 193.06203 113.05188 193.06203Q112.58313 193.06203 112.11438 193.2964Q111.64563 193.53078 110.973755 194.15578L110.95813 194.26515L110.973755 194.64015L110.973755 198.4839Q110.973755 199.2964 111.067505 199.49953Q111.161255 199.70265 111.411255 199.84328Q111.661255 199.9839 112.286255 199.9839L112.286255 200.2964L108.20813 200.2964L108.20813 199.9839Q108.880005 199.9839 109.130005 199.82765Q109.380005 199.65578 109.473755 199.34328Q109.52063 199.20265 109.52063 198.4839L109.52063 195.01515Q109.52063 194.03078 109.223755 193.59328Q108.848755 193.03078 108.14563 193.03078Q107.67688 193.03078 107.20813 193.2964Q106.473755 193.6714 106.08313 194.15578L106.08313 198.4839Q106.08313 199.26515 106.192505 199.51515Q106.30188 199.74953 106.52063 199.87453Q106.73938 199.9839 107.39563 199.9839L107.39563 200.2964L103.411255 200.2964L103.411255 199.9839Q103.95813 199.9839 104.17688 199.87453Q104.411255 199.74953 104.52063 199.4839Q104.630005 199.21828 104.630005 198.4839L104.630005 195.40578Q104.630005 194.07765 104.55188 193.68703Q104.48938 193.39015 104.348755 193.28078Q104.223755 193.1714 104.005005 193.1714Q103.755005 193.1714 103.411255 193.31203L103.286255 192.99953L105.70813 192.01515L106.08313 192.01515L106.08313 193.71828ZM120.08313 193.71828Q120.95813 192.84328 121.11438 192.71828Q121.52063 192.37453 121.973755 192.20265Q122.42688 192.01515 122.880005 192.01515Q123.630005 192.01515 124.17688 192.45265Q124.723755 192.89015 124.911255 193.71828Q125.817505 192.6714 126.442505 192.34328Q127.067505 192.01515 127.723755 192.01515Q128.36438 192.01515 128.84875 192.34328Q129.34875 192.6714 129.64563 193.4214Q129.83313 193.9214 129.83313 195.01515L129.83313 198.4839Q129.83313 199.2339 129.95813 199.51515Q130.03625 199.70265 130.27063 199.84328Q130.52063 199.9839 131.05188 199.9839L131.05188 200.2964L127.08313 200.2964L127.08313 199.9839L127.23938 199.9839Q127.77063 199.9839 128.05188 199.78078Q128.255 199.64015 128.34875 199.32765Q128.38 199.18703 128.38 198.4839L128.38 195.01515Q128.38 194.03078 128.14563 193.62453Q127.80188 193.06203 127.05188 193.06203Q126.58313 193.06203 126.11438 193.2964Q125.64563 193.53078 124.973755 194.15578L124.95813 194.26515L124.973755 194.64015L124.973755 198.4839Q124.973755 199.2964 125.067505 199.49953Q125.161255 199.70265 125.411255 199.84328Q125.661255 199.9839 126.286255 199.9839L126.286255 200.2964L122.20813 200.2964L122.20813 199.9839Q122.880005 199.9839 123.130005 199.82765Q123.380005 199.65578 123.473755 199.34328Q123.52063 199.20265 123.52063 198.4839L123.52063 195.01515Q123.52063 194.03078 123.223755 193.59328Q122.848755 193.03078 122.14563 193.03078Q121.67688 193.03078 121.20813 193.2964Q120.473755 193.6714 120.08313 194.15578L120.08313 198.4839Q120.08313 199.26515 120.192505 199.51515Q120.30188 199.74953 120.52063 199.87453Q120.73938 199.9839 121.39563 199.9839L121.39563 200.2964L117.411255 200.2964L117.411255 199.9839Q117.95813 199.9839 118.17688 199.87453Q118.411255 199.74953 118.52063 199.4839Q118.630005 199.21828 118.630005 198.4839L118.630005 195.40578Q118.630005 194.07765 118.55188 193.68703Q118.48938 193.39015 118.348755 193.28078Q118.223755 193.1714 118.005005 193.1714Q117.755005 193.1714 117.411255 193.31203L117.286255 192.99953L119.70813 192.01515L120.08313 192.01515L120.08313 193.71828Z" fill-rule="nonzero"/><path fill="#000000" d="M33.239372 227.13922L36.145622 225.71735L36.426872 225.71735L36.426872 235.79547Q36.426872 236.79547 36.504997 237.04547Q36.598747 237.27985 36.864372 237.42047Q37.129997 237.54547 37.926872 237.5611L37.926872 237.88922L33.458122 237.88922L33.458122 237.5611Q34.301872 237.54547 34.536247 237.42047Q34.786247 237.29547 34.879997 237.07672Q34.973747 236.85797 34.973747 235.79547L34.973747 229.35797Q34.973747 228.0611 34.895622 227.6861Q34.833122 227.40485 34.661247 227.27985Q34.504997 227.13922 34.270622 227.13922Q33.958122 227.13922 33.364372 227.40485L33.239372 227.13922ZM47.942497 225.96735L47.254997 227.46735L43.676872 227.46735L42.895622 229.0611Q45.223747 229.40485 46.583122 230.79547Q47.754997 231.9986 47.754997 233.60797Q47.754997 234.54547 47.364372 235.35797Q46.989372 236.15485 46.411247 236.71735Q45.833122 237.27985 45.114372 237.6236Q44.098747 238.10797 43.036247 238.10797Q41.973747 238.10797 41.473747 237.7486Q40.989372 237.3736 40.989372 236.9361Q40.989372 236.6861 41.192497 236.4986Q41.395622 236.3111 41.708122 236.3111Q41.926872 236.3111 42.098747 236.38922Q42.270622 236.45172 42.692497 236.73297Q43.348747 237.20172 44.020622 237.20172Q45.051872 237.20172 45.833122 236.42047Q46.614372 235.63922 46.614372 234.52985Q46.614372 233.4361 45.911247 232.51422Q45.223747 231.57672 44.004997 231.0611Q43.036247 230.67047 41.379997 230.60797L43.676872 225.96735L47.942497 225.96735ZM49.786247 231.9986Q49.786247 229.96735 50.395622 228.4986Q51.004997 227.01422 52.036247 226.29547Q52.817497 225.71735 53.661247 225.71735Q55.036247 225.71735 56.129997 227.1236Q57.489372 228.85797 57.489372 231.8111Q57.489372 233.88922 56.879997 235.34235Q56.286247 236.79547 55.364372 237.45172Q54.442497 238.10797 53.583122 238.10797Q51.879997 238.10797 50.739372 236.09235Q49.786247 234.38922 49.786247 231.9986ZM51.504997 232.21735Q51.504997 234.6861 52.114372 236.23297Q52.614372 237.54547 53.598747 237.54547Q54.083122 237.54547 54.583122 237.1236Q55.098747 236.6861 55.364372 235.6861Q55.770622 234.1861 55.770622 231.4361Q55.770622 229.38922 55.348747 228.02985Q55.020622 227.01422 54.520622 226.59235Q54.161247 226.3111 53.661247 226.3111Q53.051872 226.3111 52.598747 226.84235Q51.958122 227.57672 51.723747 229.13922Q51.504997 230.70172 51.504997 232.21735ZM68.255 236.73297Q67.02062 237.6861 66.6925 237.84235Q66.22375 238.0611 65.6925 238.0611Q64.84875 238.0611 64.30187 237.4986Q63.770622 236.92047 63.770622 235.98297Q63.770622 235.38922 64.03625 234.96735Q64.39562 234.35797 65.28625 233.84235Q66.17687 233.3111 68.255 232.5611L68.255 232.23297Q68.255 231.02985 67.86437 230.59235Q67.48937 230.13922 66.755 230.13922Q66.20812 230.13922 65.88 230.4361Q65.55187 230.73297 65.55187 231.1236L65.5675 231.6236Q65.5675 232.02985 65.34875 232.2486Q65.14562 232.46735 64.8175 232.46735Q64.48937 232.46735 64.28625 232.2486Q64.08312 232.01422 64.08312 231.6236Q64.08312 230.8736 64.84875 230.2486Q65.63 229.60797 67.02062 229.60797Q68.09875 229.60797 68.78625 229.96735Q69.30187 230.23297 69.55187 230.8111Q69.70812 231.1861 69.70812 232.35797L69.70812 235.09235Q69.70812 236.2486 69.73937 236.51422Q69.78625 236.76422 69.88 236.85797Q69.98937 236.9361 70.13 236.9361Q70.27062 236.9361 70.38 236.8736Q70.55187 236.76422 71.08312 236.23297L71.08312 236.73297Q70.09875 238.04547 69.20812 238.04547Q68.77062 238.04547 68.52062 237.7486Q68.27062 237.45172 68.255 236.73297ZM68.255 236.15485L68.255 233.09235Q66.92687 233.6236 66.53625 233.84235Q65.84875 234.21735 65.55187 234.63922Q65.255 235.0611 65.255 235.5611Q65.255 236.20172 65.63 236.6236Q66.005 237.02985 66.48937 237.02985Q67.16125 237.02985 68.255 236.15485ZM84.38 235.59235L83.55187 237.88922L76.52062 237.88922L76.52062 237.5611Q79.61437 234.73297 80.88 232.95172Q82.14562 231.15485 82.14562 229.65485Q82.14562 228.52985 81.4425 227.8111Q80.755 227.07672 79.80187 227.07672Q78.91125 227.07672 78.20812 227.59235Q77.52062 228.09235 77.1925 229.09235L76.86437 229.09235Q77.08312 227.46735 77.98937 226.59235Q78.89562 225.71735 80.255 225.71735Q81.70812 225.71735 82.67687 226.65485Q83.66125 227.59235 83.66125 228.85797Q83.66125 229.76422 83.23937 230.67047Q82.58312 232.09235 81.13 233.6861Q78.92687 236.07672 78.39562 236.5611L81.505 236.5611Q82.4425 236.5611 82.8175 236.4986Q83.20812 236.42047 83.52062 236.20172Q83.83312 235.98297 84.05187 235.59235L84.38 235.59235ZM92.9425 225.96735L92.255 227.46735L88.67687 227.46735L87.89562 229.0611Q90.22375 229.40485 91.58312 230.79547Q92.755 231.9986 92.755 233.60797Q92.755 234.54547 92.36437 235.35797Q91.98937 236.15485 91.41125 236.71735Q90.83312 237.27985 90.11437 237.6236Q89.09875 238.10797 88.03625 238.10797Q86.97375 238.10797 86.47375 237.7486Q85.98937 237.3736 85.98937 236.9361Q85.98937 236.6861 86.1925 236.4986Q86.39562 236.3111 86.70812 236.3111Q86.92687 236.3111 87.09875 236.38922Q87.27062 236.45172 87.6925 236.73297Q88.34875 237.20172 89.02062 237.20172Q90.05187 237.20172 90.83312 236.42047Q91.61437 235.63922 91.61437 234.52985Q91.61437 233.4361 90.91125 232.51422Q90.22375 231.57672 89.005 231.0611Q88.03625 230.67047 86.38 230.60797L88.67687 225.96735L92.9425 225.96735ZM94.78625 231.9986Q94.78625 229.96735 95.39562 228.4986Q96.005 227.01422 97.03625 226.29547Q97.8175 225.71735 98.66125 225.71735Q100.03625 225.71735 101.13 227.1236Q102.48937 228.85797 102.48937 231.8111Q102.48937 233.88922 101.88 235.34235Q101.28625 236.79547 100.36437 237.45172Q99.4425 238.10797 98.58312 238.10797Q96.88 238.10797 95.73937 236.09235Q94.78625 234.38922 94.78625 231.9986ZM96.505 232.21735Q96.505 234.6861 97.11437 236.23297Q97.61437 237.54547 98.59875 237.54547Q99.08312 237.54547 99.58312 237.1236Q100.09875 236.6861 100.36437 235.6861Q100.77062 234.1861 100.77062 231.4361Q100.77062 229.38922 100.34875 228.02985Q100.02062 227.01422 99.52062 226.59235Q99.16125 226.3111 98.66125 226.3111Q98.05187 226.3111 97.59875 226.84235Q96.95812 227.57672 96.72375 229.13922Q96.505 230.70172 96.505 232.21735ZM106.08312 231.3111Q106.95812 230.4361 107.11437 230.3111Q107.52062 229.96735 107.97375 229.79547Q108.42687 229.60797 108.88 229.60797Q109.63 229.60797 110.17687 230.04547Q110.72375 230.48297 110.91125 231.3111Q111.8175 230.26422 112.4425 229.9361Q113.0675 229.60797 113.72375 229.60797Q114.36437 229.60797 114.84875 229.9361Q115.34875 230.26422 115.64562 231.01422Q115.83312 231.51422 115.83312 232.60797L115.83312 236.07672Q115.83312 236.82672 115.95812 237.10797Q116.03625 237.29547 116.27062 237.4361Q116.52062 237.57672 117.05187 237.57672L117.05187 237.88922L113.08312 237.88922L113.08312 237.57672L113.23937 237.57672Q113.77062 237.57672 114.05187 237.3736Q114.255 237.23297 114.34875 236.92047Q114.38 236.77985 114.38 236.07672L114.38 232.60797Q114.38 231.6236 114.14562 231.21735Q113.80187 230.65485 113.05187 230.65485Q112.58312 230.65485 112.11437 230.88922Q111.64562 231.1236 110.97375 231.7486L110.95812 231.85797L110.97375 232.23297L110.97375 236.07672Q110.97375 236.88922 111.0675 237.09235Q111.16125 237.29547 111.41125 237.4361Q111.66125 237.57672 112.28625 237.57672L112.28625 237.88922L108.20812 237.88922L108.20812 237.57672Q108.88 237.57672 109.13 237.42047Q109.38 237.2486 109.47375 236.9361Q109.52062 236.79547 109.52062 236.07672L109.52062 232.60797Q109.52062 231.6236 109.22375 231.1861Q108.84875 230.6236 108.14562 230.6236Q107.67687 230.6236 107.20812 230.88922Q106.47375 231.26422 106.08312 231.7486L106.08312 236.07672Q106.08312 236.85797 106.1925 237.10797Q106.30187 237.34235 106.52062 237.46735Q106.73937 237.57672 107.39562 237.57672L107.39562 237.88922L103.41125 237.88922L103.41125 237.57672Q103.95812 237.57672 104.17687 237.46735Q104.41125 237.34235 104.52062 237.07672Q104.63 236.8111 104.63 236.07672L104.63 232.9986Q104.63 231.67047 104.55187 231.27985Q104.48937 230.98297 104.34875 230.8736Q104.22375 230.76422 104.005 230.76422Q103.755 230.76422 103.41125 230.90485L103.28625 230.59235L105.70812 229.60797L106.08312 229.60797L106.08312 231.3111ZM120.08312 231.3111Q120.95812 230.4361 121.11437 230.3111Q121.52062 229.96735 121.97375 229.79547Q122.42687 229.60797 122.88 229.60797Q123.63 229.60797 124.17687 230.04547Q124.72375 230.48297 124.91125 231.3111Q125.8175 230.26422 126.4425 229.9361Q127.0675 229.60797 127.72375 229.60797Q128.36438 229.60797 128.84875 229.9361Q129.34875 230.26422 129.64563 231.01422Q129.83313 231.51422 129.83313 232.60797L129.83313 236.07672Q129.83313 236.82672 129.95813 237.10797Q130.03625 237.29547 130.27063 237.4361Q130.52063 237.57672 131.05188 237.57672L131.05188 237.88922L127.08312 237.88922L127.08312 237.57672L127.23937 237.57672Q127.77062 237.57672 128.05188 237.3736Q128.255 237.23297 128.34875 236.92047Q128.38 236.77985 128.38 236.07672L128.38 232.60797Q128.38 231.6236 128.14563 231.21735Q127.80187 230.65485 127.05187 230.65485Q126.58312 230.65485 126.11437 230.88922Q125.64562 231.1236 124.97375 231.7486L124.95812 231.85797L124.97375 232.23297L124.97375 236.07672Q124.97375 236.88922 125.0675 237.09235Q125.16125 237.29547 125.41125 237.4361Q125.66125 237.57672 126.28625 237.57672L126.28625 237.88922L122.20812 237.88922L122.20812 237.57672Q122.88 237.57672 123.13 237.42047Q123.38 237.2486 123.47375 236.9361Q123.52062 236.79547 123.52062 236.07672L123.52062 232.60797Q123.52062 231.6236 123.22375 231.1861Q122.84875 230.6236 122.14562 230.6236Q121.67687 230.6236 121.20812 230.88922Q120.47375 231.26422 120.08312 231.7486L120.08312 236.07672Q120.08312 236.85797 120.1925 237.10797Q120.30187 237.34235 120.52062 237.46735Q120.73937 237.57672 121.39562 237.57672L121.39562 237.88922L117.41125 237.88922L117.41125 237.57672Q117.95812 237.57672 118.17687 237.46735Q118.41125 237.34235 118.52062 237.07672Q118.63 236.8111 118.63 236.07672L118.63 232.9986Q118.63 231.67047 118.55187 231.27985Q118.48937 230.98297 118.34875 230.8736Q118.22375 230.76422 118.005 230.76422Q117.755 230.76422 117.41125 230.90485L117.28625 230.59235L119.70812 229.60797L120.08312 229.60797L120.08312 231.3111Z" fill-rule="nonzero"/><path fill="#000000" d="M65.380005 263.29453L65.380005 267.41953L65.05188 267.41953Q64.89563 266.23203 64.48938 265.5289Q64.08313 264.82578 63.3175 264.41953Q62.5675 263.99765 61.755 263.99765Q60.84875 263.99765 60.239376 264.56015Q59.645626 265.10703 59.645626 265.82578Q59.645626 266.37265 60.03625 266.81015Q60.583126 267.48203 62.63 268.57578Q64.286255 269.4664 64.89563 269.95078Q65.52063 270.43515 65.848755 271.0914Q66.17688 271.73203 66.17688 272.43515Q66.17688 273.79453 65.11438 274.7789Q64.067505 275.74765 62.426876 275.74765Q61.895626 275.74765 61.4425 275.66953Q61.176876 275.63828 60.3175 275.35703Q59.458126 275.07578 59.22375 275.07578Q59.005 275.07578 58.88 275.2164Q58.755 275.3414 58.6925 275.74765L58.364376 275.74765L58.364376 271.66953L58.6925 271.66953Q58.926876 272.95078 59.301876 273.5914Q59.6925 274.23203 60.489376 274.6539Q61.28625 275.07578 62.239376 275.07578Q63.333126 275.07578 63.97375 274.49765Q64.61438 273.9039 64.61438 273.12265Q64.61438 272.68515 64.36438 272.23203Q64.130005 271.7789 63.614376 271.38828Q63.270626 271.13828 61.739376 270.2789Q60.208126 269.41953 59.5675 268.91953Q58.926876 268.4039 58.583126 267.79453Q58.255 267.16953 58.255 266.43515Q58.255 265.13828 59.239376 264.2164Q60.22375 263.29453 61.739376 263.29453Q62.6925 263.29453 63.755 263.76328Q64.255005 263.98203 64.45813 263.98203Q64.67688 263.98203 64.817505 263.8414Q64.973755 263.70078 65.05188 263.29453L65.380005 263.29453ZM74.755005 267.43515L74.755005 272.31015Q74.755005 273.70078 74.817505 274.01328Q74.880005 274.32578 75.02063 274.45078Q75.17688 274.57578 75.36438 274.57578Q75.64563 274.57578 75.973755 274.41953L76.098755 274.73203L73.692505 275.73203L73.30188 275.73203L73.30188 274.0289Q72.27063 275.1539 71.723755 275.45078Q71.17688 275.73203 70.567505 275.73203Q69.89563 275.73203 69.39563 275.3414Q68.89563 274.95078 68.692505 274.3414Q68.505005 273.7164 68.505005 272.5914L68.505005 268.99765Q68.505005 268.41953 68.380005 268.20078Q68.27063 267.98203 68.02063 267.87265Q67.786255 267.74765 67.14563 267.76328L67.14563 267.43515L69.973755 267.43515L69.973755 272.82578Q69.973755 273.95078 70.36438 274.31015Q70.755005 274.6539 71.30188 274.6539Q71.67688 274.6539 72.161255 274.41953Q72.64563 274.16953 73.30188 273.49765L73.30188 268.93515Q73.30188 268.26328 73.05188 268.0289Q72.80188 267.7789 72.005005 267.76328L72.005005 267.43515L74.755005 267.43515ZM76.11438 268.23203L78.598755 267.23203L78.92688 267.23203L78.92688 269.10703Q79.55188 268.04453 80.17688 267.62265Q80.80188 267.20078 81.505005 267.20078Q82.70813 267.20078 83.52063 268.13828Q84.52063 269.31015 84.52063 271.16953Q84.52063 273.24765 83.317505 274.60703Q82.33313 275.73203 80.848755 275.73203Q80.192505 275.73203 79.723755 275.54453Q79.36438 275.4039 78.92688 275.01328L78.92688 277.4664Q78.92688 278.29453 79.02063 278.51328Q79.130005 278.74765 79.380005 278.87265Q79.630005 279.01328 80.286255 279.01328L80.286255 279.32578L76.067505 279.32578L76.067505 279.01328L76.286255 279.01328Q76.77063 279.01328 77.11438 278.82578Q77.286255 278.73203 77.380005 278.51328Q77.473755 278.29453 77.473755 277.41953L77.473755 269.81015Q77.473755 269.0289 77.39563 268.82578Q77.33313 268.60703 77.17688 268.49765Q77.02063 268.38828 76.755005 268.38828Q76.536255 268.38828 76.223755 268.51328L76.11438 268.23203ZM78.92688 269.62265L78.92688 272.63828Q78.92688 273.60703 79.005005 273.91953Q79.130005 274.41953 79.598755 274.81015Q80.08313 275.20078 80.817505 275.20078Q81.692505 275.20078 82.23938 274.51328Q82.95813 273.62265 82.95813 271.99765Q82.95813 270.1539 82.14563 269.1539Q81.58313 268.4664 80.80188 268.4664Q80.380005 268.4664 79.973755 268.68515Q79.661255 268.8414 78.92688 269.62265ZM87.05188 270.4664Q87.036255 272.26328 87.911255 273.2789Q88.80188 274.29453 89.98938 274.29453Q90.77063 274.29453 91.348755 273.85703Q91.942505 273.41953 92.33313 272.37265L92.61438 272.54453Q92.42688 273.74765 91.536255 274.74765Q90.64563 275.73203 89.317505 275.73203Q87.86438 275.73203 86.83313 274.60703Q85.80188 273.4664 85.80188 271.56015Q85.80188 269.49765 86.848755 268.3414Q87.911255 267.18515 89.52063 267.18515Q90.86438 267.18515 91.73938 268.07578Q92.61438 268.9664 92.61438 270.4664L87.05188 270.4664ZM87.05188 269.95078L90.77063 269.95078Q90.723755 269.18515 90.58313 268.85703Q90.36438 268.37265 89.92688 268.0914Q89.505005 267.81015 89.02063 267.81015Q88.30188 267.81015 87.723755 268.37265Q87.14563 268.93515 87.05188 269.95078ZM96.05188 267.20078L96.05188 268.99765Q97.05188 267.20078 98.130005 267.20078Q98.598755 267.20078 98.911255 267.49765Q99.23938 267.7789 99.23938 268.16953Q99.23938 268.51328 99.005005 268.74765Q98.786255 268.98203 98.45813 268.98203Q98.161255 268.98203 97.77063 268.68515Q97.39563 268.37265 97.20813 268.37265Q97.05188 268.37265 96.86438 268.56015Q96.473755 268.91953 96.05188 269.74765L96.05188 273.60703Q96.05188 274.26328 96.20813 274.60703Q96.33313 274.8414 96.61438 275.01328Q96.911255 275.16953 97.45813 275.16953L97.45813 275.48203L93.33313 275.48203L93.33313 275.16953Q93.942505 275.16953 94.23938 274.9664Q94.473755 274.82578 94.55188 274.5289Q94.598755 274.37265 94.598755 273.66953L94.598755 270.54453Q94.598755 269.13828 94.536255 268.87265Q94.48938 268.60703 94.33313 268.48203Q94.17688 268.35703 93.942505 268.35703Q93.67688 268.35703 93.33313 268.49765L93.23938 268.18515L95.67688 267.20078L96.05188 267.20078ZM101.73938 262.98203Q102.11438 262.98203 102.36438 263.24765Q102.630005 263.49765 102.630005 263.87265Q102.630005 264.24765 102.36438 264.51328Q102.11438 264.76328 101.73938 264.76328Q101.36438 264.76328 101.098755 264.51328Q100.848755 264.24765 100.848755 263.87265Q100.848755 263.49765 101.098755 263.24765Q101.36438 262.98203 101.73938 262.98203ZM102.473755 267.20078L102.473755 273.66953Q102.473755 274.41953 102.58313 274.66953Q102.692505 274.91953 102.89563 275.04453Q103.11438 275.16953 103.692505 275.16953L103.692505 275.48203L99.786255 275.48203L99.786255 275.16953Q100.36438 275.16953 100.567505 275.06015Q100.77063 274.93515 100.880005 274.66953Q101.005005 274.4039 101.005005 273.66953L101.005005 270.56015Q101.005005 269.24765 100.92688 268.85703Q100.86438 268.57578 100.73938 268.4664Q100.61438 268.35703 100.380005 268.35703Q100.130005 268.35703 99.786255 268.49765L99.661255 268.18515L102.08313 267.20078L102.473755 267.20078ZM107.630005 267.20078Q109.45813 267.20078 110.567505 268.57578Q111.505005 269.76328 111.505005 271.31015Q111.505005 272.38828 110.98938 273.49765Q110.473755 274.60703 109.55188 275.16953Q108.64563 275.73203 107.536255 275.73203Q105.70813 275.73203 104.64563 274.2789Q103.73938 273.06015 103.73938 271.5289Q103.73938 270.43515 104.286255 269.3414Q104.83313 268.23203 105.723755 267.7164Q106.630005 267.20078 107.630005 267.20078ZM107.36438 267.76328Q106.89563 267.76328 106.42688 268.04453Q105.95813 268.32578 105.661255 269.01328Q105.36438 269.70078 105.36438 270.79453Q105.36438 272.56015 106.067505 273.8414Q106.77063 275.10703 107.911255 275.10703Q108.77063 275.10703 109.317505 274.4039Q109.86438 273.70078 109.86438 271.98203Q109.86438 269.8414 108.942505 268.60703Q108.317505 267.76328 107.36438 267.76328ZM115.05188 267.20078L115.05188 268.99765Q116.05188 267.20078 117.130005 267.20078Q117.598755 267.20078 117.911255 267.49765Q118.23938 267.7789 118.23938 268.16953Q118.23938 268.51328 118.005005 268.74765Q117.786255 268.98203 117.45813 268.98203Q117.161255 268.98203 116.77063 268.68515Q116.39563 268.37265 116.20813 268.37265Q116.05188 268.37265 115.86438 268.56015Q115.473755 268.91953 115.05188 269.74765L115.05188 273.60703Q115.05188 274.26328 115.20813 274.60703Q115.33313 274.8414 115.61438 275.01328Q115.911255 275.16953 116.45813 275.16953L116.45813 275.48203L112.33313 275.48203L112.33313 275.16953Q112.942505 275.16953 113.23938 274.9664Q113.473755 274.82578 113.55188 274.5289Q113.598755 274.37265 113.598755 273.66953L113.598755 270.54453Q113.598755 269.13828 113.536255 268.87265Q113.48938 268.60703 113.33313 268.48203Q113.17688 268.35703 112.942505 268.35703Q112.67688 268.35703 112.33313 268.49765L112.23938 268.18515L114.67688 267.20078L115.05188 267.20078ZM128.255 274.32578Q127.02063 275.2789 126.692505 275.43515Q126.223755 275.6539 125.692505 275.6539Q124.848755 275.6539 124.30188 275.0914Q123.77063 274.51328 123.77063 273.57578Q123.77063 272.98203 124.036255 272.56015Q124.39563 271.95078 125.286255 271.43515Q126.17688 270.9039 128.255 270.1539L128.255 269.82578Q128.255 268.62265 127.86438 268.18515Q127.48938 267.73203 126.755005 267.73203Q126.20813 267.73203 125.880005 268.0289Q125.55188 268.32578 125.55188 268.7164L125.567505 269.2164Q125.567505 269.62265 125.348755 269.8414Q125.14563 270.06015 124.817505 270.06015Q124.48938 270.06015 124.286255 269.8414Q124.08313 269.60703 124.08313 269.2164Q124.08313 268.4664 124.848755 267.8414Q125.630005 267.20078 127.02063 267.20078Q128.09875 267.20078 128.78625 267.56015Q129.30188 267.82578 129.55188 268.4039Q129.70813 268.7789 129.70813 269.95078L129.70813 272.68515Q129.70813 273.8414 129.73938 274.10703Q129.78625 274.35703 129.88 274.45078Q129.98938 274.5289 130.13 274.5289Q130.27063 274.5289 130.38 274.4664Q130.55188 274.35703 131.08313 273.82578L131.08313 274.32578Q130.09875 275.63828 129.20813 275.63828Q128.77063 275.63828 128.52063 275.3414Q128.27063 275.04453 128.255 274.32578ZM128.255 273.74765L128.255 270.68515Q126.92688 271.2164 126.536255 271.43515Q125.848755 271.81015 125.55188 272.23203Q125.255005 272.6539 125.255005 273.1539Q125.255005 273.79453 125.630005 274.2164Q126.005005 274.62265 126.48938 274.62265Q127.161255 274.62265 128.255 273.74765Z" fill-rule="nonzero"/><path fill="#000000" d="M77.4425 309.77798L77.73937 309.84048L76.72375 313.07486L67.48937 313.07486L67.48937 312.74673L67.9425 312.74673Q68.6925 312.74673 69.02062 312.26236Q69.20812 311.9811 69.20812 310.94986L69.20812 303.26236Q69.20812 302.15298 68.95812 301.87173Q68.61437 301.4811 67.9425 301.4811L67.48937 301.4811L67.48937 301.15298L72.88 301.15298L72.88 301.4811Q71.9425 301.46548 71.55187 301.65298Q71.17687 301.84048 71.03625 302.12173Q70.89562 302.40298 70.89562 303.46548L70.89562 310.94986Q70.89562 311.68423 71.03625 311.96548Q71.14562 312.13736 71.36437 312.2311Q71.58312 312.32486 72.72375 312.32486L73.59875 312.32486Q74.97375 312.32486 75.52062 312.12173Q76.08312 311.9186 76.53625 311.40298Q76.98937 310.88736 77.4425 309.77798ZM80.05187 308.05923Q80.03625 309.8561 80.91125 310.87173Q81.80187 311.88736 82.98937 311.88736Q83.77062 311.88736 84.34875 311.44986Q84.9425 311.01236 85.33312 309.96548L85.61437 310.13736Q85.42687 311.34048 84.53625 312.34048Q83.64562 313.32486 82.3175 313.32486Q80.86437 313.32486 79.83312 312.19986Q78.80187 311.05923 78.80187 309.15298Q78.80187 307.09048 79.84875 305.93423Q80.91125 304.77798 82.52062 304.77798Q83.86437 304.77798 84.73937 305.6686Q85.61437 306.55923 85.61437 308.05923L80.05187 308.05923ZM80.05187 307.5436L83.77062 307.5436Q83.72375 306.77798 83.58312 306.44986Q83.36437 305.96548 82.92687 305.68423Q82.505 305.40298 82.02062 305.40298Q81.30187 305.40298 80.72375 305.96548Q80.14562 306.52798 80.05187 307.5436ZM89.03625 306.49673Q90.45812 304.7936 91.73937 304.7936Q92.39562 304.7936 92.86437 305.12173Q93.34875 305.44986 93.63 306.19986Q93.8175 306.7311 93.8175 307.82486L93.8175 311.26236Q93.8175 312.01236 93.9425 312.2936Q94.03625 312.51236 94.255 312.63736Q94.47375 312.76236 95.05187 312.76236L95.05187 313.07486L91.0675 313.07486L91.0675 312.76236L91.23937 312.76236Q91.80187 312.76236 92.02062 312.59048Q92.255 312.4186 92.33312 312.07486Q92.36437 311.94986 92.36437 311.26236L92.36437 307.96548Q92.36437 306.8561 92.08312 306.37173Q91.80187 305.87173 91.13 305.87173Q90.08312 305.87173 89.03625 307.01236L89.03625 311.26236Q89.03625 312.07486 89.13 312.26236Q89.255 312.52798 89.47375 312.65298Q89.6925 312.76236 90.34875 312.76236L90.34875 313.07486L86.36437 313.07486L86.36437 312.76236L86.53625 312.76236Q87.16125 312.76236 87.36437 312.44986Q87.58312 312.13736 87.58312 311.26236L87.58312 308.26236Q87.58312 306.80923 87.52062 306.49673Q87.45812 306.18423 87.3175 306.07486Q87.1925 305.94986 86.95812 305.94986Q86.70812 305.94986 86.36437 306.09048L86.23937 305.77798L88.66125 304.7936L89.03625 304.7936L89.03625 306.49673ZM98.03625 302.37173L98.03625 305.02798L99.91125 305.02798L99.91125 305.63736L98.03625 305.63736L98.03625 310.8561Q98.03625 311.63736 98.255 311.9186Q98.47375 312.18423 98.83312 312.18423Q99.11437 312.18423 99.38 312.01236Q99.66125 311.82486 99.8175 311.4811L100.16125 311.4811Q99.84875 312.34048 99.28625 312.77798Q98.72375 313.19986 98.13 313.19986Q97.72375 313.19986 97.33312 312.9811Q96.9425 312.76236 96.755 312.34048Q96.58312 311.9186 96.58312 311.05923L96.58312 305.63736L95.30187 305.63736L95.30187 305.3561Q95.78625 305.15298 96.28625 304.69986Q96.80187 304.2311 97.1925 303.6061Q97.39562 303.26236 97.755 302.37173L98.03625 302.37173ZM102.05187 308.05923Q102.03625 309.8561 102.91125 310.87173Q103.80187 311.88736 104.98937 311.88736Q105.77062 311.88736 106.34875 311.44986Q106.9425 311.01236 107.33312 309.96548L107.61437 310.13736Q107.42687 311.34048 106.53625 312.34048Q105.64562 313.32486 104.3175 313.32486Q102.86437 313.32486 101.83312 312.19986Q100.80187 311.05923 100.80187 309.15298Q100.80187 307.09048 101.84875 305.93423Q102.91125 304.77798 104.52062 304.77798Q105.86437 304.77798 106.73937 305.6686Q107.61437 306.55923 107.61437 308.05923L102.05187 308.05923ZM102.05187 307.5436L105.77062 307.5436Q105.72375 306.77798 105.58312 306.44986Q105.36437 305.96548 104.92687 305.68423Q104.505 305.40298 104.02062 305.40298Q103.30187 305.40298 102.72375 305.96548Q102.14562 306.52798 102.05187 307.5436ZM119.38 312.1686Q118.78625 312.77798 118.22375 313.05923Q117.66125 313.32486 117.02062 313.32486Q115.6925 313.32486 114.70812 312.2311Q113.72375 311.12173 113.72375 309.38736Q113.72375 307.65298 114.8175 306.21548Q115.91125 304.77798 117.61437 304.77798Q118.6925 304.77798 119.38 305.44986L119.38 303.96548Q119.38 302.59048 119.3175 302.27798Q119.255 301.94986 119.11437 301.84048Q118.97375 301.7311 118.755 301.7311Q118.52062 301.7311 118.14562 301.87173L118.03625 301.55923L120.42687 300.57486L120.83312 300.57486L120.83312 309.88736Q120.83312 311.2936 120.89562 311.6061Q120.95812 311.9186 121.09875 312.0436Q121.255 312.1686 121.4425 312.1686Q121.67687 312.1686 122.08312 312.01236L122.17687 312.32486L119.78625 313.32486L119.38 313.32486L119.38 312.1686ZM119.38 311.55923L119.38 307.40298Q119.33312 306.80923 119.0675 306.32486Q118.80187 305.82486 118.36437 305.57486Q117.92687 305.32486 117.52062 305.32486Q116.73937 305.32486 116.13 306.01236Q115.33312 306.93423 115.33312 308.68423Q115.33312 310.46548 116.09875 311.4186Q116.88 312.3561 117.83312 312.3561Q118.63 312.3561 119.38 311.55923ZM126.63 304.7936Q128.45813 304.7936 129.5675 306.1686Q130.505 307.3561 130.505 308.90298Q130.505 309.9811 129.98938 311.09048Q129.47375 312.19986 128.55188 312.76236Q127.64562 313.32486 126.53625 313.32486Q124.70812 313.32486 123.64562 311.87173Q122.73937 310.65298 122.73937 309.12173Q122.73937 308.02798 123.28625 306.93423Q123.83312 305.82486 124.72375 305.30923Q125.63 304.7936 126.63 304.7936ZM126.36437 305.3561Q125.89562 305.3561 125.42687 305.63736Q124.95812 305.9186 124.66125 306.6061Q124.36437 307.2936 124.36437 308.38736Q124.36437 310.15298 125.0675 311.43423Q125.77062 312.69986 126.91125 312.69986Q127.77062 312.69986 128.3175 311.99673Q128.86438 311.2936 128.86438 309.57486Q128.86438 307.43423 127.9425 306.19986Q127.3175 305.3561 126.36437 305.3561Z" fill-rule="nonzero"/><path fill="#000000" d="M137.5675 345.52814Q137.5675 344.16876 137.97375 343.1844Q138.38 342.2 139.0675 341.71564Q139.59875 341.34064 140.16125 341.34064Q141.0675 341.34064 141.80188 342.27814Q142.70813 343.41876 142.70813 345.40314Q142.70813 346.77814 142.30188 347.7469Q141.91125 348.71564 141.28625 349.15314Q140.67688 349.59064 140.09875 349.59064Q138.95813 349.59064 138.20813 348.2469Q137.5675 347.1219 137.5675 345.52814ZM138.70813 345.66876Q138.70813 347.3094 139.11438 348.34064Q139.45813 349.21564 140.11438 349.21564Q140.42688 349.21564 140.77063 348.9344Q141.11438 348.65314 141.28625 347.98126Q141.55188 346.98126 141.55188 345.1375Q141.55188 343.77814 141.27063 342.8719Q141.0675 342.2 140.72375 341.91876Q140.48938 341.73126 140.14563 341.73126Q139.755 341.73126 139.4425 342.09064Q139.02063 342.575 138.86438 343.6219Q138.70813 344.65314 138.70813 345.66876Z" fill-rule="nonzero"/><path fill="#000000" d="M230.59712 341.4969L230.144 342.4969L227.75337 342.4969L227.23775 343.5594Q228.78462 343.79376 229.69087 344.71564Q230.47212 345.5125 230.47212 346.59064Q230.47212 347.21564 230.22212 347.7625Q229.97212 348.29376 229.5815 348.66876Q229.19087 349.04376 228.72212 349.2625Q228.05025 349.59064 227.3315 349.59064Q226.61275 349.59064 226.28462 349.35626Q225.97212 349.10626 225.97212 348.8094Q225.97212 348.65314 226.09712 348.52814Q226.23775 348.3875 226.44087 348.3875Q226.59712 348.3875 226.7065 348.4344Q226.8315 348.48126 227.09712 348.6844Q227.53462 348.98126 227.98775 348.98126Q228.67525 348.98126 229.19087 348.46564Q229.7065 347.95 229.7065 347.2Q229.7065 346.48126 229.23775 345.85626Q228.78462 345.23126 227.97212 344.90314Q227.3315 344.6375 226.23775 344.59064L227.75337 341.4969L230.59712 341.4969Z" fill-rule="nonzero"/><path fill="#000000" d="M312.06424 342.27814L314.00174 341.34064L314.18924 341.34064L314.18924 348.04376Q314.18924 348.71564 314.2361 348.8875Q314.2986 349.04376 314.4705 349.1375Q314.658 349.21564 315.18924 349.23126L315.18924 349.45L312.20486 349.45L312.20486 349.23126Q312.76736 349.21564 312.9236 349.1375Q313.0955 349.04376 313.158 348.90314Q313.2205 348.7625 313.2205 348.04376L313.2205 343.7625Q313.2205 342.8875 313.1736 342.65314Q313.12674 342.46564 313.01736 342.3719Q312.908 342.27814 312.75174 342.27814Q312.533 342.27814 312.158 342.46564L312.06424 342.27814ZM317.0955 345.52814Q317.0955 344.16876 317.50174 343.1844Q317.908 342.2 318.5955 341.71564Q319.12674 341.34064 319.68924 341.34064Q320.5955 341.34064 321.32986 342.27814Q322.2361 343.41876 322.2361 345.40314Q322.2361 346.77814 321.82986 347.7469Q321.43924 348.71564 320.81424 349.15314Q320.20486 349.59064 319.62674 349.59064Q318.4861 349.59064 317.7361 348.2469Q317.0955 347.1219 317.0955 345.52814ZM318.2361 345.66876Q318.2361 347.3094 318.64236 348.34064Q318.9861 349.21564 319.64236 349.21564Q319.95486 349.21564 320.2986 348.9344Q320.64236 348.65314 320.81424 347.98126Q321.07986 346.98126 321.07986 345.1375Q321.07986 343.77814 320.7986 342.8719Q320.5955 342.2 320.25174 341.91876Q320.01736 341.73126 319.6736 341.73126Q319.283 341.73126 318.9705 342.09064Q318.5486 342.575 318.39236 343.6219Q318.2361 344.65314 318.2361 345.66876Z" fill-rule="nonzero"/><path fill="#000000" d="M400.32825 342.27814L402.26575 341.34064L402.45325 341.34064L402.45325 348.04376Q402.45325 348.71564 402.50012 348.8875Q402.56262 349.04376 402.7345 349.1375Q402.922 349.21564 403.45325 349.23126L403.45325 349.45L400.46887 349.45L400.46887 349.23126Q401.03137 349.21564 401.18762 349.1375Q401.3595 349.04376 401.422 348.90314Q401.4845 348.7625 401.4845 348.04376L401.4845 343.7625Q401.4845 342.8875 401.43762 342.65314Q401.39075 342.46564 401.28137 342.3719Q401.172 342.27814 401.01575 342.27814Q400.797 342.27814 400.422 342.46564L400.32825 342.27814ZM410.12512 341.4969L409.672 342.4969L407.28137 342.4969L406.76575 343.5594Q408.31262 343.79376 409.21887 344.71564Q410.00012 345.5125 410.00012 346.59064Q410.00012 347.21564 409.75012 347.7625Q409.50012 348.29376 409.1095 348.66876Q408.71887 349.04376 408.25012 349.2625Q407.57825 349.59064 406.8595 349.59064Q406.14075 349.59064 405.81262 349.35626Q405.50012 349.10626 405.50012 348.8094Q405.50012 348.65314 405.62512 348.52814Q405.76575 348.3875 405.96887 348.3875Q406.12512 348.3875 406.2345 348.4344Q406.3595 348.48126 406.62512 348.6844Q407.06262 348.98126 407.51575 348.98126Q408.20325 348.98126 408.71887 348.46564Q409.2345 347.95 409.2345 347.2Q409.2345 346.48126 408.76575 345.85626Q408.31262 345.23126 407.50012 344.90314Q406.8595 344.6375 405.76575 344.59064L407.28137 341.4969L410.12512 341.4969Z" fill-rule="nonzero"/><path fill="#000000" d="M492.686 347.91876L492.13913 349.45L487.45163 349.45L487.45163 349.23126Q489.51413 347.34064 490.35788 346.15314Q491.20163 344.95 491.20163 343.96564Q491.20163 343.21564 490.73288 342.73126Q490.27975 342.23126 489.6235 342.23126Q489.04538 342.23126 488.57663 342.575Q488.10788 342.91876 487.88913 343.59064L487.67038 343.59064Q487.82663 342.4969 488.42038 341.91876Q489.02975 341.34064 489.936 341.34064Q490.90475 341.34064 491.54538 341.96564Q492.20163 342.575 492.20163 343.41876Q492.20163 344.02814 491.92038 344.6375Q491.48288 345.575 490.51413 346.6375Q489.061 348.23126 488.686 348.5594L490.76413 348.5594Q491.40475 348.5594 491.65475 348.5125Q491.90475 348.46564 492.10788 348.325Q492.32663 348.1844 492.46725 347.91876L492.686 347.91876ZM493.6235 345.52814Q493.6235 344.16876 494.02975 343.1844Q494.436 342.2 495.1235 341.71564Q495.65475 341.34064 496.21725 341.34064Q497.1235 341.34064 497.85788 342.27814Q498.76413 343.41876 498.76413 345.40314Q498.76413 346.77814 498.35788 347.7469Q497.96725 348.71564 497.34225 349.15314Q496.73288 349.59064 496.15475 349.59064Q495.01413 349.59064 494.26413 348.2469Q493.6235 347.1219 493.6235 345.52814ZM494.76413 345.66876Q494.76413 347.3094 495.17038 348.34064Q495.51413 349.21564 496.17038 349.21564Q496.48288 349.21564 496.82663 348.9344Q497.17038 348.65314 497.34225 347.98126Q497.60788 346.98126 497.60788 345.1375Q497.60788 343.77814 497.32663 342.8719Q497.1235 342.2 496.77975 341.91876Q496.54538 341.73126 496.20163 341.73126Q495.811 341.73126 495.4985 342.09064Q495.07663 342.575 494.92038 343.6219Q494.76413 344.65314 494.76413 345.66876Z" fill-rule="nonzero"/><path fill="#000000" d="M580.95 347.91876L580.40314 349.45L575.71564 349.45L575.71564 349.23126Q577.77814 347.34064 578.6219 346.15314Q579.46564 344.95 579.46564 343.96564Q579.46564 343.21564 578.9969 342.73126Q578.54376 342.23126 577.8875 342.23126Q577.3094 342.23126 576.84064 342.575Q576.3719 342.91876 576.15314 343.59064L575.9344 343.59064Q576.09064 342.4969 576.6844 341.91876Q577.29376 341.34064 578.2 341.34064Q579.16876 341.34064 579.8094 341.96564Q580.46564 342.575 580.46564 343.41876Q580.46564 344.02814 580.1844 344.6375Q579.7469 345.575 578.77814 346.6375Q577.325 348.23126 576.95 348.5594L579.02814 348.5594Q579.66876 348.5594 579.91876 348.5125Q580.16876 348.46564 580.3719 348.325Q580.59064 348.1844 580.73126 347.91876L580.95 347.91876ZM586.65314 341.4969L586.2 342.4969L583.8094 342.4969L583.29376 343.5594Q584.84064 343.79376 585.7469 344.71564Q586.52814 345.5125 586.52814 346.59064Q586.52814 347.21564 586.27814 347.7625Q586.02814 348.29376 585.6375 348.66876Q585.2469 349.04376 584.77814 349.2625Q584.10626 349.59064 583.3875 349.59064Q582.66876 349.59064 582.34064 349.35626Q582.02814 349.10626 582.02814 348.8094Q582.02814 348.65314 582.15314 348.52814Q582.29376 348.3875 582.4969 348.3875Q582.65314 348.3875 582.7625 348.4344Q582.8875 348.48126 583.15314 348.6844Q583.59064 348.98126 584.04376 348.98126Q584.73126 348.98126 585.2469 348.46564Q585.7625 347.95 585.7625 347.2Q585.7625 346.48126 585.29376 345.85626Q584.84064 345.23126 584.02814 344.90314Q583.3875 344.6375 582.29376 344.59064L583.8094 341.4969L586.65314 341.4969Z" fill-rule="nonzero"/></svg>