<svg version="1.1" viewBox="0.0 0.0 600.0 371.0" fill="none" stroke="none" stroke-linecap="square" stroke-miterlimit="10" width="600" height="371" xmlns:xlink="http://www.w3.org/1999/xlink" xmlns="http://www.w3.org/2000/svg"><path fill="#ffffff" d="M0 0L600.0 0L600.0 371.0L0 371.0L0 0Z" fill-rule="nonzero"/><path stroke="#333333" stroke-width="1.0" stroke-linecap="butt" d="M111.5 18.5L111.5 332.5" fill-rule="nonzero"/><path stroke="#cccccc" stroke-width="1.0" stroke-linecap="butt" d="M229.5 18.5L229.5 332.5" fill-rule="nonzero"/><path stroke="#cccccc" stroke-width="1.0" stroke-linecap="butt" d="M346.5 18.5L346.5 332.5" fill-rule="nonzero"/><path stroke="#cccccc" stroke-width="1.0" stroke-linecap="butt" d="M463.5 18.5L463.5 332.5" fill-rule="nonzero"/><path stroke="#cccccc" stroke-width="1.0" stroke-linecap="butt" d="M581.5 18.5L581.5 332.5" fill-rule="nonzero"/><clipPath id="id_0"><path d="M111.55 18.55L581.45 18.55L581.45 332.45L111.55 332.45L111.55 18.55Z" clip-rule="nonzero"/></clipPath><path stroke="#000000" stroke-width="2.0" stroke-linecap="butt" stroke-opacity="0.0" clip-path="url(#id_0)" d="M112.0 68.0L112.0 36.0L497.0 36.0C498.10458 36.0 499.0 36.89543 499.0 38.0L499.0 66.0C499.0 67.10457 498.10458 68.0 497.0 68.0Z" fill-rule="nonzero"/><path fill="#4472c4" clip-path="url(#id_0)" d="M112.0 68.0L112.0 36.0L497.0 36.0C498.10458 36.0 499.0 36.89543 499.0 38.0L499.0 66.0C499.0 67.10457 498.10458 68.0 497.0 68.0Z" fill-rule="nonzero"/><path stroke="#000000" stroke-width="2.0" stroke-linecap="butt" stroke-opacity="0.0" clip-path="url(#id_0)" d="M112.0 117.0L112.0 85.0L474.0 85.0C475.10458 85.0 476.0 85.89543 476.0 87.0L476.0 115.0C476.0 116.10457 475.10458 117.0 474.0 117.0Z" fill-rule="nonzero"/><path fill="#4472c4" clip-path="url(#id_0)" d="M112.0 117.0L112.0 85.0L474.0 85.0C475.10458 85.0 476.0 85.89543 476.0 87.0L476.0 115.0C476.0 116.10457 475.10458 117.0 474.0 117.0Z" fill-rule="nonzero"/><path stroke="#000000" stroke-width="2.0" stroke-linecap="butt" stroke-opacity="0.0" clip-path="url(#id_0)" d="M112.0 167.0L112.0 135.0L497.0 135.0C498.10458 135.0 499.0 135.89543 499.0 137.0L499.0 165.0C499.0 166.10457 498.10458 167.0 497.0 167.0Z" fill-rule="nonzero"/><path fill="#4472c4" clip-path="url(#id_0)" d="M112.0 167.0L112.0 135.0L497.0 135.0C498.10458 135.0 499.0 135.89543 499.0 137.0L499.0 165.0C499.0 166.10457 498.10458 167.0 497.0 167.0Z" fill-rule="nonzero"/><path stroke="#000000" stroke-width="2.0" stroke-linecap="butt" stroke-opacity="0.0" clip-path="url(#id_0)" d="M112.0 216.0L112.0 184.0L121.0 184.0C122.10457 184.0 123.0 184.89543 123.0 186.0L123.0 214.0C123.0 215.10457 122.10457 216.0 121.0 216.0Z" fill-rule="nonzero"/><path fill="#4472c4" clip-path="url(#id_0)" d="M112.0 216.0L112.0 184.0L121.0 184.0C122.10457 184.0 123.0 184.89543 123.0 186.0L123.0 214.0C123.0 215.10457 122.10457 216.0 121.0 216.0Z" fill-rule="nonzero"/><path stroke="#000000" stroke-width="2.0" stroke-linecap="butt" stroke-opacity="0.0" clip-path="url(#id_0)" d="M112.0 266.0L112.0 234.0L121.0 234.0C122.10457 234.0 123.0 234.89543 123.0 236.0L123.0 264.0C123.0 265.10458 122.10457 266.0 121.0 266.0Z" fill-rule="nonzero"/><path fill="#4472c4" clip-path="url(#id_0)" d="M112.0 266.0L112.0 234.0L121.0 234.0C122.10457 234.0 123.0 234.89543 123.0 236.0L123.0 264.0C123.0 265.10458 122.10457 266.0 121.0 266.0Z" fill-rule="nonzero"/><path stroke="#000000" stroke-width="2.0" stroke-linecap="butt" stroke-opacity="0.0" clip-path="url(#id_0)" d="M112.0 315.0L112.0 283.0L121.0 283.0C122.10457 283.0 123.0 283.89542 123.0 285.0L123.0 313.0C123.0 314.10458 122.10457 315.0 121.0 315.0Z" fill-rule="nonzero"/><path fill="#4472c4" clip-path="url(#id_0)" d="M112.0 315.0L112.0 283.0L121.0 283.0C122.10457 283.0 123.0 283.89542 123.0 285.0L123.0 313.0C123.0 314.10458 122.10457 315.0 121.0 315.0Z" fill-rule="nonzero"/><path stroke="#4472c4" stroke-width="3.0" stroke-linejoin="round" stroke-linecap="round" d="M482.69876 51.703125L483.51126 51.703125Q484.2925 51.6875 484.73 51.296875Q485.1675 50.90625 485.1675 50.234375Q485.1675 48.734375 483.6675 48.734375Q482.9644 48.734375 482.5425 49.140625Q482.13626 49.546875 482.13626 50.203125L481.0425 50.203125Q481.0425 49.1875 481.7769 48.515625Q482.5269 47.84375 483.6675 47.84375Q484.87064 47.84375 485.55814 48.484375Q486.24564 49.125 486.24564 50.265625Q486.24564 50.828125 485.88626 51.34375Q485.5269 51.859375 484.9019 52.125Q485.605 52.34375 485.98 52.859375Q486.37064 53.375 486.37064 54.125Q486.37064 55.265625 485.62064 55.953125Q484.87064 56.625 483.6675 56.625Q482.48 56.625 481.7144 55.96875Q480.9644 55.3125 480.9644 54.25L482.05814 54.25Q482.05814 54.921875 482.49564 55.328125Q482.93314 55.734375 483.68314 55.734375Q484.4644 55.734375 484.87064 55.328125Q485.2925 54.90625 485.2925 54.140625Q485.2925 53.40625 484.8394 53.015625Q484.38626 52.609375 483.51126 52.59375L482.69876 52.59375L482.69876 51.703125ZM489.69876 51.703125L490.51126 51.703125Q491.2925 51.6875 491.73 51.296875Q492.1675 50.90625 492.1675 50.234375Q492.1675 48.734375 490.6675 48.734375Q489.9644 48.734375 489.5425 49.140625Q489.13626 49.546875 489.13626 50.203125L488.0425 50.203125Q488.0425 49.1875 488.7769 48.515625Q489.5269 47.84375 490.6675 47.84375Q491.87064 47.84375 492.55814 48.484375Q493.24564 49.125 493.24564 50.265625Q493.24564 50.828125 492.88626 51.34375Q492.5269 51.859375 491.9019 52.125Q492.605 52.34375 492.98 52.859375Q493.37064 53.375 493.37064 54.125Q493.37064 55.265625 492.62064 55.953125Q491.87064 56.625 490.6675 56.625Q489.48 56.625 488.7144 55.96875Q487.9644 55.3125 487.9644 54.25L489.05814 54.25Q489.05814 54.921875 489.49564 55.328125Q489.93314 55.734375 490.68314 55.734375Q491.4644 55.734375 491.87064 55.328125Q492.2925 54.90625 492.2925 54.140625Q492.2925 53.40625 491.8394 53.015625Q491.38626 52.609375 490.51126 52.59375L489.69876 52.59375L489.69876 51.703125Z" fill-rule="nonzero"/><path fill="#ffffff" d="M482.69876 51.703125L483.51126 51.703125Q484.2925 51.6875 484.73 51.296875Q485.1675 50.90625 485.1675 50.234375Q485.1675 48.734375 483.6675 48.734375Q482.9644 48.734375 482.5425 49.140625Q482.13626 49.546875 482.13626 50.203125L481.0425 50.203125Q481.0425 49.1875 481.7769 48.515625Q482.5269 47.84375 483.6675 47.84375Q484.87064 47.84375 485.55814 48.484375Q486.24564 49.125 486.24564 50.265625Q486.24564 50.828125 485.88626 51.34375Q485.5269 51.859375 484.9019 52.125Q485.605 52.34375 485.98 52.859375Q486.37064 53.375 486.37064 54.125Q486.37064 55.265625 485.62064 55.953125Q484.87064 56.625 483.6675 56.625Q482.48 56.625 481.7144 55.96875Q480.9644 55.3125 480.9644 54.25L482.05814 54.25Q482.05814 54.921875 482.49564 55.328125Q482.93314 55.734375 483.68314 55.734375Q484.4644 55.734375 484.87064 55.328125Q485.2925 54.90625 485.2925 54.140625Q485.2925 53.40625 484.8394 53.015625Q484.38626 52.609375 483.51126 52.59375L482.69876 52.59375L482.69876 51.703125ZM489.69876 51.703125L490.51126 51.703125Q491.2925 51.6875 491.73 51.296875Q492.1675 50.90625 492.1675 50.234375Q492.1675 48.734375 490.6675 48.734375Q489.9644 48.734375 489.5425 49.140625Q489.13626 49.546875 489.13626 50.203125L488.0425 50.203125Q488.0425 49.1875 488.7769 48.515625Q489.5269 47.84375 490.6675 47.84375Q491.87064 47.84375 492.55814 48.484375Q493.24564 49.125 493.24564 50.265625Q493.24564 50.828125 492.88626 51.34375Q492.5269 51.859375 491.9019 52.125Q492.605 52.34375 492.98 52.859375Q493.37064 53.375 493.37064 54.125Q493.37064 55.265625 492.62064 55.953125Q491.87064 56.625 490.6675 56.625Q489.48 56.625 488.7144 55.96875Q487.9644 55.3125 487.9644 54.25L489.05814 54.25Q489.05814 54.921875 489.49564 55.328125Q489.93314 55.734375 490.68314 55.734375Q491.4644 55.734375 491.87064 55.328125Q492.2925 54.90625 492.2925 54.140625Q492.2925 53.40625 491.8394 53.015625Q491.38626 52.609375 490.51126 52.59375L489.69876 52.59375L489.69876 51.703125Z" fill-rule="nonzero"/><path stroke="#4472c4" stroke-width="3.0" stroke-linejoin="round" stroke-linecap="round" d="M459.20374 100.703125L460.01624 100.703125Q460.7975 100.6875 461.235 100.296875Q461.6725 99.90625 461.6725 99.234375Q461.6725 97.734375 460.1725 97.734375Q459.46936 97.734375 459.0475 98.140625Q458.64124 98.546875 458.64124 99.203125L457.5475 99.203125Q457.5475 98.1875 458.28186 97.515625Q459.03186 96.84375 460.1725 96.84375Q461.3756 96.84375 462.0631 97.484375Q462.7506 98.125 462.7506 99.265625Q462.7506 99.828125 462.39124 100.34375Q462.03186 100.859375 461.40686 101.125Q462.11 101.34375 462.485 101.859375Q462.8756 102.375 462.8756 103.125Q462.8756 104.265625 462.1256 104.953125Q461.3756 105.625 460.1725 105.625Q458.985 105.625 458.21936 104.96875Q457.46936 104.3125 457.46936 103.25L458.5631 103.25Q458.5631 103.921875 459.0006 104.328125Q459.4381 104.734375 460.1881 104.734375Q460.96936 104.734375 461.3756 104.328125Q461.7975 103.90625 461.7975 103.140625Q461.7975 102.40625 461.34436 102.015625Q460.89124 101.609375 460.01624 101.59375L459.20374 101.59375L459.20374 100.703125ZM468.1881 105.5L467.11 105.5L467.11 98.28125L464.9225 99.078125L464.9225 98.09375L468.03186 96.921875L468.1881 96.921875L468.1881 105.5Z" fill-rule="nonzero"/><path fill="#ffffff" d="M459.20374 100.703125L460.01624 100.703125Q460.7975 100.6875 461.235 100.296875Q461.6725 99.90625 461.6725 99.234375Q461.6725 97.734375 460.1725 97.734375Q459.46936 97.734375 459.0475 98.140625Q458.64124 98.546875 458.64124 99.203125L457.5475 99.203125Q457.5475 98.1875 458.28186 97.515625Q459.03186 96.84375 460.1725 96.84375Q461.3756 96.84375 462.0631 97.484375Q462.7506 98.125 462.7506 99.265625Q462.7506 99.828125 462.39124 100.34375Q462.03186 100.859375 461.40686 101.125Q462.11 101.34375 462.485 101.859375Q462.8756 102.375 462.8756 103.125Q462.8756 104.265625 462.1256 104.953125Q461.3756 105.625 460.1725 105.625Q458.985 105.625 458.21936 104.96875Q457.46936 104.3125 457.46936 103.25L458.5631 103.25Q458.5631 103.921875 459.0006 104.328125Q459.4381 104.734375 460.1881 104.734375Q460.96936 104.734375 461.3756 104.328125Q461.7975 103.90625 461.7975 103.140625Q461.7975 102.40625 461.34436 102.015625Q460.89124 101.609375 460.01624 101.59375L459.20374 101.59375L459.20374 100.703125ZM468.1881 105.5L467.11 105.5L467.11 98.28125L464.9225 99.078125L464.9225 98.09375L468.03186 96.921875L468.1881 96.921875L468.1881 105.5Z" fill-rule="nonzero"/><path stroke="#4472c4" stroke-width="3.0" stroke-linejoin="round" stroke-linecap="round" d="M482.69876 150.70312L483.51126 150.70312Q484.2925 150.6875 484.73 150.29688Q485.1675 149.90625 485.1675 149.23438Q485.1675 147.73438 483.6675 147.73438Q482.9644 147.73438 482.5425 148.14062Q482.13626 148.54688 482.13626 149.20312L481.0425 149.20312Q481.0425 148.1875 481.7769 147.51562Q482.5269 146.84375 483.6675 146.84375Q484.87064 146.84375 485.55814 147.48438Q486.24564 148.125 486.24564 149.26562Q486.24564 149.82812 485.88626 150.34375Q485.5269 150.85938 484.9019 151.125Q485.605 151.34375 485.98 151.85938Q486.37064 152.375 486.37064 153.125Q486.37064 154.26562 485.62064 154.95312Q484.87064 155.625 483.6675 155.625Q482.48 155.625 481.7144 154.96875Q480.9644 154.3125 480.9644 153.25L482.05814 153.25Q482.05814 153.92188 482.49564 154.32812Q482.93314 154.73438 483.68314 154.73438Q484.4644 154.73438 484.87064 154.32812Q485.2925 153.90625 485.2925 153.14062Q485.2925 152.40625 484.8394 152.01562Q484.38626 151.60938 483.51126 151.59375L482.69876 151.59375L482.69876 150.70312ZM489.69876 150.70312L490.51126 150.70312Q491.2925 150.6875 491.73 150.29688Q492.1675 149.90625 492.1675 149.23438Q492.1675 147.73438 490.6675 147.73438Q489.9644 147.73438 489.5425 148.14062Q489.13626 148.54688 489.13626 149.20312L488.0425 149.20312Q488.0425 148.1875 488.7769 147.51562Q489.5269 146.84375 490.6675 146.84375Q491.87064 146.84375 492.55814 147.48438Q493.24564 148.125 493.24564 149.26562Q493.24564 149.82812 492.88626 150.34375Q492.5269 150.85938 491.9019 151.125Q492.605 151.34375 492.98 151.85938Q493.37064 152.375 493.37064 153.125Q493.37064 154.26562 492.62064 154.95312Q491.87064 155.625 490.6675 155.625Q489.48 155.625 488.7144 154.96875Q487.9644 154.3125 487.9644 153.25L489.05814 153.25Q489.05814 153.92188 489.49564 154.32812Q489.93314 154.73438 490.68314 154.73438Q491.4644 154.73438 491.87064 154.32812Q492.2925 153.90625 492.2925 153.14062Q492.2925 152.40625 491.8394 152.01562Q491.38626 151.60938 490.51126 151.59375L489.69876 151.59375L489.69876 150.70312Z" fill-rule="nonzero"/><path fill="#ffffff" d="M482.69876 150.70312L483.51126 150.70312Q484.2925 150.6875 484.73 150.29688Q485.1675 149.90625 485.1675 149.23438Q485.1675 147.73438 483.6675 147.73438Q482.9644 147.73438 482.5425 148.14062Q482.13626 148.54688 482.13626 149.20312L481.0425 149.20312Q481.0425 148.1875 481.7769 147.51562Q482.5269 146.84375 483.6675 146.84375Q484.87064 146.84375 485.55814 147.48438Q486.24564 148.125 486.24564 149.26562Q486.24564 149.82812 485.88626 150.34375Q485.5269 150.85938 484.9019 151.125Q485.605 151.34375 485.98 151.85938Q486.37064 152.375 486.37064 153.125Q486.37064 154.26562 485.62064 154.95312Q484.87064 155.625 483.6675 155.625Q482.48 155.625 481.7144 154.96875Q480.9644 154.3125 480.9644 153.25L482.05814 153.25Q482.05814 153.92188 482.49564 154.32812Q482.93314 154.73438 483.68314 154.73438Q484.4644 154.73438 484.87064 154.32812Q485.2925 153.90625 485.2925 153.14062Q485.2925 152.40625 484.8394 152.01562Q484.38626 151.60938 483.51126 151.59375L482.69876 151.59375L482.69876 150.70312ZM489.69876 150.70312L490.51126 150.70312Q491.2925 150.6875 491.73 150.29688Q492.1675 149.90625 492.1675 149.23438Q492.1675 147.73438 490.6675 147.73438Q489.9644 147.73438 489.5425 148.14062Q489.13626 148.54688 489.13626 149.20312L488.0425 149.20312Q488.0425 148.1875 488.7769 147.51562Q489.5269 146.84375 490.6675 146.84375Q491.87064 146.84375 492.55814 147.48438Q493.24564 148.125 493.24564 149.26562Q493.24564 149.82812 492.88626 150.34375Q492.5269 150.85938 491.9019 151.125Q492.605 151.34375 492.98 151.85938Q493.37064 152.375 493.37064 153.125Q493.37064 154.26562 492.62064 154.95312Q491.87064 155.625 490.6675 155.625Q489.48 155.625 488.7144 154.96875Q487.9644 154.3125 487.9644 153.25L489.05814 153.25Q489.05814 153.92188 489.49564 154.32812Q489.93314 154.73438 490.68314 154.73438Q491.4644 154.73438 491.87064 154.32812Q492.2925 153.90625 492.2925 153.14062Q492.2925 152.40625 491.8394 152.01562Q491.38626 151.60938 490.51126 151.59375L489.69876 151.59375L489.69876 150.70312Z" fill-rule="nonzero"/><path stroke="#4472c4" stroke-width="3.0" stroke-linejoin="round" stroke-linecap="round" d="M118.18938 204.5L117.11125 204.5L117.11125 197.28125L114.92375 198.07812L114.92375 197.09375L118.03313 195.92188L118.18938 195.92188L118.18938 204.5Z" fill-rule="nonzero"/><path fill="#ffffff" d="M118.18938 204.5L117.11125 204.5L117.11125 197.28125L114.92375 198.07812L114.92375 197.09375L118.03313 195.92188L118.18938 195.92188L118.18938 204.5Z" fill-rule="nonzero"/><path stroke="#4472c4" stroke-width="3.0" stroke-linejoin="round" stroke-linecap="round" d="M118.18938 254.5L117.11125 254.5L117.11125 247.28125L114.92375 248.07812L114.92375 247.09375L118.03313 245.92188L118.18938 245.92188L118.18938 254.5Z" fill-rule="nonzero"/><path fill="#ffffff" d="M118.18938 254.5L117.11125 254.5L117.11125 247.28125L114.92375 248.07812L114.92375 247.09375L118.03313 245.92188L118.18938 245.92188L118.18938 254.5Z" fill-rule="nonzero"/><path stroke="#4472c4" stroke-width="3.0" stroke-linejoin="round" stroke-linecap="round" d="M118.18938 303.5L117.11125 303.5L117.11125 296.28125L114.92375 297.07812L114.92375 296.09375L118.03313 294.92188L118.18938 294.92188L118.18938 303.5Z" fill-rule="nonzero"/><path fill="#ffffff" d="M118.18938 303.5L117.11125 303.5L117.11125 296.28125L114.92375 297.07812L114.92375 296.09375L118.03313 294.92188L118.18938 294.92188L118.18938 303.5Z" fill-rule="nonzero"/><path fill="#000000" d="M61.01875 52.198574L61.01875 54.511074Q61.01875 55.261074 61.175 55.448574Q61.39375 55.698574 61.846874 55.698574L62.159374 55.698574L62.159374 55.917324L58.753124 55.917324L58.753124 55.698574L59.05 55.698574Q59.55 55.698574 59.76875 55.37045Q59.89375 55.18295 59.89375 54.511074L59.89375 49.37045Q59.89375 48.62045 59.721874 48.448574Q59.503124 48.18295 59.05 48.18295L58.753124 48.18295L58.753124 47.9642L61.659374 47.9642Q62.721874 47.9642 63.33125 48.198574Q63.95625 48.417324 64.37813 48.93295Q64.8 49.448574 64.8 50.167324Q64.8 51.136074 64.15938 51.74545Q63.51875 52.354824 62.346874 52.354824Q62.065624 52.354824 61.721874 52.323574Q61.39375 52.2767 61.01875 52.198574ZM61.01875 51.854824Q61.315624 51.917324 61.55 51.948574Q61.8 51.979824 61.971874 51.979824Q62.58125 51.979824 63.01875 51.511074Q63.471874 51.042324 63.471874 50.292324Q63.471874 49.7767 63.253124 49.3392Q63.05 48.886074 62.659374 48.667324Q62.26875 48.448574 61.784374 48.448574Q61.4875 48.448574 61.01875 48.55795L61.01875 51.854824ZM67.76875 47.5892L67.76875 54.698574Q67.76875 55.2142 67.84688 55.386074Q67.925 55.542324 68.06563 55.62045Q68.22188 55.698574 68.64375 55.698574L68.64375 55.917324L66.00313 55.917324L66.00313 55.698574Q66.37813 55.698574 66.50313 55.636074Q66.64375 55.55795 66.72188 55.386074Q66.8 55.198574 66.8 54.698574L66.8 49.823574Q66.8 48.917324 66.75313 48.7142Q66.72188 48.511074 66.62813 48.43295Q66.53438 48.354824 66.39375 48.354824Q66.2375 48.354824 66.00313 48.448574L65.90938 48.24545L67.50313 47.5892L67.76875 47.5892ZM71.97188 55.136074Q71.14375 55.7767 70.925 55.886074Q70.6125 56.0267 70.25313 56.0267Q69.70625 56.0267 69.33125 55.6517Q68.97188 55.261074 68.97188 54.6517Q68.97188 54.24545 69.15938 53.9642Q69.39375 53.573574 69.9875 53.229824Q70.58125 52.87045 71.97188 52.354824L71.97188 52.1517Q71.97188 51.3392 71.70625 51.042324Q71.45625 50.74545 70.97188 50.74545Q70.59688 50.74545 70.37813 50.948574Q70.15938 51.1517 70.15938 51.4017L70.175 51.74545Q70.175 52.011074 70.03438 52.167324Q69.89375 52.30795 69.675 52.30795Q69.45625 52.30795 69.31563 52.1517Q69.19063 51.99545 69.19063 51.74545Q69.19063 51.229824 69.70625 50.80795Q70.22188 50.386074 71.14375 50.386074Q71.8625 50.386074 72.31563 50.636074Q72.65938 50.80795 72.83125 51.198574Q72.94063 51.448574 72.94063 52.229824L72.94063 54.05795Q72.94063 54.823574 72.95625 54.99545Q72.9875 55.167324 73.05 55.229824Q73.12813 55.2767 73.22188 55.2767Q73.31563 55.2767 73.37813 55.24545Q73.50313 55.167324 73.84688 54.80795L73.84688 55.136074Q73.19063 56.0267 72.59688 56.0267Q72.31563 56.0267 72.14375 55.823574Q71.97188 55.62045 71.97188 55.136074ZM71.97188 54.761074L71.97188 52.7142Q71.08125 53.073574 70.83125 53.2142Q70.3625 53.479824 70.15938 53.761074Q69.95625 54.042324 69.95625 54.37045Q69.95625 54.792324 70.20625 55.073574Q70.47188 55.354824 70.8 55.354824Q71.2375 55.354824 71.97188 54.761074ZM75.4875 51.5267Q76.44063 50.386074 77.28438 50.386074Q77.72188 50.386074 78.03438 50.604824Q78.3625 50.823574 78.55 51.3392Q78.675 51.68295 78.675 52.417324L78.675 54.698574Q78.675 55.2142 78.75313 55.4017Q78.83125 55.542324 78.97188 55.62045Q79.1125 55.698574 79.50313 55.698574L79.50313 55.917324L76.84688 55.917324L76.84688 55.698574L76.95625 55.698574Q77.33125 55.698574 77.47188 55.5892Q77.62813 55.479824 77.69063 55.261074Q77.70625 55.167324 77.70625 54.698574L77.70625 52.511074Q77.70625 51.7767 77.51875 51.448574Q77.33125 51.104824 76.87813 51.104824Q76.175 51.104824 75.4875 51.87045L75.4875 54.698574Q75.4875 55.24545 75.55 55.37045Q75.64375 55.542324 75.78438 55.62045Q75.925 55.698574 76.3625 55.698574L76.3625 55.917324L73.70625 55.917324L73.70625 55.698574L73.83125 55.698574Q74.2375 55.698574 74.37813 55.49545Q74.51875 55.292324 74.51875 54.698574L74.51875 52.7142Q74.51875 51.74545 74.47188 51.542324Q74.44063 51.323574 74.34688 51.24545Q74.25313 51.167324 74.09688 51.167324Q73.94063 51.167324 73.70625 51.261074L73.62813 51.042324L75.2375 50.386074L75.4875 50.386074L75.4875 51.5267ZM80.83125 52.573574Q80.81563 53.761074 81.40938 54.448574Q81.9875 55.12045 82.78438 55.12045Q83.31563 55.12045 83.70625 54.8392Q84.09688 54.542324 84.3625 53.8392L84.53438 53.9642Q84.40938 54.761074 83.81563 55.43295Q83.2375 56.0892 82.34688 56.0892Q81.37813 56.0892 80.69063 55.3392Q80.00313 54.573574 80.00313 53.30795Q80.00313 51.93295 80.70625 51.167324Q81.40938 50.386074 82.47188 50.386074Q83.37813 50.386074 83.95625 50.979824Q84.53438 51.573574 84.53438 52.573574L80.83125 52.573574ZM80.83125 52.229824L83.31563 52.229824Q83.28438 51.7142 83.19063 51.511074Q83.05 51.18295 82.75313 50.99545Q82.45625 50.80795 82.14375 50.80795Q81.65938 50.80795 81.26875 51.18295Q80.89375 51.55795 80.83125 52.229824ZM86.4875 48.792324L86.4875 50.542324L87.7375 50.542324L87.7375 50.9642L86.4875 50.9642L86.4875 54.43295Q86.4875 54.9642 86.62813 55.1517Q86.78438 55.323574 87.01875 55.323574Q87.20625 55.323574 87.39375 55.2142Q87.58125 55.0892 87.675 54.854824L87.90938 54.854824Q87.69063 55.417324 87.31563 55.7142Q86.94063 56.011074 86.55 56.011074Q86.28438 56.011074 86.01875 55.854824Q85.76875 55.698574 85.64375 55.43295Q85.51875 55.1517 85.51875 54.573574L85.51875 50.9642L84.675 50.9642L84.675 50.761074Q84.9875 50.636074 85.31563 50.3392Q85.65938 50.0267 85.925 49.604824Q86.06563 49.37045 86.3 48.792324L86.4875 48.792324ZM91.97188 55.136074Q91.14375 55.7767 90.925 55.886074Q90.6125 56.0267 90.25313 56.0267Q89.70625 56.0267 89.33125 55.6517Q88.97188 55.261074 88.97188 54.6517Q88.97188 54.24545 89.15938 53.9642Q89.39375 53.573574 89.9875 53.229824Q90.58125 52.87045 91.97188 52.354824L91.97188 52.1517Q91.97188 51.3392 91.70625 51.042324Q91.45625 50.74545 90.97188 50.74545Q90.59688 50.74545 90.37813 50.948574Q90.15938 51.1517 90.15938 51.4017L90.175 51.74545Q90.175 52.011074 90.03438 52.167324Q89.89375 52.30795 89.675 52.30795Q89.45625 52.30795 89.31563 52.1517Q89.19063 51.99545 89.19063 51.74545Q89.19063 51.229824 89.70625 50.80795Q90.22188 50.386074 91.14375 50.386074Q91.8625 50.386074 92.31563 50.636074Q92.65938 50.80795 92.83125 51.198574Q92.94063 51.448574 92.94063 52.229824L92.94063 54.05795Q92.94063 54.823574 92.95625 54.99545Q92.9875 55.167324 93.05 55.229824Q93.12813 55.2767 93.22188 55.2767Q93.31563 55.2767 93.37813 55.24545Q93.50313 55.167324 93.84688 54.80795L93.84688 55.136074Q93.19063 56.0267 92.59688 56.0267Q92.31563 56.0267 92.14375 55.823574Q91.97188 55.62045 91.97188 55.136074ZM91.97188 54.761074L91.97188 52.7142Q91.08125 53.073574 90.83125 53.2142Q90.3625 53.479824 90.15938 53.761074Q89.95625 54.042324 89.95625 54.37045Q89.95625 54.792324 90.20625 55.073574Q90.47188 55.354824 90.8 55.354824Q91.2375 55.354824 91.97188 54.761074ZM92.55 47.7767L90.81563 49.792324L90.62813 49.792324L91.2375 47.7767L92.55 47.7767ZM95.50313 50.386074L95.50313 51.604824Q96.175 50.386074 96.87813 50.386074Q97.20625 50.386074 97.40938 50.5892Q97.62813 50.7767 97.62813 51.042324Q97.62813 51.2767 97.47188 51.43295Q97.31563 51.5892 97.1125 51.5892Q96.90938 51.5892 96.64375 51.386074Q96.39375 51.18295 96.26875 51.18295Q96.15938 51.18295 96.03438 51.292324Q95.78438 51.542324 95.50313 52.0892L95.50313 54.667324Q95.50313 55.104824 95.6125 55.3392Q95.69063 55.49545 95.87813 55.604824Q96.06563 55.698574 96.44063 55.698574L96.44063 55.917324L93.69063 55.917324L93.69063 55.698574Q94.09688 55.698574 94.3 55.573574Q94.44063 55.479824 94.50313 55.2767Q94.53438 55.18295 94.53438 54.7142L94.53438 52.636074Q94.53438 51.698574 94.4875 51.5267Q94.45625 51.3392 94.34688 51.261074Q94.25313 51.167324 94.09688 51.167324Q93.90938 51.167324 93.69063 51.261074L93.62813 51.042324L95.25313 50.386074L95.50313 50.386074ZM99.28438 47.5892Q99.53438 47.5892 99.70625 47.761074Q99.87813 47.93295 99.87813 48.18295Q99.87813 48.417324 99.70625 48.604824Q99.53438 48.7767 99.28438 48.7767Q99.05 48.7767 98.8625 48.604824Q98.69063 48.417324 98.69063 48.18295Q98.69063 47.93295 98.8625 47.761074Q99.03438 47.5892 99.28438 47.5892ZM99.78438 50.386074L99.78438 54.698574Q99.78438 55.2142 99.84688 55.386074Q99.925 55.542324 100.06563 55.62045Q100.20625 55.698574 100.59688 55.698574L100.59688 55.917324L97.9875 55.917324L97.9875 55.698574Q98.37813 55.698574 98.50313 55.636074Q98.64375 55.55795 98.72188 55.386074Q98.8 55.198574 98.8 54.698574L98.8 52.636074Q98.8 51.761074 98.75313 51.511074Q98.70625 51.323574 98.6125 51.24545Q98.53438 51.167324 98.37813 51.167324Q98.22188 51.167324 97.9875 51.261074L97.90938 51.042324L99.51875 50.386074L99.78438 50.386074ZM103.97188 55.136074Q103.14375 55.7767 102.925 55.886074Q102.6125 56.0267 102.25313 56.0267Q101.70625 56.0267 101.33125 55.6517Q100.97188 55.261074 100.97188 54.6517Q100.97188 54.24545 101.15938 53.9642Q101.39375 53.573574 101.9875 53.229824Q102.58125 52.87045 103.97188 52.354824L103.97188 52.1517Q103.97188 51.3392 103.70625 51.042324Q103.45625 50.74545 102.97188 50.74545Q102.59688 50.74545 102.37813 50.948574Q102.15938 51.1517 102.15938 51.4017L102.175 51.74545Q102.175 52.011074 102.03438 52.167324Q101.89375 52.30795 101.675 52.30795Q101.45625 52.30795 101.31563 52.1517Q101.19063 51.99545 101.19063 51.74545Q101.19063 51.229824 101.70625 50.80795Q102.22188 50.386074 103.14375 50.386074Q103.8625 50.386074 104.31563 50.636074Q104.65938 50.80795 104.83125 51.198574Q104.94063 51.448574 104.94063 52.229824L104.94063 54.05795Q104.94063 54.823574 104.95625 54.99545Q104.9875 55.167324 105.05 55.229824Q105.12813 55.2767 105.22188 55.2767Q105.31563 55.2767 105.37813 55.24545Q105.50313 55.167324 105.84688 54.80795L105.84688 55.136074Q105.19063 56.0267 104.59688 56.0267Q104.31563 56.0267 104.14375 55.823574Q103.97188 55.62045 103.97188 55.136074ZM103.97188 54.761074L103.97188 52.7142Q103.08125 53.073574 102.83125 53.2142Q102.3625 53.479824 102.15938 53.761074Q101.95625 54.042324 101.95625 54.37045Q101.95625 54.792324 102.20625 55.073574Q102.47188 55.354824 102.8 55.354824Q103.2375 55.354824 103.97188 54.761074Z" fill-rule="nonzero"/><path fill="#000000" d="M31.721874 104.74102Q31.33125 105.162895 30.95625 105.350395Q30.58125 105.52227 30.14375 105.52227Q29.26875 105.52227 28.6125 104.787895Q27.95625 104.037895 27.95625 102.881645Q27.95625 101.74102 28.675 100.787895Q29.409374 99.819145 30.55 99.819145Q31.253124 99.819145 31.721874 100.27227L31.721874 99.27227Q31.721874 98.36602 31.675 98.162895Q31.628124 97.944145 31.534374 97.86602Q31.440624 97.787895 31.3 97.787895Q31.14375 97.787895 30.89375 97.881645L30.815624 97.67852L32.425 97.02227L32.690624 97.02227L32.690624 103.225395Q32.690624 104.162895 32.721874 104.381645Q32.76875 104.58477 32.8625 104.662895Q32.971874 104.74102 33.096874 104.74102Q33.253124 104.74102 33.51875 104.64727L33.58125 104.850395L31.9875 105.52227L31.721874 105.52227L31.721874 104.74102ZM31.721874 104.33477L31.721874 101.569145Q31.675 101.17852 31.503124 100.850395Q31.33125 100.52227 31.034374 100.350395Q30.753124 100.17852 30.471874 100.17852Q29.95625 100.17852 29.55 100.64727Q29.01875 101.256645 29.01875 102.42852Q29.01875 103.61602 29.534374 104.24102Q30.05 104.86602 30.690624 104.86602Q31.221874 104.86602 31.721874 104.33477ZM34.83125 102.006645Q34.815624 103.194145 35.409374 103.881645Q35.9875 104.55352 36.784374 104.55352Q37.315624 104.55352 37.70625 104.27227Q38.096874 103.975395 38.3625 103.27227L38.534374 103.39727Q38.409374 104.194145 37.815624 104.86602Q37.2375 105.52227 36.346874 105.52227Q35.378124 105.52227 34.690624 104.77227Q34.003124 104.006645 34.003124 102.74102Q34.003124 101.36602 34.70625 100.600395Q35.409374 99.819145 36.471874 99.819145Q37.378124 99.819145 37.95625 100.412895Q38.534374 101.006645 38.534374 102.006645L34.83125 102.006645ZM34.83125 101.662895L37.315624 101.662895Q37.284374 101.14727 37.190624 100.944145Q37.05 100.61602 36.753124 100.42852Q36.45625 100.24102 36.14375 100.24102Q35.659374 100.24102 35.26875 100.61602Q34.89375 100.99102 34.83125 101.662895ZM46.4875 103.30352Q46.26875 104.36602 45.628124 104.944145Q45.003124 105.52227 44.2375 105.52227Q43.315624 105.52227 42.628124 104.756645Q41.95625 103.975395 41.95625 102.67852Q41.95625 101.412895 42.70625 100.61602Q43.471874 99.819145 44.51875 99.819145Q45.315624 99.819145 45.815624 100.24102Q46.33125 100.662895 46.33125 101.11602Q46.33125 101.33477 46.190624 101.475395Q46.05 101.61602 45.784374 101.61602Q45.440624 101.61602 45.26875 101.381645Q45.159374 101.27227 45.128124 100.92852Q45.096874 100.569145 44.89375 100.39727Q44.690624 100.20977 44.33125 100.20977Q43.7375 100.20977 43.378124 100.64727Q42.909374 101.225395 42.909374 102.162895Q42.909374 103.131645 43.378124 103.86602Q43.846874 104.600395 44.659374 104.600395Q45.2375 104.600395 45.690624 104.20977Q46.003124 103.944145 46.315624 103.225395L46.4875 103.30352ZM47.83125 102.006645Q47.815624 103.194145 48.409374 103.881645Q48.9875 104.55352 49.784374 104.55352Q50.315624 104.55352 50.70625 104.27227Q51.096874 103.975395 51.3625 103.27227L51.534374 103.39727Q51.409374 104.194145 50.815624 104.86602Q50.2375 105.52227 49.346874 105.52227Q48.378124 105.52227 47.690624 104.77227Q47.003124 104.006645 47.003124 102.74102Q47.003124 101.36602 47.70625 100.600395Q48.409374 99.819145 49.471874 99.819145Q50.378124 99.819145 50.95625 100.412895Q51.534374 101.006645 51.534374 102.006645L47.83125 102.006645ZM47.83125 101.662895L50.315624 101.662895Q50.284374 101.14727 50.190624 100.944145Q50.05 100.61602 49.753124 100.42852Q49.45625 100.24102 49.14375 100.24102Q48.659374 100.24102 48.26875 100.61602Q47.89375 100.99102 47.83125 101.662895ZM50.628124 97.20977L48.89375 99.225395L48.70625 99.225395L49.315624 97.20977L50.628124 97.20977ZM56.628124 99.975395L56.628124 103.24102Q56.628124 104.162895 56.675 104.381645Q56.721874 104.58477 56.815624 104.662895Q56.909374 104.74102 57.034374 104.74102Q57.221874 104.74102 57.45625 104.64727L57.534374 104.850395L55.925 105.52227L55.659374 105.52227L55.659374 104.381645Q54.971874 105.131645 54.6125 105.33477Q54.253124 105.52227 53.846874 105.52227Q53.39375 105.52227 53.05 105.256645Q52.721874 104.99102 52.596874 104.58477Q52.471874 104.17852 52.471874 103.42852L52.471874 101.02227Q52.471874 100.64727 52.378124 100.506645Q52.3 100.350395 52.14375 100.27227Q51.9875 100.194145 51.565624 100.194145L51.565624 99.975395L53.440624 99.975395L53.440624 103.569145Q53.440624 104.319145 53.70625 104.55352Q53.971874 104.787895 54.33125 104.787895Q54.58125 104.787895 54.89375 104.631645Q55.221874 104.475395 55.659374 104.037895L55.659374 100.99102Q55.659374 100.537895 55.4875 100.381645Q55.33125 100.20977 54.8 100.194145L54.8 99.975395L56.628124 99.975395ZM60.534374 100.52227L62.190624 99.850395L62.409374 99.850395L62.409374 101.100395Q62.83125 100.39727 63.253124 100.11602Q63.675 99.819145 64.12813 99.819145Q64.94063 99.819145 65.47188 100.45977Q66.14375 101.225395 66.14375 102.475395Q66.14375 103.86602 65.34688 104.77227Q64.69063 105.52227 63.690624 105.52227Q63.253124 105.52227 62.940624 105.39727Q62.70625 105.30352 62.409374 105.037895L62.409374 106.67852Q62.409374 107.225395 62.471874 107.36602Q62.55 107.52227 62.70625 107.600395Q62.878124 107.694145 63.315624 107.694145L63.315624 107.912895L60.503124 107.912895L60.503124 107.694145L60.659374 107.694145Q60.971874 107.70977 61.20625 107.58477Q61.315624 107.506645 61.378124 107.36602Q61.440624 107.225395 61.440624 106.64727L61.440624 101.569145Q61.440624 101.037895 61.39375 100.89727Q61.346874 100.756645 61.2375 100.694145Q61.14375 100.61602 60.971874 100.61602Q60.83125 100.61602 60.6125 100.70977L60.534374 100.52227ZM62.409374 101.444145L62.409374 103.444145Q62.409374 104.100395 62.471874 104.30352Q62.55 104.64727 62.8625 104.912895Q63.190624 105.162895 63.675 105.162895Q64.25313 105.162895 64.62813 104.70977Q65.09688 104.100395 65.09688 103.02227Q65.09688 101.787895 64.56563 101.131645Q64.19063 100.67852 63.675 100.67852Q63.39375 100.67852 63.1125 100.819145Q62.89375 100.912895 62.409374 101.444145ZM69.50313 99.819145L69.50313 101.037895Q70.175 99.819145 70.87813 99.819145Q71.20625 99.819145 71.40938 100.02227Q71.62813 100.20977 71.62813 100.475395Q71.62813 100.70977 71.47188 100.86602Q71.31563 101.02227 71.1125 101.02227Q70.90938 101.02227 70.64375 100.819145Q70.39375 100.61602 70.26875 100.61602Q70.15938 100.61602 70.03438 100.725395Q69.78438 100.975395 69.50313 101.52227L69.50313 104.100395Q69.50313 104.537895 69.6125 104.77227Q69.69063 104.92852 69.87813 105.037895Q70.06563 105.131645 70.44063 105.131645L70.44063 105.350395L67.69063 105.350395L67.69063 105.131645Q68.09688 105.131645 68.3 105.006645Q68.44063 104.912895 68.50313 104.70977Q68.53438 104.61602 68.53438 104.14727L68.53438 102.069145Q68.53438 101.131645 68.4875 100.95977Q68.45625 100.77227 68.34688 100.694145Q68.25313 100.600395 68.09688 100.600395Q67.90938 100.600395 67.69063 100.694145L67.62813 100.475395L69.25313 99.819145L69.50313 99.819145ZM74.55 99.819145Q75.76875 99.819145 76.50313 100.756645Q77.12813 101.537895 77.12813 102.569145Q77.12813 103.287895 76.78438 104.02227Q76.44063 104.756645 75.83125 105.14727Q75.2375 105.52227 74.4875 105.52227Q73.26875 105.52227 72.56563 104.55352Q71.95625 103.725395 71.95625 102.725395Q71.95625 101.975395 72.31563 101.256645Q72.69063 100.52227 73.28438 100.17852Q73.87813 99.819145 74.55 99.819145ZM74.3625 100.20977Q74.06563 100.20977 73.7375 100.39727Q73.425 100.569145 73.2375 101.037895Q73.05 101.506645 73.05 102.225395Q73.05 103.39727 73.50313 104.256645Q73.97188 105.100395 74.7375 105.100395Q75.3 105.100395 75.675 104.631645Q76.05 104.162895 76.05 103.02227Q76.05 101.58477 75.425 100.77227Q75.01875 100.20977 74.3625 100.20977ZM80.01875 100.39727L80.01875 103.92852Q80.01875 104.67852 80.19063 104.881645Q80.40938 105.131645 80.76875 105.131645L81.25313 105.131645L81.25313 105.350395L78.05 105.350395L78.05 105.131645L78.28438 105.131645Q78.51875 105.131645 78.70625 105.02227Q78.90938 104.89727 78.97188 104.70977Q79.05 104.506645 79.05 103.92852L79.05 100.39727L78.01875 100.39727L78.01875 99.975395L79.05 99.975395L79.05 99.631645Q79.05 98.83477 79.3 98.27227Q79.56563 97.70977 80.09688 97.36602Q80.62813 97.02227 81.3 97.02227Q81.90938 97.02227 82.425 97.42852Q82.76875 97.694145 82.76875 98.02227Q82.76875 98.194145 82.6125 98.350395Q82.45625 98.506645 82.28438 98.506645Q82.14375 98.506645 81.9875 98.412895Q81.84688 98.319145 81.62813 98.006645Q81.425 97.67852 81.2375 97.569145Q81.05 97.444145 80.83125 97.444145Q80.56563 97.444145 80.37813 97.600395Q80.19063 97.74102 80.09688 98.037895Q80.01875 98.33477 80.01875 99.600395L80.01875 99.975395L81.40938 99.975395L81.40938 100.39727L80.01875 100.39727ZM86.62813 99.975395L86.62813 103.24102Q86.62813 104.162895 86.675 104.381645Q86.72188 104.58477 86.81563 104.662895Q86.90938 104.74102 87.03438 104.74102Q87.22188 104.74102 87.45625 104.64727L87.53438 104.850395L85.925 105.52227L85.65938 105.52227L85.65938 104.381645Q84.97188 105.131645 84.6125 105.33477Q84.25313 105.52227 83.84688 105.52227Q83.39375 105.52227 83.05 105.256645Q82.72188 104.99102 82.59688 104.58477Q82.47188 104.17852 82.47188 103.42852L82.47188 101.02227Q82.47188 100.64727 82.37813 100.506645Q82.3 100.350395 82.14375 100.27227Q81.9875 100.194145 81.56563 100.194145L81.56563 99.975395L83.44063 99.975395L83.44063 103.569145Q83.44063 104.319145 83.70625 104.55352Q83.97188 104.787895 84.33125 104.787895Q84.58125 104.787895 84.89375 104.631645Q85.22188 104.475395 85.65938 104.037895L85.65938 100.99102Q85.65938 100.537895 85.4875 100.381645Q85.33125 100.20977 84.8 100.194145L84.8 99.975395L86.62813 99.975395ZM89.4875 100.95977Q90.44063 99.819145 91.28438 99.819145Q91.72188 99.819145 92.03438 100.037895Q92.3625 100.256645 92.55 100.77227Q92.675 101.11602 92.675 101.850395L92.675 104.131645Q92.675 104.64727 92.75313 104.83477Q92.83125 104.975395 92.97188 105.05352Q93.1125 105.131645 93.50313 105.131645L93.50313 105.350395L90.84688 105.350395L90.84688 105.131645L90.95625 105.131645Q91.33125 105.131645 91.47188 105.02227Q91.62813 104.912895 91.69063 104.694145Q91.70625 104.600395 91.70625 104.131645L91.70625 101.944145Q91.70625 101.20977 91.51875 100.881645Q91.33125 100.537895 90.87813 100.537895Q90.175 100.537895 89.4875 101.30352L89.4875 104.131645Q89.4875 104.67852 89.55 104.80352Q89.64375 104.975395 89.78438 105.05352Q89.925 105.131645 90.3625 105.131645L90.3625 105.350395L87.70625 105.350395L87.70625 105.131645L87.83125 105.131645Q88.2375 105.131645 88.37813 104.92852Q88.51875 104.725395 88.51875 104.131645L88.51875 102.14727Q88.51875 101.17852 88.47188 100.975395Q88.44063 100.756645 88.34688 100.67852Q88.25313 100.600395 88.09688 100.600395Q87.94063 100.600395 87.70625 100.694145L87.62813 100.475395L89.2375 99.819145L89.4875 99.819145L89.4875 100.95977ZM97.72188 104.74102Q97.33125 105.162895 96.95625 105.350395Q96.58125 105.52227 96.14375 105.52227Q95.26875 105.52227 94.6125 104.787895Q93.95625 104.037895 93.95625 102.881645Q93.95625 101.74102 94.675 100.787895Q95.40938 99.819145 96.55 99.819145Q97.25313 99.819145 97.72188 100.27227L97.72188 99.27227Q97.72188 98.36602 97.675 98.162895Q97.62813 97.944145 97.53438 97.86602Q97.44063 97.787895 97.3 97.787895Q97.14375 97.787895 96.89375 97.881645L96.81563 97.67852L98.425 97.02227L98.69063 97.02227L98.69063 103.225395Q98.69063 104.162895 98.72188 104.381645Q98.76875 104.58477 98.8625 104.662895Q98.97188 104.74102 99.09688 104.74102Q99.25313 104.74102 99.51875 104.64727L99.58125 104.850395L97.9875 105.52227L97.72188 105.52227L97.72188 104.74102ZM97.72188 104.33477L97.72188 101.569145Q97.675 101.17852 97.50313 100.850395Q97.33125 100.52227 97.03438 100.350395Q96.75313 100.17852 96.47188 100.17852Q95.95625 100.17852 95.55 100.64727Q95.01875 101.256645 95.01875 102.42852Q95.01875 103.61602 95.53438 104.24102Q96.05 104.86602 96.69063 104.86602Q97.22188 104.86602 97.72188 104.33477ZM102.55 99.819145Q103.76875 99.819145 104.50313 100.756645Q105.12813 101.537895 105.12813 102.569145Q105.12813 103.287895 104.78438 104.02227Q104.44063 104.756645 103.83125 105.14727Q103.2375 105.52227 102.4875 105.52227Q101.26875 105.52227 100.56563 104.55352Q99.95625 103.725395 99.95625 102.725395Q99.95625 101.975395 100.31563 101.256645Q100.69063 100.52227 101.28438 100.17852Q101.87813 99.819145 102.55 99.819145ZM102.3625 100.20977Q102.06563 100.20977 101.7375 100.39727Q101.425 100.569145 101.2375 101.037895Q101.05 101.506645 101.05 102.225395Q101.05 103.39727 101.50313 104.256645Q101.97188 105.100395 102.7375 105.100395Q103.3 105.100395 103.675 104.631645Q104.05 104.162895 104.05 103.02227Q104.05 101.58477 103.425 100.77227Q103.01875 100.20977 102.3625 100.20977Z" fill-rule="nonzero"/><path fill="#000000" d="M64.06563 146.83034L64.06563 147.04909Q63.64375 147.12721 63.425 147.33034Q63.128124 147.61159 62.878124 148.20534L60.1125 154.97096L59.89375 154.97096L56.909374 148.11159Q56.690624 147.58034 56.596874 147.47096Q56.440624 147.28346 56.221874 147.18971Q56.01875 147.08034 55.659374 147.04909L55.659374 146.83034L58.909374 146.83034L58.909374 147.04909Q58.346874 147.11159 58.175 147.25221Q58.01875 147.37721 58.01875 147.58034Q58.01875 147.87721 58.3 148.50221L60.315624 153.15846L62.190624 148.56471Q62.471874 147.87721 62.471874 147.61159Q62.471874 147.43971 62.3 147.29909Q62.128124 147.14284 61.721874 147.06471Q61.690624 147.06471 61.628124 147.04909L61.628124 146.83034L64.06563 146.83034ZM65.28438 146.45534Q65.53438 146.45534 65.70625 146.62721Q65.87813 146.79909 65.87813 147.04909Q65.87813 147.28346 65.70625 147.47096Q65.53438 147.64284 65.28438 147.64284Q65.05 147.64284 64.8625 147.47096Q64.69063 147.28346 64.69063 147.04909Q64.69063 146.79909 64.8625 146.62721Q65.03438 146.45534 65.28438 146.45534ZM65.78438 149.25221L65.78438 153.56471Q65.78438 154.08034 65.84688 154.25221Q65.925 154.40846 66.06563 154.48659Q66.20625 154.56471 66.59688 154.56471L66.59688 154.78346L63.9875 154.78346L63.9875 154.56471Q64.37813 154.56471 64.50313 154.50221Q64.64375 154.42409 64.72188 154.25221Q64.8 154.06471 64.8 153.56471L64.8 151.50221Q64.8 150.62721 64.75313 150.37721Q64.70625 150.18971 64.6125 150.11159Q64.53438 150.03346 64.37813 150.03346Q64.22188 150.03346 63.9875 150.12721L63.909374 149.90846L65.51875 149.25221L65.78438 149.25221ZM69.97188 154.00221Q69.14375 154.64284 68.925 154.75221Q68.6125 154.89284 68.25313 154.89284Q67.70625 154.89284 67.33125 154.51784Q66.97188 154.12721 66.97188 153.51784Q66.97188 153.11159 67.15938 152.83034Q67.39375 152.43971 67.9875 152.09596Q68.58125 151.73659 69.97188 151.22096L69.97188 151.01784Q69.97188 150.20534 69.70625 149.90846Q69.45625 149.61159 68.97188 149.61159Q68.59688 149.61159 68.37813 149.81471Q68.15938 150.01784 68.15938 150.26784L68.175 150.61159Q68.175 150.87721 68.03438 151.03346Q67.89375 151.17409 67.675 151.17409Q67.45625 151.17409 67.31563 151.01784Q67.19063 150.86159 67.19063 150.61159Q67.19063 150.09596 67.70625 149.67409Q68.22188 149.25221 69.14375 149.25221Q69.8625 149.25221 70.31563 149.50221Q70.65938 149.67409 70.83125 150.06471Q70.94063 150.31471 70.94063 151.09596L70.94063 152.92409Q70.94063 153.68971 70.95625 153.86159Q70.9875 154.03346 71.05 154.09596Q71.12813 154.14284 71.22188 154.14284Q71.31563 154.14284 71.37813 154.11159Q71.50313 154.03346 71.84688 153.67409L71.84688 154.00221Q71.19063 154.89284 70.59688 154.89284Q70.31563 154.89284 70.14375 154.68971Q69.97188 154.48659 69.97188 154.00221ZM69.97188 153.62721L69.97188 151.58034Q69.08125 151.93971 68.83125 152.08034Q68.3625 152.34596 68.15938 152.62721Q67.95625 152.90846 67.95625 153.23659Q67.95625 153.65846 68.20625 153.93971Q68.47188 154.22096 68.8 154.22096Q69.2375 154.22096 69.97188 153.62721ZM81.425 152.58034L81.62813 152.62721L80.94063 154.78346L74.78438 154.78346L74.78438 154.56471L75.09688 154.56471Q75.59688 154.56471 75.81563 154.23659Q75.94063 154.04909 75.94063 153.37721L75.94063 148.23659Q75.94063 147.50221 75.76875 147.31471Q75.53438 147.04909 75.09688 147.04909L74.78438 147.04909L74.78438 146.83034L78.39375 146.83034L78.39375 147.04909Q77.75313 147.04909 77.50313 147.17409Q77.25313 147.29909 77.15938 147.48659Q77.06563 147.67409 77.06563 148.37721L77.06563 153.37721Q77.06563 153.86159 77.15938 154.03346Q77.22188 154.15846 77.3625 154.22096Q77.51875 154.28346 78.28438 154.28346L78.8625 154.28346Q79.78438 154.28346 80.14375 154.14284Q80.51875 154.00221 80.81563 153.67409Q81.12813 153.33034 81.425 152.58034ZM84.97188 154.00221Q84.14375 154.64284 83.925 154.75221Q83.6125 154.89284 83.25313 154.89284Q82.70625 154.89284 82.33125 154.51784Q81.97188 154.12721 81.97188 153.51784Q81.97188 153.11159 82.15938 152.83034Q82.39375 152.43971 82.9875 152.09596Q83.58125 151.73659 84.97188 151.22096L84.97188 151.01784Q84.97188 150.20534 84.70625 149.90846Q84.45625 149.61159 83.97188 149.61159Q83.59688 149.61159 83.37813 149.81471Q83.15938 150.01784 83.15938 150.26784L83.175 150.61159Q83.175 150.87721 83.03438 151.03346Q82.89375 151.17409 82.675 151.17409Q82.45625 151.17409 82.31563 151.01784Q82.19063 150.86159 82.19063 150.61159Q82.19063 150.09596 82.70625 149.67409Q83.22188 149.25221 84.14375 149.25221Q84.8625 149.25221 85.31563 149.50221Q85.65938 149.67409 85.83125 150.06471Q85.94063 150.31471 85.94063 151.09596L85.94063 152.92409Q85.94063 153.68971 85.95625 153.86159Q85.9875 154.03346 86.05 154.09596Q86.12813 154.14284 86.22188 154.14284Q86.31563 154.14284 86.37813 154.11159Q86.50313 154.03346 86.84688 153.67409L86.84688 154.00221Q86.19063 154.89284 85.59688 154.89284Q85.31563 154.89284 85.14375 154.68971Q84.97188 154.48659 84.97188 154.00221ZM84.97188 153.62721L84.97188 151.58034Q84.08125 151.93971 83.83125 152.08034Q83.3625 152.34596 83.15938 152.62721Q82.95625 152.90846 82.95625 153.23659Q82.95625 153.65846 83.20625 153.93971Q83.47188 154.22096 83.8 154.22096Q84.2375 154.22096 84.97188 153.62721ZM85.55 146.64284L83.81563 148.65846L83.62813 148.65846L84.2375 146.64284L85.55 146.64284ZM91.4875 152.73659Q91.26875 153.79909 90.62813 154.37721Q90.00313 154.95534 89.2375 154.95534Q88.31563 154.95534 87.62813 154.18971Q86.95625 153.40846 86.95625 152.11159Q86.95625 150.84596 87.70625 150.04909Q88.47188 149.25221 89.51875 149.25221Q90.31563 149.25221 90.81563 149.67409Q91.33125 150.09596 91.33125 150.54909Q91.33125 150.76784 91.19063 150.90846Q91.05 151.04909 90.78438 151.04909Q90.44063 151.04909 90.26875 150.81471Q90.15938 150.70534 90.12813 150.36159Q90.09688 150.00221 89.89375 149.83034Q89.69063 149.64284 89.33125 149.64284Q88.7375 149.64284 88.37813 150.08034Q87.90938 150.65846 87.90938 151.59596Q87.90938 152.56471 88.37813 153.29909Q88.84688 154.03346 89.65938 154.03346Q90.2375 154.03346 90.69063 153.64284Q91.00313 153.37721 91.31563 152.65846L91.4875 152.73659ZM93.4875 147.65846L93.4875 149.40846L94.7375 149.40846L94.7375 149.83034L93.4875 149.83034L93.4875 153.29909Q93.4875 153.83034 93.62813 154.01784Q93.78438 154.18971 94.01875 154.18971Q94.20625 154.18971 94.39375 154.08034Q94.58125 153.95534 94.675 153.72096L94.90938 153.72096Q94.69063 154.28346 94.31563 154.58034Q93.94063 154.87721 93.55 154.87721Q93.28438 154.87721 93.01875 154.72096Q92.76875 154.56471 92.64375 154.29909Q92.51875 154.01784 92.51875 153.43971L92.51875 149.83034L91.675 149.83034L91.675 149.62721Q91.9875 149.50221 92.31563 149.20534Q92.65938 148.89284 92.925 148.47096Q93.06563 148.23659 93.3 147.65846L93.4875 147.65846ZM96.83125 151.43971Q96.81563 152.62721 97.40938 153.31471Q97.9875 153.98659 98.78438 153.98659Q99.31563 153.98659 99.70625 153.70534Q100.09688 153.40846 100.3625 152.70534L100.53438 152.83034Q100.40938 153.62721 99.81563 154.29909Q99.2375 154.95534 98.34688 154.95534Q97.37813 154.95534 96.69063 154.20534Q96.00313 153.43971 96.00313 152.17409Q96.00313 150.79909 96.70625 150.03346Q97.40938 149.25221 98.47188 149.25221Q99.37813 149.25221 99.95625 149.84596Q100.53438 150.43971 100.53438 151.43971L96.83125 151.43971ZM96.83125 151.09596L99.31563 151.09596Q99.28438 150.58034 99.19063 150.37721Q99.05 150.04909 98.75313 149.86159Q98.45625 149.67409 98.14375 149.67409Q97.65938 149.67409 97.26875 150.04909Q96.89375 150.42409 96.83125 151.09596ZM103.97188 154.00221Q103.14375 154.64284 102.925 154.75221Q102.6125 154.89284 102.25313 154.89284Q101.70625 154.89284 101.33125 154.51784Q100.97188 154.12721 100.97188 153.51784Q100.97188 153.11159 101.15938 152.83034Q101.39375 152.43971 101.9875 152.09596Q102.58125 151.73659 103.97188 151.22096L103.97188 151.01784Q103.97188 150.20534 103.70625 149.90846Q103.45625 149.61159 102.97188 149.61159Q102.59688 149.61159 102.37813 149.81471Q102.15938 150.01784 102.15938 150.26784L102.175 150.61159Q102.175 150.87721 102.03438 151.03346Q101.89375 151.17409 101.675 151.17409Q101.45625 151.17409 101.31563 151.01784Q101.19063 150.86159 101.19063 150.61159Q101.19063 150.09596 101.70625 149.67409Q102.22188 149.25221 103.14375 149.25221Q103.8625 149.25221 104.31563 149.50221Q104.65938 149.67409 104.83125 150.06471Q104.94063 150.31471 104.94063 151.09596L104.94063 152.92409Q104.94063 153.68971 104.95625 153.86159Q104.9875 154.03346 105.05 154.09596Q105.12813 154.14284 105.22188 154.14284Q105.31563 154.14284 105.37813 154.11159Q105.50313 154.03346 105.84688 153.67409L105.84688 154.00221Q105.19063 154.89284 104.59688 154.89284Q104.31563 154.89284 104.14375 154.68971Q103.97188 154.48659 103.97188 154.00221ZM103.97188 153.62721L103.97188 151.58034Q103.08125 151.93971 102.83125 152.08034Q102.3625 152.34596 102.15938 152.62721Q101.95625 152.90846 101.95625 153.23659Q101.95625 153.65846 102.20625 153.93971Q102.47188 154.22096 102.8 154.22096Q103.2375 154.22096 103.97188 153.62721Z" fill-rule="nonzero"/><path fill="#000000" d="M18.39375 196.26341L20.55 196.26341L25.409374 202.23216L25.409374 197.65404Q25.409374 196.91966 25.2375 196.73216Q25.01875 196.48216 24.55 196.48216L24.284374 196.48216L24.284374 196.26341L27.05 196.26341L27.05 196.48216L26.76875 196.48216Q26.26875 196.48216 26.05 196.79466Q25.925 196.98216 25.925 197.65404L25.925 204.34154L25.70625 204.34154L20.471874 197.95091L20.471874 202.84154Q20.471874 203.57591 20.628124 203.74779Q20.846874 203.99779 21.315624 203.99779L21.596874 203.99779L21.596874 204.21654L18.83125 204.21654L18.83125 203.99779L19.1125 203.99779Q19.6125 203.99779 19.83125 203.70091Q19.95625 203.51341 19.95625 202.84154L19.95625 197.31029Q19.6125 196.90404 19.425 196.77904Q19.253124 196.65404 18.909374 196.54466Q18.7375 196.48216 18.39375 196.48216L18.39375 196.26341ZM30.971874 203.43529Q30.14375 204.07591 29.925 204.18529Q29.6125 204.32591 29.253124 204.32591Q28.70625 204.32591 28.33125 203.95091Q27.971874 203.56029 27.971874 202.95091Q27.971874 202.54466 28.159374 202.26341Q28.39375 201.87279 28.9875 201.52904Q29.58125 201.16966 30.971874 200.65404L30.971874 200.45091Q30.971874 199.63841 30.70625 199.34154Q30.45625 199.04466 29.971874 199.04466Q29.596874 199.04466 29.378124 199.24779Q29.159374 199.45091 29.159374 199.70091L29.175 200.04466Q29.175 200.31029 29.034374 200.46654Q28.89375 200.60716 28.675 200.60716Q28.45625 200.60716 28.315624 200.45091Q28.190624 200.29466 28.190624 200.04466Q28.190624 199.52904 28.70625 199.10716Q29.221874 198.68529 30.14375 198.68529Q30.8625 198.68529 31.315624 198.93529Q31.659374 199.10716 31.83125 199.49779Q31.940624 199.74779 31.940624 200.52904L31.940624 202.35716Q31.940624 203.12279 31.95625 203.29466Q31.9875 203.46654 32.05 203.52904Q32.128124 203.57591 32.221874 203.57591Q32.315624 203.57591 32.378124 203.54466Q32.503124 203.46654 32.846874 203.10716L32.846874 203.43529Q32.190624 204.32591 31.596874 204.32591Q31.315624 204.32591 31.14375 204.12279Q30.971874 203.91966 30.971874 203.43529ZM30.971874 203.06029L30.971874 201.01341Q30.08125 201.37279 29.83125 201.51341Q29.3625 201.77904 29.159374 202.06029Q28.95625 202.34154 28.95625 202.66966Q28.95625 203.09154 29.20625 203.37279Q29.471874 203.65404 29.8 203.65404Q30.2375 203.65404 30.971874 203.06029ZM28.55 197.79466L28.3625 197.79466Q28.39375 196.98216 28.70625 196.62279Q29.01875 196.26341 29.471874 196.26341Q29.70625 196.26341 29.909374 196.34154Q30.175 196.45091 30.659374 196.77904Q31.14375 197.09154 31.378124 197.09154Q31.565624 197.09154 31.70625 196.93529Q31.846874 196.76341 31.925 196.26341L32.1125 196.26341Q32.1125 196.81029 31.95625 197.13841Q31.815624 197.45091 31.534374 197.63841Q31.26875 197.81029 31.003124 197.81029Q30.534374 197.81029 29.846874 197.34154Q29.4875 197.09154 29.346874 197.04466Q29.221874 196.98216 29.096874 196.98216Q28.8625 196.98216 28.721874 197.20091Q28.659374 197.29466 28.55 197.79466ZM35.55 198.68529Q36.76875 198.68529 37.503124 199.62279Q38.128124 200.40404 38.128124 201.43529Q38.128124 202.15404 37.784374 202.88841Q37.440624 203.62279 36.83125 204.01341Q36.2375 204.38841 35.4875 204.38841Q34.26875 204.38841 33.565624 203.41966Q32.95625 202.59154 32.95625 201.59154Q32.95625 200.84154 33.315624 200.12279Q33.690624 199.38841 34.284374 199.04466Q34.878124 198.68529 35.55 198.68529ZM35.3625 199.07591Q35.065624 199.07591 34.7375 199.26341Q34.425 199.43529 34.2375 199.90404Q34.05 200.37279 34.05 201.09154Q34.05 202.26341 34.503124 203.12279Q34.971874 203.96654 35.7375 203.96654Q36.3 203.96654 36.675 203.49779Q37.05 203.02904 37.05 201.88841Q37.05 200.45091 36.425 199.63841Q36.01875 199.07591 35.3625 199.07591ZM45.39375 198.68529L45.39375 200.51341L45.20625 200.51341Q44.971874 199.65404 44.628124 199.34154Q44.284374 199.02904 43.7375 199.02904Q43.33125 199.02904 43.08125 199.24779Q42.83125 199.46654 42.83125 199.73216Q42.83125 200.06029 43.01875 200.29466Q43.190624 200.52904 43.753124 200.81029L44.6125 201.21654Q45.8 201.79466 45.8 202.74779Q45.8 203.48216 45.2375 203.93529Q44.690624 204.38841 44.003124 204.38841Q43.51875 204.38841 42.878124 204.20091Q42.690624 204.13841 42.565624 204.13841Q42.425 204.13841 42.346874 204.29466L42.159374 204.29466L42.159374 202.38841L42.346874 202.38841Q42.51875 203.20091 42.971874 203.62279Q43.440624 204.02904 44.01875 204.02904Q44.425 204.02904 44.675 203.79466Q44.925 203.56029 44.925 203.23216Q44.925 202.82591 44.64375 202.54466Q44.3625 202.26341 43.503124 201.84154Q42.659374 201.41966 42.39375 201.09154Q42.14375 200.74779 42.14375 200.24779Q42.14375 199.57591 42.596874 199.13841Q43.05 198.68529 43.76875 198.68529Q44.08125 198.68529 44.534374 198.82591Q44.83125 198.91966 44.925 198.91966Q45.01875 198.91966 45.065624 198.87279Q45.128124 198.82591 45.20625 198.68529L45.39375 198.68529ZM47.83125 200.87279Q47.815624 202.06029 48.409374 202.74779Q48.9875 203.41966 49.784374 203.41966Q50.315624 203.41966 50.70625 203.13841Q51.096874 202.84154 51.3625 202.13841L51.534374 202.26341Q51.409374 203.06029 50.815624 203.73216Q50.2375 204.38841 49.346874 204.38841Q48.378124 204.38841 47.690624 203.63841Q47.003124 202.87279 47.003124 201.60716Q47.003124 200.23216 47.70625 199.46654Q48.409374 198.68529 49.471874 198.68529Q50.378124 198.68529 50.95625 199.27904Q51.534374 199.87279 51.534374 200.87279L47.83125 200.87279ZM47.83125 200.52904L50.315624 200.52904Q50.284374 200.01341 50.190624 199.81029Q50.05 199.48216 49.753124 199.29466Q49.45625 199.10716 49.14375 199.10716Q48.659374 199.10716 48.26875 199.48216Q47.89375 199.85716 47.83125 200.52904ZM53.284374 195.88841Q53.534374 195.88841 53.70625 196.06029Q53.878124 196.23216 53.878124 196.48216Q53.878124 196.71654 53.70625 196.90404Q53.534374 197.07591 53.284374 197.07591Q53.05 197.07591 52.8625 196.90404Q52.690624 196.71654 52.690624 196.48216Q52.690624 196.23216 52.8625 196.06029Q53.034374 195.88841 53.284374 195.88841ZM53.784374 198.68529L53.784374 202.99779Q53.784374 203.51341 53.846874 203.68529Q53.925 203.84154 54.065624 203.91966Q54.20625 203.99779 54.596874 203.99779L54.596874 204.21654L51.9875 204.21654L51.9875 203.99779Q52.378124 203.99779 52.503124 203.93529Q52.64375 203.85716 52.721874 203.68529Q52.8 203.49779 52.8 202.99779L52.8 200.93529Q52.8 200.06029 52.753124 199.81029Q52.70625 199.62279 52.6125 199.54466Q52.534374 199.46654 52.378124 199.46654Q52.221874 199.46654 51.9875 199.56029L51.909374 199.34154L53.51875 198.68529L53.784374 198.68529ZM59.503124 198.68529L59.503124 199.90404Q60.175 198.68529 60.878124 198.68529Q61.20625 198.68529 61.409374 198.88841Q61.628124 199.07591 61.628124 199.34154Q61.628124 199.57591 61.471874 199.73216Q61.315624 199.88841 61.1125 199.88841Q60.909374 199.88841 60.64375 199.68529Q60.39375 199.48216 60.26875 199.48216Q60.159374 199.48216 60.034374 199.59154Q59.784374 199.84154 59.503124 200.38841L59.503124 202.96654Q59.503124 203.40404 59.6125 203.63841Q59.690624 203.79466 59.878124 203.90404Q60.065624 203.99779 60.440624 203.99779L60.440624 204.21654L57.690624 204.21654L57.690624 203.99779Q58.096874 203.99779 58.3 203.87279Q58.440624 203.77904 58.503124 203.57591Q58.534374 203.48216 58.534374 203.01341L58.534374 200.93529Q58.534374 199.99779 58.4875 199.82591Q58.45625 199.63841 58.346874 199.56029Q58.253124 199.46654 58.096874 199.46654Q57.909374 199.46654 57.690624 199.56029L57.628124 199.34154L59.253124 198.68529L59.503124 198.68529ZM62.83125 200.87279Q62.815624 202.06029 63.409374 202.74779Q63.9875 203.41966 64.78438 203.41966Q65.31563 203.41966 65.70625 203.13841Q66.09688 202.84154 66.3625 202.13841L66.53438 202.26341Q66.40938 203.06029 65.81563 203.73216Q65.2375 204.38841 64.34688 204.38841Q63.378124 204.38841 62.690624 203.63841Q62.003124 202.87279 62.003124 201.60716Q62.003124 200.23216 62.70625 199.46654Q63.409374 198.68529 64.47188 198.68529Q65.37813 198.68529 65.95625 199.27904Q66.53438 199.87279 66.53438 200.87279L62.83125 200.87279ZM62.83125 200.52904L65.31563 200.52904Q65.28438 200.01341 65.19063 199.81029Q65.05 199.48216 64.75313 199.29466Q64.45625 199.10716 64.14375 199.10716Q63.659374 199.10716 63.26875 199.48216Q62.89375 199.85716 62.83125 200.52904ZM70.39375 198.68529L70.39375 200.51341L70.20625 200.51341Q69.97188 199.65404 69.62813 199.34154Q69.28438 199.02904 68.7375 199.02904Q68.33125 199.02904 68.08125 199.24779Q67.83125 199.46654 67.83125 199.73216Q67.83125 200.06029 68.01875 200.29466Q68.19063 200.52904 68.75313 200.81029L69.6125 201.21654Q70.8 201.79466 70.8 202.74779Q70.8 203.48216 70.2375 203.93529Q69.69063 204.38841 69.00313 204.38841Q68.51875 204.38841 67.87813 204.20091Q67.69063 204.13841 67.56563 204.13841Q67.425 204.13841 67.34688 204.29466L67.15938 204.29466L67.15938 202.38841L67.34688 202.38841Q67.51875 203.20091 67.97188 203.62279Q68.44063 204.02904 69.01875 204.02904Q69.425 204.02904 69.675 203.79466Q69.925 203.56029 69.925 203.23216Q69.925 202.82591 69.64375 202.54466Q69.3625 202.26341 68.50313 201.84154Q67.65938 201.41966 67.39375 201.09154Q67.14375 200.74779 67.14375 200.24779Q67.14375 199.57591 67.59688 199.13841Q68.05 198.68529 68.76875 198.68529Q69.08125 198.68529 69.53438 198.82591Q69.83125 198.91966 69.925 198.91966Q70.01875 198.91966 70.06563 198.87279Q70.12813 198.82591 70.20625 198.68529L70.39375 198.68529ZM71.53438 199.38841L73.19063 198.71654L73.40938 198.71654L73.40938 199.96654Q73.83125 199.26341 74.25313 198.98216Q74.675 198.68529 75.12813 198.68529Q75.94063 198.68529 76.47188 199.32591Q77.14375 200.09154 77.14375 201.34154Q77.14375 202.73216 76.34688 203.63841Q75.69063 204.38841 74.69063 204.38841Q74.25313 204.38841 73.94063 204.26341Q73.70625 204.16966 73.40938 203.90404L73.40938 205.54466Q73.40938 206.09154 73.47188 206.23216Q73.55 206.38841 73.70625 206.46654Q73.87813 206.56029 74.31563 206.56029L74.31563 206.77904L71.50313 206.77904L71.50313 206.56029L71.65938 206.56029Q71.97188 206.57591 72.20625 206.45091Q72.31563 206.37279 72.37813 206.23216Q72.44063 206.09154 72.44063 205.51341L72.44063 200.43529Q72.44063 199.90404 72.39375 199.76341Q72.34688 199.62279 72.2375 199.56029Q72.14375 199.48216 71.97188 199.48216Q71.83125 199.48216 71.6125 199.57591L71.53438 199.38841ZM73.40938 200.31029L73.40938 202.31029Q73.40938 202.96654 73.47188 203.16966Q73.55 203.51341 73.8625 203.77904Q74.19063 204.02904 74.675 204.02904Q75.25313 204.02904 75.62813 203.57591Q76.09688 202.96654 76.09688 201.88841Q76.09688 200.65404 75.56563 199.99779Q75.19063 199.54466 74.675 199.54466Q74.39375 199.54466 74.1125 199.68529Q73.89375 199.77904 73.40938 200.31029ZM81.55 198.68529Q82.76875 198.68529 83.50313 199.62279Q84.12813 200.40404 84.12813 201.43529Q84.12813 202.15404 83.78438 202.88841Q83.44063 203.62279 82.83125 204.01341Q82.2375 204.38841 81.4875 204.38841Q80.26875 204.38841 79.56563 203.41966Q78.95625 202.59154 78.95625 201.59154Q78.95625 200.84154 79.31563 200.12279Q79.69063 199.38841 80.28438 199.04466Q80.87813 198.68529 81.55 198.68529ZM81.3625 199.07591Q81.06563 199.07591 80.7375 199.26341Q80.425 199.43529 80.2375 199.90404Q80.05 200.37279 80.05 201.09154Q80.05 202.26341 80.50313 203.12279Q80.97188 203.96654 81.7375 203.96654Q82.3 203.96654 82.675 203.49779Q83.05 203.02904 83.05 201.88841Q83.05 200.45091 82.425 199.63841Q82.01875 199.07591 81.3625 199.07591ZM86.4875 199.82591Q87.44063 198.68529 88.28438 198.68529Q88.72188 198.68529 89.03438 198.90404Q89.3625 199.12279 89.55 199.63841Q89.675 199.98216 89.675 200.71654L89.675 202.99779Q89.675 203.51341 89.75313 203.70091Q89.83125 203.84154 89.97188 203.91966Q90.1125 203.99779 90.50313 203.99779L90.50313 204.21654L87.84688 204.21654L87.84688 203.99779L87.95625 203.99779Q88.33125 203.99779 88.47188 203.88841Q88.62813 203.77904 88.69063 203.56029Q88.70625 203.46654 88.70625 202.99779L88.70625 200.81029Q88.70625 200.07591 88.51875 199.74779Q88.33125 199.40404 87.87813 199.40404Q87.175 199.40404 86.4875 200.16966L86.4875 202.99779Q86.4875 203.54466 86.55 203.66966Q86.64375 203.84154 86.78438 203.91966Q86.925 203.99779 87.3625 203.99779L87.3625 204.21654L84.70625 204.21654L84.70625 203.99779L84.83125 203.99779Q85.2375 203.99779 85.37813 203.79466Q85.51875 203.59154 85.51875 202.99779L85.51875 201.01341Q85.51875 200.04466 85.47188 199.84154Q85.44063 199.62279 85.34688 199.54466Q85.25313 199.46654 85.09688 199.46654Q84.94063 199.46654 84.70625 199.56029L84.62813 199.34154L86.2375 198.68529L86.4875 198.68529L86.4875 199.82591ZM94.72188 203.60716Q94.33125 204.02904 93.95625 204.21654Q93.58125 204.38841 93.14375 204.38841Q92.26875 204.38841 91.6125 203.65404Q90.95625 202.90404 90.95625 201.74779Q90.95625 200.60716 91.675 199.65404Q92.40938 198.68529 93.55 198.68529Q94.25313 198.68529 94.72188 199.13841L94.72188 198.13841Q94.72188 197.23216 94.675 197.02904Q94.62813 196.81029 94.53438 196.73216Q94.44063 196.65404 94.3 196.65404Q94.14375 196.65404 93.89375 196.74779L93.81563 196.54466L95.425 195.88841L95.69063 195.88841L95.69063 202.09154Q95.69063 203.02904 95.72188 203.24779Q95.76875 203.45091 95.8625 203.52904Q95.97188 203.60716 96.09688 203.60716Q96.25313 203.60716 96.51875 203.51341L96.58125 203.71654L94.9875 204.38841L94.72188 204.38841L94.72188 203.60716ZM94.72188 203.20091L94.72188 200.43529Q94.675 200.04466 94.50313 199.71654Q94.33125 199.38841 94.03438 199.21654Q93.75313 199.04466 93.47188 199.04466Q92.95625 199.04466 92.55 199.51341Q92.01875 200.12279 92.01875 201.29466Q92.01875 202.48216 92.53438 203.10716Q93.05 203.73216 93.69063 203.73216Q94.22188 203.73216 94.72188 203.20091ZM97.83125 200.87279Q97.81563 202.06029 98.40938 202.74779Q98.9875 203.41966 99.78438 203.41966Q100.31563 203.41966 100.70625 203.13841Q101.09688 202.84154 101.3625 202.13841L101.53438 202.26341Q101.40938 203.06029 100.81563 203.73216Q100.2375 204.38841 99.34688 204.38841Q98.37813 204.38841 97.69063 203.63841Q97.00313 202.87279 97.00313 201.60716Q97.00313 200.23216 97.70625 199.46654Q98.40938 198.68529 99.47188 198.68529Q100.37813 198.68529 100.95625 199.27904Q101.53438 199.87279 101.53438 200.87279L97.83125 200.87279ZM97.83125 200.52904L100.31563 200.52904Q100.28438 200.01341 100.19063 199.81029Q100.05 199.48216 99.75313 199.29466Q99.45625 199.10716 99.14375 199.10716Q98.65938 199.10716 98.26875 199.48216Q97.89375 199.85716 97.83125 200.52904ZM103.50313 198.68529L103.50313 199.90404Q104.175 198.68529 104.87813 198.68529Q105.20625 198.68529 105.40938 198.88841Q105.62813 199.07591 105.62813 199.34154Q105.62813 199.57591 105.47188 199.73216Q105.31563 199.88841 105.1125 199.88841Q104.90938 199.88841 104.64375 199.68529Q104.39375 199.48216 104.26875 199.48216Q104.15938 199.48216 104.03438 199.59154Q103.78438 199.84154 103.50313 200.38841L103.50313 202.96654Q103.50313 203.40404 103.6125 203.63841Q103.69063 203.79466 103.87813 203.90404Q104.06563 203.99779 104.44063 203.99779L104.44063 204.21654L101.69063 204.21654L101.69063 203.99779Q102.09688 203.99779 102.3 203.87279Q102.44063 203.77904 102.50313 203.57591Q102.53438 203.48216 102.53438 203.01341L102.53438 200.93529Q102.53438 199.99779 102.4875 199.82591Q102.45625 199.63841 102.34688 199.56029Q102.25313 199.46654 102.09688 199.46654Q101.90938 199.46654 101.69063 199.56029L101.62813 199.34154L103.25313 198.68529L103.50313 198.68529Z" fill-rule="nonzero"/><path fill="#000000" d="M94.425 251.44649L94.62813 251.49336L93.94063 253.64961L87.78438 253.64961L87.78438 253.43086L88.09688 253.43086Q88.59688 253.43086 88.81563 253.10274Q88.94063 252.91524 88.94063 252.24336L88.94063 247.10274Q88.94063 246.36836 88.76875 246.18086Q88.53438 245.91524 88.09688 245.91524L87.78438 245.91524L87.78438 245.69649L91.39375 245.69649L91.39375 245.91524Q90.75313 245.91524 90.50313 246.04024Q90.25313 246.16524 90.15938 246.35274Q90.06563 246.54024 90.06563 247.24336L90.06563 252.24336Q90.06563 252.72774 90.15938 252.89961Q90.22188 253.02461 90.3625 253.08711Q90.51875 253.14961 91.28438 253.14961L91.8625 253.14961Q92.78438 253.14961 93.14375 253.00899Q93.51875 252.86836 93.81563 252.54024Q94.12813 252.19649 94.425 251.44649ZM99.62813 248.27461L99.62813 251.54024Q99.62813 252.46211 99.675 252.68086Q99.72188 252.88399 99.81563 252.96211Q99.90938 253.04024 100.03438 253.04024Q100.22188 253.04024 100.45625 252.94649L100.53438 253.14961L98.925 253.82149L98.65938 253.82149L98.65938 252.68086Q97.97188 253.43086 97.6125 253.63399Q97.25313 253.82149 96.84688 253.82149Q96.39375 253.82149 96.05 253.55586Q95.72188 253.29024 95.59688 252.88399Q95.47188 252.47774 95.47188 251.72774L95.47188 249.32149Q95.47188 248.94649 95.37813 248.80586Q95.3 248.64961 95.14375 248.57149Q94.9875 248.49336 94.56563 248.49336L94.56563 248.27461L96.44063 248.27461L96.44063 251.86836Q96.44063 252.61836 96.70625 252.85274Q96.97188 253.08711 97.33125 253.08711Q97.58125 253.08711 97.89375 252.93086Q98.22188 252.77461 98.65938 252.33711L98.65938 249.29024Q98.65938 248.83711 98.4875 248.68086Q98.33125 248.50899 97.8 248.49336L97.8 248.27461L99.62813 248.27461ZM103.97188 252.86836Q103.14375 253.50899 102.925 253.61836Q102.6125 253.75899 102.25313 253.75899Q101.70625 253.75899 101.33125 253.38399Q100.97188 252.99336 100.97188 252.38399Q100.97188 251.97774 101.15938 251.69649Q101.39375 251.30586 101.9875 250.96211Q102.58125 250.60274 103.97188 250.08711L103.97188 249.88399Q103.97188 249.07149 103.70625 248.77461Q103.45625 248.47774 102.97188 248.47774Q102.59688 248.47774 102.37813 248.68086Q102.15938 248.88399 102.15938 249.13399L102.175 249.47774Q102.175 249.74336 102.03438 249.89961Q101.89375 250.04024 101.675 250.04024Q101.45625 250.04024 101.31563 249.88399Q101.19063 249.72774 101.19063 249.47774Q101.19063 248.96211 101.70625 248.54024Q102.22188 248.11836 103.14375 248.11836Q103.8625 248.11836 104.31563 248.36836Q104.65938 248.54024 104.83125 248.93086Q104.94063 249.18086 104.94063 249.96211L104.94063 251.79024Q104.94063 252.55586 104.95625 252.72774Q104.9875 252.89961 105.05 252.96211Q105.12813 253.00899 105.22188 253.00899Q105.31563 253.00899 105.37813 252.97774Q105.50313 252.89961 105.84688 252.54024L105.84688 252.86836Q105.19063 253.75899 104.59688 253.75899Q104.31563 253.75899 104.14375 253.55586Q103.97188 253.35274 103.97188 252.86836ZM103.97188 252.49336L103.97188 250.44649Q103.08125 250.80586 102.83125 250.94649Q102.3625 251.21211 102.15938 251.49336Q101.95625 251.77461 101.95625 252.10274Q101.95625 252.52461 102.20625 252.80586Q102.47188 253.08711 102.8 253.08711Q103.2375 253.08711 103.97188 252.49336Z" fill-rule="nonzero"/><path fill="#000000" d="M70.76875 294.95767L70.95625 297.6608L70.76875 297.6608Q70.40938 296.44205 69.7375 295.9108Q69.06563 295.37955 68.12813 295.37955Q67.33125 295.37955 66.69063 295.7858Q66.05 296.17642 65.675 297.06705Q65.31563 297.94205 65.31563 299.23892Q65.31563 300.31705 65.65938 301.11392Q66.01875 301.9108 66.70625 302.33267Q67.39375 302.75455 68.28438 302.75455Q69.06563 302.75455 69.65938 302.42642Q70.25313 302.08267 70.95625 301.0983L71.14375 301.2233Q70.53438 302.2858 69.7375 302.7858Q68.94063 303.27017 67.84688 303.27017Q65.87813 303.27017 64.8 301.80142Q63.9875 300.70767 63.9875 299.23892Q63.9875 298.0358 64.51875 297.05142Q65.05 296.05142 65.9875 295.50455Q66.925 294.95767 68.03438 294.95767Q68.89375 294.95767 69.72188 295.37955Q69.97188 295.50455 70.08125 295.50455Q70.2375 295.50455 70.34688 295.39517Q70.50313 295.23892 70.56563 294.95767L70.76875 294.95767ZM74.55 297.55142Q75.76875 297.55142 76.50313 298.48892Q77.12813 299.27017 77.12813 300.30142Q77.12813 301.02017 76.78438 301.75455Q76.44063 302.48892 75.83125 302.87955Q75.2375 303.25455 74.4875 303.25455Q73.26875 303.25455 72.56563 302.2858Q71.95625 301.45767 71.95625 300.45767Q71.95625 299.70767 72.31563 298.98892Q72.69063 298.25455 73.28438 297.9108Q73.87813 297.55142 74.55 297.55142ZM74.3625 297.94205Q74.06563 297.94205 73.7375 298.12955Q73.425 298.30142 73.2375 298.77017Q73.05 299.23892 73.05 299.95767Q73.05 301.12955 73.50313 301.98892Q73.97188 302.83267 74.7375 302.83267Q75.3 302.83267 75.675 302.36392Q76.05 301.89517 76.05 300.75455Q76.05 299.31705 75.425 298.50455Q75.01875 297.94205 74.3625 297.94205ZM79.51875 298.69205Q80.1125 298.11392 80.20625 298.02017Q80.47188 297.80142 80.76875 297.67642Q81.08125 297.55142 81.37813 297.55142Q81.89375 297.55142 82.25313 297.8483Q82.6125 298.14517 82.7375 298.69205Q83.34688 297.98892 83.75313 297.77017Q84.175 297.55142 84.6125 297.55142Q85.03438 297.55142 85.3625 297.77017Q85.70625 297.98892 85.89375 298.48892Q86.01875 298.83267 86.01875 299.56705L86.01875 301.86392Q86.01875 302.37955 86.09688 302.56705Q86.15938 302.69205 86.31563 302.7858Q86.47188 302.86392 86.83125 302.86392L86.83125 303.08267L84.19063 303.08267L84.19063 302.86392L84.3 302.86392Q84.64375 302.86392 84.83125 302.73892Q84.97188 302.64517 85.03438 302.44205Q85.05 302.33267 85.05 301.86392L85.05 299.56705Q85.05 298.9108 84.89375 298.62955Q84.65938 298.25455 84.15938 298.25455Q83.84688 298.25455 83.53438 298.4108Q83.22188 298.56705 82.78438 298.98892L82.76875 299.05142L82.78438 299.30142L82.78438 301.86392Q82.78438 302.42642 82.83125 302.56705Q82.89375 302.69205 83.06563 302.7858Q83.2375 302.86392 83.64375 302.86392L83.64375 303.08267L80.94063 303.08267L80.94063 302.86392Q81.37813 302.86392 81.55 302.77017Q81.72188 302.6608 81.78438 302.44205Q81.81563 302.3483 81.81563 301.86392L81.81563 299.56705Q81.81563 298.9108 81.6125 298.61392Q81.3625 298.23892 80.89375 298.23892Q80.58125 298.23892 80.26875 298.4108Q79.78438 298.67642 79.51875 298.98892L79.51875 301.86392Q79.51875 302.39517 79.58125 302.55142Q79.65938 302.70767 79.8 302.7858Q79.95625 302.86392 80.39375 302.86392L80.39375 303.08267L77.7375 303.08267L77.7375 302.86392Q78.1125 302.86392 78.25313 302.7858Q78.39375 302.70767 78.47188 302.5358Q78.55 302.36392 78.55 301.86392L78.55 299.81705Q78.55 298.92642 78.50313 298.67642Q78.45625 298.48892 78.3625 298.4108Q78.28438 298.33267 78.12813 298.33267Q77.97188 298.33267 77.7375 298.42642L77.64375 298.20767L79.26875 297.55142L79.51875 297.55142L79.51875 298.69205ZM87.83125 299.73892Q87.81563 300.92642 88.40938 301.61392Q88.9875 302.2858 89.78438 302.2858Q90.31563 302.2858 90.70625 302.00455Q91.09688 301.70767 91.3625 301.00455L91.53438 301.12955Q91.40938 301.92642 90.81563 302.5983Q90.2375 303.25455 89.34688 303.25455Q88.37813 303.25455 87.69063 302.50455Q87.00313 301.73892 87.00313 300.4733Q87.00313 299.0983 87.70625 298.33267Q88.40938 297.55142 89.47188 297.55142Q90.37813 297.55142 90.95625 298.14517Q91.53438 298.73892 91.53438 299.73892L87.83125 299.73892ZM87.83125 299.39517L90.31563 299.39517Q90.28438 298.87955 90.19063 298.67642Q90.05 298.3483 89.75313 298.1608Q89.45625 297.9733 89.14375 297.9733Q88.65938 297.9733 88.26875 298.3483Q87.89375 298.7233 87.83125 299.39517ZM93.4875 295.95767L93.4875 297.70767L94.7375 297.70767L94.7375 298.12955L93.4875 298.12955L93.4875 301.5983Q93.4875 302.12955 93.62813 302.31705Q93.78438 302.48892 94.01875 302.48892Q94.20625 302.48892 94.39375 302.37955Q94.58125 302.25455 94.675 302.02017L94.90938 302.02017Q94.69063 302.58267 94.31563 302.87955Q93.94063 303.17642 93.55 303.17642Q93.28438 303.17642 93.01875 303.02017Q92.76875 302.86392 92.64375 302.5983Q92.51875 302.31705 92.51875 301.73892L92.51875 298.12955L91.675 298.12955L91.675 297.92642Q91.9875 297.80142 92.31563 297.50455Q92.65938 297.19205 92.925 296.77017Q93.06563 296.5358 93.3 295.95767L93.4875 295.95767ZM98.97188 302.30142Q98.14375 302.94205 97.925 303.05142Q97.6125 303.19205 97.25313 303.19205Q96.70625 303.19205 96.33125 302.81705Q95.97188 302.42642 95.97188 301.81705Q95.97188 301.4108 96.15938 301.12955Q96.39375 300.73892 96.9875 300.39517Q97.58125 300.0358 98.97188 299.52017L98.97188 299.31705Q98.97188 298.50455 98.70625 298.20767Q98.45625 297.9108 97.97188 297.9108Q97.59688 297.9108 97.37813 298.11392Q97.15938 298.31705 97.15938 298.56705L97.175 298.9108Q97.175 299.17642 97.03438 299.33267Q96.89375 299.4733 96.675 299.4733Q96.45625 299.4733 96.31563 299.31705Q96.19063 299.1608 96.19063 298.9108Q96.19063 298.39517 96.70625 297.9733Q97.22188 297.55142 98.14375 297.55142Q98.8625 297.55142 99.31563 297.80142Q99.65938 297.9733 99.83125 298.36392Q99.94063 298.61392 99.94063 299.39517L99.94063 301.2233Q99.94063 301.98892 99.95625 302.1608Q99.9875 302.33267 100.05 302.39517Q100.12813 302.44205 100.22188 302.44205Q100.31563 302.44205 100.37813 302.4108Q100.50313 302.33267 100.84688 301.9733L100.84688 302.30142Q100.19063 303.19205 99.59688 303.19205Q99.31563 303.19205 99.14375 302.98892Q98.97188 302.7858 98.97188 302.30142ZM98.97188 301.92642L98.97188 299.87955Q98.08125 300.23892 97.83125 300.37955Q97.3625 300.64517 97.15938 300.92642Q96.95625 301.20767 96.95625 301.5358Q96.95625 301.95767 97.20625 302.23892Q97.47188 302.52017 97.8 302.52017Q98.2375 302.52017 98.97188 301.92642ZM104.39375 297.55142L104.39375 299.37955L104.20625 299.37955Q103.97188 298.52017 103.62813 298.20767Q103.28438 297.89517 102.7375 297.89517Q102.33125 297.89517 102.08125 298.11392Q101.83125 298.33267 101.83125 298.5983Q101.83125 298.92642 102.01875 299.1608Q102.19063 299.39517 102.75313 299.67642L103.6125 300.08267Q104.8 300.6608 104.8 301.61392Q104.8 302.3483 104.2375 302.80142Q103.69063 303.25455 103.00313 303.25455Q102.51875 303.25455 101.87813 303.06705Q101.69063 303.00455 101.56563 303.00455Q101.425 303.00455 101.34688 303.1608L101.15938 303.1608L101.15938 301.25455L101.34688 301.25455Q101.51875 302.06705 101.97188 302.48892Q102.44063 302.89517 103.01875 302.89517Q103.425 302.89517 103.675 302.6608Q103.925 302.42642 103.925 302.0983Q103.925 301.69205 103.64375 301.4108Q103.3625 301.12955 102.50313 300.70767Q101.65938 300.2858 101.39375 299.95767Q101.14375 299.61392 101.14375 299.11392Q101.14375 298.44205 101.59688 298.00455Q102.05 297.55142 102.76875 297.55142Q103.08125 297.55142 103.53438 297.69205Q103.83125 297.7858 103.925 297.7858Q104.01875 297.7858 104.06563 297.73892Q104.12813 297.69205 104.20625 297.55142L104.39375 297.55142Z" fill-rule="nonzero"/><path fill="#000000" d="M108.9875 345.52814Q108.9875 344.16876 109.39375 343.1844Q109.8 342.2 110.4875 341.71564Q111.01875 341.34064 111.58125 341.34064Q112.4875 341.34064 113.22188 342.27814Q114.12813 343.41876 114.12813 345.40314Q114.12813 346.77814 113.72188 347.7469Q113.33125 348.71564 112.70625 349.15314Q112.09688 349.59064 111.51875 349.59064Q110.37813 349.59064 109.62813 348.2469Q108.9875 347.1219 108.9875 345.52814ZM110.12813 345.66876Q110.12813 347.3094 110.53438 348.34064Q110.87813 349.21564 111.53438 349.21564Q111.84688 349.21564 112.19063 348.9344Q112.53438 348.65314 112.70625 347.98126Q112.97188 346.98126 112.97188 345.1375Q112.97188 343.77814 112.69063 342.8719Q112.4875 342.2 112.14375 341.91876Q111.90938 341.73126 111.56563 341.73126Q111.175 341.73126 110.8625 342.09064Q110.44063 342.575 110.28438 343.6219Q110.12813 344.65314 110.12813 345.66876Z" fill-rule="nonzero"/><path fill="#000000" d="M224.43124 342.27814L226.36874 341.34064L226.55624 341.34064L226.55624 348.04376Q226.55624 348.71564 226.60312 348.8875Q226.66562 349.04376 226.8375 349.1375Q227.025 349.21564 227.55624 349.23126L227.55624 349.45L224.57187 349.45L224.57187 349.23126Q225.13437 349.21564 225.29062 349.1375Q225.4625 349.04376 225.525 348.90314Q225.5875 348.7625 225.5875 348.04376L225.5875 343.7625Q225.5875 342.8875 225.54062 342.65314Q225.49374 342.46564 225.38437 342.3719Q225.275 342.27814 225.11874 342.27814Q224.9 342.27814 224.525 342.46564L224.43124 342.27814ZM229.4625 345.52814Q229.4625 344.16876 229.86874 343.1844Q230.275 342.2 230.9625 341.71564Q231.49374 341.34064 232.05624 341.34064Q232.9625 341.34064 233.69687 342.27814Q234.60312 343.41876 234.60312 345.40314Q234.60312 346.77814 234.19687 347.7469Q233.80624 348.71564 233.18124 349.15314Q232.57187 349.59064 231.99374 349.59064Q230.85312 349.59064 230.10312 348.2469Q229.4625 347.1219 229.4625 345.52814ZM230.60312 345.66876Q230.60312 347.3094 231.00937 348.34064Q231.35312 349.21564 232.00937 349.21564Q232.32187 349.21564 232.66562 348.9344Q233.00937 348.65314 233.18124 347.98126Q233.44687 346.98126 233.44687 345.1375Q233.44687 343.77814 233.16562 342.8719Q232.9625 342.2 232.61874 341.91876Q232.38437 341.73126 232.04062 341.73126Q231.65 341.73126 231.3375 342.09064Q230.91562 342.575 230.75937 343.6219Q230.60312 344.65314 230.60312 345.66876Z" fill-rule="nonzero"/><path fill="#000000" d="M346.0 347.91876L345.45312 349.45L340.76562 349.45L340.76562 349.23126Q342.82812 347.34064 343.67188 346.15314Q344.51562 344.95 344.51562 343.96564Q344.51562 343.21564 344.04688 342.73126Q343.59375 342.23126 342.9375 342.23126Q342.35938 342.23126 341.89062 342.575Q341.42188 342.91876 341.20312 343.59064L340.98438 343.59064Q341.14062 342.4969 341.73438 341.91876Q342.34375 341.34064 343.25 341.34064Q344.21875 341.34064 344.85938 341.96564Q345.51562 342.575 345.51562 343.41876Q345.51562 344.02814 345.23438 344.6375Q344.79688 345.575 343.82812 346.6375Q342.375 348.23126 342.0 348.5594L344.07812 348.5594Q344.71875 348.5594 344.96875 348.5125Q345.21875 348.46564 345.42188 348.325Q345.64062 348.1844 345.78125 347.91876L346.0 347.91876ZM346.9375 345.52814Q346.9375 344.16876 347.34375 343.1844Q347.75 342.2 348.4375 341.71564Q348.96875 341.34064 349.53125 341.34064Q350.4375 341.34064 351.17188 342.27814Q352.07812 343.41876 352.07812 345.40314Q352.07812 346.77814 351.67188 347.7469Q351.28125 348.71564 350.65625 349.15314Q350.04688 349.59064 349.46875 349.59064Q348.32812 349.59064 347.57812 348.2469Q346.9375 347.1219 346.9375 345.52814ZM348.07812 345.66876Q348.07812 347.3094 348.48438 348.34064Q348.82812 349.21564 349.48438 349.21564Q349.79688 349.21564 350.14062 348.9344Q350.48438 348.65314 350.65625 347.98126Q350.92188 346.98126 350.92188 345.1375Q350.92188 343.77814 350.64062 342.8719Q350.4375 342.2 350.09375 341.91876Q349.85938 341.73126 349.51562 341.73126Q349.125 341.73126 348.8125 342.09064Q348.39062 342.575 348.23438 343.6219Q348.07812 344.65314 348.07812 345.66876Z" fill-rule="nonzero"/><path fill="#000000" d="M458.58438 343.0125Q458.92813 342.21564 459.44376 341.77814Q459.95938 341.34064 460.74063 341.34064Q461.69376 341.34064 462.19376 341.96564Q462.58438 342.41876 462.58438 342.95Q462.58438 343.825 461.49063 344.7469Q462.225 345.02814 462.6 345.5594Q462.975 346.09064 462.975 346.825Q462.975 347.85626 462.31876 348.60626Q461.475 349.59064 459.85 349.59064Q459.0375 349.59064 458.74063 349.3875Q458.45938 349.1844 458.45938 348.96564Q458.45938 348.79376 458.6 348.66876Q458.74063 348.52814 458.92813 348.52814Q459.08438 348.52814 459.225 348.575Q459.33438 348.60626 459.67813 348.79376Q460.0375 348.98126 460.1625 349.0125Q460.38126 349.075 460.63126 349.075Q461.225 349.075 461.6625 348.6219Q462.11563 348.15314 462.11563 347.52814Q462.11563 347.0594 461.9125 346.6219Q461.75626 346.29376 461.56876 346.1219Q461.31876 345.8875 460.88126 345.7Q460.44376 345.5125 459.99063 345.5125L459.80313 345.5125L459.80313 345.325Q460.25626 345.27814 460.725 344.9969Q461.19376 344.71564 461.39688 344.34064Q461.61563 343.95 461.61563 343.48126Q461.61563 342.8875 461.24063 342.5125Q460.86563 342.1375 460.30313 342.1375Q459.38126 342.1375 458.77188 343.10626L458.58438 343.0125ZM464.4125 345.52814Q464.4125 344.16876 464.81876 343.1844Q465.225 342.2 465.9125 341.71564Q466.44376 341.34064 467.00626 341.34064Q467.9125 341.34064 468.64688 342.27814Q469.55313 343.41876 469.55313 345.40314Q469.55313 346.77814 469.14688 347.7469Q468.75626 348.71564 468.13126 349.15314Q467.52188 349.59064 466.94376 349.59064Q465.80313 349.59064 465.05313 348.2469Q464.4125 347.1219 464.4125 345.52814ZM465.55313 345.66876Q465.55313 347.3094 465.95938 348.34064Q466.30313 349.21564 466.95938 349.21564Q467.27188 349.21564 467.61563 348.9344Q467.95938 348.65314 468.13126 347.98126Q468.39688 346.98126 468.39688 345.1375Q468.39688 343.77814 468.11563 342.8719Q467.9125 342.2 467.56876 341.91876Q467.33438 341.73126 466.99063 341.73126Q466.6 341.73126 466.2875 342.09064Q465.86563 342.575 465.70938 343.6219Q465.55313 344.65314 465.55313 345.66876Z" fill-rule="nonzero"/><path fill="#000000" d="M581.02814 346.5125L581.02814 347.35626L579.96564 347.35626L579.96564 349.45L578.9969 349.45L578.9969 347.35626L575.6375 347.35626L575.6375 346.60626L579.325 341.34064L579.96564 341.34064L579.96564 346.5125L581.02814 346.5125ZM578.9969 346.5125L578.9969 342.575L576.21564 346.5125L578.9969 346.5125ZM581.8875 345.52814Q581.8875 344.16876 582.29376 343.1844Q582.7 342.2 583.3875 341.71564Q583.91876 341.34064 584.48126 341.34064Q585.3875 341.34064 586.1219 342.27814Q587.02814 343.41876 587.02814 345.40314Q587.02814 346.77814 586.6219 347.7469Q586.23126 348.71564 585.60626 349.15314Q584.9969 349.59064 584.41876 349.59064Q583.27814 349.59064 582.52814 348.2469Q581.8875 347.1219 581.8875 345.52814ZM583.02814 345.66876Q583.02814 347.3094 583.4344 348.34064Q583.77814 349.21564 584.4344 349.21564Q584.7469 349.21564 585.09064 348.9344Q585.4344 348.65314 585.60626 347.98126Q585.8719 346.98126 585.8719 345.1375Q585.8719 343.77814 585.59064 342.8719Q585.3875 342.2 585.04376 341.91876Q584.8094 341.73126 584.46564 341.73126Q584.075 341.73126 583.7625 342.09064Q583.34064 342.575 583.1844 343.6219Q583.02814 344.65314 583.02814 345.66876Z" fill-rule="nonzero"/></svg>