<svg version="1.1" viewBox="0.0 0.0 600.0 371.0" fill="none" stroke="none" stroke-linecap="square" stroke-miterlimit="10" width="600" height="371" xmlns:xlink="http://www.w3.org/1999/xlink" xmlns="http://www.w3.org/2000/svg"><path fill="#ffffff" d="M0 0L600.0 0L600.0 371.0L0 371.0L0 0Z" fill-rule="nonzero"/><path fill="#a5a5a5" d="M134.84622 13.026462C156.58429 4.4197526 179.75345 0 203.13333 0L203.13333 92.75C191.44339 92.75 179.85881 94.95988 168.98978 99.26323Z" fill-rule="nonzero"/><path fill="#ed7d31" d="M60.203125 67.25785C80.119736 43.182804 105.79493 24.528685 134.84622 13.026462L168.98978 99.26323C154.46413 105.01434 141.62654 114.3414 131.66823 126.37892Z" fill-rule="nonzero"/><path fill="#4472c4" d="M203.13333 0C289.99063 0 365.21857 60.268948 384.1659 145.03442C403.11322 229.79991 360.7062 316.36337 282.1154 353.34543C203.52457 390.32745 109.79502 367.82498 56.559578 299.19424C3.3241363 230.56354 4.83821 134.18254 60.203125 67.25785L131.66823 126.37892C103.98577 159.84126 103.22874 208.03177 129.84645 242.34712C156.46417 276.66248 203.32895 287.91373 242.62436 269.4227C281.91977 250.93169 303.1233 207.64995 293.64963 165.26721C284.17593 122.884476 246.56198 92.75 203.13333 92.75Z" fill-rule="nonzero"/><path fill="#000000" d="M248.78896 316.45456Q247.6952 315.5483 247.36708 315.00143Q247.05458 314.45456 247.05458 313.87643Q247.05458 312.97018 247.74208 312.31393Q248.4452 311.65768 249.60146 311.65768Q250.72646 311.65768 251.39833 312.26706Q252.08583 312.87643 252.08583 313.65768Q252.08583 314.1733 251.71083 314.72018Q251.35146 315.26706 250.17958 315.9858Q251.3827 316.9233 251.77333 317.45456Q252.28896 318.15768 252.28896 318.9233Q252.28896 319.90768 251.53896 320.6108Q250.80458 321.2983 249.60146 321.2983Q248.27333 321.2983 247.53896 320.47018Q246.9452 319.7983 246.9452 319.01706Q246.9452 318.39206 247.35146 317.7983Q247.77333 317.18893 248.78896 316.45456ZM249.86708 315.72018Q250.67958 314.9858 250.89833 314.56393Q251.11708 314.12643 251.11708 313.59518Q251.11708 312.87643 250.71083 312.47018Q250.3202 312.06393 249.61708 312.06393Q248.91396 312.06393 248.47646 312.47018Q248.03896 312.8608 248.03896 313.40768Q248.03896 313.76706 248.21083 314.12643Q248.39833 314.47018 248.74208 314.7983L249.86708 315.72018ZM249.11708 316.72018Q248.53896 317.18893 248.2577 317.76706Q247.99208 318.32956 247.99208 318.9858Q247.99208 319.8608 248.47646 320.39206Q248.96083 320.9233 249.71083 320.9233Q250.4452 320.9233 250.8827 320.50143Q251.33583 320.07956 251.33583 319.4858Q251.33583 319.00143 251.0702 318.6108Q250.58583 317.89206 249.11708 316.72018ZM259.3827 311.65768L259.3827 311.9233Q258.47644 312.00143 257.89832 312.28268Q257.33582 312.5483 256.77332 313.1108Q256.22644 313.65768 255.85146 314.34518Q255.49208 315.01706 255.24208 315.95456Q256.22644 315.26706 257.21082 315.26706Q258.16394 315.26706 258.85144 316.03268Q259.55457 316.7983 259.55457 318.00143Q259.55457 319.1733 258.85144 320.12643Q258.0077 321.2983 256.61707 321.2983Q255.66396 321.2983 255.0077 320.65768Q253.71083 319.43893 253.71083 317.4858Q253.71083 316.25143 254.1952 315.12643Q254.6952 314.00143 255.61708 313.14206Q256.55457 312.26706 257.39832 311.97018Q258.24207 311.65768 258.97644 311.65768L259.3827 311.65768ZM255.1327 316.45456Q255.0077 317.37643 255.0077 317.93893Q255.0077 318.59518 255.24208 319.37643Q255.49208 320.14206 255.96083 320.57956Q256.3202 320.90768 256.8202 320.90768Q257.41394 320.90768 257.8827 320.34518Q258.35144 319.78268 258.35144 318.75143Q258.35144 317.57956 257.8827 316.7358Q257.41394 315.87643 256.55457 315.87643Q256.30457 315.87643 256.0077 315.9858Q255.71083 316.09518 255.1327 316.45456ZM260.85144 323.45456L260.85144 323.15768Q261.55457 322.9233 261.9452 322.43893Q262.33582 321.95456 262.33582 321.40768Q262.33582 321.26706 262.27332 321.18893Q262.22644 321.12643 262.17957 321.12643Q262.10144 321.12643 261.85144 321.25143Q261.72644 321.31393 261.58582 321.31393Q261.2577 321.31393 261.05457 321.12643Q260.85144 320.9233 260.85144 320.57956Q260.85144 320.2358 261.10144 320.00143Q261.36707 319.75143 261.74207 319.75143Q262.17957 319.75143 262.53894 320.15768Q262.89832 320.5483 262.89832 321.18893Q262.89832 321.89206 262.39832 322.50143Q261.91394 323.1108 260.85144 323.45456ZM264.60144 316.5483Q264.60144 314.95456 265.08582 313.81393Q265.5702 312.6733 266.35144 312.1108Q266.97644 311.65768 267.6327 311.65768Q268.6952 311.65768 269.53894 312.75143Q270.60144 314.09518 270.60144 316.40768Q270.60144 318.01706 270.1327 319.14206Q269.67957 320.26706 268.9452 320.78268Q268.22644 321.2983 267.55457 321.2983Q266.24207 321.2983 265.35144 319.72018Q264.60144 318.40768 264.60144 316.5483ZM265.9452 316.72018Q265.9452 318.62643 266.41394 319.84518Q266.80457 320.8608 267.58582 320.8608Q267.9452 320.8608 268.33582 320.53268Q268.74207 320.18893 268.9452 319.4233Q269.2577 318.2358 269.2577 316.09518Q269.2577 314.51706 268.92957 313.45456Q268.6952 312.6733 268.30457 312.34518Q268.02332 312.1108 267.61707 312.1108Q267.16394 312.1108 266.78894 312.53268Q266.30457 313.09518 266.11707 314.31393Q265.9452 315.53268 265.9452 316.72018ZM280.61707 311.64206L273.86707 321.51706L273.2577 321.51706L280.0077 311.64206L280.61707 311.64206ZM273.58582 311.64206Q274.5077 311.64206 275.02332 312.40768Q275.53894 313.1733 275.53894 314.1733Q275.53894 315.3608 274.96082 316.01706Q274.3827 316.65768 273.5702 316.65768Q273.03894 316.65768 272.58582 316.3608Q272.1327 316.06393 271.86707 315.4858Q271.60144 314.89206 271.60144 314.1733Q271.60144 313.45456 271.86707 312.84518Q272.14832 312.2358 272.61707 311.93893Q273.08582 311.64206 273.58582 311.64206ZM273.5702 312.03268Q273.22644 312.03268 272.9452 312.43893Q272.67957 312.84518 272.67957 314.15768Q272.67957 315.1108 272.83582 315.6108Q272.9452 315.9858 273.1952 316.18893Q273.33582 316.31393 273.55457 316.31393Q273.8827 316.31393 274.11707 315.95456Q274.4452 315.43893 274.4452 314.20456Q274.4452 312.90768 274.11707 312.37643Q273.89832 312.03268 273.5702 312.03268ZM280.30457 316.53268Q280.78894 316.53268 281.27332 316.84518Q281.7577 317.14206 282.0077 317.7358Q282.27332 318.31393 282.27332 319.01706Q282.27332 320.2358 281.6952 320.87643Q281.11707 321.51706 280.3202 321.51706Q279.8202 321.51706 279.35144 321.20456Q278.8827 320.89206 278.61707 320.32956Q278.35144 319.75143 278.35144 319.01706Q278.35144 318.2983 278.61707 317.70456Q278.8827 317.1108 279.35144 316.82956Q279.8202 316.53268 280.30457 316.53268ZM280.30457 316.89206Q279.97644 316.89206 279.74207 317.25143Q279.42957 317.7358 279.42957 319.06393Q279.42957 320.2983 279.74207 320.78268Q279.97644 321.12643 280.30457 321.12643Q280.61707 321.12643 280.86707 320.75143Q281.1952 320.25143 281.1952 319.03268Q281.1952 317.75143 280.86707 317.2358Q280.64832 316.89206 280.30457 316.89206Z" fill-rule="nonzero"/><path fill="#000000" d="M106.21426 69.37717Q105.12051 68.47092 104.79238 67.92404Q104.47988 67.37717 104.47988 66.79904Q104.47988 65.89279 105.16738 65.23654Q105.87051 64.58029 107.02676 64.58029Q108.15176 64.58029 108.82363 65.18967Q109.51113 65.79904 109.51113 66.58029Q109.51113 67.09592 109.13613 67.64279Q108.77676 68.18967 107.60488 68.90842Q108.80801 69.84592 109.19863 70.37717Q109.71426 71.08029 109.71426 71.84592Q109.71426 72.83029 108.96426 73.53342Q108.22988 74.22092 107.02676 74.22092Q105.69863 74.22092 104.96426 73.39279Q104.37051 72.72092 104.37051 71.93967Q104.37051 71.31467 104.77676 70.72092Q105.19863 70.11154 106.21426 69.37717ZM107.29238 68.64279Q108.10488 67.90842 108.32363 67.48654Q108.54238 67.04904 108.54238 66.51779Q108.54238 65.79904 108.13613 65.39279Q107.74551 64.98654 107.04238 64.98654Q106.33926 64.98654 105.90176 65.39279Q105.46426 65.78342 105.46426 66.33029Q105.46426 66.68967 105.63613 67.04904Q105.82363 67.39279 106.16738 67.72092L107.29238 68.64279ZM106.54238 69.64279Q105.96426 70.11154 105.68301 70.68967Q105.41738 71.25217 105.41738 71.90842Q105.41738 72.78342 105.90176 73.31467Q106.38613 73.84592 107.13613 73.84592Q107.87051 73.84592 108.30801 73.42404Q108.76113 73.00217 108.76113 72.40842Q108.76113 71.92404 108.49551 71.53342Q108.01113 70.81467 106.54238 69.64279ZM111.27676 76.37717L111.27676 76.08029Q111.97988 75.84592 112.37051 75.36154Q112.76113 74.87717 112.76113 74.33029Q112.76113 74.18967 112.69863 74.11154Q112.65176 74.04904 112.60488 74.04904Q112.52676 74.04904 112.27676 74.17404Q112.15176 74.23654 112.01113 74.23654Q111.68301 74.23654 111.47988 74.04904Q111.27676 73.84592 111.27676 73.50217Q111.27676 73.15842 111.52676 72.92404Q111.79238 72.67404 112.16738 72.67404Q112.60488 72.67404 112.96426 73.08029Q113.32363 73.47092 113.32363 74.11154Q113.32363 74.81467 112.82363 75.42404Q112.33926 76.03342 111.27676 76.37717ZM115.02676 69.47092Q115.02676 67.87717 115.51113 66.73654Q115.99551 65.59592 116.77676 65.03342Q117.40176 64.58029 118.05801 64.58029Q119.12051 64.58029 119.96426 65.67404Q121.02676 67.01779 121.02676 69.33029Q121.02676 70.93967 120.55801 72.06467Q120.10488 73.18967 119.37051 73.70529Q118.65176 74.22092 117.97988 74.22092Q116.66738 74.22092 115.77676 72.64279Q115.02676 71.33029 115.02676 69.47092ZM116.37051 69.64279Q116.37051 71.54904 116.83926 72.76779Q117.22988 73.78342 118.01113 73.78342Q118.37051 73.78342 118.76113 73.45529Q119.16738 73.11154 119.37051 72.34592Q119.68301 71.15842 119.68301 69.01779Q119.68301 67.43967 119.35488 66.37717Q119.12051 65.59592 118.72988 65.26779Q118.44863 65.03342 118.04238 65.03342Q117.58926 65.03342 117.21426 65.45529Q116.72988 66.01779 116.54238 67.23654Q116.37051 68.45529 116.37051 69.64279ZM131.04239 64.56467L124.29238 74.43967L123.68301 74.43967L130.43301 64.56467L131.04239 64.56467ZM124.01113 64.56467Q124.93301 64.56467 125.44863 65.33029Q125.96426 66.09592 125.96426 67.09592Q125.96426 68.28342 125.38613 68.93967Q124.80801 69.58029 123.99551 69.58029Q123.46426 69.58029 123.01113 69.28342Q122.55801 68.98654 122.29238 68.40842Q122.02676 67.81467 122.02676 67.09592Q122.02676 66.37717 122.29238 65.76779Q122.57363 65.15842 123.04238 64.86154Q123.51113 64.56467 124.01113 64.56467ZM123.99551 64.95529Q123.65176 64.95529 123.37051 65.36154Q123.10488 65.76779 123.10488 67.08029Q123.10488 68.03342 123.26113 68.53342Q123.37051 68.90842 123.62051 69.11154Q123.76113 69.23654 123.97988 69.23654Q124.30801 69.23654 124.54238 68.87717Q124.87051 68.36154 124.87051 67.12717Q124.87051 65.83029 124.54238 65.29904Q124.32363 64.95529 123.99551 64.95529ZM130.72989 69.45529Q131.21426 69.45529 131.69864 69.76779Q132.18301 70.06467 132.43301 70.65842Q132.69864 71.23654 132.69864 71.93967Q132.69864 73.15842 132.12051 73.79904Q131.54239 74.43967 130.74551 74.43967Q130.24551 74.43967 129.77676 74.12717Q129.30801 73.81467 129.04239 73.25217Q128.77676 72.67404 128.77676 71.93967Q128.77676 71.22092 129.04239 70.62717Q129.30801 70.03342 129.77676 69.75217Q130.24551 69.45529 130.72989 69.45529ZM130.72989 69.81467Q130.40176 69.81467 130.16739 70.17404Q129.85489 70.65842 129.85489 71.98654Q129.85489 73.22092 130.16739 73.70529Q130.40176 74.04904 130.72989 74.04904Q131.04239 74.04904 131.29239 73.67404Q131.62051 73.17404 131.62051 71.95529Q131.62051 70.67404 131.29239 70.15842Q131.07364 69.81467 130.72989 69.81467Z" fill-rule="nonzero"/><path fill="#000000" d="M166.1179 32.69489L166.1179 32.960514Q165.21165 33.03864 164.63353 33.31989Q164.07103 33.585514 163.50853 34.148014Q162.96165 34.69489 162.58665 35.38239Q162.22728 36.054264 161.97728 36.991764Q162.96165 36.304264 163.94603 36.304264Q164.89915 36.304264 165.58665 37.06989Q166.28978 37.835514 166.28978 39.03864Q166.28978 40.210514 165.58665 41.16364Q164.7429 42.335514 163.35228 42.335514Q162.39915 42.335514 161.7429 41.69489Q160.44603 40.47614 160.44603 38.523014Q160.44603 37.28864 160.9304 36.16364Q161.4304 35.03864 162.35228 34.179264Q163.28978 33.304264 164.13353 33.00739Q164.97728 32.69489 165.71165 32.69489L166.1179 32.69489ZM161.8679 37.491764Q161.7429 38.41364 161.7429 38.97614Q161.7429 39.63239 161.97728 40.41364Q162.22728 41.179264 162.69603 41.616764Q163.0554 41.94489 163.5554 41.94489Q164.14915 41.94489 164.6179 41.38239Q165.08665 40.81989 165.08665 39.78864Q165.08665 38.616764 164.6179 37.773014Q164.14915 36.91364 163.28978 36.91364Q163.03978 36.91364 162.7429 37.023014Q162.44603 37.13239 161.8679 37.491764ZM167.58665 44.491764L167.58665 44.19489Q168.28978 43.960514 168.6804 43.47614Q169.07103 42.991764 169.07103 42.44489Q169.07103 42.304264 169.00853 42.22614Q168.96165 42.16364 168.91478 42.16364Q168.83665 42.16364 168.58665 42.28864Q168.46165 42.35114 168.32103 42.35114Q167.9929 42.35114 167.78978 42.16364Q167.58665 41.960514 167.58665 41.616764Q167.58665 41.273014 167.83665 41.03864Q168.10228 40.78864 168.47728 40.78864Q168.91478 40.78864 169.27415 41.19489Q169.63353 41.585514 169.63353 42.22614Q169.63353 42.929264 169.13353 43.53864Q168.64915 44.148014 167.58665 44.491764ZM171.33665 37.585514Q171.33665 35.991764 171.82103 34.85114Q172.3054 33.710514 173.08665 33.148014Q173.71165 32.69489 174.3679 32.69489Q175.4304 32.69489 176.27415 33.78864Q177.33665 35.13239 177.33665 37.44489Q177.33665 39.054264 176.8679 40.179264Q176.41478 41.304264 175.6804 41.81989Q174.96165 42.335514 174.28978 42.335514Q172.97728 42.335514 172.08665 40.75739Q171.33665 39.44489 171.33665 37.585514ZM172.6804 37.75739Q172.6804 39.66364 173.14915 40.88239Q173.53978 41.898014 174.32103 41.898014Q174.6804 41.898014 175.07103 41.56989Q175.47728 41.22614 175.6804 40.460514Q175.9929 39.273014 175.9929 37.13239Q175.9929 35.554264 175.66478 34.491764Q175.4304 33.710514 175.03978 33.38239Q174.75853 33.148014 174.35228 33.148014Q173.89915 33.148014 173.52415 33.56989Q173.03978 34.13239 172.85228 35.35114Q172.6804 36.56989 172.6804 37.75739ZM187.35228 32.679264L180.60228 42.554264L179.9929 42.554264L186.7429 32.679264L187.35228 32.679264ZM180.32103 32.679264Q181.2429 32.679264 181.75853 33.44489Q182.27415 34.210514 182.27415 35.210514Q182.27415 36.398014 181.69603 37.054264Q181.1179 37.69489 180.3054 37.69489Q179.77415 37.69489 179.32103 37.398014Q178.8679 37.10114 178.60228 36.523014Q178.33665 35.929264 178.33665 35.210514Q178.33665 34.491764 178.60228 33.88239Q178.88353 33.273014 179.35228 32.97614Q179.82103 32.679264 180.32103 32.679264ZM180.3054 33.06989Q179.96165 33.06989 179.6804 33.47614Q179.41478 33.88239 179.41478 35.19489Q179.41478 36.148014 179.57103 36.648014Q179.6804 37.023014 179.9304 37.22614Q180.07103 37.35114 180.28978 37.35114Q180.6179 37.35114 180.85228 36.991764Q181.1804 36.47614 181.1804 35.241764Q181.1804 33.94489 180.85228 33.41364Q180.63353 33.06989 180.3054 33.06989ZM187.03978 37.56989Q187.52415 37.56989 188.00853 37.88239Q188.4929 38.179264 188.7429 38.773014Q189.00853 39.35114 189.00853 40.054264Q189.00853 41.273014 188.4304 41.91364Q187.85228 42.554264 187.0554 42.554264Q186.5554 42.554264 186.08665 42.241764Q185.6179 41.929264 185.35228 41.366764Q185.08665 40.78864 185.08665 40.054264Q185.08665 39.335514 185.35228 38.741764Q185.6179 38.148014 186.08665 37.866764Q186.5554 37.56989 187.03978 37.56989ZM187.03978 37.929264Q186.71165 37.929264 186.47728 38.28864Q186.16478 38.773014 186.16478 40.10114Q186.16478 41.335514 186.47728 41.81989Q186.71165 42.16364 187.03978 42.16364Q187.35228 42.16364 187.60228 41.78864Q187.9304 41.28864 187.9304 40.06989Q187.9304 38.78864 187.60228 38.273014Q187.38353 37.929264 187.03978 37.929264Z" fill-rule="nonzero"/><path fill="#4472c4" d="M443.0 11.5C443.0 14.813708 440.31372 17.5 437.0 17.5C433.68628 17.5 431.0 14.813708 431.0 11.5C431.0 8.186292 433.68628 5.5 437.0 5.5C440.31372 5.5 443.0 8.186292 443.0 11.5Z" fill-rule="nonzero"/><path fill="#1a1a1a" d="M456.21875 16.625L456.21875 11.75L451.35938 11.75L451.35938 10.953125L456.21875 10.953125L456.21875 6.09375L457.0 6.09375L457.0 10.953125L461.89062 10.953125L461.89062 11.75L457.0 11.75L457.0 16.625L456.21875 16.625ZM464.34375 6.0625L467.5625 4.484375L467.89062 4.484375L467.89062 15.671875Q467.89062 16.78125 467.98438 17.0625Q468.07812 17.328125 468.35938 17.484375Q468.65625 17.625 469.5625 17.640625L469.5625 18.0L464.57812 18.0L464.57812 17.640625Q465.51562 17.625 465.78125 17.484375Q466.0625 17.328125 466.17188 17.09375Q466.28125 16.859375 466.28125 15.671875L466.28125 8.515625Q466.28125 7.078125 466.1875 6.65625Q466.10938 6.34375 465.92188 6.203125Q465.75 6.0625 465.5 6.0625Q465.14062 6.0625 464.48438 6.359375L464.34375 6.0625ZM477.17188 9.046875L481.375 9.046875L481.375 9.421875L481.10938 9.421875Q480.71875 9.421875 480.51562 9.609375Q480.32812 9.78125 480.32812 10.09375Q480.32812 10.4375 480.53125 10.90625L482.60938 15.84375L484.70312 10.71875Q484.92188 10.171875 484.92188 9.890625Q484.92188 9.75 484.84375 9.671875Q484.73438 9.515625 484.5625 9.46875Q484.40625 9.421875 483.89062 9.421875L483.89062 9.046875L486.8125 9.046875L486.8125 9.421875Q486.3125 9.453125 486.10938 9.625Q485.76562 9.90625 485.5 10.59375L482.32812 18.28125L481.92188 18.28125L478.73438 10.71875Q478.51562 10.203125 478.3125 9.96875Q478.125 9.734375 477.82812 9.578125Q477.65625 9.5 477.17188 9.421875L477.17188 9.046875ZM489.125 12.421875Q489.125 14.421875 490.09375 15.546875Q491.07812 16.6875 492.39062 16.6875Q493.26562 16.6875 493.90625 16.203125Q494.5625 15.71875 495.01562 14.546875L495.3125 14.734375Q495.10938 16.078125 494.125 17.1875Q493.14062 18.28125 491.65625 18.28125Q490.03125 18.28125 488.89062 17.03125Q487.75 15.765625 487.75 13.640625Q487.75 11.34375 488.92188 10.0625Q490.09375 8.78125 491.875 8.78125Q493.375 8.78125 494.34375 9.78125Q495.3125 10.765625 495.3125 12.421875L489.125 12.421875ZM489.125 11.859375L493.26562 11.859375Q493.21875 11.0 493.0625 10.640625Q492.82812 10.09375 492.34375 9.78125Q491.85938 9.46875 491.32812 9.46875Q490.51562 9.46875 489.875 10.109375Q489.23438 10.734375 489.125 11.859375ZM504.40625 15.25L504.29688 18.0L496.40625 18.0L496.40625 17.640625L502.34375 9.734375L499.40625 9.734375Q498.46875 9.734375 498.17188 9.859375Q497.875 9.984375 497.6875 10.328125Q497.42188 10.8125 497.39062 11.53125L497.0 11.53125L497.0625 9.046875L504.5625 9.046875L504.5625 9.421875L498.5625 17.34375L501.82812 17.34375Q502.84375 17.34375 503.20312 17.171875Q503.57812 17.0 503.79688 16.578125Q503.95312 16.265625 504.0625 15.25L504.40625 15.25ZM508.98438 9.9375L511.73438 8.828125L512.1094 8.828125L512.1094 10.921875Q512.7969 9.734375 513.5 9.265625Q514.2031 8.796875 514.96875 8.796875Q516.3125 8.796875 517.21875 9.84375Q518.3125 11.140625 518.3125 13.203125Q518.3125 15.515625 516.9844 17.03125Q515.8906 18.28125 514.2344 18.28125Q513.5156 18.28125 512.9844 18.0625Q512.59375 17.921875 512.1094 17.484375L512.1094 20.203125Q512.1094 21.125 512.21875 21.375Q512.3281 21.625 512.6094 21.765625Q512.8906 21.921875 513.625 21.921875L513.625 22.28125L508.9375 22.28125L508.9375 21.921875L509.17188 21.921875Q509.71875 21.921875 510.09375 21.71875Q510.28125 21.609375 510.375 21.359375Q510.48438 21.125 510.48438 20.15625L510.48438 11.6875Q510.48438 10.828125 510.40625 10.59375Q510.32812 10.359375 510.15625 10.25Q509.98438 10.125 509.6875 10.125Q509.45312 10.125 509.09375 10.25L508.98438 9.9375ZM512.1094 11.5L512.1094 14.828125Q512.1094 15.921875 512.1875 16.265625Q512.3281 16.828125 512.8594 17.265625Q513.3906 17.6875 514.2031 17.6875Q515.1875 17.6875 515.78125 16.921875Q516.5781 15.921875 516.5781 14.125Q516.5781 12.078125 515.6875 10.96875Q515.0625 10.203125 514.2031 10.203125Q513.7344 10.203125 513.2656 10.4375Q512.9219 10.609375 512.1094 11.5ZM524.0 8.796875Q526.03125 8.796875 527.2656 10.328125Q528.3125 11.65625 528.3125 13.359375Q528.3125 14.5625 527.7344 15.796875Q527.15625 17.015625 526.1406 17.65625Q525.1406 18.28125 523.8906 18.28125Q521.875 18.28125 520.6875 16.65625Q519.6719 15.296875 519.6719 13.609375Q519.6719 12.390625 520.28125 11.171875Q520.8906 9.953125 521.8906 9.375Q522.8906 8.796875 524.0 8.796875ZM523.7031 9.421875Q523.1875 9.421875 522.65625 9.734375Q522.1406 10.046875 521.8125 10.8125Q521.4844 11.578125 521.4844 12.796875Q521.4844 14.75 522.2656 16.171875Q523.0469 17.578125 524.3125 17.578125Q525.2656 17.578125 525.875 16.796875Q526.4844 16.015625 526.4844 14.109375Q526.4844 11.734375 525.46875 10.359375Q524.7656 9.421875 523.7031 9.421875ZM532.25 8.796875L532.25 10.796875Q533.3594 8.796875 534.5469 8.796875Q535.0781 8.796875 535.4219 9.125Q535.78125 9.4375 535.78125 9.875Q535.78125 10.25 535.53125 10.515625Q535.28125 10.78125 534.9219 10.78125Q534.59375 10.78125 534.15625 10.453125Q533.7344 10.109375 533.53125 10.109375Q533.3594 10.109375 533.15625 10.296875Q532.71875 10.703125 532.25 11.625L532.25 15.90625Q532.25 16.65625 532.4219 17.03125Q532.5625 17.296875 532.875 17.46875Q533.2031 17.640625 533.8125 17.640625L533.8125 18.0L529.21875 18.0L529.21875 17.640625Q529.90625 17.640625 530.2344 17.4375Q530.4844 17.28125 530.5781 16.9375Q530.625 16.765625 530.625 15.984375L530.625 12.515625Q530.625 10.953125 530.5625 10.65625Q530.5 10.359375 530.3281 10.234375Q530.15625 10.09375 529.90625 10.09375Q529.6094 10.09375 529.21875 10.234375L529.125 9.890625L531.8281 8.796875L532.25 8.796875ZM544.28125 10.6875Q545.2656 9.71875 545.4375 9.578125Q545.875 9.203125 546.375 9.0Q546.8906 8.796875 547.3906 8.796875Q548.2344 8.796875 548.8281 9.28125Q549.4375 9.765625 549.6406 10.6875Q550.65625 9.515625 551.34375 9.15625Q552.03125 8.796875 552.7656 8.796875Q553.4844 8.796875 554.03125 9.15625Q554.5781 9.515625 554.90625 10.359375Q555.125 10.921875 555.125 12.125L555.125 15.984375Q555.125 16.8125 555.25 17.125Q555.34375 17.34375 555.6094 17.5Q555.875 17.640625 556.46875 17.640625L556.46875 18.0L552.0625 18.0L552.0625 17.640625L552.2344 17.640625Q552.8125 17.640625 553.1406 17.421875Q553.3594 17.265625 553.46875 16.921875Q553.5 16.765625 553.5 15.984375L553.5 12.125Q553.5 11.03125 553.2344 10.59375Q552.8594 9.96875 552.0156 9.96875Q551.5 9.96875 550.96875 10.234375Q550.4531 10.484375 549.71875 11.1875L549.6875 11.296875L549.71875 11.703125L549.71875 15.984375Q549.71875 16.890625 549.8125 17.125Q549.9219 17.34375 550.2031 17.5Q550.4844 17.640625 551.1719 17.640625L551.1719 18.0L546.6406 18.0L546.6406 17.640625Q547.3906 17.640625 547.65625 17.46875Q547.9375 17.296875 548.0469 16.9375Q548.09375 16.78125 548.09375 15.984375L548.09375 12.125Q548.09375 11.03125 547.78125 10.5625Q547.34375 9.9375 546.5781 9.9375Q546.0469 9.9375 545.53125 10.21875Q544.71875 10.640625 544.28125 11.1875L544.28125 15.984375Q544.28125 16.859375 544.40625 17.125Q544.53125 17.390625 544.7656 17.515625Q545.0 17.640625 545.7344 17.640625L545.7344 18.0L541.3125 18.0L541.3125 17.640625Q541.9219 17.640625 542.1719 17.515625Q542.4219 17.390625 542.5469 17.109375Q542.6719 16.8125 542.6719 15.984375L542.6719 12.5625Q542.6719 11.078125 542.5781 10.65625Q542.5156 10.328125 542.3594 10.21875Q542.21875 10.09375 541.96875 10.09375Q541.6875 10.09375 541.3125 10.234375L541.1719 9.890625L543.8594 8.796875L544.28125 8.796875L544.28125 10.6875ZM557.125 12.421875Q557.125 14.421875 558.09375 15.546875Q559.0781 16.6875 560.3906 16.6875Q561.2656 16.6875 561.90625 16.203125Q562.5625 15.71875 563.0156 14.546875L563.3125 14.734375Q563.1094 16.078125 562.125 17.1875Q561.1406 18.28125 559.65625 18.28125Q558.03125 18.28125 556.8906 17.03125Q555.75 15.765625 555.75 13.640625Q555.75 11.34375 556.9219 10.0625Q558.09375 8.78125 559.875 8.78125Q561.375 8.78125 562.34375 9.78125Q563.3125 10.765625 563.3125 12.421875L557.125 12.421875ZM557.125 11.859375L561.2656 11.859375Q561.21875 11.0 561.0625 10.640625Q560.8281 10.09375 560.34375 9.78125Q559.8594 9.46875 559.3281 9.46875Q558.5156 9.46875 557.875 10.109375Q557.2344 10.734375 557.125 11.859375ZM558.9375 4.46875L560.7344 4.46875L562.5781 7.703125L562.28125 7.703125L559.6094 5.625L557.375 7.703125L557.09375 7.703125L558.9375 4.46875ZM570.40625 8.796875L570.40625 11.84375L570.0781 11.84375Q569.71875 10.40625 569.125 9.890625Q568.5469 9.359375 567.65625 9.359375Q566.96875 9.359375 566.5469 9.734375Q566.125 10.09375 566.125 10.53125Q566.125 11.078125 566.4375 11.46875Q566.75 11.859375 567.6719 12.3125L569.09375 13.015625Q571.0781 13.96875 571.0781 15.5625Q571.0781 16.78125 570.15625 17.53125Q569.2344 18.28125 568.09375 18.28125Q567.2656 18.28125 566.21875 17.984375Q565.8906 17.875 565.6875 17.875Q565.46875 17.875 565.34375 18.140625L565.0156 18.140625L565.0156 14.9375L565.34375 14.9375Q565.6094 16.3125 566.375 17.015625Q567.15625 17.703125 568.1094 17.703125Q568.78125 17.703125 569.2031 17.3125Q569.6406 16.90625 569.6406 16.34375Q569.6406 15.671875 569.15625 15.21875Q568.6875 14.75 567.2656 14.046875Q565.8594 13.34375 565.4219 12.78125Q564.9844 12.234375 564.9844 11.375Q564.9844 10.28125 565.7344 9.546875Q566.4844 8.796875 567.6875 8.796875Q568.21875 8.796875 568.96875 9.015625Q569.46875 9.15625 569.6406 9.15625Q569.7969 9.15625 569.875 9.09375Q569.96875 9.03125 570.0781 8.796875L570.40625 8.796875Z" fill-rule="nonzero"/><path fill="#ed7d31" d="M443.0 44.5C443.0 47.81371 440.31372 50.5 437.0 50.5C433.68628 50.5 431.0 47.81371 431.0 44.5C431.0 41.18629 433.68628 38.5 437.0 38.5C440.31372 38.5 443.0 41.18629 443.0 44.5Z" fill-rule="nonzero"/><path fill="#1a1a1a" d="M453.34375 39.0625L456.5625 37.484375L456.89062 37.484375L456.89062 48.671875Q456.89062 49.78125 456.98438 50.0625Q457.07812 50.328125 457.35938 50.484375Q457.65625 50.625 458.5625 50.640625L458.5625 51.0L453.57812 51.0L453.57812 50.640625Q454.51562 50.625 454.78125 50.484375Q455.0625 50.328125 455.17188 50.09375Q455.28125 49.859375 455.28125 48.671875L455.28125 41.515625Q455.28125 40.078125 455.1875 39.65625Q455.10938 39.34375 454.92188 39.203125Q454.75 39.0625 454.5 39.0625Q454.14062 39.0625 453.48438 39.359375L453.34375 39.0625ZM466.17188 42.046875L470.375 42.046875L470.375 42.421875L470.10938 42.421875Q469.71875 42.421875 469.51562 42.609375Q469.32812 42.78125 469.32812 43.09375Q469.32812 43.4375 469.53125 43.90625L471.60938 48.84375L473.70312 43.71875Q473.92188 43.171875 473.92188 42.890625Q473.92188 42.75 473.84375 42.671875Q473.73438 42.515625 473.5625 42.46875Q473.40625 42.421875 472.89062 42.421875L472.89062 42.046875L475.8125 42.046875L475.8125 42.421875Q475.3125 42.453125 475.10938 42.625Q474.76562 42.90625 474.5 43.59375L471.32812 51.28125L470.92188 51.28125L467.73438 43.71875Q467.51562 43.203125 467.3125 42.96875Q467.125 42.734375 466.82812 42.578125Q466.65625 42.5 466.17188 42.421875L466.17188 42.046875ZM478.125 45.421875Q478.125 47.421875 479.09375 48.546875Q480.07812 49.6875 481.39062 49.6875Q482.26562 49.6875 482.90625 49.203125Q483.5625 48.71875 484.01562 47.546875L484.3125 47.734375Q484.10938 49.078125 483.125 50.1875Q482.14062 51.28125 480.65625 51.28125Q479.03125 51.28125 477.89062 50.03125Q476.75 48.765625 476.75 46.640625Q476.75 44.34375 477.92188 43.0625Q479.09375 41.78125 480.875 41.78125Q482.375 41.78125 483.34375 42.78125Q484.3125 43.765625 484.3125 45.421875L478.125 45.421875ZM478.125 44.859375L482.26562 44.859375Q482.21875 44.0 482.0625 43.640625Q481.82812 43.09375 481.34375 42.78125Q480.85938 42.46875 480.32812 42.46875Q479.51562 42.46875 478.875 43.109375Q478.23438 43.734375 478.125 44.859375ZM493.40625 48.25L493.29688 51.0L485.40625 51.0L485.40625 50.640625L491.34375 42.734375L488.40625 42.734375Q487.46875 42.734375 487.17188 42.859375Q486.875 42.984375 486.6875 43.328125Q486.42188 43.8125 486.39062 44.53125L486.0 44.53125L486.0625 42.046875L493.5625 42.046875L493.5625 42.421875L487.5625 50.34375L490.82812 50.34375Q491.84375 50.34375 492.20312 50.171875Q492.57812 50.0 492.79688 49.578125Q492.95312 49.265625 493.0625 48.25L493.40625 48.25ZM497.98438 42.9375L500.73438 41.828125L501.10938 41.828125L501.10938 43.921875Q501.79688 42.734375 502.5 42.265625Q503.20312 41.796875 503.96875 41.796875Q505.3125 41.796875 506.21875 42.84375Q507.3125 44.140625 507.3125 46.203125Q507.3125 48.515625 505.98438 50.03125Q504.89062 51.28125 503.23438 51.28125Q502.51562 51.28125 501.98438 51.0625Q501.59375 50.921875 501.10938 50.484375L501.10938 53.203125Q501.10938 54.125 501.21875 54.375Q501.32812 54.625 501.60938 54.765625Q501.89062 54.921875 502.625 54.921875L502.625 55.28125L497.9375 55.28125L497.9375 54.921875L498.17188 54.921875Q498.71875 54.921875 499.09375 54.71875Q499.28125 54.609375 499.375 54.359375Q499.48438 54.125 499.48438 53.15625L499.48438 44.6875Q499.48438 43.828125 499.40625 43.59375Q499.32812 43.359375 499.15625 43.25Q498.98438 43.125 498.6875 43.125Q498.45312 43.125 498.09375 43.25L497.98438 42.9375ZM501.10938 44.5L501.10938 47.828125Q501.10938 48.921875 501.1875 49.265625Q501.32812 49.828125 501.85938 50.265625Q502.39062 50.6875 503.20312 50.6875Q504.1875 50.6875 504.78125 49.921875Q505.57812 48.921875 505.57812 47.125Q505.57812 45.078125 504.6875 43.96875Q504.0625 43.203125 503.20312 43.203125Q502.73438 43.203125 502.26562 43.4375Q501.92188 43.609375 501.10938 44.5ZM513.0 41.796875Q515.03125 41.796875 516.2656 43.328125Q517.3125 44.65625 517.3125 46.359375Q517.3125 47.5625 516.7344 48.796875Q516.15625 50.015625 515.1406 50.65625Q514.1406 51.28125 512.8906 51.28125Q510.875 51.28125 509.6875 49.65625Q508.67188 48.296875 508.67188 46.609375Q508.67188 45.390625 509.28125 44.171875Q509.89062 42.953125 510.89062 42.375Q511.89062 41.796875 513.0 41.796875ZM512.7031 42.421875Q512.1875 42.421875 511.65625 42.734375Q511.14062 43.046875 510.8125 43.8125Q510.48438 44.578125 510.48438 45.796875Q510.48438 47.75 511.26562 49.171875Q512.0469 50.578125 513.3125 50.578125Q514.2656 50.578125 514.875 49.796875Q515.4844 49.015625 515.4844 47.109375Q515.4844 44.734375 514.46875 43.359375Q513.7656 42.421875 512.7031 42.421875ZM521.25 41.796875L521.25 43.796875Q522.3594 41.796875 523.5469 41.796875Q524.0781 41.796875 524.4219 42.125Q524.78125 42.4375 524.78125 42.875Q524.78125 43.25 524.53125 43.515625Q524.28125 43.78125 523.9219 43.78125Q523.59375 43.78125 523.15625 43.453125Q522.7344 43.109375 522.53125 43.109375Q522.3594 43.109375 522.15625 43.296875Q521.71875 43.703125 521.25 44.625L521.25 48.90625Q521.25 49.65625 521.4219 50.03125Q521.5625 50.296875 521.875 50.46875Q522.2031 50.640625 522.8125 50.640625L522.8125 51.0L518.21875 51.0L518.21875 50.640625Q518.90625 50.640625 519.2344 50.4375Q519.4844 50.28125 519.5781 49.9375Q519.625 49.765625 519.625 48.984375L519.625 45.515625Q519.625 43.953125 519.5625 43.65625Q519.5 43.359375 519.3281 43.234375Q519.15625 43.09375 518.90625 43.09375Q518.6094 43.09375 518.21875 43.234375L518.125 42.890625L520.8281 41.796875L521.25 41.796875ZM533.0781 43.59375Q534.375 41.796875 535.875 41.796875Q537.25 41.796875 538.28125 42.96875Q539.3125 44.140625 539.3125 46.1875Q539.3125 48.5625 537.71875 50.015625Q536.375 51.28125 534.7031 51.28125Q533.9219 51.28125 533.1094 51.0Q532.3125 50.703125 531.46875 50.140625L531.46875 40.875Q531.46875 39.34375 531.3906 39.0Q531.3125 38.640625 531.15625 38.515625Q531.0 38.390625 530.7656 38.390625Q530.5 38.390625 530.09375 38.546875L529.9531 38.203125L532.6406 37.109375L533.0781 37.109375L533.0781 43.59375ZM533.0781 44.21875L533.0781 49.578125Q533.5781 50.0625 534.1094 50.3125Q534.6406 50.5625 535.2031 50.5625Q536.0781 50.5625 536.84375 49.59375Q537.625 48.609375 537.625 46.734375Q537.625 45.015625 536.84375 44.09375Q536.0781 43.171875 535.1094 43.171875Q534.59375 43.171875 534.0781 43.4375Q533.6875 43.640625 533.0781 44.21875ZM542.90625 37.109375Q543.3125 37.109375 543.59375 37.40625Q543.8906 37.6875 543.8906 38.09375Q543.8906 38.515625 543.59375 38.8125Q543.3125 39.09375 542.90625 39.09375Q542.4844 39.09375 542.1875 38.8125Q541.90625 38.515625 541.90625 38.09375Q541.90625 37.6875 542.1875 37.40625Q542.4844 37.109375 542.90625 37.109375ZM543.71875 41.796875L543.71875 48.984375Q543.71875 49.8125 543.8281 50.09375Q543.9531 50.375 544.1875 50.515625Q544.4375 50.640625 545.0625 50.640625L545.0625 51.0L540.71875 51.0L540.71875 50.640625Q541.375 50.640625 541.59375 50.515625Q541.8281 50.390625 541.9531 50.109375Q542.09375 49.8125 542.09375 48.984375L542.09375 45.53125Q542.09375 44.078125 542.0 43.640625Q541.9375 43.328125 541.78125 43.21875Q541.6406 43.09375 541.3906 43.09375Q541.1094 43.09375 540.71875 43.234375L540.59375 42.890625L543.28125 41.796875L543.71875 41.796875ZM549.28125 43.6875Q550.2656 42.71875 550.4375 42.578125Q550.875 42.203125 551.375 42.0Q551.8906 41.796875 552.3906 41.796875Q553.2344 41.796875 553.8281 42.28125Q554.4375 42.765625 554.6406 43.6875Q555.65625 42.515625 556.34375 42.15625Q557.03125 41.796875 557.7656 41.796875Q558.4844 41.796875 559.03125 42.15625Q559.5781 42.515625 559.90625 43.359375Q560.125 43.921875 560.125 45.125L560.125 48.984375Q560.125 49.8125 560.25 50.125Q560.34375 50.34375 560.6094 50.5Q560.875 50.640625 561.46875 50.640625L561.46875 51.0L557.0625 51.0L557.0625 50.640625L557.2344 50.640625Q557.8125 50.640625 558.1406 50.421875Q558.3594 50.265625 558.46875 49.921875Q558.5 49.765625 558.5 48.984375L558.5 45.125Q558.5 44.03125 558.2344 43.59375Q557.8594 42.96875 557.0156 42.96875Q556.5 42.96875 555.96875 43.234375Q555.4531 43.484375 554.71875 44.1875L554.6875 44.296875L554.71875 44.703125L554.71875 48.984375Q554.71875 49.890625 554.8125 50.125Q554.9219 50.34375 555.2031 50.5Q555.4844 50.640625 556.1719 50.640625L556.1719 51.0L551.6406 51.0L551.6406 50.640625Q552.3906 50.640625 552.65625 50.46875Q552.9375 50.296875 553.0469 49.9375Q553.09375 49.78125 553.09375 48.984375L553.09375 45.125Q553.09375 44.03125 552.78125 43.5625Q552.34375 42.9375 551.5781 42.9375Q551.0469 42.9375 550.53125 43.21875Q549.71875 43.640625 549.28125 44.1875L549.28125 48.984375Q549.28125 49.859375 549.40625 50.125Q549.53125 50.390625 549.7656 50.515625Q550.0 50.640625 550.7344 50.640625L550.7344 51.0L546.3125 51.0L546.3125 50.640625Q546.9219 50.640625 547.1719 50.515625Q547.4219 50.390625 547.5469 50.109375Q547.6719 49.8125 547.6719 48.984375L547.6719 45.5625Q547.6719 44.078125 547.5781 43.65625Q547.5156 43.328125 547.3594 43.21875Q547.21875 43.09375 546.96875 43.09375Q546.6875 43.09375 546.3125 43.234375L546.1719 42.890625L548.8594 41.796875L549.28125 41.796875L549.28125 43.6875ZM562.125 45.421875Q562.125 47.421875 563.09375 48.546875Q564.0781 49.6875 565.3906 49.6875Q566.2656 49.6875 566.90625 49.203125Q567.5625 48.71875 568.0156 47.546875L568.3125 47.734375Q568.1094 49.078125 567.125 50.1875Q566.1406 51.28125 564.65625 51.28125Q563.03125 51.28125 561.8906 50.03125Q560.75 48.765625 560.75 46.640625Q560.75 44.34375 561.9219 43.0625Q563.09375 41.78125 564.875 41.78125Q566.375 41.78125 567.34375 42.78125Q568.3125 43.765625 568.3125 45.421875L562.125 45.421875ZM562.125 44.859375L566.2656 44.859375Q566.21875 44.0 566.0625 43.640625Q565.8281 43.09375 565.34375 42.78125Q564.8594 42.46875 564.3281 42.46875Q563.5156 42.46875 562.875 43.109375Q562.2344 43.734375 562.125 44.859375ZM575.40625 41.796875L575.40625 44.84375L575.0781 44.84375Q574.71875 43.40625 574.125 42.890625Q573.5469 42.359375 572.65625 42.359375Q571.96875 42.359375 571.5469 42.734375Q571.125 43.09375 571.125 43.53125Q571.125 44.078125 571.4375 44.46875Q571.75 44.859375 572.6719 45.3125L574.09375 46.015625Q576.0781 46.96875 576.0781 48.5625Q576.0781 49.78125 575.15625 50.53125Q574.2344 51.28125 573.09375 51.28125Q572.2656 51.28125 571.21875 50.984375Q570.8906 50.875 570.6875 50.875Q570.46875 50.875 570.34375 51.140625L570.0156 51.140625L570.0156 47.9375L570.34375 47.9375Q570.6094 49.3125 571.375 50.015625Q572.15625 50.703125 573.1094 50.703125Q573.78125 50.703125 574.2031 50.3125Q574.6406 49.90625 574.6406 49.34375Q574.6406 48.671875 574.15625 48.21875Q573.6875 47.75 572.2656 47.046875Q570.8594 46.34375 570.4219 45.78125Q569.9844 45.234375 569.9844 44.375Q569.9844 43.28125 570.7344 42.546875Q571.4844 41.796875 572.6875 41.796875Q573.21875 41.796875 573.96875 42.015625Q574.46875 42.15625 574.6406 42.15625Q574.7969 42.15625 574.875 42.09375Q574.96875 42.03125 575.0781 41.796875L575.40625 41.796875ZM580.21875 39.109375L580.21875 42.046875L582.3125 42.046875L582.3125 42.734375L580.21875 42.734375L580.21875 48.53125Q580.21875 49.40625 580.46875 49.71875Q580.71875 50.015625 581.1094 50.015625Q581.4375 50.015625 581.7344 49.8125Q582.0469 49.609375 582.2031 49.21875L582.59375 49.21875Q582.25 50.171875 581.625 50.65625Q581.0 51.140625 580.3281 51.140625Q579.875 51.140625 579.4375 50.890625Q579.0156 50.640625 578.8125 50.1875Q578.6094 49.71875 578.6094 48.75L578.6094 42.734375L577.2031 42.734375L577.2031 42.421875Q577.7344 42.203125 578.2969 41.6875Q578.8594 41.171875 579.2969 40.46875Q579.5156 40.09375 579.9219 39.109375L580.21875 39.109375ZM585.25 41.796875L585.25 43.796875Q586.3594 41.796875 587.5469 41.796875Q588.0781 41.796875 588.4219 42.125Q588.78125 42.4375 588.78125 42.875Q588.78125 43.25 588.53125 43.515625Q588.28125 43.78125 587.9219 43.78125Q587.59375 43.78125 587.15625 43.453125Q586.7344 43.109375 586.53125 43.109375Q586.3594 43.109375 586.15625 43.296875Q585.71875 43.703125 585.25 44.625L585.25 48.90625Q585.25 49.65625 585.4219 50.03125Q585.5625 50.296875 585.875 50.46875Q586.2031 50.640625 586.8125 50.640625L586.8125 51.0L582.21875 51.0L582.21875 50.640625Q582.90625 50.640625 583.2344 50.4375Q583.4844 50.28125 583.5781 49.9375Q583.625 49.765625 583.625 48.984375L583.625 45.515625Q583.625 43.953125 583.5625 43.65625Q583.5 43.359375 583.3281 43.234375Q583.15625 43.09375 582.90625 43.09375Q582.6094 43.09375 582.21875 43.234375L582.125 42.890625L584.8281 41.796875L585.25 41.796875ZM591.125 45.421875Q591.125 47.421875 592.09375 48.546875Q593.0781 49.6875 594.3906 49.6875Q595.2656 49.6875 595.90625 49.203125Q596.5625 48.71875 597.0156 47.546875L597.3125 47.734375Q597.1094 49.078125 596.125 50.1875Q595.1406 51.28125 593.65625 51.28125Q592.03125 51.28125 590.8906 50.03125Q589.75 48.765625 589.75 46.640625Q589.75 44.34375 590.9219 43.0625Q592.09375 41.78125 593.875 41.78125Q595.375 41.78125 596.34375 42.78125Q597.3125 43.765625 597.3125 45.421875L591.125 45.421875ZM591.125 44.859375L595.2656 44.859375Q595.21875 44.0 595.0625 43.640625Q594.8281 43.09375 594.34375 42.78125Q593.8594 42.46875 593.3281 42.46875Q592.5156 42.46875 591.875 43.109375Q591.2344 43.734375 591.125 44.859375Z" fill-rule="nonzero"/><path fill="#a5a5a5" d="M443.0 77.5C443.0 80.813705 440.31372 83.5 437.0 83.5C433.68628 83.5 431.0 80.813705 431.0 77.5C431.0 74.186295 433.68628 71.5 437.0 71.5C440.31372 71.5 443.0 74.186295 443.0 77.5Z" fill-rule="nonzero"/><path fill="#1a1a1a" d="M453.34375 72.0625L456.5625 70.484375L456.89062 70.484375L456.89062 81.671875Q456.89062 82.78125 456.98438 83.0625Q457.07812 83.328125 457.35938 83.484375Q457.65625 83.625 458.5625 83.640625L458.5625 84.0L453.57812 84.0L453.57812 83.640625Q454.51562 83.625 454.78125 83.484375Q455.0625 83.328125 455.17188 83.09375Q455.28125 82.859375 455.28125 81.671875L455.28125 74.515625Q455.28125 73.078125 455.1875 72.65625Q455.10938 72.34375 454.92188 72.203125Q454.75 72.0625 454.5 72.0625Q454.14062 72.0625 453.48438 72.359375L453.34375 72.0625ZM466.17188 75.046875L470.375 75.046875L470.375 75.421875L470.10938 75.421875Q469.71875 75.421875 469.51562 75.609375Q469.32812 75.78125 469.32812 76.09375Q469.32812 76.4375 469.53125 76.90625L471.60938 81.84375L473.70312 76.71875Q473.92188 76.171875 473.92188 75.890625Q473.92188 75.75 473.84375 75.671875Q473.73438 75.515625 473.5625 75.46875Q473.40625 75.421875 472.89062 75.421875L472.89062 75.046875L475.8125 75.046875L475.8125 75.421875Q475.3125 75.453125 475.10938 75.625Q474.76562 75.90625 474.5 76.59375L471.32812 84.28125L470.92188 84.28125L467.73438 76.71875Q467.51562 76.203125 467.3125 75.96875Q467.125 75.734375 466.82812 75.578125Q466.65625 75.5 466.17188 75.421875L466.17188 75.046875ZM478.125 78.421875Q478.125 80.421875 479.09375 81.546875Q480.07812 82.6875 481.39062 82.6875Q482.26562 82.6875 482.90625 82.203125Q483.5625 81.71875 484.01562 80.546875L484.3125 80.734375Q484.10938 82.078125 483.125 83.1875Q482.14062 84.28125 480.65625 84.28125Q479.03125 84.28125 477.89062 83.03125Q476.75 81.765625 476.75 79.640625Q476.75 77.34375 477.92188 76.0625Q479.09375 74.78125 480.875 74.78125Q482.375 74.78125 483.34375 75.78125Q484.3125 76.765625 484.3125 78.421875L478.125 78.421875ZM478.125 77.859375L482.26562 77.859375Q482.21875 77.0 482.0625 76.640625Q481.82812 76.09375 481.34375 75.78125Q480.85938 75.46875 480.32812 75.46875Q479.51562 75.46875 478.875 76.109375Q478.23438 76.734375 478.125 77.859375ZM493.40625 81.25L493.29688 84.0L485.40625 84.0L485.40625 83.640625L491.34375 75.734375L488.40625 75.734375Q487.46875 75.734375 487.17188 75.859375Q486.875 75.984375 486.6875 76.328125Q486.42188 76.8125 486.39062 77.53125L486.0 77.53125L486.0625 75.046875L493.5625 75.046875L493.5625 75.421875L487.5625 83.34375L490.82812 83.34375Q491.84375 83.34375 492.20312 83.171875Q492.57812 83.0 492.79688 82.578125Q492.95312 82.265625 493.0625 81.25L493.40625 81.25ZM497.98438 75.9375L500.73438 74.828125L501.10938 74.828125L501.10938 76.921875Q501.79688 75.734375 502.5 75.265625Q503.20312 74.796875 503.96875 74.796875Q505.3125 74.796875 506.21875 75.84375Q507.3125 77.140625 507.3125 79.203125Q507.3125 81.515625 505.98438 83.03125Q504.89062 84.28125 503.23438 84.28125Q502.51562 84.28125 501.98438 84.0625Q501.59375 83.921875 501.10938 83.484375L501.10938 86.203125Q501.10938 87.125 501.21875 87.375Q501.32812 87.625 501.60938 87.765625Q501.89062 87.921875 502.625 87.921875L502.625 88.28125L497.9375 88.28125L497.9375 87.921875L498.17188 87.921875Q498.71875 87.921875 499.09375 87.71875Q499.28125 87.609375 499.375 87.359375Q499.48438 87.125 499.48438 86.15625L499.48438 77.6875Q499.48438 76.828125 499.40625 76.59375Q499.32812 76.359375 499.15625 76.25Q498.98438 76.125 498.6875 76.125Q498.45312 76.125 498.09375 76.25L497.98438 75.9375ZM501.10938 77.5L501.10938 80.828125Q501.10938 81.921875 501.1875 82.265625Q501.32812 82.828125 501.85938 83.265625Q502.39062 83.6875 503.20312 83.6875Q504.1875 83.6875 504.78125 82.921875Q505.57812 81.921875 505.57812 80.125Q505.57812 78.078125 504.6875 76.96875Q504.0625 76.203125 503.20312 76.203125Q502.73438 76.203125 502.26562 76.4375Q501.92188 76.609375 501.10938 77.5ZM513.0 74.796875Q515.03125 74.796875 516.2656 76.328125Q517.3125 77.65625 517.3125 79.359375Q517.3125 80.5625 516.7344 81.796875Q516.15625 83.015625 515.1406 83.65625Q514.1406 84.28125 512.8906 84.28125Q510.875 84.28125 509.6875 82.65625Q508.67188 81.296875 508.67188 79.609375Q508.67188 78.390625 509.28125 77.171875Q509.89062 75.953125 510.89062 75.375Q511.89062 74.796875 513.0 74.796875ZM512.7031 75.421875Q512.1875 75.421875 511.65625 75.734375Q511.14062 76.046875 510.8125 76.8125Q510.48438 77.578125 510.48438 78.796875Q510.48438 80.75 511.26562 82.171875Q512.0469 83.578125 513.3125 83.578125Q514.2656 83.578125 514.875 82.796875Q515.4844 82.015625 515.4844 80.109375Q515.4844 77.734375 514.46875 76.359375Q513.7656 75.421875 512.7031 75.421875ZM521.25 74.796875L521.25 76.796875Q522.3594 74.796875 523.5469 74.796875Q524.0781 74.796875 524.4219 75.125Q524.78125 75.4375 524.78125 75.875Q524.78125 76.25 524.53125 76.515625Q524.28125 76.78125 523.9219 76.78125Q523.59375 76.78125 523.15625 76.453125Q522.7344 76.109375 522.53125 76.109375Q522.3594 76.109375 522.15625 76.296875Q521.71875 76.703125 521.25 77.625L521.25 81.90625Q521.25 82.65625 521.4219 83.03125Q521.5625 83.296875 521.875 83.46875Q522.2031 83.640625 522.8125 83.640625L522.8125 84.0L518.21875 84.0L518.21875 83.640625Q518.90625 83.640625 519.2344 83.4375Q519.4844 83.28125 519.5781 82.9375Q519.625 82.765625 519.625 81.984375L519.625 78.515625Q519.625 76.953125 519.5625 76.65625Q519.5 76.359375 519.3281 76.234375Q519.15625 76.09375 518.90625 76.09375Q518.6094 76.09375 518.21875 76.234375L518.125 75.890625L520.8281 74.796875L521.25 74.796875ZM533.21875 72.109375L533.21875 75.046875L535.3125 75.046875L535.3125 75.734375L533.21875 75.734375L533.21875 81.53125Q533.21875 82.40625 533.46875 82.71875Q533.71875 83.015625 534.1094 83.015625Q534.4375 83.015625 534.7344 82.8125Q535.0469 82.609375 535.2031 82.21875L535.59375 82.21875Q535.25 83.171875 534.625 83.65625Q534.0 84.140625 533.3281 84.140625Q532.875 84.140625 532.4375 83.890625Q532.0156 83.640625 531.8125 83.1875Q531.6094 82.71875 531.6094 81.75L531.6094 75.734375L530.2031 75.734375L530.2031 75.421875Q530.7344 75.203125 531.2969 74.6875Q531.8594 74.171875 532.2969 73.46875Q532.5156 73.09375 532.9219 72.109375L533.21875 72.109375ZM538.25 74.796875L538.25 76.796875Q539.3594 74.796875 540.5469 74.796875Q541.0781 74.796875 541.4219 75.125Q541.78125 75.4375 541.78125 75.875Q541.78125 76.25 541.53125 76.515625Q541.28125 76.78125 540.9219 76.78125Q540.59375 76.78125 540.15625 76.453125Q539.7344 76.109375 539.53125 76.109375Q539.3594 76.109375 539.15625 76.296875Q538.71875 76.703125 538.25 77.625L538.25 81.90625Q538.25 82.65625 538.4219 83.03125Q538.5625 83.296875 538.875 83.46875Q539.2031 83.640625 539.8125 83.640625L539.8125 84.0L535.21875 84.0L535.21875 83.640625Q535.90625 83.640625 536.2344 83.4375Q536.4844 83.28125 536.5781 82.9375Q536.625 82.765625 536.625 81.984375L536.625 78.515625Q536.625 76.953125 536.5625 76.65625Q536.5 76.359375 536.3281 76.234375Q536.15625 76.09375 535.90625 76.09375Q535.6094 76.09375 535.21875 76.234375L535.125 75.890625L537.8281 74.796875L538.25 74.796875ZM544.90625 70.109375Q545.3125 70.109375 545.59375 70.40625Q545.8906 70.6875 545.8906 71.09375Q545.8906 71.515625 545.59375 71.8125Q545.3125 72.09375 544.90625 72.09375Q544.4844 72.09375 544.1875 71.8125Q543.90625 71.515625 543.90625 71.09375Q543.90625 70.6875 544.1875 70.40625Q544.4844 70.109375 544.90625 70.109375ZM545.71875 74.796875L545.71875 81.984375Q545.71875 82.8125 545.8281 83.09375Q545.9531 83.375 546.1875 83.515625Q546.4375 83.640625 547.0625 83.640625L547.0625 84.0L542.71875 84.0L542.71875 83.640625Q543.375 83.640625 543.59375 83.515625Q543.8281 83.390625 543.9531 83.109375Q544.09375 82.8125 544.09375 81.984375L544.09375 78.53125Q544.09375 77.078125 544.0 76.640625Q543.9375 76.328125 543.78125 76.21875Q543.6406 76.09375 543.3906 76.09375Q543.1094 76.09375 542.71875 76.234375L542.59375 75.890625L545.28125 74.796875L545.71875 74.796875ZM551.28125 76.6875Q552.2656 75.71875 552.4375 75.578125Q552.875 75.203125 553.375 75.0Q553.8906 74.796875 554.3906 74.796875Q555.2344 74.796875 555.8281 75.28125Q556.4375 75.765625 556.6406 76.6875Q557.65625 75.515625 558.34375 75.15625Q559.03125 74.796875 559.7656 74.796875Q560.4844 74.796875 561.03125 75.15625Q561.5781 75.515625 561.90625 76.359375Q562.125 76.921875 562.125 78.125L562.125 81.984375Q562.125 82.8125 562.25 83.125Q562.34375 83.34375 562.6094 83.5Q562.875 83.640625 563.46875 83.640625L563.46875 84.0L559.0625 84.0L559.0625 83.640625L559.2344 83.640625Q559.8125 83.640625 560.1406 83.421875Q560.3594 83.265625 560.46875 82.921875Q560.5 82.765625 560.5 81.984375L560.5 78.125Q560.5 77.03125 560.2344 76.59375Q559.8594 75.96875 559.0156 75.96875Q558.5 75.96875 557.96875 76.234375Q557.4531 76.484375 556.71875 77.1875L556.6875 77.296875L556.71875 77.703125L556.71875 81.984375Q556.71875 82.890625 556.8125 83.125Q556.9219 83.34375 557.2031 83.5Q557.4844 83.640625 558.1719 83.640625L558.1719 84.0L553.6406 84.0L553.6406 83.640625Q554.3906 83.640625 554.65625 83.46875Q554.9375 83.296875 555.0469 82.9375Q555.09375 82.78125 555.09375 81.984375L555.09375 78.125Q555.09375 77.03125 554.78125 76.5625Q554.34375 75.9375 553.5781 75.9375Q553.0469 75.9375 552.53125 76.21875Q551.71875 76.640625 551.28125 77.1875L551.28125 81.984375Q551.28125 82.859375 551.40625 83.125Q551.53125 83.390625 551.7656 83.515625Q552.0 83.640625 552.7344 83.640625L552.7344 84.0L548.3125 84.0L548.3125 83.640625Q548.9219 83.640625 549.1719 83.515625Q549.4219 83.390625 549.5469 83.109375Q549.6719 82.8125 549.6719 81.984375L549.6719 78.5625Q549.6719 77.078125 549.5781 76.65625Q549.5156 76.328125 549.3594 76.21875Q549.21875 76.09375 548.96875 76.09375Q548.6875 76.09375 548.3125 76.234375L548.1719 75.890625L550.8594 74.796875L551.28125 74.796875L551.28125 76.6875ZM564.125 78.421875Q564.125 80.421875 565.09375 81.546875Q566.0781 82.6875 567.3906 82.6875Q568.2656 82.6875 568.90625 82.203125Q569.5625 81.71875 570.0156 80.546875L570.3125 80.734375Q570.1094 82.078125 569.125 83.1875Q568.1406 84.28125 566.65625 84.28125Q565.03125 84.28125 563.8906 83.03125Q562.75 81.765625 562.75 79.640625Q562.75 77.34375 563.9219 76.0625Q565.09375 74.78125 566.875 74.78125Q568.375 74.78125 569.34375 75.78125Q570.3125 76.765625 570.3125 78.421875L564.125 78.421875ZM564.125 77.859375L568.2656 77.859375Q568.21875 77.0 568.0625 76.640625Q567.8281 76.09375 567.34375 75.78125Q566.8594 75.46875 566.3281 75.46875Q565.5156 75.46875 564.875 76.109375Q564.2344 76.734375 564.125 77.859375ZM577.40625 74.796875L577.40625 77.84375L577.0781 77.84375Q576.71875 76.40625 576.125 75.890625Q575.5469 75.359375 574.65625 75.359375Q573.96875 75.359375 573.5469 75.734375Q573.125 76.09375 573.125 76.53125Q573.125 77.078125 573.4375 77.46875Q573.75 77.859375 574.6719 78.3125L576.09375 79.015625Q578.0781 79.96875 578.0781 81.5625Q578.0781 82.78125 577.15625 83.53125Q576.2344 84.28125 575.09375 84.28125Q574.2656 84.28125 573.21875 83.984375Q572.8906 83.875 572.6875 83.875Q572.46875 83.875 572.34375 84.140625L572.0156 84.140625L572.0156 80.9375L572.34375 80.9375Q572.6094 82.3125 573.375 83.015625Q574.15625 83.703125 575.1094 83.703125Q575.78125 83.703125 576.2031 83.3125Q576.6406 82.90625 576.6406 82.34375Q576.6406 81.671875 576.15625 81.21875Q575.6875 80.75 574.2656 80.046875Q572.8594 79.34375 572.4219 78.78125Q571.9844 78.234375 571.9844 77.375Q571.9844 76.28125 572.7344 75.546875Q573.4844 74.796875 574.6875 74.796875Q575.21875 74.796875 575.96875 75.015625Q576.46875 75.15625 576.6406 75.15625Q576.7969 75.15625 576.875 75.09375Q576.96875 75.03125 577.0781 74.796875L577.40625 74.796875ZM582.21875 72.109375L582.21875 75.046875L584.3125 75.046875L584.3125 75.734375L582.21875 75.734375L582.21875 81.53125Q582.21875 82.40625 582.46875 82.71875Q582.71875 83.015625 583.1094 83.015625Q583.4375 83.015625 583.7344 82.8125Q584.0469 82.609375 584.2031 82.21875L584.59375 82.21875Q584.25 83.171875 583.625 83.65625Q583.0 84.140625 582.3281 84.140625Q581.875 84.140625 581.4375 83.890625Q581.0156 83.640625 580.8125 83.1875Q580.6094 82.71875 580.6094 81.75L580.6094 75.734375L579.2031 75.734375L579.2031 75.421875Q579.7344 75.203125 580.2969 74.6875Q580.8594 74.171875 581.2969 73.46875Q581.5156 73.09375 581.9219 72.109375L582.21875 72.109375ZM587.25 74.796875L587.25 76.796875Q588.3594 74.796875 589.5469 74.796875Q590.0781 74.796875 590.4219 75.125Q590.78125 75.4375 590.78125 75.875Q590.78125 76.25 590.53125 76.515625Q590.28125 76.78125 589.9219 76.78125Q589.59375 76.78125 589.15625 76.453125Q588.7344 76.109375 588.53125 76.109375Q588.3594 76.109375 588.15625 76.296875Q587.71875 76.703125 587.25 77.625L587.25 81.90625Q587.25 82.65625 587.4219 83.03125Q587.5625 83.296875 587.875 83.46875Q588.2031 83.640625 588.8125 83.640625L588.8125 84.0L584.21875 84.0L584.21875 83.640625Q584.90625 83.640625 585.2344 83.4375Q585.4844 83.28125 585.5781 82.9375Q585.625 82.765625 585.625 81.984375L585.625 78.515625Q585.625 76.953125 585.5625 76.65625Q585.5 76.359375 585.3281 76.234375Q585.15625 76.09375 584.90625 76.09375Q584.6094 76.09375 584.21875 76.234375L584.125 75.890625L586.8281 74.796875L587.25 74.796875ZM593.125 78.421875Q593.125 80.421875 594.09375 81.546875Q595.0781 82.6875 596.3906 82.6875Q597.2656 82.6875 597.90625 82.203125Q598.5625 81.71875 599.0156 80.546875L599.3125 80.734375Q599.1094 82.078125 598.125 83.1875Q597.1406 84.28125 595.65625 84.28125Q594.03125 84.28125 592.8906 83.03125Q591.75 81.765625 591.75 79.640625Q591.75 77.34375 592.9219 76.0625Q594.09375 74.78125 595.875 74.78125Q597.375 74.78125 598.34375 75.78125Q599.3125 76.765625 599.3125 78.421875L593.125 78.421875ZM593.125 77.859375L597.2656 77.859375Q597.21875 77.0 597.0625 76.640625Q596.8281 76.09375 596.34375 75.78125Q595.8594 75.46875 595.3281 75.46875Q594.5156 75.46875 593.875 76.109375Q593.2344 76.734375 593.125 77.859375Z" fill-rule="nonzero"/></svg>