<svg version="1.1" viewBox="0.0 0.0 600.0 371.0" fill="none" stroke="none" stroke-linecap="square" stroke-miterlimit="10" width="600" height="371" xmlns:xlink="http://www.w3.org/1999/xlink" xmlns="http://www.w3.org/2000/svg"><path fill="#ffffff" d="M0 0L600.0 0L600.0 371.0L0 371.0L0 0Z" fill-rule="nonzero"/><path fill="#a5a5a5" d="M85.89623 43.398754C119.30461 15.365798 161.52179 0 205.13333 0L205.13333 185.5Z" fill-rule="nonzero"/><path fill="#ed7d31" d="M22.451494 217.71173C10.94335 152.4458 35.128345 85.99807 85.89623 43.398754L205.13333 185.5Z" fill-rule="nonzero"/><path fill="#4472c4" d="M205.13333 0C303.39258 0 384.60623 76.621124 390.3195 174.71414C396.03278 272.80713 324.26343 358.3385 226.66856 369.74573C129.07372 381.15292 39.514034 314.4782 22.451494 217.71173L205.13333 185.5Z" fill-rule="nonzero"/><path fill="#000000" d="M295.30072 271.23715L300.26947 271.23715L300.26947 271.48715L297.17572 280.69028L296.4101 280.69028L299.19135 272.34653L296.62885 272.34653Q295.86322 272.34653 295.5351 272.53403Q294.95697 272.84653 294.61322 273.50278L294.4101 273.42465L295.30072 271.23715ZM307.31635 278.72153L306.6601 280.50278L301.19135 280.50278L301.19135 280.25278Q303.61322 278.04965 304.5976 276.65903Q305.58197 275.25278 305.58197 274.09653Q305.58197 273.22153 305.0351 272.65903Q304.50385 272.0809 303.73822 272.0809Q303.06635 272.0809 302.51947 272.48715Q301.9726 272.8934 301.7226 273.65903L301.45697 273.65903Q301.62885 272.3934 302.33197 271.72153Q303.05072 271.03403 304.11322 271.03403Q305.23822 271.03403 305.98822 271.7684Q306.75385 272.48715 306.75385 273.47153Q306.75385 274.17465 306.42572 274.87778Q305.9101 275.98715 304.7851 277.22153Q303.08197 279.0809 302.64447 279.47153L305.06635 279.47153Q305.81635 279.47153 306.11322 279.42465Q306.4101 279.36215 306.64447 279.19028Q306.87885 279.0184 307.06635 278.72153L307.31635 278.72153ZM308.64447 282.8309L308.64447 282.53403Q309.3476 282.29965 309.73822 281.81528Q310.12885 281.3309 310.12885 280.78403Q310.12885 280.6434 310.06635 280.56528Q310.01947 280.50278 309.9726 280.50278Q309.89447 280.50278 309.64447 280.62778Q309.51947 280.69028 309.37885 280.69028Q309.05072 280.69028 308.8476 280.50278Q308.64447 280.29965 308.64447 279.9559Q308.64447 279.61215 308.89447 279.37778Q309.1601 279.12778 309.5351 279.12778Q309.9726 279.12778 310.33197 279.53403Q310.69135 279.92465 310.69135 280.56528Q310.69135 281.2684 310.19135 281.87778Q309.70697 282.48715 308.64447 282.8309ZM318.31635 278.72153L317.6601 280.50278L312.19135 280.50278L312.19135 280.25278Q314.61322 278.04965 315.5976 276.65903Q316.58197 275.25278 316.58197 274.09653Q316.58197 273.22153 316.0351 272.65903Q315.50385 272.0809 314.73822 272.0809Q314.06635 272.0809 313.51947 272.48715Q312.9726 272.8934 312.7226 273.65903L312.45697 273.65903Q312.62885 272.3934 313.33197 271.72153Q314.05072 271.03403 315.11322 271.03403Q316.23822 271.03403 316.98822 271.7684Q317.75385 272.48715 317.75385 273.47153Q317.75385 274.17465 317.42572 274.87778Q316.9101 275.98715 315.7851 277.22153Q314.08197 279.0809 313.64447 279.47153L316.06635 279.47153Q316.81635 279.47153 317.11322 279.42465Q317.4101 279.36215 317.64447 279.19028Q317.87885 279.0184 318.06635 278.72153L318.31635 278.72153ZM328.4101 271.0184L321.6601 280.8934L321.05072 280.8934L327.80072 271.0184L328.4101 271.0184ZM321.37885 271.0184Q322.30072 271.0184 322.81635 271.78403Q323.33197 272.54965 323.33197 273.54965Q323.33197 274.73715 322.75385 275.3934Q322.17572 276.03403 321.36322 276.03403Q320.83197 276.03403 320.37885 275.73715Q319.92572 275.44028 319.6601 274.86215Q319.39447 274.2684 319.39447 273.54965Q319.39447 272.8309 319.6601 272.22153Q319.94135 271.61215 320.4101 271.31528Q320.87885 271.0184 321.37885 271.0184ZM321.36322 271.40903Q321.01947 271.40903 320.73822 271.81528Q320.4726 272.22153 320.4726 273.53403Q320.4726 274.48715 320.62885 274.98715Q320.73822 275.36215 320.98822 275.56528Q321.12885 275.69028 321.3476 275.69028Q321.67572 275.69028 321.9101 275.3309Q322.23822 274.81528 322.23822 273.5809Q322.23822 272.28403 321.9101 271.75278Q321.69135 271.40903 321.36322 271.40903ZM328.0976 275.90903Q328.58197 275.90903 329.06635 276.22153Q329.55072 276.5184 329.80072 277.11215Q330.06635 277.69028 330.06635 278.3934Q330.06635 279.61215 329.48822 280.25278Q328.9101 280.8934 328.11322 280.8934Q327.61322 280.8934 327.14447 280.5809Q326.67572 280.2684 326.4101 279.7059Q326.14447 279.12778 326.14447 278.3934Q326.14447 277.67465 326.4101 277.0809Q326.67572 276.48715 327.14447 276.2059Q327.61322 275.90903 328.0976 275.90903ZM328.0976 276.2684Q327.76947 276.2684 327.5351 276.62778Q327.2226 277.11215 327.2226 278.44028Q327.2226 279.67465 327.5351 280.15903Q327.76947 280.50278 328.0976 280.50278Q328.4101 280.50278 328.6601 280.12778Q328.98822 279.62778 328.98822 278.40903Q328.98822 277.12778 328.6601 276.61215Q328.44135 276.2684 328.0976 276.2684Z" fill-rule="nonzero"/><path fill="#000000" d="M55.59214 133.84839L57.84214 132.73901L58.076515 132.73901L58.076515 140.56714Q58.076515 141.34839 58.139015 141.55151Q58.201515 141.73901 58.40464 141.84839Q58.607765 141.94214 59.24839 141.95776L59.24839 142.20776L55.764015 142.20776L55.764015 141.95776Q56.420265 141.94214 56.607765 141.84839Q56.795265 141.73901 56.87339 141.58276Q56.951515 141.41089 56.951515 140.56714L56.951515 135.56714Q56.951515 134.55151 56.87339 134.27026Q56.826515 134.05151 56.701515 133.95776Q56.576515 133.84839 56.40464 133.84839Q56.139015 133.84839 55.701515 134.05151L55.59214 133.84839ZM67.232765 132.73901L67.232765 133.00464Q66.326515 133.08276 65.74839 133.36401Q65.18589 133.62964 64.62339 134.19214Q64.076515 134.73901 63.701515 135.42651Q63.34214 136.09839 63.09214 137.03589Q64.076515 136.34839 65.06089 136.34839Q66.014015 136.34839 66.701515 137.11401Q67.40464 137.87964 67.40464 139.08276Q67.40464 140.25464 66.701515 141.20776Q65.857765 142.37964 64.46714 142.37964Q63.514015 142.37964 62.857765 141.73901Q61.56089 140.52026 61.56089 138.56714Q61.56089 137.33276 62.045265 136.20776Q62.545265 135.08276 63.46714 134.22339Q64.40464 133.34839 65.24839 133.05151Q66.09214 132.73901 66.826515 132.73901L67.232765 132.73901ZM62.982765 137.53589Q62.857765 138.45776 62.857765 139.02026Q62.857765 139.67651 63.09214 140.45776Q63.34214 141.22339 63.81089 141.66089Q64.170265 141.98901 64.670265 141.98901Q65.264015 141.98901 65.732765 141.42651Q66.201515 140.86401 66.201515 139.83276Q66.201515 138.66089 65.732765 137.81714Q65.264015 136.95776 64.40464 136.95776Q64.15464 136.95776 63.857765 137.06714Q63.56089 137.17651 62.982765 137.53589ZM68.701515 144.53589L68.701515 144.23901Q69.40464 144.00464 69.795265 143.52026Q70.18589 143.03589 70.18589 142.48901Q70.18589 142.34839 70.12339 142.27026Q70.076515 142.20776 70.02964 142.20776Q69.951515 142.20776 69.701515 142.33276Q69.576515 142.39526 69.43589 142.39526Q69.107765 142.39526 68.90464 142.20776Q68.701515 142.00464 68.701515 141.66089Q68.701515 141.31714 68.951515 141.08276Q69.21714 140.83276 69.59214 140.83276Q70.02964 140.83276 70.389015 141.23901Q70.74839 141.62964 70.74839 142.27026Q70.74839 142.97339 70.24839 143.58276Q69.764015 144.19214 68.701515 144.53589ZM73.357765 132.94214L78.326515 132.94214L78.326515 133.19214L75.232765 142.39526L74.46714 142.39526L77.24839 134.05151L74.68589 134.05151Q73.920265 134.05151 73.59214 134.23901Q73.014015 134.55151 72.670265 135.20776L72.46714 135.12964L73.357765 132.94214ZM88.46714 132.72339L81.71714 142.59839L81.107765 142.59839L87.857765 132.72339L88.46714 132.72339ZM81.43589 132.72339Q82.357765 132.72339 82.87339 133.48901Q83.389015 134.25464 83.389015 135.25464Q83.389015 136.44214 82.81089 137.09839Q82.232765 137.73901 81.420265 137.73901Q80.889015 137.73901 80.43589 137.44214Q79.982765 137.14526 79.71714 136.56714Q79.451515 135.97339 79.451515 135.25464Q79.451515 134.53589 79.71714 133.92651Q79.99839 133.31714 80.46714 133.02026Q80.93589 132.72339 81.43589 132.72339ZM81.420265 133.11401Q81.076515 133.11401 80.795265 133.52026Q80.52964 133.92651 80.52964 135.23901Q80.52964 136.19214 80.68589 136.69214Q80.795265 137.06714 81.045265 137.27026Q81.18589 137.39526 81.40464 137.39526Q81.732765 137.39526 81.96714 137.03589Q82.295265 136.52026 82.295265 135.28589Q82.295265 133.98901 81.96714 133.45776Q81.74839 133.11401 81.420265 133.11401ZM88.15464 137.61401Q88.639015 137.61401 89.12339 137.92651Q89.607765 138.22339 89.857765 138.81714Q90.12339 139.39526 90.12339 140.09839Q90.12339 141.31714 89.545265 141.95776Q88.96714 142.59839 88.170265 142.59839Q87.670265 142.59839 87.201515 142.28589Q86.732765 141.97339 86.46714 141.41089Q86.201515 140.83276 86.201515 140.09839Q86.201515 139.37964 86.46714 138.78589Q86.732765 138.19214 87.201515 137.91089Q87.670265 137.61401 88.15464 137.61401ZM88.15464 137.97339Q87.826515 137.97339 87.59214 138.33276Q87.27964 138.81714 87.27964 140.14526Q87.27964 141.37964 87.59214 141.86401Q87.826515 142.20776 88.15464 142.20776Q88.46714 142.20776 88.71714 141.83276Q89.045265 141.33276 89.045265 140.11401Q89.045265 138.83276 88.71714 138.31714Q88.49839 137.97339 88.15464 137.97339Z" fill-rule="nonzero"/><path fill="#000000" d="M138.30977 44.86516L140.55977 43.755787L140.79414 43.755787L140.79414 51.58391Q140.79414 52.36516 140.85664 52.568287Q140.91914 52.755787 141.12227 52.86516Q141.3254 52.95891 141.96602 52.974537L141.96602 53.224537L138.48164 53.224537L138.48164 52.974537Q139.1379 52.95891 139.3254 52.86516Q139.5129 52.755787 139.59102 52.599537Q139.66914 52.42766 139.66914 51.58391L139.66914 46.58391Q139.66914 45.568287 139.59102 45.287037Q139.54414 45.068287 139.41914 44.974537Q139.29414 44.86516 139.12227 44.86516Q138.85664 44.86516 138.41914 45.068287L138.30977 44.86516ZM145.30977 44.86516L147.55977 43.755787L147.79414 43.755787L147.79414 51.58391Q147.79414 52.36516 147.85664 52.568287Q147.91914 52.755787 148.12227 52.86516Q148.3254 52.95891 148.96602 52.974537L148.96602 53.224537L145.48164 53.224537L145.48164 52.974537Q146.1379 52.95891 146.3254 52.86516Q146.5129 52.755787 146.59102 52.599537Q146.66914 52.42766 146.66914 51.58391L146.66914 46.58391Q146.66914 45.568287 146.59102 45.287037Q146.54414 45.068287 146.41914 44.974537Q146.29414 44.86516 146.12227 44.86516Q145.85664 44.86516 145.41914 45.068287L145.30977 44.86516ZM151.41914 55.55266L151.41914 55.255787Q152.12227 55.02141 152.5129 54.537037Q152.90352 54.05266 152.90352 53.505787Q152.90352 53.36516 152.84102 53.287037Q152.79414 53.224537 152.74727 53.224537Q152.66914 53.224537 152.41914 53.349537Q152.29414 53.412037 152.15352 53.412037Q151.8254 53.412037 151.62227 53.224537Q151.41914 53.02141 151.41914 52.67766Q151.41914 52.33391 151.66914 52.099537Q151.93477 51.849537 152.30977 51.849537Q152.74727 51.849537 153.10664 52.255787Q153.46602 52.64641 153.46602 53.287037Q153.46602 53.99016 152.96602 54.599537Q152.48164 55.20891 151.41914 55.55266ZM156.30977 44.86516L158.55977 43.755787L158.79414 43.755787L158.79414 51.58391Q158.79414 52.36516 158.85664 52.568287Q158.91914 52.755787 159.12227 52.86516Q159.3254 52.95891 159.96602 52.974537L159.96602 53.224537L156.48164 53.224537L156.48164 52.974537Q157.1379 52.95891 157.3254 52.86516Q157.5129 52.755787 157.59102 52.599537Q157.66914 52.42766 157.66914 51.58391L157.66914 46.58391Q157.66914 45.568287 157.59102 45.287037Q157.54414 45.068287 157.41914 44.974537Q157.29414 44.86516 157.12227 44.86516Q156.85664 44.86516 156.41914 45.068287L156.30977 44.86516ZM171.18477 43.74016L164.43477 53.61516L163.8254 53.61516L170.5754 43.74016L171.18477 43.74016ZM164.15352 43.74016Q165.0754 43.74016 165.59102 44.505787Q166.10664 45.27141 166.10664 46.27141Q166.10664 47.45891 165.52852 48.11516Q164.9504 48.755787 164.1379 48.755787Q163.60664 48.755787 163.15352 48.45891Q162.7004 48.162037 162.43477 47.58391Q162.16914 46.99016 162.16914 46.27141Q162.16914 45.55266 162.43477 44.943287Q162.71602 44.33391 163.18477 44.037037Q163.65352 43.74016 164.15352 43.74016ZM164.1379 44.130787Q163.79414 44.130787 163.5129 44.537037Q163.24727 44.943287 163.24727 46.255787Q163.24727 47.20891 163.40352 47.70891Q163.5129 48.08391 163.7629 48.287037Q163.90352 48.412037 164.12227 48.412037Q164.4504 48.412037 164.68477 48.05266Q165.0129 47.537037 165.0129 46.30266Q165.0129 45.005787 164.68477 44.474537Q164.46602 44.130787 164.1379 44.130787ZM170.87227 48.630787Q171.35664 48.630787 171.84102 48.943287Q172.3254 49.24016 172.5754 49.83391Q172.84102 50.412037 172.84102 51.11516Q172.84102 52.33391 172.2629 52.974537Q171.68477 53.61516 170.8879 53.61516Q170.3879 53.61516 169.91914 53.30266Q169.4504 52.99016 169.18477 52.42766Q168.91914 51.849537 168.91914 51.11516Q168.91914 50.39641 169.18477 49.80266Q169.4504 49.20891 169.91914 48.92766Q170.3879 48.630787 170.87227 48.630787ZM170.87227 48.99016Q170.54414 48.99016 170.30977 49.349537Q169.99727 49.83391 169.99727 51.162037Q169.99727 52.39641 170.30977 52.880787Q170.54414 53.224537 170.87227 53.224537Q171.18477 53.224537 171.43477 52.849537Q171.7629 52.349537 171.7629 51.130787Q171.7629 49.849537 171.43477 49.33391Q171.21602 48.99016 170.87227 48.99016Z" fill-rule="nonzero"/><path fill="#4472c4" d="M447.0 11.5C447.0 14.813708 444.31372 17.5 441.0 17.5C437.68628 17.5 435.0 14.813708 435.0 11.5C435.0 8.186292 437.68628 5.5 441.0 5.5C444.31372 5.5 447.0 8.186292 447.0 11.5Z" fill-rule="nonzero"/><path fill="#1a1a1a" d="M464.17188 4.453125L464.17188 9.03125L463.8125 9.03125Q463.64062 7.71875 463.17188 6.9375Q462.71875 6.15625 461.875 5.703125Q461.04688 5.234375 460.14062 5.234375Q459.125 5.234375 458.45312 5.859375Q457.79688 6.46875 457.79688 7.265625Q457.79688 7.875 458.21875 8.375Q458.82812 9.109375 461.10938 10.328125Q462.95312 11.3125 463.625 11.859375Q464.3125 12.390625 464.67188 13.109375Q465.04688 13.828125 465.04688 14.625Q465.04688 16.125 463.875 17.21875Q462.71875 18.296875 460.875 18.296875Q460.29688 18.296875 459.79688 18.21875Q459.5 18.171875 458.54688 17.859375Q457.59375 17.546875 457.32812 17.546875Q457.09375 17.546875 456.95312 17.703125Q456.8125 17.84375 456.73438 18.296875L456.375 18.296875L456.375 13.765625L456.73438 13.765625Q457.0 15.1875 457.42188 15.90625Q457.85938 16.609375 458.73438 17.078125Q459.625 17.546875 460.67188 17.546875Q461.89062 17.546875 462.59375 16.90625Q463.3125 16.25 463.3125 15.375Q463.3125 14.890625 463.04688 14.390625Q462.78125 13.890625 462.20312 13.453125Q461.82812 13.171875 460.125 12.21875Q458.42188 11.265625 457.70312 10.703125Q457.0 10.125 456.625 9.453125Q456.25 8.765625 456.25 7.9375Q456.25 6.515625 457.34375 5.484375Q458.4375 4.453125 460.125 4.453125Q461.1875 4.453125 462.35938 4.96875Q462.90625 5.21875 463.14062 5.21875Q463.39062 5.21875 463.54688 5.0625Q463.71875 4.90625 463.8125 4.453125L464.17188 4.453125ZM468.90625 4.109375Q469.3125 4.109375 469.59375 4.40625Q469.89062 4.6875 469.89062 5.09375Q469.89062 5.515625 469.59375 5.8125Q469.3125 6.09375 468.90625 6.09375Q468.48438 6.09375 468.1875 5.8125Q467.90625 5.515625 467.90625 5.09375Q467.90625 4.6875 468.1875 4.40625Q468.48438 4.109375 468.90625 4.109375ZM469.71875 8.796875L469.71875 15.984375Q469.71875 16.8125 469.82812 17.09375Q469.95312 17.375 470.1875 17.515625Q470.4375 17.640625 471.0625 17.640625L471.0625 18.0L466.71875 18.0L466.71875 17.640625Q467.375 17.640625 467.59375 17.515625Q467.82812 17.390625 467.95312 17.109375Q468.09375 16.8125 468.09375 15.984375L468.09375 12.53125Q468.09375 11.078125 468.0 10.640625Q467.9375 10.328125 467.78125 10.21875Q467.64062 10.09375 467.39062 10.09375Q467.10938 10.09375 466.71875 10.234375L466.59375 9.890625L469.28125 8.796875L469.71875 8.796875ZM475.28125 10.6875Q476.26562 9.71875 476.4375 9.578125Q476.875 9.203125 477.375 9.0Q477.89062 8.796875 478.39062 8.796875Q479.23438 8.796875 479.82812 9.28125Q480.4375 9.765625 480.64062 10.6875Q481.65625 9.515625 482.34375 9.15625Q483.03125 8.796875 483.76562 8.796875Q484.48438 8.796875 485.03125 9.15625Q485.57812 9.515625 485.90625 10.359375Q486.125 10.921875 486.125 12.125L486.125 15.984375Q486.125 16.8125 486.25 17.125Q486.34375 17.34375 486.60938 17.5Q486.875 17.640625 487.46875 17.640625L487.46875 18.0L483.0625 18.0L483.0625 17.640625L483.23438 17.640625Q483.8125 17.640625 484.14062 17.421875Q484.35938 17.265625 484.46875 16.921875Q484.5 16.765625 484.5 15.984375L484.5 12.125Q484.5 11.03125 484.23438 10.59375Q483.85938 9.96875 483.01562 9.96875Q482.5 9.96875 481.96875 10.234375Q481.45312 10.484375 480.71875 11.1875L480.6875 11.296875L480.71875 11.703125L480.71875 15.984375Q480.71875 16.890625 480.8125 17.125Q480.92188 17.34375 481.20312 17.5Q481.48438 17.640625 482.17188 17.640625L482.17188 18.0L477.64062 18.0L477.64062 17.640625Q478.39062 17.640625 478.65625 17.46875Q478.9375 17.296875 479.04688 16.9375Q479.09375 16.78125 479.09375 15.984375L479.09375 12.125Q479.09375 11.03125 478.78125 10.5625Q478.34375 9.9375 477.57812 9.9375Q477.04688 9.9375 476.53125 10.21875Q475.71875 10.640625 475.28125 11.1875L475.28125 15.984375Q475.28125 16.859375 475.40625 17.125Q475.53125 17.390625 475.76562 17.515625Q476.0 17.640625 476.73438 17.640625L476.73438 18.0L472.3125 18.0L472.3125 17.640625Q472.92188 17.640625 473.17188 17.515625Q473.42188 17.390625 473.54688 17.109375Q473.67188 16.8125 473.67188 15.984375L473.67188 12.5625Q473.67188 11.078125 473.57812 10.65625Q473.51562 10.328125 473.35938 10.21875Q473.21875 10.09375 472.96875 10.09375Q472.6875 10.09375 472.3125 10.234375L472.17188 9.890625L474.85938 8.796875L475.28125 8.796875L475.28125 10.6875Z" fill-rule="nonzero"/><path fill="#ed7d31" d="M447.0 44.5C447.0 47.81371 444.31372 50.5 441.0 50.5C437.68628 50.5 435.0 47.81371 435.0 44.5C435.0 41.18629 437.68628 38.5 441.0 38.5C444.31372 38.5 447.0 41.18629 447.0 44.5Z" fill-rule="nonzero"/><path fill="#1a1a1a" d="M454.73438 37.75L458.32812 37.75L466.42188 47.6875L466.42188 40.046875Q466.42188 38.828125 466.15625 38.53125Q465.79688 38.125 465.01562 38.125L464.54688 38.125L464.54688 37.75L469.15625 37.75L469.15625 38.125L468.6875 38.125Q467.85938 38.125 467.5 38.625Q467.28125 38.9375 467.28125 40.046875L467.28125 51.21875L466.9375 51.21875L458.20312 40.546875L458.20312 48.703125Q458.20312 49.921875 458.46875 50.234375Q458.84375 50.640625 459.60938 50.640625L460.07812 50.640625L460.07812 51.0L455.46875 51.0L455.46875 50.640625L455.92188 50.640625Q456.78125 50.640625 457.125 50.125Q457.34375 49.8125 457.34375 48.703125L457.34375 39.5Q456.76562 38.828125 456.46875 38.609375Q456.17188 38.390625 455.59375 38.203125Q455.3125 38.125 454.73438 38.125L454.73438 37.75ZM474.6875 49.703125Q473.3125 50.78125 472.96875 50.9375Q472.4375 51.1875 471.84375 51.1875Q470.92188 51.1875 470.3125 50.5625Q469.71875 49.921875 469.71875 48.875Q469.71875 48.21875 470.0 47.75Q470.40625 47.078125 471.39062 46.5Q472.39062 45.90625 474.6875 45.078125L474.6875 44.71875Q474.6875 43.375 474.26562 42.890625Q473.84375 42.390625 473.03125 42.390625Q472.42188 42.390625 472.0625 42.71875Q471.6875 43.046875 471.6875 43.484375L471.70312 44.046875Q471.70312 44.5 471.46875 44.75Q471.25 44.984375 470.875 44.984375Q470.51562 44.984375 470.28125 44.734375Q470.0625 44.46875 470.0625 44.03125Q470.0625 43.203125 470.92188 42.5Q471.78125 41.796875 473.32812 41.796875Q474.51562 41.796875 475.28125 42.1875Q475.85938 42.5 476.125 43.140625Q476.3125 43.5625 476.3125 44.859375L476.3125 47.890625Q476.3125 49.171875 476.35938 49.46875Q476.40625 49.75 476.51562 49.84375Q476.625 49.9375 476.78125 49.9375Q476.9375 49.9375 477.04688 49.875Q477.25 49.75 477.84375 49.15625L477.84375 49.703125Q476.75 51.171875 475.75 51.171875Q475.26562 51.171875 474.98438 50.84375Q474.70312 50.515625 474.6875 49.703125ZM474.6875 49.078125L474.6875 45.671875Q473.21875 46.25 472.79688 46.5Q472.01562 46.921875 471.6875 47.390625Q471.35938 47.859375 471.35938 48.421875Q471.35938 49.125 471.76562 49.59375Q472.1875 50.046875 472.73438 50.046875Q473.48438 50.046875 474.6875 49.078125ZM470.67188 40.28125L470.35938 40.28125Q470.39062 38.953125 470.90625 38.359375Q471.4375 37.75 472.1875 37.75Q472.59375 37.75 472.92188 37.890625Q473.35938 38.046875 474.15625 38.578125Q474.96875 39.109375 475.35938 39.109375Q475.67188 39.109375 475.90625 38.859375Q476.15625 38.59375 476.29688 37.75L476.59375 37.75Q476.60938 38.671875 476.35938 39.203125Q476.10938 39.734375 475.65625 40.03125Q475.20312 40.328125 474.73438 40.328125Q473.96875 40.328125 472.82812 39.546875Q472.21875 39.125 472.0 39.046875Q471.78125 38.953125 471.57812 38.953125Q471.17188 38.953125 470.9375 39.296875Q470.82812 39.46875 470.67188 40.28125ZM483.0 41.796875Q485.03125 41.796875 486.26562 43.328125Q487.3125 44.65625 487.3125 46.359375Q487.3125 47.5625 486.73438 48.796875Q486.15625 50.015625 485.14062 50.65625Q484.14062 51.28125 482.89062 51.28125Q480.875 51.28125 479.6875 49.65625Q478.67188 48.296875 478.67188 46.609375Q478.67188 45.390625 479.28125 44.171875Q479.89062 42.953125 480.89062 42.375Q481.89062 41.796875 483.0 41.796875ZM482.70312 42.421875Q482.1875 42.421875 481.65625 42.734375Q481.14062 43.046875 480.8125 43.8125Q480.48438 44.578125 480.48438 45.796875Q480.48438 47.75 481.26562 49.171875Q482.04688 50.578125 483.3125 50.578125Q484.26562 50.578125 484.875 49.796875Q485.48438 49.015625 485.48438 47.109375Q485.48438 44.734375 484.46875 43.359375Q483.76562 42.421875 482.70312 42.421875Z" fill-rule="nonzero"/><path fill="#a5a5a5" d="M447.0 77.5C447.0 80.813705 444.31372 83.5 441.0 83.5C437.68628 83.5 435.0 80.813705 435.0 77.5C435.0 74.186295 437.68628 71.5 441.0 71.5C444.31372 71.5 447.0 74.186295 447.0 77.5Z" fill-rule="nonzero"/><path fill="#1a1a1a" d="M454.73438 70.75L458.32812 70.75L466.42188 80.6875L466.42188 73.046875Q466.42188 71.828125 466.15625 71.53125Q465.79688 71.125 465.01562 71.125L464.54688 71.125L464.54688 70.75L469.15625 70.75L469.15625 71.125L468.6875 71.125Q467.85938 71.125 467.5 71.625Q467.28125 71.9375 467.28125 73.046875L467.28125 84.21875L466.9375 84.21875L458.20312 73.546875L458.20312 81.703125Q458.20312 82.921875 458.46875 83.234375Q458.84375 83.640625 459.60938 83.640625L460.07812 83.640625L460.07812 84.0L455.46875 84.0L455.46875 83.640625L455.92188 83.640625Q456.78125 83.640625 457.125 83.125Q457.34375 82.8125 457.34375 81.703125L457.34375 72.5Q456.76562 71.828125 456.46875 71.609375Q456.17188 71.390625 455.59375 71.203125Q455.3125 71.125 454.73438 71.125L454.73438 70.75ZM474.6875 82.703125Q473.3125 83.78125 472.96875 83.9375Q472.4375 84.1875 471.84375 84.1875Q470.92188 84.1875 470.3125 83.5625Q469.71875 82.921875 469.71875 81.875Q469.71875 81.21875 470.0 80.75Q470.40625 80.078125 471.39062 79.5Q472.39062 78.90625 474.6875 78.078125L474.6875 77.71875Q474.6875 76.375 474.26562 75.890625Q473.84375 75.390625 473.03125 75.390625Q472.42188 75.390625 472.0625 75.71875Q471.6875 76.046875 471.6875 76.484375L471.70312 77.046875Q471.70312 77.5 471.46875 77.75Q471.25 77.984375 470.875 77.984375Q470.51562 77.984375 470.28125 77.734375Q470.0625 77.46875 470.0625 77.03125Q470.0625 76.203125 470.92188 75.5Q471.78125 74.796875 473.32812 74.796875Q474.51562 74.796875 475.28125 75.1875Q475.85938 75.5 476.125 76.140625Q476.3125 76.5625 476.3125 77.859375L476.3125 80.890625Q476.3125 82.171875 476.35938 82.46875Q476.40625 82.75 476.51562 82.84375Q476.625 82.9375 476.78125 82.9375Q476.9375 82.9375 477.04688 82.875Q477.25 82.75 477.84375 82.15625L477.84375 82.703125Q476.75 84.171875 475.75 84.171875Q475.26562 84.171875 474.98438 83.84375Q474.70312 83.515625 474.6875 82.703125ZM474.6875 82.078125L474.6875 78.671875Q473.21875 79.25 472.79688 79.5Q472.01562 79.921875 471.6875 80.390625Q471.35938 80.859375 471.35938 81.421875Q471.35938 82.125 471.76562 82.59375Q472.1875 83.046875 472.73438 83.046875Q473.48438 83.046875 474.6875 82.078125ZM470.67188 73.28125L470.35938 73.28125Q470.39062 71.953125 470.90625 71.359375Q471.4375 70.75 472.1875 70.75Q472.59375 70.75 472.92188 70.890625Q473.35938 71.046875 474.15625 71.578125Q474.96875 72.109375 475.35938 72.109375Q475.67188 72.109375 475.90625 71.859375Q476.15625 71.59375 476.29688 70.75L476.59375 70.75Q476.60938 71.671875 476.35938 72.203125Q476.10938 72.734375 475.65625 73.03125Q475.20312 73.328125 474.73438 73.328125Q473.96875 73.328125 472.82812 72.546875Q472.21875 72.125 472.0 72.046875Q471.78125 71.953125 471.57812 71.953125Q471.17188 71.953125 470.9375 72.296875Q470.82812 72.46875 470.67188 73.28125ZM483.0 74.796875Q485.03125 74.796875 486.26562 76.328125Q487.3125 77.65625 487.3125 79.359375Q487.3125 80.5625 486.73438 81.796875Q486.15625 83.015625 485.14062 83.65625Q484.14062 84.28125 482.89062 84.28125Q480.875 84.28125 479.6875 82.65625Q478.67188 81.296875 478.67188 79.609375Q478.67188 78.390625 479.28125 77.171875Q479.89062 75.953125 480.89062 75.375Q481.89062 74.796875 483.0 74.796875ZM482.70312 75.421875Q482.1875 75.421875 481.65625 75.734375Q481.14062 76.046875 480.8125 76.8125Q480.48438 77.578125 480.48438 78.796875Q480.48438 80.75 481.26562 82.171875Q482.04688 83.578125 483.3125 83.578125Q484.26562 83.578125 484.875 82.796875Q485.48438 82.015625 485.48438 80.109375Q485.48438 77.734375 484.46875 76.359375Q483.76562 75.421875 482.70312 75.421875ZM499.40625 74.796875L499.40625 77.84375L499.07812 77.84375Q498.71875 76.40625 498.125 75.890625Q497.54688 75.359375 496.65625 75.359375Q495.96875 75.359375 495.54688 75.734375Q495.125 76.09375 495.125 76.53125Q495.125 77.078125 495.4375 77.46875Q495.75 77.859375 496.67188 78.3125L498.09375 79.015625Q500.07812 79.96875 500.07812 81.5625Q500.07812 82.78125 499.15625 83.53125Q498.23438 84.28125 497.09375 84.28125Q496.26562 84.28125 495.21875 83.984375Q494.89062 83.875 494.6875 83.875Q494.46875 83.875 494.34375 84.140625L494.01562 84.140625L494.01562 80.9375L494.34375 80.9375Q494.60938 82.3125 495.375 83.015625Q496.15625 83.703125 497.10938 83.703125Q497.78125 83.703125 498.20312 83.3125Q498.64062 82.90625 498.64062 82.34375Q498.64062 81.671875 498.15625 81.21875Q497.6875 80.75 496.26562 80.046875Q494.85938 79.34375 494.42188 78.78125Q493.98438 78.234375 493.98438 77.375Q493.98438 76.28125 494.73438 75.546875Q495.48438 74.796875 496.6875 74.796875Q497.21875 74.796875 497.96875 75.015625Q498.46875 75.15625 498.64062 75.15625Q498.79688 75.15625 498.875 75.09375Q498.96875 75.03125 499.07812 74.796875L499.40625 74.796875ZM503.125 78.421875Q503.125 80.421875 504.09375 81.546875Q505.07812 82.6875 506.39062 82.6875Q507.26562 82.6875 507.90625 82.203125Q508.5625 81.71875 509.01562 80.546875L509.3125 80.734375Q509.10938 82.078125 508.125 83.1875Q507.14062 84.28125 505.65625 84.28125Q504.03125 84.28125 502.89062 83.03125Q501.75 81.765625 501.75 79.640625Q501.75 77.34375 502.92188 76.0625Q504.09375 74.78125 505.875 74.78125Q507.375 74.78125 508.34375 75.78125Q509.3125 76.765625 509.3125 78.421875L503.125 78.421875ZM503.125 77.859375L507.26562 77.859375Q507.21875 77.0 507.0625 76.640625Q506.82812 76.09375 506.34375 75.78125Q505.85938 75.46875 505.32812 75.46875Q504.51562 75.46875 503.875 76.109375Q503.23438 76.734375 503.125 77.859375ZM512.90625 70.109375Q513.3125 70.109375 513.59375 70.40625Q513.8906 70.6875 513.8906 71.09375Q513.8906 71.515625 513.59375 71.8125Q513.3125 72.09375 512.90625 72.09375Q512.4844 72.09375 512.1875 71.8125Q511.90625 71.515625 511.90625 71.09375Q511.90625 70.6875 512.1875 70.40625Q512.4844 70.109375 512.90625 70.109375ZM513.71875 74.796875L513.71875 81.984375Q513.71875 82.8125 513.8281 83.09375Q513.9531 83.375 514.1875 83.515625Q514.4375 83.640625 515.0625 83.640625L515.0625 84.0L510.71875 84.0L510.71875 83.640625Q511.375 83.640625 511.59375 83.515625Q511.82812 83.390625 511.95312 83.109375Q512.09375 82.8125 512.09375 81.984375L512.09375 78.53125Q512.09375 77.078125 512.0 76.640625Q511.9375 76.328125 511.78125 76.21875Q511.64062 76.09375 511.39062 76.09375Q511.10938 76.09375 510.71875 76.234375L510.59375 75.890625L513.28125 74.796875L513.71875 74.796875ZM524.25 74.796875L524.25 76.796875Q525.3594 74.796875 526.5469 74.796875Q527.0781 74.796875 527.4219 75.125Q527.78125 75.4375 527.78125 75.875Q527.78125 76.25 527.53125 76.515625Q527.28125 76.78125 526.9219 76.78125Q526.59375 76.78125 526.15625 76.453125Q525.7344 76.109375 525.53125 76.109375Q525.3594 76.109375 525.15625 76.296875Q524.71875 76.703125 524.25 77.625L524.25 81.90625Q524.25 82.65625 524.4219 83.03125Q524.5625 83.296875 524.875 83.46875Q525.2031 83.640625 525.8125 83.640625L525.8125 84.0L521.21875 84.0L521.21875 83.640625Q521.90625 83.640625 522.2344 83.4375Q522.4844 83.28125 522.5781 82.9375Q522.625 82.765625 522.625 81.984375L522.625 78.515625Q522.625 76.953125 522.5625 76.65625Q522.5 76.359375 522.3281 76.234375Q522.15625 76.09375 521.90625 76.09375Q521.6094 76.09375 521.21875 76.234375L521.125 75.890625L523.8281 74.796875L524.25 74.796875ZM530.125 78.421875Q530.125 80.421875 531.09375 81.546875Q532.0781 82.6875 533.3906 82.6875Q534.2656 82.6875 534.90625 82.203125Q535.5625 81.71875 536.0156 80.546875L536.3125 80.734375Q536.1094 82.078125 535.125 83.1875Q534.1406 84.28125 532.65625 84.28125Q531.03125 84.28125 529.8906 83.03125Q528.75 81.765625 528.75 79.640625Q528.75 77.34375 529.9219 76.0625Q531.09375 74.78125 532.875 74.78125Q534.375 74.78125 535.34375 75.78125Q536.3125 76.765625 536.3125 78.421875L530.125 78.421875ZM530.125 77.859375L534.2656 77.859375Q534.21875 77.0 534.0625 76.640625Q533.8281 76.09375 533.34375 75.78125Q532.8594 75.46875 532.3281 75.46875Q531.5156 75.46875 530.875 76.109375Q530.2344 76.734375 530.125 77.859375ZM543.40625 74.796875L543.40625 77.84375L543.0781 77.84375Q542.71875 76.40625 542.125 75.890625Q541.5469 75.359375 540.65625 75.359375Q539.96875 75.359375 539.5469 75.734375Q539.125 76.09375 539.125 76.53125Q539.125 77.078125 539.4375 77.46875Q539.75 77.859375 540.6719 78.3125L542.09375 79.015625Q544.0781 79.96875 544.0781 81.5625Q544.0781 82.78125 543.15625 83.53125Q542.2344 84.28125 541.09375 84.28125Q540.2656 84.28125 539.21875 83.984375Q538.8906 83.875 538.6875 83.875Q538.46875 83.875 538.34375 84.140625L538.0156 84.140625L538.0156 80.9375L538.34375 80.9375Q538.6094 82.3125 539.375 83.015625Q540.15625 83.703125 541.1094 83.703125Q541.78125 83.703125 542.2031 83.3125Q542.6406 82.90625 542.6406 82.34375Q542.6406 81.671875 542.15625 81.21875Q541.6875 80.75 540.2656 80.046875Q538.8594 79.34375 538.4219 78.78125Q537.9844 78.234375 537.9844 77.375Q537.9844 76.28125 538.7344 75.546875Q539.4844 74.796875 540.6875 74.796875Q541.21875 74.796875 541.96875 75.015625Q542.46875 75.15625 542.6406 75.15625Q542.7969 75.15625 542.875 75.09375Q542.96875 75.03125 543.0781 74.796875L543.40625 74.796875ZM544.9844 75.9375L547.7344 74.828125L548.1094 74.828125L548.1094 76.921875Q548.7969 75.734375 549.5 75.265625Q550.2031 74.796875 550.96875 74.796875Q552.3125 74.796875 553.21875 75.84375Q554.3125 77.140625 554.3125 79.203125Q554.3125 81.515625 552.9844 83.03125Q551.8906 84.28125 550.2344 84.28125Q549.5156 84.28125 548.9844 84.0625Q548.59375 83.921875 548.1094 83.484375L548.1094 86.203125Q548.1094 87.125 548.21875 87.375Q548.3281 87.625 548.6094 87.765625Q548.8906 87.921875 549.625 87.921875L549.625 88.28125L544.9375 88.28125L544.9375 87.921875L545.1719 87.921875Q545.71875 87.921875 546.09375 87.71875Q546.28125 87.609375 546.375 87.359375Q546.4844 87.125 546.4844 86.15625L546.4844 77.6875Q546.4844 76.828125 546.40625 76.59375Q546.3281 76.359375 546.15625 76.25Q545.9844 76.125 545.6875 76.125Q545.4531 76.125 545.09375 76.25L544.9844 75.9375ZM548.1094 77.5L548.1094 80.828125Q548.1094 81.921875 548.1875 82.265625Q548.3281 82.828125 548.8594 83.265625Q549.3906 83.6875 550.2031 83.6875Q551.1875 83.6875 551.78125 82.921875Q552.5781 81.921875 552.5781 80.125Q552.5781 78.078125 551.6875 76.96875Q551.0625 76.203125 550.2031 76.203125Q549.7344 76.203125 549.2656 76.4375Q548.9219 76.609375 548.1094 77.5ZM560.0 74.796875Q562.03125 74.796875 563.2656 76.328125Q564.3125 77.65625 564.3125 79.359375Q564.3125 80.5625 563.7344 81.796875Q563.15625 83.015625 562.1406 83.65625Q561.1406 84.28125 559.8906 84.28125Q557.875 84.28125 556.6875 82.65625Q555.6719 81.296875 555.6719 79.609375Q555.6719 78.390625 556.28125 77.171875Q556.8906 75.953125 557.8906 75.375Q558.8906 74.796875 560.0 74.796875ZM559.7031 75.421875Q559.1875 75.421875 558.65625 75.734375Q558.1406 76.046875 557.8125 76.8125Q557.4844 77.578125 557.4844 78.796875Q557.4844 80.75 558.2656 82.171875Q559.0469 83.578125 560.3125 83.578125Q561.2656 83.578125 561.875 82.796875Q562.4844 82.015625 562.4844 80.109375Q562.4844 77.734375 561.46875 76.359375Q560.7656 75.421875 559.7031 75.421875ZM568.2344 76.6875Q569.8125 74.796875 571.2344 74.796875Q571.96875 74.796875 572.4844 75.15625Q573.0156 75.515625 573.3281 76.359375Q573.5469 76.953125 573.5469 78.15625L573.5469 81.984375Q573.5469 82.828125 573.6875 83.125Q573.7969 83.375 574.03125 83.515625Q574.2656 83.640625 574.90625 83.640625L574.90625 84.0L570.4844 84.0L570.4844 83.640625L570.6719 83.640625Q571.2969 83.640625 571.5469 83.453125Q571.7969 83.265625 571.8906 82.890625Q571.9375 82.75 571.9375 81.984375L571.9375 78.3125Q571.9375 77.09375 571.6094 76.546875Q571.2969 75.984375 570.5469 75.984375Q569.3906 75.984375 568.2344 77.265625L568.2344 81.984375Q568.2344 82.890625 568.34375 83.09375Q568.4844 83.390625 568.71875 83.515625Q568.9531 83.640625 569.6875 83.640625L569.6875 84.0L565.2656 84.0L565.2656 83.640625L565.4531 83.640625Q566.1406 83.640625 566.375 83.296875Q566.625 82.953125 566.625 81.984375L566.625 78.65625Q566.625 77.046875 566.5469 76.703125Q566.46875 76.34375 566.3125 76.21875Q566.1719 76.09375 565.9219 76.09375Q565.6406 76.09375 565.2656 76.234375L565.125 75.890625L567.8125 74.796875L568.2344 74.796875L568.2344 76.6875ZM580.9375 83.0Q580.2969 83.671875 579.6719 83.984375Q579.0469 84.28125 578.3125 84.28125Q576.8594 84.28125 575.7656 83.0625Q574.6719 81.828125 574.6719 79.890625Q574.6719 77.96875 575.875 76.375Q577.09375 74.78125 578.9844 74.78125Q580.1719 74.78125 580.9375 75.53125L580.9375 73.875Q580.9375 72.34375 580.8594 72.0Q580.7969 71.640625 580.6406 71.515625Q580.4844 71.390625 580.25 71.390625Q580.0 71.390625 579.5781 71.546875L579.4531 71.203125L582.1094 70.109375L582.5625 70.109375L582.5625 80.453125Q582.5625 82.03125 582.625 82.375Q582.7031 82.71875 582.8594 82.859375Q583.03125 83.0 583.2344 83.0Q583.5 83.0 583.9375 82.828125L584.0469 83.171875L581.3906 84.28125L580.9375 84.28125L580.9375 83.0ZM580.9375 82.3125L580.9375 77.703125Q580.8906 77.03125 580.59375 76.484375Q580.2969 75.9375 579.8125 75.671875Q579.3281 75.390625 578.875 75.390625Q578.0156 75.390625 577.34375 76.15625Q576.4531 77.171875 576.4531 79.125Q576.4531 81.09375 577.3125 82.15625Q578.1719 83.203125 579.21875 83.203125Q580.1094 83.203125 580.9375 82.3125ZM586.125 78.421875Q586.125 80.421875 587.09375 81.546875Q588.0781 82.6875 589.3906 82.6875Q590.2656 82.6875 590.90625 82.203125Q591.5625 81.71875 592.0156 80.546875L592.3125 80.734375Q592.1094 82.078125 591.125 83.1875Q590.1406 84.28125 588.65625 84.28125Q587.03125 84.28125 585.8906 83.03125Q584.75 81.765625 584.75 79.640625Q584.75 77.34375 585.9219 76.0625Q587.09375 74.78125 588.875 74.78125Q590.375 74.78125 591.34375 75.78125Q592.3125 76.765625 592.3125 78.421875L586.125 78.421875ZM586.125 77.859375L590.2656 77.859375Q590.21875 77.0 590.0625 76.640625Q589.8281 76.09375 589.34375 75.78125Q588.8594 75.46875 588.3281 75.46875Q587.5156 75.46875 586.875 76.109375Q586.2344 76.734375 586.125 77.859375ZM596.25 74.796875L596.25 76.796875Q597.3594 74.796875 598.5469 74.796875Q599.0781 74.796875 599.4219 75.125Q599.78125 75.4375 599.78125 75.875Q599.78125 76.25 599.53125 76.515625Q599.28125 76.78125 598.9219 76.78125Q598.59375 76.78125 598.15625 76.453125Q597.7344 76.109375 597.53125 76.109375Q597.3594 76.109375 597.15625 76.296875Q596.71875 76.703125 596.25 77.625L596.25 81.90625Q596.25 82.65625 596.4219 83.03125Q596.5625 83.296875 596.875 83.46875Q597.2031 83.640625 597.8125 83.640625L597.8125 84.0L593.21875 84.0L593.21875 83.640625Q593.90625 83.640625 594.2344 83.4375Q594.4844 83.28125 594.5781 82.9375Q594.625 82.765625 594.625 81.984375L594.625 78.515625Q594.625 76.953125 594.5625 76.65625Q594.5 76.359375 594.3281 76.234375Q594.15625 76.09375 593.90625 76.09375Q593.6094 76.09375 593.21875 76.234375L593.125 75.890625L595.8281 74.796875L596.25 74.796875Z" fill-rule="nonzero"/></svg>