<svg version="1.1" viewBox="0.0 0.0 600.0 371.0" fill="none" stroke="none" stroke-linecap="square" stroke-miterlimit="10" width="600" height="371" xmlns:xlink="http://www.w3.org/1999/xlink" xmlns="http://www.w3.org/2000/svg"><path fill="#ffffff" d="M0 0L600.0 0L600.0 371.0L0 371.0L0 0Z" fill-rule="nonzero"/><path stroke="#333333" stroke-width="1.0" stroke-linecap="butt" d="M42.5 332.5L581.5 332.5" fill-rule="nonzero"/><path stroke="#cccccc" stroke-width="1.0" stroke-linecap="butt" d="M42.5 249.5L581.5 249.5" fill-rule="nonzero"/><path stroke="#cccccc" stroke-width="1.0" stroke-linecap="butt" d="M42.5 167.5L581.5 167.5" fill-rule="nonzero"/><path stroke="#cccccc" stroke-width="1.0" stroke-linecap="butt" d="M42.5 84.5L581.5 84.5" fill-rule="nonzero"/><clipPath id="id_0"><path d="M42.55 84.916664L581.45 84.916664L581.45 332.45L42.55 332.45L42.55 84.916664Z" clip-rule="nonzero"/></clipPath><path stroke="#000000" stroke-width="2.0" stroke-linecap="butt" stroke-opacity="0.0" clip-path="url(#id_0)" d="M144.0 332.0L79.0 332.0L79.0 87.0C79.0 85.89543 79.89543 85.0 81.0 85.0L142.0 85.0C143.10457 85.0 144.0 85.89543 144.0 87.0Z" fill-rule="nonzero"/><path fill="#4472c4" clip-path="url(#id_0)" d="M144.0 332.0L79.0 332.0L79.0 87.0C79.0 85.89543 79.89543 85.0 81.0 85.0L142.0 85.0C143.10457 85.0 144.0 85.89543 144.0 87.0Z" fill-rule="nonzero"/><path stroke="#000000" stroke-width="2.0" stroke-linecap="butt" stroke-opacity="0.0" clip-path="url(#id_0)" d="M244.0 332.0L179.0 332.0L179.0 293.0C179.0 291.89542 179.89543 291.0 181.0 291.0L242.0 291.0C243.10457 291.0 244.0 291.89542 244.0 293.0Z" fill-rule="nonzero"/><path fill="#4472c4" clip-path="url(#id_0)" d="M244.0 332.0L179.0 332.0L179.0 293.0C179.0 291.89542 179.89543 291.0 181.0 291.0L242.0 291.0C243.10457 291.0 244.0 291.89542 244.0 293.0Z" fill-rule="nonzero"/><path stroke="#000000" stroke-width="2.0" stroke-linecap="butt" stroke-opacity="0.0" clip-path="url(#id_0)" d="M345.0 332.0L280.0 332.0L280.0 252.0C280.0 250.89543 280.89542 250.0 282.0 250.0L343.0 250.0C344.10458 250.0 345.0 250.89543 345.0 252.0Z" fill-rule="nonzero"/><path fill="#4472c4" clip-path="url(#id_0)" d="M345.0 332.0L280.0 332.0L280.0 252.0C280.0 250.89543 280.89542 250.0 282.0 250.0L343.0 250.0C344.10458 250.0 345.0 250.89543 345.0 252.0Z" fill-rule="nonzero"/><path stroke="#000000" stroke-width="2.0" stroke-linecap="butt" stroke-opacity="0.0" clip-path="url(#id_0)" d="M446.0 332.0L381.0 332.0L381.0 211.0C381.0 209.89543 381.89542 209.0 383.0 209.0L444.0 209.0C445.10458 209.0 446.0 209.89543 446.0 211.0Z" fill-rule="nonzero"/><path fill="#4472c4" clip-path="url(#id_0)" d="M446.0 332.0L381.0 332.0L381.0 211.0C381.0 209.89543 381.89542 209.0 383.0 209.0L444.0 209.0C445.10458 209.0 446.0 209.89543 446.0 211.0Z" fill-rule="nonzero"/><path stroke="#000000" stroke-width="2.0" stroke-linecap="butt" stroke-opacity="0.0" clip-path="url(#id_0)" d="M546.0 332.0L481.0 332.0L481.0 87.0C481.0 85.89543 481.89542 85.0 483.0 85.0L544.0 85.0C545.10455 85.0 546.0 85.89543 546.0 87.0Z" fill-rule="nonzero"/><path fill="#4472c4" clip-path="url(#id_0)" d="M546.0 332.0L481.0 332.0L481.0 87.0C481.0 85.89543 481.89542 85.0 483.0 85.0L544.0 85.0C545.10455 85.0 546.0 85.89543 546.0 87.0Z" fill-rule="nonzero"/><path stroke="#4472c4" stroke-width="3.0" stroke-linejoin="round" stroke-linecap="round" d="M112.46875 93.18542L112.46875 94.09167L112.265625 94.09167Q111.0 94.12292 110.25 94.85729Q109.5 95.57604 109.375 96.88854Q110.0625 96.12292 111.21875 96.12292Q112.328125 96.12292 113.0 96.90417Q113.671875 97.68542 113.671875 98.93542Q113.671875 100.24792 112.953125 101.04479Q112.234375 101.84167 111.015625 101.84167Q109.796875 101.84167 109.03125 100.90417Q108.28125 99.95104 108.28125 98.46667L108.28125 98.06042Q108.28125 95.70104 109.28125 94.45104Q110.28125 93.20104 112.265625 93.18542L112.46875 93.18542ZM111.046875 97.02917Q110.484375 97.02917 110.015625 97.35729Q109.546875 97.68542 109.359375 98.20104L109.359375 98.59167Q109.359375 99.65417 109.828125 100.29479Q110.3125 100.93542 111.015625 100.93542Q111.75 100.93542 112.171875 100.40417Q112.59375 99.85729 112.59375 98.98229Q112.59375 98.10729 112.171875 97.57604Q111.75 97.02917 111.046875 97.02917Z" fill-rule="nonzero"/><path fill="#ffffff" d="M112.46875 93.18542L112.46875 94.09167L112.265625 94.09167Q111.0 94.12292 110.25 94.85729Q109.5 95.57604 109.375 96.88854Q110.0625 96.12292 111.21875 96.12292Q112.328125 96.12292 113.0 96.90417Q113.671875 97.68542 113.671875 98.93542Q113.671875 100.24792 112.953125 101.04479Q112.234375 101.84167 111.015625 101.84167Q109.796875 101.84167 109.03125 100.90417Q108.28125 99.95104 108.28125 98.46667L108.28125 98.06042Q108.28125 95.70104 109.28125 94.45104Q110.28125 93.20104 112.265625 93.18542L112.46875 93.18542ZM111.046875 97.02917Q110.484375 97.02917 110.015625 97.35729Q109.546875 97.68542 109.359375 98.20104L109.359375 98.59167Q109.359375 99.65417 109.828125 100.29479Q110.3125 100.93542 111.015625 100.93542Q111.75 100.93542 112.171875 100.40417Q112.59375 99.85729 112.59375 98.98229Q112.59375 98.10729 112.171875 97.57604Q111.75 97.02917 111.046875 97.02917Z" fill-rule="nonzero"/><path stroke="#4472c4" stroke-width="3.0" stroke-linejoin="round" stroke-linecap="round" d="M211.76562 307.99445L210.6875 307.99445L210.6875 300.7757L208.5 301.57257L208.5 300.5882L211.60938 299.41632L211.76562 299.41632L211.76562 307.99445Z" fill-rule="nonzero"/><path fill="#ffffff" d="M211.76562 307.99445L210.6875 307.99445L210.6875 300.7757L208.5 301.57257L208.5 300.5882L211.60938 299.41632L211.76562 299.41632L211.76562 307.99445Z" fill-rule="nonzero"/><path stroke="#4472c4" stroke-width="3.0" stroke-linejoin="round" stroke-linecap="round" d="M314.79688 266.7389L309.20312 266.7389L309.20312 265.95764L312.15625 262.6764Q312.8125 261.9264 313.0625 261.47327Q313.3125 261.00452 313.3125 260.50452Q313.3125 259.83264 312.90625 259.41077Q312.51562 258.97327 311.82812 258.97327Q311.03125 258.97327 310.57812 259.44202Q310.125 259.89514 310.125 260.72327L309.04688 260.72327Q309.04688 259.53577 309.79688 258.81702Q310.5625 258.08264 311.82812 258.08264Q313.03125 258.08264 313.71875 258.70764Q314.40625 259.33264 314.40625 260.37952Q314.40625 261.62952 312.79688 263.37952L310.51562 265.84827L314.79688 265.84827L314.79688 266.7389Z" fill-rule="nonzero"/><path fill="#ffffff" d="M314.79688 266.7389L309.20312 266.7389L309.20312 265.95764L312.15625 262.6764Q312.8125 261.9264 313.0625 261.47327Q313.3125 261.00452 313.3125 260.50452Q313.3125 259.83264 312.90625 259.41077Q312.51562 258.97327 311.82812 258.97327Q311.03125 258.97327 310.57812 259.44202Q310.125 259.89514 310.125 260.72327L309.04688 260.72327Q309.04688 259.53577 309.79688 258.81702Q310.5625 258.08264 311.82812 258.08264Q313.03125 258.08264 313.71875 258.70764Q314.40625 259.33264 314.40625 260.37952Q314.40625 261.62952 312.79688 263.37952L310.51562 265.84827L314.79688 265.84827L314.79688 266.7389Z" fill-rule="nonzero"/><path stroke="#4472c4" stroke-width="3.0" stroke-linejoin="round" stroke-linecap="round" d="M411.78125 220.68646L412.59375 220.68646Q413.375 220.67084 413.8125 220.28021Q414.25 219.88959 414.25 219.21771Q414.25 217.71771 412.75 217.71771Q412.04688 217.71771 411.625 218.12396Q411.21875 218.53021 411.21875 219.18646L410.125 219.18646Q410.125 218.17084 410.85938 217.49896Q411.60938 216.82709 412.75 216.82709Q413.95312 216.82709 414.64062 217.46771Q415.32812 218.10834 415.32812 219.24896Q415.32812 219.81146 414.96875 220.32709Q414.60938 220.84271 413.98438 221.10834Q414.6875 221.32709 415.0625 221.84271Q415.45312 222.35834 415.45312 223.10834Q415.45312 224.24896 414.70312 224.93646Q413.95312 225.60834 412.75 225.60834Q411.5625 225.60834 410.79688 224.95209Q410.04688 224.29584 410.04688 223.23334L411.14062 223.23334Q411.14062 223.90521 411.57812 224.31146Q412.01562 224.71771 412.76562 224.71771Q413.54688 224.71771 413.95312 224.31146Q414.375 223.88959 414.375 223.12396Q414.375 222.38959 413.92188 221.99896Q413.46875 221.59271 412.59375 221.57709L411.78125 221.57709L411.78125 220.68646Z" fill-rule="nonzero"/><path fill="#ffffff" d="M411.78125 220.68646L412.59375 220.68646Q413.375 220.67084 413.8125 220.28021Q414.25 219.88959 414.25 219.21771Q414.25 217.71771 412.75 217.71771Q412.04688 217.71771 411.625 218.12396Q411.21875 218.53021 411.21875 219.18646L410.125 219.18646Q410.125 218.17084 410.85938 217.49896Q411.60938 216.82709 412.75 216.82709Q413.95312 216.82709 414.64062 217.46771Q415.32812 218.10834 415.32812 219.24896Q415.32812 219.81146 414.96875 220.32709Q414.60938 220.84271 413.98438 221.10834Q414.6875 221.32709 415.0625 221.84271Q415.45312 222.35834 415.45312 223.10834Q415.45312 224.24896 414.70312 224.93646Q413.95312 225.60834 412.75 225.60834Q411.5625 225.60834 410.79688 224.95209Q410.04688 224.29584 410.04688 223.23334L411.14062 223.23334Q411.14062 223.90521 411.57812 224.31146Q412.01562 224.71771 412.76562 224.71771Q413.54688 224.71771 413.95312 224.31146Q414.375 223.88959 414.375 223.12396Q414.375 222.38959 413.92188 221.99896Q413.46875 221.59271 412.59375 221.57709L411.78125 221.57709L411.78125 220.68646Z" fill-rule="nonzero"/><path stroke="#4472c4" stroke-width="3.0" stroke-linejoin="round" stroke-linecap="round" d="M514.46875 93.18542L514.46875 94.09167L514.2656 94.09167Q513.0 94.12292 512.25 94.85729Q511.5 95.57604 511.375 96.88854Q512.0625 96.12292 513.21875 96.12292Q514.3281 96.12292 515.0 96.90417Q515.6719 97.68542 515.6719 98.93542Q515.6719 100.24792 514.9531 101.04479Q514.2344 101.84167 513.0156 101.84167Q511.79688 101.84167 511.03125 100.90417Q510.28125 99.95104 510.28125 98.46667L510.28125 98.06042Q510.28125 95.70104 511.28125 94.45104Q512.28125 93.20104 514.2656 93.18542L514.46875 93.18542ZM513.0469 97.02917Q512.4844 97.02917 512.0156 97.35729Q511.54688 97.68542 511.35938 98.20104L511.35938 98.59167Q511.35938 99.65417 511.82812 100.29479Q512.3125 100.93542 513.0156 100.93542Q513.75 100.93542 514.1719 100.40417Q514.59375 99.85729 514.59375 98.98229Q514.59375 98.10729 514.1719 97.57604Q513.75 97.02917 513.0469 97.02917Z" fill-rule="nonzero"/><path fill="#ffffff" d="M514.46875 93.18542L514.46875 94.09167L514.2656 94.09167Q513.0 94.12292 512.25 94.85729Q511.5 95.57604 511.375 96.88854Q512.0625 96.12292 513.21875 96.12292Q514.3281 96.12292 515.0 96.90417Q515.6719 97.68542 515.6719 98.93542Q515.6719 100.24792 514.9531 101.04479Q514.2344 101.84167 513.0156 101.84167Q511.79688 101.84167 511.03125 100.90417Q510.28125 99.95104 510.28125 98.46667L510.28125 98.06042Q510.28125 95.70104 511.28125 94.45104Q512.28125 93.20104 514.2656 93.18542L514.46875 93.18542ZM513.0469 97.02917Q512.4844 97.02917 512.0156 97.35729Q511.54688 97.68542 511.35938 98.20104L511.35938 98.59167Q511.35938 99.65417 511.82812 100.29479Q512.3125 100.93542 513.0156 100.93542Q513.75 100.93542 514.1719 100.40417Q514.59375 99.85729 514.59375 98.98229Q514.59375 98.10729 514.1719 97.57604Q513.75 97.02917 513.0469 97.02917Z" fill-rule="nonzero"/><path fill="#000000" d="M30.9875 332.52814Q30.9875 331.16876 31.39375 330.1844Q31.8 329.2 32.4875 328.71564Q33.01875 328.34064 33.58125 328.34064Q34.4875 328.34064 35.221874 329.27814Q36.128124 330.41876 36.128124 332.40314Q36.128124 333.77814 35.721874 334.7469Q35.33125 335.71564 34.70625 336.15314Q34.096874 336.59064 33.51875 336.59064Q32.378124 336.59064 31.628124 335.2469Q30.9875 334.1219 30.9875 332.52814ZM32.128124 332.66876Q32.128124 334.3094 32.534374 335.34064Q32.878124 336.21564 33.534374 336.21564Q33.846874 336.21564 34.190624 335.9344Q34.534374 335.65314 34.70625 334.98126Q34.971874 333.98126 34.971874 332.1375Q34.971874 330.77814 34.690624 329.8719Q34.4875 329.2 34.14375 328.91876Q33.909374 328.73126 33.565624 328.73126Q33.175 328.73126 32.8625 329.09064Q32.440624 329.575 32.284374 330.6219Q32.128124 331.65314 32.128124 332.66876Z" fill-rule="nonzero"/><path fill="#000000" d="M36.05 252.40764L35.503124 253.93889L30.815624 253.93889L30.815624 253.72014Q32.878124 251.82951 33.721874 250.64201Q34.565624 249.43889 34.565624 248.45451Q34.565624 247.70451 34.096874 247.22014Q33.64375 246.72014 32.9875 246.72014Q32.409374 246.72014 31.940624 247.06389Q31.471874 247.40764 31.253124 248.07951L31.034374 248.07951Q31.190624 246.98576 31.784374 246.40764Q32.39375 245.82951 33.3 245.82951Q34.26875 245.82951 34.909374 246.45451Q35.565624 247.06389 35.565624 247.90764Q35.565624 248.51701 35.284374 249.12639Q34.846874 250.06389 33.878124 251.12639Q32.425 252.72014 32.05 253.04826L34.128124 253.04826Q34.76875 253.04826 35.01875 253.00139Q35.26875 252.95451 35.471874 252.81389Q35.690624 252.67326 35.83125 252.40764L36.05 252.40764Z" fill-rule="nonzero"/><path fill="#000000" d="M36.128124 168.49028L36.128124 169.33403L35.065624 169.33403L35.065624 171.42778L34.096874 171.42778L34.096874 169.33403L30.7375 169.33403L30.7375 168.58403L34.425 163.3184L35.065624 163.3184L35.065624 168.49028L36.128124 168.49028ZM34.096874 168.49028L34.096874 164.55278L31.315624 168.49028L34.096874 168.49028Z" fill-rule="nonzero"/><path fill="#000000" d="M35.925 80.80729L35.925 81.02604Q35.159374 81.104164 34.659374 81.33854Q34.175 81.55729 33.690624 82.041664Q33.221874 82.510414 32.909374 83.104164Q32.596874 83.68229 32.378124 84.479164Q33.221874 83.90104 34.08125 83.90104Q34.89375 83.90104 35.4875 84.55729Q36.08125 85.21354 36.08125 86.24479Q36.08125 87.24479 35.4875 88.05729Q34.753124 89.05729 33.565624 89.05729Q32.753124 89.05729 32.175 88.510414Q31.065624 87.46354 31.065624 85.791664Q31.065624 84.729164 31.4875 83.77604Q31.925 82.80729 32.70625 82.072914Q33.503124 81.322914 34.221874 81.072914Q34.95625 80.80729 35.596874 80.80729L35.925 80.80729ZM32.284374 84.90104Q32.175 85.697914 32.175 86.18229Q32.175 86.74479 32.378124 87.416664Q32.596874 88.072914 33.003124 88.447914Q33.3 88.729164 33.7375 88.729164Q34.2375 88.729164 34.64375 88.24479Q35.05 87.760414 35.05 86.86979Q35.05 85.86979 34.64375 85.15104Q34.253124 84.416664 33.51875 84.416664Q33.3 84.416664 33.034374 84.510414Q32.784374 84.604164 32.284374 84.90104Z" fill-rule="nonzero"/><path fill="#000000" d="M108.9483 342.27814L110.8858 341.34064L111.0733 341.34064L111.0733 348.04376Q111.0733 348.71564 111.12018 348.8875Q111.18268 349.04376 111.35455 349.1375Q111.54205 349.21564 112.0733 349.23126L112.0733 349.45L109.08893 349.45L109.08893 349.23126Q109.65143 349.21564 109.80768 349.1375Q109.97955 349.04376 110.04205 348.90314Q110.10455 348.7625 110.10455 348.04376L110.10455 343.7625Q110.10455 342.8875 110.05768 342.65314Q110.0108 342.46564 109.90143 342.3719Q109.79205 342.27814 109.6358 342.27814Q109.41705 342.27814 109.04205 342.46564L108.9483 342.27814Z" fill-rule="nonzero"/><path fill="#000000" d="M213.77103 347.91876L213.22415 349.45L208.53665 349.45L208.53665 349.23126Q210.59915 347.34064 211.4429 346.15314Q212.28665 344.95 212.28665 343.96564Q212.28665 343.21564 211.8179 342.73126Q211.36478 342.23126 210.70853 342.23126Q210.1304 342.23126 209.66165 342.575Q209.1929 342.91876 208.97415 343.59064L208.7554 343.59064Q208.91165 342.4969 209.5054 341.91876Q210.11478 341.34064 211.02103 341.34064Q211.98978 341.34064 212.6304 341.96564Q213.28665 342.575 213.28665 343.41876Q213.28665 344.02814 213.0054 344.6375Q212.5679 345.575 211.59915 346.6375Q210.14603 348.23126 209.77103 348.5594L211.84915 348.5594Q212.48978 348.5594 212.73978 348.5125Q212.98978 348.46564 213.1929 348.325Q213.41165 348.1844 213.55228 347.91876L213.77103 347.91876Z" fill-rule="nonzero"/><path fill="#000000" d="M309.60938 343.0125Q309.95312 342.21564 310.46875 341.77814Q310.98438 341.34064 311.76562 341.34064Q312.71875 341.34064 313.21875 341.96564Q313.60938 342.41876 313.60938 342.95Q313.60938 343.825 312.51562 344.7469Q313.25 345.02814 313.625 345.5594Q314.0 346.09064 314.0 346.825Q314.0 347.85626 313.34375 348.60626Q312.5 349.59064 310.875 349.59064Q310.0625 349.59064 309.76562 349.3875Q309.48438 349.1844 309.48438 348.96564Q309.48438 348.79376 309.625 348.66876Q309.76562 348.52814 309.95312 348.52814Q310.10938 348.52814 310.25 348.575Q310.35938 348.60626 310.70312 348.79376Q311.0625 348.98126 311.1875 349.0125Q311.40625 349.075 311.65625 349.075Q312.25 349.075 312.6875 348.6219Q313.14062 348.15314 313.14062 347.52814Q313.14062 347.0594 312.9375 346.6219Q312.78125 346.29376 312.59375 346.1219Q312.34375 345.8875 311.90625 345.7Q311.46875 345.5125 311.01562 345.5125L310.82812 345.5125L310.82812 345.325Q311.28125 345.27814 311.75 344.9969Q312.21875 344.71564 312.42188 344.34064Q312.64062 343.95 312.64062 343.48126Q312.64062 342.8875 312.26562 342.5125Q311.89062 342.1375 311.32812 342.1375Q310.40625 342.1375 309.79688 343.10626L309.60938 343.0125Z" fill-rule="nonzero"/><path fill="#000000" d="M415.3071 346.5125L415.3071 347.35626L414.2446 347.35626L414.2446 349.45L413.27585 349.45L413.27585 347.35626L409.91647 347.35626L409.91647 346.60626L413.60397 341.34064L414.2446 341.34064L414.2446 346.5125L415.3071 346.5125ZM413.27585 346.5125L413.27585 342.575L410.4946 346.5125L413.27585 346.5125Z" fill-rule="nonzero"/><path fill="#000000" d="M515.6611 341.4969L515.20795 342.4969L512.8173 342.4969L512.3017 343.5594Q513.8486 343.79376 514.7548 344.71564Q515.5361 345.5125 515.5361 346.59064Q515.5361 347.21564 515.2861 347.7625Q515.0361 348.29376 514.64545 348.66876Q514.2548 349.04376 513.7861 349.2625Q513.1142 349.59064 512.39545 349.59064Q511.6767 349.59064 511.34857 349.35626Q511.03607 349.10626 511.03607 348.8094Q511.03607 348.65314 511.16107 348.52814Q511.3017 348.3875 511.50482 348.3875Q511.66107 348.3875 511.77045 348.4344Q511.89545 348.48126 512.1611 348.6844Q512.5986 348.98126 513.0517 348.98126Q513.7392 348.98126 514.2548 348.46564Q514.77045 347.95 514.77045 347.2Q514.77045 346.48126 514.3017 345.85626Q513.8486 345.23126 513.0361 344.90314Q512.39545 344.6375 511.3017 344.59064L512.8173 341.4969L515.6611 341.4969Z" fill-rule="nonzero"/><path fill="#757575" d="M18.89375 36.55L18.89375 36.190624L19.39375 36.190624Q20.2375 36.190624 20.58125 35.64375Q20.8 35.33125 20.8 34.20625L20.8 25.64375Q20.8 24.409374 20.51875 24.096874Q20.14375 23.675 19.39375 23.675L18.89375 23.675L18.89375 23.3L24.284374 23.3Q27.253124 23.3 28.8 23.9875Q30.346874 24.659374 31.284374 26.2375Q32.2375 27.8 32.2375 29.8625Q32.2375 32.628124 30.55 34.471874Q28.675 36.55 24.815624 36.55L18.89375 36.55ZM22.675 35.596874Q23.909374 35.8625 24.753124 35.8625Q27.01875 35.8625 28.503124 34.26875Q30.003124 32.675 30.003124 29.95625Q30.003124 27.20625 28.503124 25.628124Q27.01875 24.05 24.675 24.05Q23.8 24.05 22.675 24.33125L22.675 35.596874ZM34.675 30.971874Q34.675 32.971874 35.64375 34.096874Q36.628124 35.2375 37.940624 35.2375Q38.815624 35.2375 39.45625 34.753124Q40.1125 34.26875 40.565624 33.096874L40.8625 33.284374Q40.659374 34.628124 39.675 35.7375Q38.690624 36.83125 37.20625 36.83125Q35.58125 36.83125 34.440624 35.58125Q33.3 34.315624 33.3 32.190624Q33.3 29.89375 34.471874 28.6125Q35.64375 27.33125 37.425 27.33125Q38.925 27.33125 39.89375 28.33125Q40.8625 29.315624 40.8625 30.971874L34.675 30.971874ZM34.675 30.409374L38.815624 30.409374Q38.76875 29.55 38.6125 29.190624Q38.378124 28.64375 37.89375 28.33125Q37.409374 28.01875 36.878124 28.01875Q36.065624 28.01875 35.425 28.659374Q34.784374 29.284374 34.675 30.409374ZM48.89375 24.6125L52.1125 23.034374L52.440624 23.034374L52.440624 34.221874Q52.440624 35.33125 52.534374 35.6125Q52.628124 35.878124 52.909374 36.034374Q53.20625 36.175 54.1125 36.190624L54.1125 36.55L49.128124 36.55L49.128124 36.190624Q50.065624 36.175 50.33125 36.034374Q50.6125 35.878124 50.721874 35.64375Q50.83125 35.409374 50.83125 34.221874L50.83125 27.065624Q50.83125 25.628124 50.7375 25.20625Q50.659374 24.89375 50.471874 24.753124Q50.3 24.6125 50.05 24.6125Q49.690624 24.6125 49.034374 24.909374L48.89375 24.6125ZM67.2375 35.253124Q65.8625 36.33125 65.51875 36.4875Q64.9875 36.7375 64.39375 36.7375Q63.471874 36.7375 62.8625 36.1125Q62.26875 35.471874 62.26875 34.425Q62.26875 33.76875 62.55 33.3Q62.95625 32.628124 63.940624 32.05Q64.94063 31.45625 67.2375 30.628124L67.2375 30.26875Q67.2375 28.925 66.81563 28.440624Q66.39375 27.940624 65.58125 27.940624Q64.97188 27.940624 64.6125 28.26875Q64.2375 28.596874 64.2375 29.034374L64.25313 29.596874Q64.25313 30.05 64.01875 30.3Q63.8 30.534374 63.425 30.534374Q63.065624 30.534374 62.83125 30.284374Q62.6125 30.01875 62.6125 29.58125Q62.6125 28.753124 63.471874 28.05Q64.33125 27.346874 65.87813 27.346874Q67.06563 27.346874 67.83125 27.7375Q68.40938 28.05 68.675 28.690624Q68.8625 29.1125 68.8625 30.409374L68.8625 33.440624Q68.8625 34.721874 68.90938 35.01875Q68.95625 35.3 69.06563 35.39375Q69.175 35.4875 69.33125 35.4875Q69.4875 35.4875 69.59688 35.425Q69.8 35.3 70.39375 34.70625L70.39375 35.253124Q69.3 36.721874 68.3 36.721874Q67.81563 36.721874 67.53438 36.39375Q67.25313 36.065624 67.2375 35.253124ZM67.2375 34.628124L67.2375 31.221874Q65.76875 31.8 65.34688 32.05Q64.56563 32.471874 64.2375 32.940624Q63.909374 33.409374 63.909374 33.971874Q63.909374 34.675 64.31563 35.14375Q64.7375 35.596874 65.28438 35.596874Q66.03438 35.596874 67.2375 34.628124ZM84.2375 23.3L83.47188 24.971874L79.4875 24.971874L78.6125 26.7375Q81.20625 27.128124 82.72188 28.675Q84.01875 30.003124 84.01875 31.8Q84.01875 32.83125 83.59688 33.721874Q83.175 34.6125 82.51875 35.2375Q81.87813 35.8625 81.08125 36.253124Q79.97188 36.784374 78.78438 36.784374Q77.59688 36.784374 77.05 36.378124Q76.50313 35.971874 76.50313 35.4875Q76.50313 35.20625 76.72188 35.003124Q76.95625 34.784374 77.3 34.784374Q77.55 34.784374 77.7375 34.8625Q77.94063 34.940624 78.39375 35.26875Q79.12813 35.784374 79.87813 35.784374Q81.01875 35.784374 81.87813 34.925Q82.75313 34.05 82.75313 32.815624Q82.75313 31.6125 81.97188 30.58125Q81.20625 29.534374 79.84688 28.95625Q78.78438 28.51875 76.94063 28.45625L79.4875 23.3L84.2375 23.3ZM86.62813 39.878124L86.62813 39.45625Q87.62813 39.1125 88.175 38.409374Q88.7375 37.721874 88.7375 36.940624Q88.7375 36.753124 88.64375 36.628124Q88.58125 36.534374 88.50313 36.534374Q88.40938 36.534374 88.03438 36.7375Q87.8625 36.83125 87.675 36.83125Q87.19063 36.83125 86.90938 36.55Q86.62813 36.253124 86.62813 35.753124Q86.62813 35.284374 86.9875 34.940624Q87.3625 34.596874 87.87813 34.596874Q88.53438 34.596874 89.03438 35.159374Q89.53438 35.721874 89.53438 36.64375Q89.53438 37.659374 88.83125 38.51875Q88.14375 39.378124 86.62813 39.878124ZM100.55 27.346874Q102.58125 27.346874 103.81563 28.878124Q104.8625 30.20625 104.8625 31.909374Q104.8625 33.1125 104.28438 34.346874Q103.70625 35.565624 102.69063 36.20625Q101.69063 36.83125 100.44063 36.83125Q98.425 36.83125 97.2375 35.20625Q96.22188 33.846874 96.22188 32.159374Q96.22188 30.940624 96.83125 29.721874Q97.44063 28.503124 98.44063 27.925Q99.44063 27.346874 100.55 27.346874ZM100.25313 27.971874Q99.7375 27.971874 99.20625 28.284374Q98.69063 28.596874 98.3625 29.3625Q98.03438 30.128124 98.03438 31.346874Q98.03438 33.3 98.81563 34.721874Q99.59688 36.128124 100.8625 36.128124Q101.81563 36.128124 102.425 35.346874Q103.03438 34.565624 103.03438 32.659374Q103.03438 30.284374 102.01875 28.909374Q101.31563 27.971874 100.25313 27.971874ZM119.09688 27.346874L119.09688 38.846874Q119.09688 39.70625 119.20625 39.940624Q119.33125 40.190624 119.58125 40.33125Q119.83125 40.471874 120.55 40.471874L120.55 40.83125L116.03438 40.83125L116.03438 40.471874L116.22188 40.471874Q116.76875 40.471874 117.05 40.315624Q117.25313 40.20625 117.3625 39.925Q117.4875 39.64375 117.4875 38.846874L117.4875 35.003124Q116.59688 36.05 115.925 36.440624Q115.26875 36.83125 114.55 36.83125Q113.25313 36.83125 112.2375 35.64375Q111.22188 34.45625 111.22188 32.471874Q111.22188 30.20625 112.56563 28.784374Q113.90938 27.346874 115.81563 27.346874Q116.37813 27.346874 116.84688 27.503124Q117.31563 27.659374 117.675 27.971874Q118.25313 27.690624 118.76875 27.346874L119.09688 27.346874ZM117.4875 34.378124L117.4875 30.175Q117.4875 29.45625 117.28438 29.034374Q117.09688 28.6125 116.6125 28.315624Q116.12813 28.01875 115.51875 28.01875Q114.425 28.01875 113.64375 28.95625Q112.8625 29.878124 112.8625 31.76875Q112.8625 33.565624 113.64375 34.503124Q114.44063 35.440624 115.56563 35.440624Q116.14375 35.440624 116.59688 35.190624Q117.05 34.940624 117.4875 34.378124ZM129.01875 27.596874L129.01875 33.01875Q129.01875 34.58125 129.08125 34.925Q129.15938 35.26875 129.31563 35.409374Q129.4875 35.55 129.70625 35.55Q130.00313 35.55 130.37813 35.378124L130.51875 35.721874L127.84688 36.83125L127.40938 36.83125L127.40938 34.925Q126.25313 36.175 125.64375 36.503124Q125.05 36.83125 124.3625 36.83125Q123.6125 36.83125 123.06563 36.39375Q122.51875 35.95625 122.3 35.26875Q122.08125 34.58125 122.08125 33.33125L122.08125 29.346874Q122.08125 28.70625 121.94063 28.471874Q121.81563 28.221874 121.53438 28.096874Q121.26875 27.95625 120.56563 27.971874L120.56563 27.596874L123.70625 27.596874L123.70625 33.596874Q123.70625 34.846874 124.14375 35.2375Q124.58125 35.628124 125.19063 35.628124Q125.6125 35.628124 126.14375 35.3625Q126.675 35.096874 127.40938 34.346874L127.40938 29.284374Q127.40938 28.51875 127.12813 28.253124Q126.84688 27.9875 125.97188 27.971874L125.97188 27.596874L129.01875 27.596874ZM135.2375 35.253124Q133.8625 36.33125 133.51875 36.4875Q132.9875 36.7375 132.39375 36.7375Q131.47188 36.7375 130.8625 36.1125Q130.26875 35.471874 130.26875 34.425Q130.26875 33.76875 130.55 33.3Q130.95625 32.628124 131.94063 32.05Q132.94063 31.45625 135.2375 30.628124L135.2375 30.26875Q135.2375 28.925 134.81563 28.440624Q134.39375 27.940624 133.58125 27.940624Q132.97188 27.940624 132.6125 28.26875Q132.2375 28.596874 132.2375 29.034374L132.25313 29.596874Q132.25313 30.05 132.01875 30.3Q131.8 30.534374 131.425 30.534374Q131.06563 30.534374 130.83125 30.284374Q130.6125 30.01875 130.6125 29.58125Q130.6125 28.753124 131.47188 28.05Q132.33125 27.346874 133.87813 27.346874Q135.06563 27.346874 135.83125 27.7375Q136.40938 28.05 136.675 28.690624Q136.8625 29.1125 136.8625 30.409374L136.8625 33.440624Q136.8625 34.721874 136.90938 35.01875Q136.95625 35.3 137.06563 35.39375Q137.175 35.4875 137.33125 35.4875Q137.4875 35.4875 137.59688 35.425Q137.8 35.3 138.39375 34.70625L138.39375 35.253124Q137.3 36.721874 136.3 36.721874Q135.81563 36.721874 135.53438 36.39375Q135.25313 36.065624 135.2375 35.253124ZM135.2375 34.628124L135.2375 31.221874Q133.76875 31.8 133.34688 32.05Q132.56563 32.471874 132.2375 32.940624Q131.90938 33.409374 131.90938 33.971874Q131.90938 34.675 132.31563 35.14375Q132.7375 35.596874 133.28438 35.596874Q134.03438 35.596874 135.2375 34.628124ZM141.78438 29.2375Q143.3625 27.346874 144.78438 27.346874Q145.51875 27.346874 146.03438 27.70625Q146.56563 28.065624 146.87813 28.909374Q147.09688 29.503124 147.09688 30.70625L147.09688 34.534374Q147.09688 35.378124 147.2375 35.675Q147.34688 35.925 147.58125 36.065624Q147.81563 36.190624 148.45625 36.190624L148.45625 36.55L144.03438 36.55L144.03438 36.190624L144.22188 36.190624Q144.84688 36.190624 145.09688 36.003124Q145.34688 35.815624 145.44063 35.440624Q145.4875 35.3 145.4875 34.534374L145.4875 30.8625Q145.4875 29.64375 145.15938 29.096874Q144.84688 28.534374 144.09688 28.534374Q142.94063 28.534374 141.78438 29.815624L141.78438 34.534374Q141.78438 35.440624 141.89375 35.64375Q142.03438 35.940624 142.26875 36.065624Q142.50313 36.190624 143.2375 36.190624L143.2375 36.55L138.81563 36.55L138.81563 36.190624L139.00313 36.190624Q139.69063 36.190624 139.925 35.846874Q140.175 35.503124 140.175 34.534374L140.175 31.20625Q140.175 29.596874 140.09688 29.253124Q140.01875 28.89375 139.8625 28.76875Q139.72188 28.64375 139.47188 28.64375Q139.19063 28.64375 138.81563 28.784374L138.675 28.440624L141.3625 27.346874L141.78438 27.346874L141.78438 29.2375ZM150.76875 24.659374L150.76875 27.596874L152.8625 27.596874L152.8625 28.284374L150.76875 28.284374L150.76875 34.08125Q150.76875 34.95625 151.01875 35.26875Q151.26875 35.565624 151.65938 35.565624Q151.9875 35.565624 152.28438 35.3625Q152.59688 35.159374 152.75313 34.76875L153.14375 34.76875Q152.8 35.721874 152.175 36.20625Q151.55 36.690624 150.87813 36.690624Q150.425 36.690624 149.9875 36.440624Q149.56563 36.190624 149.3625 35.7375Q149.15938 35.26875 149.15938 34.3L149.15938 28.284374L147.75313 28.284374L147.75313 27.971874Q148.28438 27.753124 148.84688 27.2375Q149.40938 26.721874 149.84688 26.01875Q150.06563 25.64375 150.47188 24.659374L150.76875 24.659374ZM157.55 27.346874Q159.58125 27.346874 160.81563 28.878124Q161.8625 30.20625 161.8625 31.909374Q161.8625 33.1125 161.28438 34.346874Q160.70625 35.565624 159.69063 36.20625Q158.69063 36.83125 157.44063 36.83125Q155.425 36.83125 154.2375 35.20625Q153.22188 33.846874 153.22188 32.159374Q153.22188 30.940624 153.83125 29.721874Q154.44063 28.503124 155.44063 27.925Q156.44063 27.346874 157.55 27.346874ZM157.25313 27.971874Q156.7375 27.971874 156.20625 28.284374Q155.69063 28.596874 155.3625 29.3625Q155.03438 30.128124 155.03438 31.346874Q155.03438 33.3 155.81563 34.721874Q156.59688 36.128124 157.8625 36.128124Q158.81563 36.128124 159.425 35.346874Q160.03438 34.565624 160.03438 32.659374Q160.03438 30.284374 159.01875 28.909374Q158.31563 27.971874 157.25313 27.971874ZM170.76875 24.659374L170.76875 27.596874L172.8625 27.596874L172.8625 28.284374L170.76875 28.284374L170.76875 34.08125Q170.76875 34.95625 171.01875 35.26875Q171.26875 35.565624 171.65938 35.565624Q171.9875 35.565624 172.28438 35.3625Q172.59688 35.159374 172.75313 34.76875L173.14375 34.76875Q172.8 35.721874 172.175 36.20625Q171.55 36.690624 170.87813 36.690624Q170.425 36.690624 169.9875 36.440624Q169.56563 36.190624 169.3625 35.7375Q169.15938 35.26875 169.15938 34.3L169.15938 28.284374L167.75313 28.284374L167.75313 27.971874Q168.28438 27.753124 168.84688 27.2375Q169.40938 26.721874 169.84688 26.01875Q170.06563 25.64375 170.47188 24.659374L170.76875 24.659374ZM174.675 30.971874Q174.675 32.971874 175.64375 34.096874Q176.62813 35.2375 177.94063 35.2375Q178.81563 35.2375 179.45625 34.753124Q180.1125 34.26875 180.56563 33.096874L180.8625 33.284374Q180.65938 34.628124 179.675 35.7375Q178.69063 36.83125 177.20625 36.83125Q175.58125 36.83125 174.44063 35.58125Q173.3 34.315624 173.3 32.190624Q173.3 29.89375 174.47188 28.6125Q175.64375 27.33125 177.425 27.33125Q178.925 27.33125 179.89375 28.33125Q180.8625 29.315624 180.8625 30.971874L174.675 30.971874ZM174.675 30.409374L178.81563 30.409374Q178.76875 29.55 178.6125 29.190624Q178.37813 28.64375 177.89375 28.33125Q177.40938 28.01875 176.87813 28.01875Q176.06563 28.01875 175.425 28.659374Q174.78438 29.284374 174.675 30.409374ZM181.72188 27.596874L185.925 27.596874L185.925 27.971874L185.65938 27.971874Q185.26875 27.971874 185.06563 28.159374Q184.87813 28.33125 184.87813 28.64375Q184.87813 28.9875 185.08125 29.45625L187.15938 34.39375L189.25313 29.26875Q189.47188 28.721874 189.47188 28.440624Q189.47188 28.3 189.39375 28.221874Q189.28438 28.065624 189.1125 28.01875Q188.95625 27.971874 188.44063 27.971874L188.44063 27.596874L191.3625 27.596874L191.3625 27.971874Q190.8625 28.003124 190.65938 28.175Q190.31563 28.45625 190.05 29.14375L186.87813 36.83125L186.47188 36.83125L183.28438 29.26875Q183.06563 28.753124 182.8625 28.51875Q182.675 28.284374 182.37813 28.128124Q182.20625 28.05 181.72188 27.971874L181.72188 27.596874ZM193.675 30.971874Q193.675 32.971874 194.64375 34.096874Q195.62813 35.2375 196.94063 35.2375Q197.81563 35.2375 198.45625 34.753124Q199.1125 34.26875 199.56563 33.096874L199.8625 33.284374Q199.65938 34.628124 198.675 35.7375Q197.69063 36.83125 196.20625 36.83125Q194.58125 36.83125 193.44063 35.58125Q192.3 34.315624 192.3 32.190624Q192.3 29.89375 193.47188 28.6125Q194.64375 27.33125 196.425 27.33125Q197.925 27.33125 198.89375 28.33125Q199.8625 29.315624 199.8625 30.971874L193.675 30.971874ZM193.675 30.409374L197.81563 30.409374Q197.76875 29.55 197.6125 29.190624Q197.37813 28.64375 196.89375 28.33125Q196.40938 28.01875 195.87813 28.01875Q195.06563 28.01875 194.425 28.659374Q193.78438 29.284374 193.675 30.409374ZM212.4875 35.55Q211.84688 36.221874 211.22188 36.534374Q210.59688 36.83125 209.8625 36.83125Q208.40938 36.83125 207.31563 35.6125Q206.22188 34.378124 206.22188 32.440624Q206.22188 30.51875 207.425 28.925Q208.64375 27.33125 210.53438 27.33125Q211.72188 27.33125 212.4875 28.08125L212.4875 26.425Q212.4875 24.89375 212.40938 24.55Q212.34688 24.190624 212.19063 24.065624Q212.03438 23.940624 211.8 23.940624Q211.55 23.940624 211.12813 24.096874L211.00313 23.753124L213.65938 22.659374L214.1125 22.659374L214.1125 33.003124Q214.1125 34.58125 214.175 34.925Q214.25313 35.26875 214.40938 35.409374Q214.58125 35.55 214.78438 35.55Q215.05 35.55 215.4875 35.378124L215.59688 35.721874L212.94063 36.83125L212.4875 36.83125L212.4875 35.55ZM212.4875 34.8625L212.4875 30.253124Q212.44063 29.58125 212.14375 29.034374Q211.84688 28.4875 211.3625 28.221874Q210.87813 27.940624 210.425 27.940624Q209.56563 27.940624 208.89375 28.70625Q208.00313 29.721874 208.00313 31.675Q208.00313 33.64375 208.8625 34.70625Q209.72188 35.753124 210.76875 35.753124Q211.65938 35.753124 212.4875 34.8625ZM218.45625 22.659374Q218.8625 22.659374 219.14375 22.95625Q219.44063 23.2375 219.44063 23.64375Q219.44063 24.065624 219.14375 24.3625Q218.8625 24.64375 218.45625 24.64375Q218.03438 24.64375 217.7375 24.3625Q217.45625 24.065624 217.45625 23.64375Q217.45625 23.2375 217.7375 22.95625Q218.03438 22.659374 218.45625 22.659374ZM219.26875 27.346874L219.26875 34.534374Q219.26875 35.3625 219.37813 35.64375Q219.50313 35.925 219.7375 36.065624Q219.9875 36.190624 220.6125 36.190624L220.6125 36.55L216.26875 36.55L216.26875 36.190624Q216.925 36.190624 217.14375 36.065624Q217.37813 35.940624 217.50313 35.659374Q217.64375 35.3625 217.64375 34.534374L217.64375 31.08125Q217.64375 29.628124 217.55 29.190624Q217.4875 28.878124 217.33125 28.76875Q217.19063 28.64375 216.94063 28.64375Q216.65938 28.64375 216.26875 28.784374L216.14375 28.440624L218.83125 27.346874L219.26875 27.346874ZM225.675 28.3L225.675 34.190624Q225.675 35.440624 225.94063 35.76875Q226.3 36.190624 226.90938 36.190624L227.72188 36.190624L227.72188 36.55L222.37813 36.55L222.37813 36.190624L222.78438 36.190624Q223.175 36.190624 223.4875 36.003124Q223.81563 35.8 223.94063 35.471874Q224.06563 35.14375 224.06563 34.190624L224.06563 28.3L222.31563 28.3L222.31563 27.596874L224.06563 27.596874L224.06563 27.01875Q224.06563 25.675 224.4875 24.753124Q224.925 23.83125 225.8 23.253124Q226.69063 22.675 227.78438 22.675Q228.81563 22.675 229.675 23.346874Q230.2375 23.784374 230.2375 24.33125Q230.2375 24.628124 229.9875 24.89375Q229.7375 25.14375 229.44063 25.14375Q229.22188 25.14375 228.97188 24.9875Q228.72188 24.815624 228.3625 24.284374Q228.00313 23.753124 227.69063 23.565624Q227.39375 23.378124 227.01875 23.378124Q226.56563 23.378124 226.25313 23.628124Q225.94063 23.8625 225.8 24.3625Q225.675 24.8625 225.675 26.95625L225.675 27.596874L227.97188 27.596874L227.97188 28.3L225.675 28.3ZM230.45625 22.659374Q230.8625 22.659374 231.14375 22.95625Q231.44063 23.2375 231.44063 23.64375Q231.44063 24.065624 231.14375 24.3625Q230.8625 24.64375 230.45625 24.64375Q230.03438 24.64375 229.7375 24.3625Q229.45625 24.065624 229.45625 23.64375Q229.45625 23.2375 229.7375 22.95625Q230.03438 22.659374 230.45625 22.659374ZM231.26875 27.346874L231.26875 34.534374Q231.26875 35.3625 231.37813 35.64375Q231.50313 35.925 231.7375 36.065624Q231.9875 36.190624 232.6125 36.190624L232.6125 36.55L228.26875 36.55L228.26875 36.190624Q228.925 36.190624 229.14375 36.065624Q229.37813 35.940624 229.50313 35.659374Q229.64375 35.3625 229.64375 34.534374L229.64375 31.08125Q229.64375 29.628124 229.55 29.190624Q229.4875 28.878124 229.33125 28.76875Q229.19063 28.64375 228.94063 28.64375Q228.65938 28.64375 228.26875 28.784374L228.14375 28.440624L230.83125 27.346874L231.26875 27.346874ZM241.76875 33.14375Q241.40938 34.925 240.34688 35.878124Q239.3 36.83125 238.01875 36.83125Q236.50313 36.83125 235.3625 35.55Q234.2375 34.26875 234.2375 32.08125Q234.2375 29.971874 235.4875 28.659374Q236.7375 27.346874 238.50313 27.346874Q239.81563 27.346874 240.65938 28.05Q241.51875 28.7375 241.51875 29.4875Q241.51875 29.8625 241.26875 30.096874Q241.03438 30.315624 240.6125 30.315624Q240.03438 30.315624 239.7375 29.940624Q239.58125 29.7375 239.51875 29.175Q239.47188 28.596874 239.12813 28.284374Q238.78438 27.9875 238.175 27.9875Q237.20625 27.9875 236.6125 28.721874Q235.81563 29.675 235.81563 31.253124Q235.81563 32.846874 236.59688 34.08125Q237.39375 35.3 238.72188 35.3Q239.69063 35.3 240.44063 34.64375Q240.9875 34.190624 241.4875 33.01875L241.76875 33.14375ZM251.01875 27.596874L251.01875 33.01875Q251.01875 34.58125 251.08125 34.925Q251.15938 35.26875 251.31563 35.409374Q251.4875 35.55 251.70625 35.55Q252.00313 35.55 252.37813 35.378124L252.51875 35.721874L249.84688 36.83125L249.40938 36.83125L249.40938 34.925Q248.25313 36.175 247.64375 36.503124Q247.05 36.83125 246.3625 36.83125Q245.6125 36.83125 245.06563 36.39375Q244.51875 35.95625 244.3 35.26875Q244.08125 34.58125 244.08125 33.33125L244.08125 29.346874Q244.08125 28.70625 243.94063 28.471874Q243.81563 28.221874 243.53438 28.096874Q243.26875 27.95625 242.56563 27.971874L242.56563 27.596874L245.70625 27.596874L245.70625 33.596874Q245.70625 34.846874 246.14375 35.2375Q246.58125 35.628124 247.19063 35.628124Q247.6125 35.628124 248.14375 35.3625Q248.675 35.096874 249.40938 34.346874L249.40938 29.284374Q249.40938 28.51875 249.12813 28.253124Q248.84688 27.9875 247.97188 27.971874L247.97188 27.596874L251.01875 27.596874ZM255.25313 22.659374L255.25313 34.534374Q255.25313 35.3625 255.37813 35.64375Q255.50313 35.909374 255.75313 36.05Q256.0031 36.190624 256.6906 36.190624L256.6906 36.55L252.31563 36.55L252.31563 36.190624Q252.925 36.190624 253.14375 36.065624Q253.37813 35.940624 253.50313 35.659374Q253.62813 35.3625 253.62813 34.534374L253.62813 26.409374Q253.62813 24.89375 253.55 24.55Q253.4875 24.190624 253.33125 24.065624Q253.19063 23.940624 252.95625 23.940624Q252.70625 23.940624 252.31563 24.096874L252.14375 23.753124L254.81563 22.659374L255.25313 22.659374ZM264.4875 35.55Q263.84686 36.221874 263.22186 36.534374Q262.59686 36.83125 261.8625 36.83125Q260.40936 36.83125 259.3156 35.6125Q258.22186 34.378124 258.22186 32.440624Q258.22186 30.51875 259.425 28.925Q260.64374 27.33125 262.53436 27.33125Q263.72186 27.33125 264.4875 28.08125L264.4875 26.425Q264.4875 24.89375 264.40936 24.55Q264.34686 24.190624 264.1906 24.065624Q264.03436 23.940624 263.8 23.940624Q263.55 23.940624 263.1281 24.096874L263.0031 23.753124L265.65936 22.659374L266.1125 22.659374L266.1125 33.003124Q266.1125 34.58125 266.175 34.925Q266.2531 35.26875 266.40936 35.409374Q266.58124 35.55 266.78436 35.55Q267.05 35.55 267.4875 35.378124L267.59686 35.721874L264.9406 36.83125L264.4875 36.83125L264.4875 35.55ZM264.4875 34.8625L264.4875 30.253124Q264.4406 29.58125 264.14374 29.034374Q263.84686 28.4875 263.3625 28.221874Q262.8781 27.940624 262.425 27.940624Q261.5656 27.940624 260.89374 28.70625Q260.0031 29.721874 260.0031 31.675Q260.0031 33.64375 260.8625 34.70625Q261.72186 35.753124 262.76874 35.753124Q263.65936 35.753124 264.4875 34.8625ZM273.2375 35.253124Q271.8625 36.33125 271.51874 36.4875Q270.9875 36.7375 270.39374 36.7375Q269.47186 36.7375 268.8625 36.1125Q268.26874 35.471874 268.26874 34.425Q268.26874 33.76875 268.55 33.3Q268.95624 32.628124 269.9406 32.05Q270.9406 31.45625 273.2375 30.628124L273.2375 30.26875Q273.2375 28.925 272.8156 28.440624Q272.39374 27.940624 271.58124 27.940624Q270.97186 27.940624 270.6125 28.26875Q270.2375 28.596874 270.2375 29.034374L270.2531 29.596874Q270.2531 30.05 270.01874 30.3Q269.8 30.534374 269.425 30.534374Q269.0656 30.534374 268.83124 30.284374Q268.6125 30.01875 268.6125 29.58125Q268.6125 28.753124 269.47186 28.05Q270.33124 27.346874 271.8781 27.346874Q273.0656 27.346874 273.83124 27.7375Q274.40936 28.05 274.675 28.690624Q274.8625 29.1125 274.8625 30.409374L274.8625 33.440624Q274.8625 34.721874 274.90936 35.01875Q274.95624 35.3 275.0656 35.39375Q275.175 35.4875 275.33124 35.4875Q275.4875 35.4875 275.59686 35.425Q275.8 35.3 276.39374 34.70625L276.39374 35.253124Q275.3 36.721874 274.3 36.721874Q273.8156 36.721874 273.53436 36.39375Q273.2531 36.065624 273.2375 35.253124ZM273.2375 34.628124L273.2375 31.221874Q271.76874 31.8 271.34686 32.05Q270.5656 32.471874 270.2375 32.940624Q269.90936 33.409374 269.90936 33.971874Q269.90936 34.675 270.3156 35.14375Q270.7375 35.596874 271.28436 35.596874Q272.03436 35.596874 273.2375 34.628124ZM283.4875 35.55Q282.84686 36.221874 282.22186 36.534374Q281.59686 36.83125 280.8625 36.83125Q279.40936 36.83125 278.3156 35.6125Q277.22186 34.378124 277.22186 32.440624Q277.22186 30.51875 278.425 28.925Q279.64374 27.33125 281.53436 27.33125Q282.72186 27.33125 283.4875 28.08125L283.4875 26.425Q283.4875 24.89375 283.40936 24.55Q283.34686 24.190624 283.1906 24.065624Q283.03436 23.940624 282.8 23.940624Q282.55 23.940624 282.1281 24.096874L282.0031 23.753124L284.65936 22.659374L285.1125 22.659374L285.1125 33.003124Q285.1125 34.58125 285.175 34.925Q285.2531 35.26875 285.40936 35.409374Q285.58124 35.55 285.78436 35.55Q286.05 35.55 286.4875 35.378124L286.59686 35.721874L283.9406 36.83125L283.4875 36.83125L283.4875 35.55ZM283.4875 34.8625L283.4875 30.253124Q283.4406 29.58125 283.14374 29.034374Q282.84686 28.4875 282.3625 28.221874Q281.8781 27.940624 281.425 27.940624Q280.5656 27.940624 279.89374 28.70625Q279.0031 29.721874 279.0031 31.675Q279.0031 33.64375 279.8625 34.70625Q280.72186 35.753124 281.76874 35.753124Q282.65936 35.753124 283.4875 34.8625ZM288.675 30.971874Q288.675 32.971874 289.64374 34.096874Q290.6281 35.2375 291.9406 35.2375Q292.8156 35.2375 293.45624 34.753124Q294.1125 34.26875 294.5656 33.096874L294.8625 33.284374Q294.65936 34.628124 293.675 35.7375Q292.6906 36.83125 291.20624 36.83125Q289.58124 36.83125 288.4406 35.58125Q287.3 34.315624 287.3 32.190624Q287.3 29.89375 288.47186 28.6125Q289.64374 27.33125 291.425 27.33125Q292.925 27.33125 293.89374 28.33125Q294.8625 29.315624 294.8625 30.971874L288.675 30.971874ZM288.675 30.409374L292.8156 30.409374Q292.76874 29.55 292.6125 29.190624Q292.3781 28.64375 291.89374 28.33125Q291.40936 28.01875 290.8781 28.01875Q290.0656 28.01875 289.425 28.659374Q288.78436 29.284374 288.675 30.409374ZM301.95624 27.346874L301.95624 30.39375L301.6281 30.39375Q301.26874 28.95625 300.675 28.440624Q300.09686 27.909374 299.20624 27.909374Q298.51874 27.909374 298.09686 28.284374Q297.675 28.64375 297.675 29.08125Q297.675 29.628124 297.9875 30.01875Q298.3 30.409374 299.22186 30.8625L300.64374 31.565624Q302.6281 32.51875 302.6281 34.1125Q302.6281 35.33125 301.70624 36.08125Q300.78436 36.83125 299.64374 36.83125Q298.8156 36.83125 297.76874 36.534374Q297.4406 36.425 297.2375 36.425Q297.01874 36.425 296.89374 36.690624L296.5656 36.690624L296.5656 33.4875L296.89374 33.4875Q297.15936 34.8625 297.925 35.565624Q298.70624 36.253124 299.65936 36.253124Q300.33124 36.253124 300.7531 35.8625Q301.1906 35.45625 301.1906 34.89375Q301.1906 34.221874 300.70624 33.76875Q300.2375 33.3 298.8156 32.596874Q297.40936 31.89375 296.97186 31.33125Q296.53436 30.784374 296.53436 29.925Q296.53436 28.83125 297.28436 28.096874Q298.03436 27.346874 299.2375 27.346874Q299.76874 27.346874 300.51874 27.565624Q301.01874 27.70625 301.1906 27.70625Q301.34686 27.70625 301.425 27.64375Q301.51874 27.58125 301.6281 27.346874L301.95624 27.346874ZM310.675 30.971874Q310.675 32.971874 311.64374 34.096874Q312.6281 35.2375 313.9406 35.2375Q314.8156 35.2375 315.45624 34.753124Q316.1125 34.26875 316.5656 33.096874L316.8625 33.284374Q316.65936 34.628124 315.675 35.7375Q314.6906 36.83125 313.20624 36.83125Q311.58124 36.83125 310.4406 35.58125Q309.3 34.315624 309.3 32.190624Q309.3 29.89375 310.47186 28.6125Q311.64374 27.33125 313.425 27.33125Q314.925 27.33125 315.89374 28.33125Q316.8625 29.315624 316.8625 30.971874L310.675 30.971874ZM310.675 30.409374L314.8156 30.409374Q314.76874 29.55 314.6125 29.190624Q314.3781 28.64375 313.89374 28.33125Q313.40936 28.01875 312.8781 28.01875Q312.0656 28.01875 311.425 28.659374Q310.78436 29.284374 310.675 30.409374ZM320.83124 29.2375Q321.8156 28.26875 321.9875 28.128124Q322.425 27.753124 322.925 27.55Q323.4406 27.346874 323.9406 27.346874Q324.78436 27.346874 325.3781 27.83125Q325.9875 28.315624 326.1906 29.2375Q327.20624 28.065624 327.89374 27.70625Q328.58124 27.346874 329.3156 27.346874Q330.03436 27.346874 330.58124 27.70625Q331.1281 28.065624 331.45624 28.909374Q331.675 29.471874 331.675 30.675L331.675 34.534374Q331.675 35.3625 331.8 35.675Q331.89374 35.89375 332.15936 36.05Q332.425 36.190624 333.01874 36.190624L333.01874 36.55L328.6125 36.55L328.6125 36.190624L328.78436 36.190624Q329.3625 36.190624 329.6906 35.971874Q329.90936 35.815624 330.01874 35.471874Q330.05 35.315624 330.05 34.534374L330.05 30.675Q330.05 29.58125 329.78436 29.14375Q329.40936 28.51875 328.5656 28.51875Q328.05 28.51875 327.51874 28.784374Q327.0031 29.034374 326.26874 29.7375L326.2375 29.846874L326.26874 30.253124L326.26874 34.534374Q326.26874 35.440624 326.3625 35.675Q326.47186 35.89375 326.7531 36.05Q327.03436 36.190624 327.72186 36.190624L327.72186 36.55L323.1906 36.55L323.1906 36.190624Q323.9406 36.190624 324.20624 36.01875Q324.4875 35.846874 324.59686 35.4875Q324.64374 35.33125 324.64374 34.534374L324.64374 30.675Q324.64374 29.58125 324.33124 29.1125Q323.89374 28.4875 323.1281 28.4875Q322.59686 28.4875 322.08124 28.76875Q321.26874 29.190624 320.83124 29.7375L320.83124 34.534374Q320.83124 35.409374 320.95624 35.675Q321.08124 35.940624 321.3156 36.065624Q321.55 36.190624 322.28436 36.190624L322.28436 36.55L317.8625 36.55L317.8625 36.190624Q318.47186 36.190624 318.72186 36.065624Q318.97186 35.940624 319.09686 35.659374Q319.22186 35.3625 319.22186 34.534374L319.22186 31.1125Q319.22186 29.628124 319.1281 29.20625Q319.0656 28.878124 318.90936 28.76875Q318.76874 28.64375 318.51874 28.64375Q318.2375 28.64375 317.8625 28.784374L317.72186 28.440624L320.40936 27.346874L320.83124 27.346874L320.83124 29.2375ZM339.8 27.346874L339.8 29.346874Q340.90936 27.346874 342.09686 27.346874Q342.6281 27.346874 342.97186 27.675Q343.33124 27.9875 343.33124 28.425Q343.33124 28.8 343.08124 29.065624Q342.83124 29.33125 342.47186 29.33125Q342.14374 29.33125 341.70624 29.003124Q341.28436 28.659374 341.08124 28.659374Q340.90936 28.659374 340.70624 28.846874Q340.26874 29.253124 339.8 30.175L339.8 34.45625Q339.8 35.20625 339.97186 35.58125Q340.1125 35.846874 340.425 36.01875Q340.7531 36.190624 341.3625 36.190624L341.3625 36.55L336.76874 36.55L336.76874 36.190624Q337.45624 36.190624 337.78436 35.9875Q338.03436 35.83125 338.1281 35.4875Q338.175 35.315624 338.175 34.534374L338.175 31.065624Q338.175 29.503124 338.1125 29.20625Q338.05 28.909374 337.8781 28.784374Q337.70624 28.64375 337.45624 28.64375Q337.15936 28.64375 336.76874 28.784374L336.675 28.440624L339.3781 27.346874L339.8 27.346874ZM345.675 30.971874Q345.675 32.971874 346.64374 34.096874Q347.6281 35.2375 348.9406 35.2375Q349.8156 35.2375 350.45624 34.753124Q351.1125 34.26875 351.5656 33.096874L351.8625 33.284374Q351.65936 34.628124 350.675 35.7375Q349.6906 36.83125 348.20624 36.83125Q346.58124 36.83125 345.4406 35.58125Q344.3 34.315624 344.3 32.190624Q344.3 29.89375 345.47186 28.6125Q346.64374 27.33125 348.425 27.33125Q349.925 27.33125 350.89374 28.33125Q351.8625 29.315624 351.8625 30.971874L345.675 30.971874ZM345.675 30.409374L349.8156 30.409374Q349.76874 29.55 349.6125 29.190624Q349.3781 28.64375 348.89374 28.33125Q348.40936 28.01875 347.8781 28.01875Q347.0656 28.01875 346.425 28.659374Q345.78436 29.284374 345.675 30.409374ZM358.2375 35.253124Q356.8625 36.33125 356.51874 36.4875Q355.9875 36.7375 355.39374 36.7375Q354.47186 36.7375 353.8625 36.1125Q353.26874 35.471874 353.26874 34.425Q353.26874 33.76875 353.55 33.3Q353.95624 32.628124 354.9406 32.05Q355.9406 31.45625 358.2375 30.628124L358.2375 30.26875Q358.2375 28.925 357.8156 28.440624Q357.39374 27.940624 356.58124 27.940624Q355.97186 27.940624 355.6125 28.26875Q355.2375 28.596874 355.2375 29.034374L355.2531 29.596874Q355.2531 30.05 355.01874 30.3Q354.8 30.534374 354.425 30.534374Q354.0656 30.534374 353.83124 30.284374Q353.6125 30.01875 353.6125 29.58125Q353.6125 28.753124 354.47186 28.05Q355.33124 27.346874 356.8781 27.346874Q358.0656 27.346874 358.83124 27.7375Q359.40936 28.05 359.675 28.690624Q359.8625 29.1125 359.8625 30.409374L359.8625 33.440624Q359.8625 34.721874 359.90936 35.01875Q359.95624 35.3 360.0656 35.39375Q360.175 35.4875 360.33124 35.4875Q360.4875 35.4875 360.59686 35.425Q360.8 35.3 361.39374 34.70625L361.39374 35.253124Q360.3 36.721874 359.3 36.721874Q358.8156 36.721874 358.53436 36.39375Q358.2531 36.065624 358.2375 35.253124ZM358.2375 34.628124L358.2375 31.221874Q356.76874 31.8 356.34686 32.05Q355.5656 32.471874 355.2375 32.940624Q354.90936 33.409374 354.90936 33.971874Q354.90936 34.675 355.3156 35.14375Q355.7375 35.596874 356.28436 35.596874Q357.03436 35.596874 358.2375 34.628124ZM365.2531 22.659374L365.2531 34.534374Q365.2531 35.3625 365.3781 35.64375Q365.5031 35.909374 365.7531 36.05Q366.0031 36.190624 366.6906 36.190624L366.6906 36.55L362.3156 36.55L362.3156 36.190624Q362.925 36.190624 363.14374 36.065624Q363.3781 35.940624 363.5031 35.659374Q363.6281 35.3625 363.6281 34.534374L363.6281 26.409374Q363.6281 24.89375 363.55 24.55Q363.4875 24.190624 363.33124 24.065624Q363.1906 23.940624 362.95624 23.940624Q362.70624 23.940624 362.3156 24.096874L362.14374 23.753124L364.8156 22.659374L365.2531 22.659374ZM370.45624 22.659374Q370.8625 22.659374 371.14374 22.95625Q371.4406 23.2375 371.4406 23.64375Q371.4406 24.065624 371.14374 24.3625Q370.8625 24.64375 370.45624 24.64375Q370.03436 24.64375 369.7375 24.3625Q369.45624 24.065624 369.45624 23.64375Q369.45624 23.2375 369.7375 22.95625Q370.03436 22.659374 370.45624 22.659374ZM371.26874 27.346874L371.26874 34.534374Q371.26874 35.3625 371.3781 35.64375Q371.5031 35.925 371.7375 36.065624Q371.9875 36.190624 372.6125 36.190624L372.6125 36.55L368.26874 36.55L368.26874 36.190624Q368.925 36.190624 369.14374 36.065624Q369.3781 35.940624 369.5031 35.659374Q369.64374 35.3625 369.64374 34.534374L369.64374 31.08125Q369.64374 29.628124 369.55 29.190624Q369.4875 28.878124 369.33124 28.76875Q369.1906 28.64375 368.9406 28.64375Q368.65936 28.64375 368.26874 28.784374L368.14374 28.440624L370.83124 27.346874L371.26874 27.346874ZM381.95624 33.8L381.84686 36.55L373.95624 36.55L373.95624 36.190624L379.89374 28.284374L376.95624 28.284374Q376.01874 28.284374 375.72186 28.409374Q375.425 28.534374 375.2375 28.878124Q374.97186 29.3625 374.9406 30.08125L374.55 30.08125L374.6125 27.596874L382.1125 27.596874L382.1125 27.971874L376.1125 35.89375L379.3781 35.89375Q380.39374 35.89375 380.7531 35.721874Q381.1281 35.55 381.34686 35.128124Q381.5031 34.815624 381.6125 33.8L381.95624 33.8ZM387.2375 35.253124Q385.8625 36.33125 385.51874 36.4875Q384.9875 36.7375 384.39374 36.7375Q383.47186 36.7375 382.8625 36.1125Q382.26874 35.471874 382.26874 34.425Q382.26874 33.76875 382.55 33.3Q382.95624 32.628124 383.9406 32.05Q384.9406 31.45625 387.2375 30.628124L387.2375 30.26875Q387.2375 28.925 386.8156 28.440624Q386.39374 27.940624 385.58124 27.940624Q384.97186 27.940624 384.6125 28.26875Q384.2375 28.596874 384.2375 29.034374L384.2531 29.596874Q384.2531 30.05 384.01874 30.3Q383.8 30.534374 383.425 30.534374Q383.0656 30.534374 382.83124 30.284374Q382.6125 30.01875 382.6125 29.58125Q382.6125 28.753124 383.47186 28.05Q384.33124 27.346874 385.8781 27.346874Q387.0656 27.346874 387.83124 27.7375Q388.40936 28.05 388.675 28.690624Q388.8625 29.1125 388.8625 30.409374L388.8625 33.440624Q388.8625 34.721874 388.90936 35.01875Q388.95624 35.3 389.0656 35.39375Q389.175 35.4875 389.33124 35.4875Q389.4875 35.4875 389.59686 35.425Q389.8 35.3 390.39374 34.70625L390.39374 35.253124Q389.3 36.721874 388.3 36.721874Q387.8156 36.721874 387.53436 36.39375Q387.2531 36.065624 387.2375 35.253124ZM387.2375 34.628124L387.2375 31.221874Q385.76874 31.8 385.34686 32.05Q384.5656 32.471874 384.2375 32.940624Q383.90936 33.409374 383.90936 33.971874Q383.90936 34.675 384.3156 35.14375Q384.7375 35.596874 385.28436 35.596874Q386.03436 35.596874 387.2375 34.628124ZM393.8 27.346874L393.8 29.346874Q394.90936 27.346874 396.09686 27.346874Q396.6281 27.346874 396.97186 27.675Q397.33124 27.9875 397.33124 28.425Q397.33124 28.8 397.08124 29.065624Q396.83124 29.33125 396.47186 29.33125Q396.14374 29.33125 395.70624 29.003124Q395.28436 28.659374 395.08124 28.659374Q394.90936 28.659374 394.70624 28.846874Q394.26874 29.253124 393.8 30.175L393.8 34.45625Q393.8 35.20625 393.97186 35.58125Q394.1125 35.846874 394.425 36.01875Q394.7531 36.190624 395.3625 36.190624L395.3625 36.55L390.76874 36.55L390.76874 36.190624Q391.45624 36.190624 391.78436 35.9875Q392.03436 35.83125 392.1281 35.4875Q392.175 35.315624 392.175 34.534374L392.175 31.065624Q392.175 29.503124 392.1125 29.20625Q392.05 28.909374 391.8781 28.784374Q391.70624 28.64375 391.45624 28.64375Q391.15936 28.64375 390.76874 28.784374L390.675 28.440624L393.3781 27.346874L393.8 27.346874ZM407.55 27.346874Q409.58124 27.346874 410.8156 28.878124Q411.8625 30.20625 411.8625 31.909374Q411.8625 33.1125 411.28436 34.346874Q410.70624 35.565624 409.6906 36.20625Q408.6906 36.83125 407.4406 36.83125Q405.425 36.83125 404.2375 35.20625Q403.22186 33.846874 403.22186 32.159374Q403.22186 30.940624 403.83124 29.721874Q404.4406 28.503124 405.4406 27.925Q406.4406 27.346874 407.55 27.346874ZM407.2531 27.971874Q406.7375 27.971874 406.20624 28.284374Q405.6906 28.596874 405.3625 29.3625Q405.03436 30.128124 405.03436 31.346874Q405.03436 33.3 405.8156 34.721874Q406.59686 36.128124 407.8625 36.128124Q408.8156 36.128124 409.425 35.346874Q410.03436 34.565624 410.03436 32.659374Q410.03436 30.284374 409.01874 28.909374Q408.3156 27.971874 407.2531 27.971874ZM423.2375 35.253124Q421.8625 36.33125 421.51874 36.4875Q420.9875 36.7375 420.39374 36.7375Q419.47186 36.7375 418.8625 36.1125Q418.26874 35.471874 418.26874 34.425Q418.26874 33.76875 418.55 33.3Q418.95624 32.628124 419.9406 32.05Q420.9406 31.45625 423.2375 30.628124L423.2375 30.26875Q423.2375 28.925 422.8156 28.440624Q422.39374 27.940624 421.58124 27.940624Q420.97186 27.940624 420.6125 28.26875Q420.2375 28.596874 420.2375 29.034374L420.2531 29.596874Q420.2531 30.05 420.01874 30.3Q419.8 30.534374 419.425 30.534374Q419.0656 30.534374 418.83124 30.284374Q418.6125 30.01875 418.6125 29.58125Q418.6125 28.753124 419.47186 28.05Q420.33124 27.346874 421.8781 27.346874Q423.0656 27.346874 423.83124 27.7375Q424.40936 28.05 424.675 28.690624Q424.8625 29.1125 424.8625 30.409374L424.8625 33.440624Q424.8625 34.721874 424.90936 35.01875Q424.95624 35.3 425.0656 35.39375Q425.175 35.4875 425.33124 35.4875Q425.4875 35.4875 425.59686 35.425Q425.8 35.3 426.39374 34.70625L426.39374 35.253124Q425.3 36.721874 424.3 36.721874Q423.8156 36.721874 423.53436 36.39375Q423.2531 36.065624 423.2375 35.253124ZM423.2375 34.628124L423.2375 31.221874Q421.76874 31.8 421.34686 32.05Q420.5656 32.471874 420.2375 32.940624Q419.90936 33.409374 419.90936 33.971874Q419.90936 34.675 420.3156 35.14375Q420.7375 35.596874 421.28436 35.596874Q422.03436 35.596874 423.2375 34.628124ZM430.2531 22.659374L430.2531 34.534374Q430.2531 35.3625 430.3781 35.64375Q430.5031 35.909374 430.7531 36.05Q431.0031 36.190624 431.6906 36.190624L431.6906 36.55L427.3156 36.55L427.3156 36.190624Q427.925 36.190624 428.14374 36.065624Q428.3781 35.940624 428.5031 35.659374Q428.6281 35.3625 428.6281 34.534374L428.6281 26.409374Q428.6281 24.89375 428.55 24.55Q428.4875 24.190624 428.33124 24.065624Q428.1906 23.940624 427.95624 23.940624Q427.70624 23.940624 427.3156 24.096874L427.14374 23.753124L429.8156 22.659374L430.2531 22.659374ZM435.45624 22.659374Q435.8625 22.659374 436.14374 22.95625Q436.4406 23.2375 436.4406 23.64375Q436.4406 24.065624 436.14374 24.3625Q435.8625 24.64375 435.45624 24.64375Q435.03436 24.64375 434.7375 24.3625Q434.45624 24.065624 434.45624 23.64375Q434.45624 23.2375 434.7375 22.95625Q435.03436 22.659374 435.45624 22.659374ZM436.26874 27.346874L436.26874 34.534374Q436.26874 35.3625 436.3781 35.64375Q436.5031 35.925 436.7375 36.065624Q436.9875 36.190624 437.6125 36.190624L437.6125 36.55L433.26874 36.55L433.26874 36.190624Q433.925 36.190624 434.14374 36.065624Q434.3781 35.940624 434.5031 35.659374Q434.64374 35.3625 434.64374 34.534374L434.64374 31.08125Q434.64374 29.628124 434.55 29.190624Q434.4875 28.878124 434.33124 28.76875Q434.1906 28.64375 433.9406 28.64375Q433.65936 28.64375 433.26874 28.784374L433.14374 28.440624L435.83124 27.346874L436.26874 27.346874ZM441.78436 29.2375Q443.3625 27.346874 444.78436 27.346874Q445.51874 27.346874 446.03436 27.70625Q446.5656 28.065624 446.8781 28.909374Q447.09686 29.503124 447.09686 30.70625L447.09686 34.534374Q447.09686 35.378124 447.2375 35.675Q447.34686 35.925 447.58124 36.065624Q447.8156 36.190624 448.45624 36.190624L448.45624 36.55L444.03436 36.55L444.03436 36.190624L444.22186 36.190624Q444.84686 36.190624 445.09686 36.003124Q445.34686 35.815624 445.4406 35.440624Q445.4875 35.3 445.4875 34.534374L445.4875 30.8625Q445.4875 29.64375 445.15936 29.096874Q444.84686 28.534374 444.09686 28.534374Q442.9406 28.534374 441.78436 29.815624L441.78436 34.534374Q441.78436 35.440624 441.89374 35.64375Q442.03436 35.940624 442.26874 36.065624Q442.5031 36.190624 443.2375 36.190624L443.2375 36.55L438.8156 36.55L438.8156 36.190624L439.0031 36.190624Q439.6906 36.190624 439.925 35.846874Q440.175 35.503124 440.175 34.534374L440.175 31.20625Q440.175 29.596874 440.09686 29.253124Q440.01874 28.89375 439.8625 28.76875Q439.72186 28.64375 439.47186 28.64375Q439.1906 28.64375 438.8156 28.784374L438.675 28.440624L441.3625 27.346874L441.78436 27.346874L441.78436 29.2375ZM450.8 22.659374L450.8 29.20625Q451.89374 28.01875 452.51874 27.690624Q453.15936 27.346874 453.78436 27.346874Q454.55 27.346874 455.09686 27.76875Q455.64374 28.175 455.90936 29.08125Q456.09686 29.70625 456.09686 31.3625L456.09686 34.534374Q456.09686 35.378124 456.2375 35.690624Q456.33124 35.925 456.5656 36.065624Q456.8 36.190624 457.425 36.190624L457.425 36.55L453.03436 36.55L453.03436 36.190624L453.2375 36.190624Q453.8625 36.190624 454.09686 36.003124Q454.34686 35.815624 454.4406 35.440624Q454.47186 35.284374 454.47186 34.534374L454.47186 31.3625Q454.47186 29.89375 454.3156 29.440624Q454.175 28.9875 453.83124 28.753124Q453.5031 28.51875 453.03436 28.51875Q452.5656 28.51875 452.03436 28.784374Q451.51874 29.034374 450.8 29.8L450.8 34.534374Q450.8 35.440624 450.89374 35.675Q451.0031 35.89375 451.28436 36.05Q451.5656 36.190624 452.2531 36.190624L452.2531 36.55L447.8156 36.55L447.8156 36.190624Q448.40936 36.190624 448.7531 36.01875Q448.9406 35.909374 449.05 35.64375Q449.175 35.3625 449.175 34.534374L449.175 26.425Q449.175 24.89375 449.09686 24.55Q449.03436 24.190624 448.8781 24.065624Q448.7375 23.940624 448.47186 23.940624Q448.26874 23.940624 447.8156 24.096874L447.675 23.753124L450.34686 22.659374L450.8 22.659374ZM462.2375 35.253124Q460.8625 36.33125 460.51874 36.4875Q459.9875 36.7375 459.39374 36.7375Q458.47186 36.7375 457.8625 36.1125Q457.26874 35.471874 457.26874 34.425Q457.26874 33.76875 457.55 33.3Q457.95624 32.628124 458.9406 32.05Q459.9406 31.45625 462.2375 30.628124L462.2375 30.26875Q462.2375 28.925 461.8156 28.440624Q461.39374 27.940624 460.58124 27.940624Q459.97186 27.940624 459.6125 28.26875Q459.2375 28.596874 459.2375 29.034374L459.2531 29.596874Q459.2531 30.05 459.01874 30.3Q458.8 30.534374 458.425 30.534374Q458.0656 30.534374 457.83124 30.284374Q457.6125 30.01875 457.6125 29.58125Q457.6125 28.753124 458.47186 28.05Q459.33124 27.346874 460.8781 27.346874Q462.0656 27.346874 462.83124 27.7375Q463.40936 28.05 463.675 28.690624Q463.8625 29.1125 463.8625 30.409374L463.8625 33.440624Q463.8625 34.721874 463.90936 35.01875Q463.95624 35.3 464.0656 35.39375Q464.175 35.4875 464.33124 35.4875Q464.4875 35.4875 464.59686 35.425Q464.8 35.3 465.39374 34.70625L465.39374 35.253124Q464.3 36.721874 463.3 36.721874Q462.8156 36.721874 462.53436 36.39375Q462.2531 36.065624 462.2375 35.253124ZM462.2375 34.628124L462.2375 31.221874Q460.76874 31.8 460.34686 32.05Q459.5656 32.471874 459.2375 32.940624Q458.90936 33.409374 458.90936 33.971874Q458.90936 34.675 459.3156 35.14375Q459.7375 35.596874 460.28436 35.596874Q461.03436 35.596874 462.2375 34.628124ZM468.83124 29.2375Q469.8156 28.26875 469.9875 28.128124Q470.425 27.753124 470.925 27.55Q471.4406 27.346874 471.9406 27.346874Q472.78436 27.346874 473.3781 27.83125Q473.9875 28.315624 474.1906 29.2375Q475.20624 28.065624 475.89374 27.70625Q476.58124 27.346874 477.3156 27.346874Q478.03436 27.346874 478.58124 27.70625Q479.1281 28.065624 479.45624 28.909374Q479.675 29.471874 479.675 30.675L479.675 34.534374Q479.675 35.3625 479.8 35.675Q479.89374 35.89375 480.15936 36.05Q480.425 36.190624 481.01874 36.190624L481.01874 36.55L476.6125 36.55L476.6125 36.190624L476.78436 36.190624Q477.3625 36.190624 477.6906 35.971874Q477.90936 35.815624 478.01874 35.471874Q478.05 35.315624 478.05 34.534374L478.05 30.675Q478.05 29.58125 477.78436 29.14375Q477.40936 28.51875 476.5656 28.51875Q476.05 28.51875 475.51874 28.784374Q475.0031 29.034374 474.26874 29.7375L474.2375 29.846874L474.26874 30.253124L474.26874 34.534374Q474.26874 35.440624 474.3625 35.675Q474.47186 35.89375 474.7531 36.05Q475.03436 36.190624 475.72186 36.190624L475.72186 36.55L471.1906 36.55L471.1906 36.190624Q471.9406 36.190624 472.20624 36.01875Q472.4875 35.846874 472.59686 35.4875Q472.64374 35.33125 472.64374 34.534374L472.64374 30.675Q472.64374 29.58125 472.33124 29.1125Q471.89374 28.4875 471.1281 28.4875Q470.59686 28.4875 470.08124 28.76875Q469.26874 29.190624 468.83124 29.7375L468.83124 34.534374Q468.83124 35.409374 468.95624 35.675Q469.08124 35.940624 469.3156 36.065624Q469.55 36.190624 470.28436 36.190624L470.28436 36.55L465.8625 36.55L465.8625 36.190624Q466.47186 36.190624 466.72186 36.065624Q466.97186 35.940624 467.09686 35.659374Q467.22186 35.3625 467.22186 34.534374L467.22186 31.1125Q467.22186 29.628124 467.1281 29.20625Q467.0656 28.878124 466.90936 28.76875Q466.76874 28.64375 466.51874 28.64375Q466.2375 28.64375 465.8625 28.784374L465.72186 28.440624L468.40936 27.346874L468.83124 27.346874L468.83124 29.2375ZM481.675 30.971874Q481.675 32.971874 482.64374 34.096874Q483.6281 35.2375 484.9406 35.2375Q485.8156 35.2375 486.45624 34.753124Q487.1125 34.26875 487.5656 33.096874L487.8625 33.284374Q487.65936 34.628124 486.675 35.7375Q485.6906 36.83125 484.20624 36.83125Q482.58124 36.83125 481.4406 35.58125Q480.3 34.315624 480.3 32.190624Q480.3 29.89375 481.47186 28.6125Q482.64374 27.33125 484.425 27.33125Q485.925 27.33125 486.89374 28.33125Q487.8625 29.315624 487.8625 30.971874L481.675 30.971874ZM481.675 30.409374L485.8156 30.409374Q485.76874 29.55 485.6125 29.190624Q485.3781 28.64375 484.89374 28.33125Q484.40936 28.01875 483.8781 28.01875Q483.0656 28.01875 482.425 28.659374Q481.78436 29.284374 481.675 30.409374ZM491.78436 29.2375Q493.3625 27.346874 494.78436 27.346874Q495.51874 27.346874 496.03436 27.70625Q496.5656 28.065624 496.8781 28.909374Q497.09686 29.503124 497.09686 30.70625L497.09686 34.534374Q497.09686 35.378124 497.2375 35.675Q497.34686 35.925 497.58124 36.065624Q497.8156 36.190624 498.45624 36.190624L498.45624 36.55L494.03436 36.55L494.03436 36.190624L494.22186 36.190624Q494.84686 36.190624 495.09686 36.003124Q495.34686 35.815624 495.4406 35.440624Q495.4875 35.3 495.4875 34.534374L495.4875 30.8625Q495.4875 29.64375 495.15936 29.096874Q494.84686 28.534374 494.09686 28.534374Q492.9406 28.534374 491.78436 29.815624L491.78436 34.534374Q491.78436 35.440624 491.89374 35.64375Q492.03436 35.940624 492.26874 36.065624Q492.5031 36.190624 493.2375 36.190624L493.2375 36.55L488.8156 36.55L488.8156 36.190624L489.0031 36.190624Q489.6906 36.190624 489.925 35.846874Q490.175 35.503124 490.175 34.534374L490.175 31.20625Q490.175 29.596874 490.09686 29.253124Q490.01874 28.89375 489.8625 28.76875Q489.72186 28.64375 489.47186 28.64375Q489.1906 28.64375 488.8156 28.784374L488.675 28.440624L491.3625 27.346874L491.78436 27.346874L491.78436 29.2375ZM500.76874 24.659374L500.76874 27.596874L502.8625 27.596874L502.8625 28.284374L500.76874 28.284374L500.76874 34.08125Q500.76874 34.95625 501.01874 35.26875Q501.26874 35.565624 501.65936 35.565624Q501.9875 35.565624 502.28436 35.3625Q502.59686 35.159374 502.7531 34.76875L503.14374 34.76875Q502.8 35.721874 502.175 36.20625Q501.55 36.690624 500.8781 36.690624Q500.425 36.690624 499.9875 36.440624Q499.5656 36.190624 499.3625 35.7375Q499.15936 35.26875 499.15936 34.3L499.15936 28.284374L497.7531 28.284374L497.7531 27.971874Q498.28436 27.753124 498.84686 27.2375Q499.40936 26.721874 499.84686 26.01875Q500.0656 25.64375 500.47186 24.659374L500.76874 24.659374ZM507.55 27.346874Q509.58124 27.346874 510.8156 28.878124Q511.8625 30.20625 511.8625 31.909374Q511.8625 33.1125 511.28436 34.346874Q510.70624 35.565624 509.6906 36.20625Q508.6906 36.83125 507.4406 36.83125Q505.425 36.83125 504.2375 35.20625Q503.22186 33.846874 503.22186 32.159374Q503.22186 30.940624 503.83124 29.721874Q504.4406 28.503124 505.4406 27.925Q506.4406 27.346874 507.55 27.346874ZM507.2531 27.971874Q506.7375 27.971874 506.20624 28.284374Q505.6906 28.596874 505.3625 29.3625Q505.03436 30.128124 505.03436 31.346874Q505.03436 33.3 505.8156 34.721874Q506.59686 36.128124 507.8625 36.128124Q508.8156 36.128124 509.425 35.346874Q510.03436 34.565624 510.03436 32.659374Q510.03436 30.284374 509.01874 28.909374Q508.3156 27.971874 507.2531 27.971874ZM517.53436 28.4875L520.28436 27.378124L520.65936 27.378124L520.65936 29.471874Q521.34686 28.284374 522.05 27.815624Q522.7531 27.346874 523.51874 27.346874Q524.8625 27.346874 525.76874 28.39375Q526.8625 29.690624 526.8625 31.753124Q526.8625 34.065624 525.53436 35.58125Q524.4406 36.83125 522.78436 36.83125Q522.0656 36.83125 521.53436 36.6125Q521.14374 36.471874 520.65936 36.034374L520.65936 38.753124Q520.65936 39.675 520.76874 39.925Q520.8781 40.175 521.15936 40.315624Q521.4406 40.471874 522.175 40.471874L522.175 40.83125L517.4875 40.83125L517.4875 40.471874L517.72186 40.471874Q518.26874 40.471874 518.64374 40.26875Q518.83124 40.159374 518.925 39.909374Q519.03436 39.675 519.03436 38.70625L519.03436 30.2375Q519.03436 29.378124 518.95624 29.14375Q518.8781 28.909374 518.70624 28.8Q518.53436 28.675 518.2375 28.675Q518.0031 28.675 517.64374 28.8L517.53436 28.4875ZM520.65936 30.05L520.65936 33.378124Q520.65936 34.471874 520.7375 34.815624Q520.8781 35.378124 521.40936 35.815624Q521.9406 36.2375 522.7531 36.2375Q523.7375 36.2375 524.33124 35.471874Q525.1281 34.471874 525.1281 32.675Q525.1281 30.628124 524.2375 29.51875Q523.6125 28.753124 522.7531 28.753124Q522.28436 28.753124 521.8156 28.9875Q521.47186 29.159374 520.65936 30.05ZM532.55 27.346874Q534.58124 27.346874 535.8156 28.878124Q536.8625 30.20625 536.8625 31.909374Q536.8625 33.1125 536.28436 34.346874Q535.70624 35.565624 534.6906 36.20625Q533.6906 36.83125 532.4406 36.83125Q530.425 36.83125 529.2375 35.20625Q528.22186 33.846874 528.22186 32.159374Q528.22186 30.940624 528.83124 29.721874Q529.4406 28.503124 530.4406 27.925Q531.4406 27.346874 532.55 27.346874ZM532.2531 27.971874Q531.7375 27.971874 531.20624 28.284374Q530.6906 28.596874 530.3625 29.3625Q530.03436 30.128124 530.03436 31.346874Q530.03436 33.3 530.8156 34.721874Q531.59686 36.128124 532.8625 36.128124Q533.8156 36.128124 534.425 35.346874Q535.03436 34.565624 535.03436 32.659374Q535.03436 30.284374 534.01874 28.909374Q533.3156 27.971874 532.2531 27.971874ZM541.2531 22.659374L541.2531 34.534374Q541.2531 35.3625 541.3781 35.64375Q541.5031 35.909374 541.7531 36.05Q542.0031 36.190624 542.6906 36.190624L542.6906 36.55L538.3156 36.55L538.3156 36.190624Q538.925 36.190624 539.14374 36.065624Q539.3781 35.940624 539.5031 35.659374Q539.6281 35.3625 539.6281 34.534374L539.6281 26.409374Q539.6281 24.89375 539.55 24.55Q539.4875 24.190624 539.33124 24.065624Q539.1906 23.940624 538.95624 23.940624Q538.70624 23.940624 538.3156 24.096874L538.14374 23.753124L540.8156 22.659374L541.2531 22.659374ZM549.2375 35.253124Q547.8625 36.33125 547.51874 36.4875Q546.9875 36.7375 546.39374 36.7375Q545.47186 36.7375 544.8625 36.1125Q544.26874 35.471874 544.26874 34.425Q544.26874 33.76875 544.55 33.3Q544.95624 32.628124 545.9406 32.05Q546.9406 31.45625 549.2375 30.628124L549.2375 30.26875Q549.2375 28.925 548.8156 28.440624Q548.39374 27.940624 547.58124 27.940624Q546.97186 27.940624 546.6125 28.26875Q546.2375 28.596874 546.2375 29.034374L546.2531 29.596874Q546.2531 30.05 546.01874 30.3Q545.8 30.534374 545.425 30.534374Q545.0656 30.534374 544.83124 30.284374Q544.6125 30.01875 544.6125 29.58125Q544.6125 28.753124 545.47186 28.05Q546.33124 27.346874 547.8781 27.346874Q549.0656 27.346874 549.83124 27.7375Q550.40936 28.05 550.675 28.690624Q550.8625 29.1125 550.8625 30.409374L550.8625 33.440624Q550.8625 34.721874 550.90936 35.01875Q550.95624 35.3 551.0656 35.39375Q551.175 35.4875 551.33124 35.4875Q551.4875 35.4875 551.59686 35.425Q551.8 35.3 552.39374 34.70625L552.39374 35.253124Q551.3 36.721874 550.3 36.721874Q549.8156 36.721874 549.53436 36.39375Q549.2531 36.065624 549.2375 35.253124ZM549.2375 34.628124L549.2375 31.221874Q547.76874 31.8 547.34686 32.05Q546.5656 32.471874 546.2375 32.940624Q545.90936 33.409374 545.90936 33.971874Q545.90936 34.675 546.3156 35.14375Q546.7375 35.596874 547.28436 35.596874Q548.03436 35.596874 549.2375 34.628124ZM555.8 27.346874L555.8 29.346874Q556.90936 27.346874 558.09686 27.346874Q558.6281 27.346874 558.97186 27.675Q559.33124 27.9875 559.33124 28.425Q559.33124 28.8 559.08124 29.065624Q558.83124 29.33125 558.47186 29.33125Q558.14374 29.33125 557.70624 29.003124Q557.28436 28.659374 557.08124 28.659374Q556.90936 28.659374 556.70624 28.846874Q556.26874 29.253124 555.8 30.175L555.8 34.45625Q555.8 35.20625 555.97186 35.58125Q556.1125 35.846874 556.425 36.01875Q556.7531 36.190624 557.3625 36.190624L557.3625 36.55L552.76874 36.55L552.76874 36.190624Q553.45624 36.190624 553.78436 35.9875Q554.03436 35.83125 554.1281 35.4875Q554.175 35.315624 554.175 34.534374L554.175 31.065624Q554.175 29.503124 554.1125 29.20625Q554.05 28.909374 553.8781 28.784374Q553.70624 28.64375 553.45624 28.64375Q553.15936 28.64375 552.76874 28.784374L552.675 28.440624L555.3781 27.346874L555.8 27.346874Z" fill-rule="nonzero"/><path fill="#757575" d="M25.4875 59.55Q24.846874 60.221874 24.221874 60.534374Q23.596874 60.83125 22.8625 60.83125Q21.409374 60.83125 20.315624 59.6125Q19.221874 58.378124 19.221874 56.440624Q19.221874 54.51875 20.425 52.925Q21.64375 51.33125 23.534374 51.33125Q24.721874 51.33125 25.4875 52.08125L25.4875 50.425Q25.4875 48.89375 25.409374 48.55Q25.346874 48.190624 25.190624 48.065624Q25.034374 47.940624 24.8 47.940624Q24.55 47.940624 24.128124 48.096874L24.003124 47.753124L26.659374 46.659374L27.1125 46.659374L27.1125 57.003124Q27.1125 58.58125 27.175 58.925Q27.253124 59.26875 27.409374 59.409374Q27.58125 59.55 27.784374 59.55Q28.05 59.55 28.4875 59.378124L28.596874 59.721874L25.940624 60.83125L25.4875 60.83125L25.4875 59.55ZM25.4875 58.8625L25.4875 54.253124Q25.440624 53.58125 25.14375 53.034374Q24.846874 52.4875 24.3625 52.221874Q23.878124 51.940624 23.425 51.940624Q22.565624 51.940624 21.89375 52.70625Q21.003124 53.721874 21.003124 55.675Q21.003124 57.64375 21.8625 58.70625Q22.721874 59.753124 23.76875 59.753124Q24.659374 59.753124 25.4875 58.8625ZM34.2375 59.253124Q32.8625 60.33125 32.51875 60.4875Q31.9875 60.7375 31.39375 60.7375Q30.471874 60.7375 29.8625 60.1125Q29.26875 59.471874 29.26875 58.425Q29.26875 57.76875 29.55 57.3Q29.95625 56.628124 30.940624 56.05Q31.940624 55.45625 34.2375 54.628124L34.2375 54.26875Q34.2375 52.925 33.815624 52.440624Q33.39375 51.940624 32.58125 51.940624Q31.971874 51.940624 31.6125 52.26875Q31.2375 52.596874 31.2375 53.034374L31.253124 53.596874Q31.253124 54.05 31.01875 54.3Q30.8 54.534374 30.425 54.534374Q30.065624 54.534374 29.83125 54.284374Q29.6125 54.01875 29.6125 53.58125Q29.6125 52.753124 30.471874 52.05Q31.33125 51.346874 32.878124 51.346874Q34.065624 51.346874 34.83125 51.7375Q35.409374 52.05 35.675 52.690624Q35.8625 53.1125 35.8625 54.409374L35.8625 57.440624Q35.8625 58.721874 35.909374 59.01875Q35.95625 59.3 36.065624 59.39375Q36.175 59.4875 36.33125 59.4875Q36.4875 59.4875 36.596874 59.425Q36.8 59.3 37.39375 58.70625L37.39375 59.253124Q36.3 60.721874 35.3 60.721874Q34.815624 60.721874 34.534374 60.39375Q34.253124 60.065624 34.2375 59.253124ZM34.2375 58.628124L34.2375 55.221874Q32.76875 55.8 32.346874 56.05Q31.565624 56.471874 31.2375 56.940624Q30.909374 57.409374 30.909374 57.971874Q30.909374 58.675 31.315624 59.14375Q31.7375 59.596874 32.284374 59.596874Q33.034374 59.596874 34.2375 58.628124ZM42.534374 52.4875L45.284374 51.378124L45.659374 51.378124L45.659374 53.471874Q46.346874 52.284374 47.05 51.815624Q47.753124 51.346874 48.51875 51.346874Q49.8625 51.346874 50.76875 52.39375Q51.8625 53.690624 51.8625 55.753124Q51.8625 58.065624 50.534374 59.58125Q49.440624 60.83125 47.784374 60.83125Q47.065624 60.83125 46.534374 60.6125Q46.14375 60.471874 45.659374 60.034374L45.659374 62.753124Q45.659374 63.675 45.76875 63.925Q45.878124 64.175 46.159374 64.31563Q46.440624 64.47188 47.175 64.47188L47.175 64.83125L42.4875 64.83125L42.4875 64.47188L42.721874 64.47188Q43.26875 64.47188 43.64375 64.26875Q43.83125 64.15938 43.925 63.909374Q44.034374 63.675 44.034374 62.70625L44.034374 54.2375Q44.034374 53.378124 43.95625 53.14375Q43.878124 52.909374 43.70625 52.8Q43.534374 52.675 43.2375 52.675Q43.003124 52.675 42.64375 52.8L42.534374 52.4875ZM45.659374 54.05L45.659374 57.378124Q45.659374 58.471874 45.7375 58.815624Q45.878124 59.378124 46.409374 59.815624Q46.940624 60.2375 47.753124 60.2375Q48.7375 60.2375 49.33125 59.471874Q50.128124 58.471874 50.128124 56.675Q50.128124 54.628124 49.2375 53.51875Q48.6125 52.753124 47.753124 52.753124Q47.284374 52.753124 46.815624 52.9875Q46.471874 53.159374 45.659374 54.05ZM56.253124 46.659374L56.253124 58.534374Q56.253124 59.3625 56.378124 59.64375Q56.503124 59.909374 56.753124 60.05Q57.003124 60.190624 57.690624 60.190624L57.690624 60.55L53.315624 60.55L53.315624 60.190624Q53.925 60.190624 54.14375 60.065624Q54.378124 59.940624 54.503124 59.659374Q54.628124 59.3625 54.628124 58.534374L54.628124 50.409374Q54.628124 48.89375 54.55 48.55Q54.4875 48.190624 54.33125 48.065624Q54.190624 47.940624 53.95625 47.940624Q53.70625 47.940624 53.315624 48.096874L53.14375 47.753124L55.815624 46.659374L56.253124 46.659374ZM64.2375 59.253124Q62.8625 60.33125 62.51875 60.4875Q61.9875 60.7375 61.39375 60.7375Q60.471874 60.7375 59.8625 60.1125Q59.26875 59.471874 59.26875 58.425Q59.26875 57.76875 59.55 57.3Q59.95625 56.628124 60.940624 56.05Q61.940624 55.45625 64.2375 54.628124L64.2375 54.26875Q64.2375 52.925 63.815624 52.440624Q63.39375 51.940624 62.58125 51.940624Q61.971874 51.940624 61.6125 52.26875Q61.2375 52.596874 61.2375 53.034374L61.253124 53.596874Q61.253124 54.05 61.01875 54.3Q60.8 54.534374 60.425 54.534374Q60.065624 54.534374 59.83125 54.284374Q59.6125 54.01875 59.6125 53.58125Q59.6125 52.753124 60.471874 52.05Q61.33125 51.346874 62.878124 51.346874Q64.06563 51.346874 64.83125 51.7375Q65.40938 52.05 65.675 52.690624Q65.8625 53.1125 65.8625 54.409374L65.8625 57.440624Q65.8625 58.721874 65.90938 59.01875Q65.95625 59.3 66.06563 59.39375Q66.175 59.4875 66.33125 59.4875Q66.4875 59.4875 66.59688 59.425Q66.8 59.3 67.39375 58.70625L67.39375 59.253124Q66.3 60.721874 65.3 60.721874Q64.81563 60.721874 64.53438 60.39375Q64.25313 60.065624 64.2375 59.253124ZM64.2375 58.628124L64.2375 55.221874Q62.76875 55.8 62.346874 56.05Q61.565624 56.471874 61.2375 56.940624Q60.909374 57.409374 60.909374 57.971874Q60.909374 58.675 61.315624 59.14375Q61.7375 59.596874 62.284374 59.596874Q63.034374 59.596874 64.2375 58.628124ZM70.76875 48.659374L70.76875 51.596874L72.8625 51.596874L72.8625 52.284374L70.76875 52.284374L70.76875 58.08125Q70.76875 58.95625 71.01875 59.26875Q71.26875 59.565624 71.65938 59.565624Q71.9875 59.565624 72.28438 59.3625Q72.59688 59.159374 72.75313 58.76875L73.14375 58.76875Q72.8 59.721874 72.175 60.20625Q71.55 60.690624 70.87813 60.690624Q70.425 60.690624 69.9875 60.440624Q69.56563 60.190624 69.3625 59.7375Q69.15938 59.26875 69.15938 58.3L69.15938 52.284374L67.75313 52.284374L67.75313 51.971874Q68.28438 51.753124 68.84688 51.2375Q69.40938 50.721874 69.84688 50.01875Q70.06563 49.64375 70.47188 48.659374L70.76875 48.659374ZM78.2375 59.253124Q76.8625 60.33125 76.51875 60.4875Q75.9875 60.7375 75.39375 60.7375Q74.47188 60.7375 73.8625 60.1125Q73.26875 59.471874 73.26875 58.425Q73.26875 57.76875 73.55 57.3Q73.95625 56.628124 74.94063 56.05Q75.94063 55.45625 78.2375 54.628124L78.2375 54.26875Q78.2375 52.925 77.81563 52.440624Q77.39375 51.940624 76.58125 51.940624Q75.97188 51.940624 75.6125 52.26875Q75.2375 52.596874 75.2375 53.034374L75.25313 53.596874Q75.25313 54.05 75.01875 54.3Q74.8 54.534374 74.425 54.534374Q74.06563 54.534374 73.83125 54.284374Q73.6125 54.01875 73.6125 53.58125Q73.6125 52.753124 74.47188 52.05Q75.33125 51.346874 76.87813 51.346874Q78.06563 51.346874 78.83125 51.7375Q79.40938 52.05 79.675 52.690624Q79.8625 53.1125 79.8625 54.409374L79.8625 57.440624Q79.8625 58.721874 79.90938 59.01875Q79.95625 59.3 80.06563 59.39375Q80.175 59.4875 80.33125 59.4875Q80.4875 59.4875 80.59688 59.425Q80.8 59.3 81.39375 58.70625L81.39375 59.253124Q80.3 60.721874 79.3 60.721874Q78.81563 60.721874 78.53438 60.39375Q78.25313 60.065624 78.2375 59.253124ZM78.2375 58.628124L78.2375 55.221874Q76.76875 55.8 76.34688 56.05Q75.56563 56.471874 75.2375 56.940624Q74.90938 57.409374 74.90938 57.971874Q74.90938 58.675 75.31563 59.14375Q75.7375 59.596874 76.28438 59.596874Q77.03438 59.596874 78.2375 58.628124ZM85.675 52.3L85.675 58.190624Q85.675 59.440624 85.94063 59.76875Q86.3 60.190624 86.90938 60.190624L87.72188 60.190624L87.72188 60.55L82.37813 60.55L82.37813 60.190624L82.78438 60.190624Q83.175 60.190624 83.4875 60.003124Q83.81563 59.8 83.94063 59.471874Q84.06563 59.14375 84.06563 58.190624L84.06563 52.3L82.31563 52.3L82.31563 51.596874L84.06563 51.596874L84.06563 51.01875Q84.06563 49.675 84.4875 48.753124Q84.925 47.83125 85.8 47.253124Q86.69063 46.675 87.78438 46.675Q88.81563 46.675 89.675 47.346874Q90.2375 47.784374 90.2375 48.33125Q90.2375 48.628124 89.9875 48.89375Q89.7375 49.14375 89.44063 49.14375Q89.22188 49.14375 88.97188 48.9875Q88.72188 48.815624 88.3625 48.284374Q88.00313 47.753124 87.69063 47.565624Q87.39375 47.378124 87.01875 47.378124Q86.56563 47.378124 86.25313 47.628124Q85.94063 47.8625 85.8 48.3625Q85.675 48.8625 85.675 50.95625L85.675 51.596874L87.97188 51.596874L87.97188 52.3L85.675 52.3ZM92.55 51.346874Q94.58125 51.346874 95.81563 52.878124Q96.8625 54.20625 96.8625 55.909374Q96.8625 57.1125 96.28438 58.346874Q95.70625 59.565624 94.69063 60.20625Q93.69063 60.83125 92.44063 60.83125Q90.425 60.83125 89.2375 59.20625Q88.22188 57.846874 88.22188 56.159374Q88.22188 54.940624 88.83125 53.721874Q89.44063 52.503124 90.44063 51.925Q91.44063 51.346874 92.55 51.346874ZM92.25313 51.971874Q91.7375 51.971874 91.20625 52.284374Q90.69063 52.596874 90.3625 53.3625Q90.03438 54.128124 90.03438 55.346874Q90.03438 57.3 90.81563 58.721874Q91.59688 60.128124 92.8625 60.128124Q93.81563 60.128124 94.425 59.346874Q95.03438 58.565624 95.03438 56.659374Q95.03438 54.284374 94.01875 52.909374Q93.31563 51.971874 92.25313 51.971874ZM100.8 51.346874L100.8 53.346874Q101.90938 51.346874 103.09688 51.346874Q103.62813 51.346874 103.97188 51.675Q104.33125 51.9875 104.33125 52.425Q104.33125 52.8 104.08125 53.065624Q103.83125 53.33125 103.47188 53.33125Q103.14375 53.33125 102.70625 53.003124Q102.28438 52.659374 102.08125 52.659374Q101.90938 52.659374 101.70625 52.846874Q101.26875 53.253124 100.8 54.175L100.8 58.45625Q100.8 59.20625 100.97188 59.58125Q101.1125 59.846874 101.425 60.01875Q101.75313 60.190624 102.3625 60.190624L102.3625 60.55L97.76875 60.55L97.76875 60.190624Q98.45625 60.190624 98.78438 59.9875Q99.03438 59.83125 99.12813 59.4875Q99.175 59.315624 99.175 58.534374L99.175 55.065624Q99.175 53.503124 99.1125 53.20625Q99.05 52.909374 98.87813 52.784374Q98.70625 52.64375 98.45625 52.64375Q98.15938 52.64375 97.76875 52.784374L97.675 52.440624L100.37813 51.346874L100.8 51.346874ZM107.83125 53.2375Q108.81563 52.26875 108.9875 52.128124Q109.425 51.753124 109.925 51.55Q110.44063 51.346874 110.94063 51.346874Q111.78438 51.346874 112.37813 51.83125Q112.9875 52.315624 113.19063 53.2375Q114.20625 52.065624 114.89375 51.70625Q115.58125 51.346874 116.31563 51.346874Q117.03438 51.346874 117.58125 51.70625Q118.12813 52.065624 118.45625 52.909374Q118.675 53.471874 118.675 54.675L118.675 58.534374Q118.675 59.3625 118.8 59.675Q118.89375 59.89375 119.15938 60.05Q119.425 60.190624 120.01875 60.190624L120.01875 60.55L115.6125 60.55L115.6125 60.190624L115.78438 60.190624Q116.3625 60.190624 116.69063 59.971874Q116.90938 59.815624 117.01875 59.471874Q117.05 59.315624 117.05 58.534374L117.05 54.675Q117.05 53.58125 116.78438 53.14375Q116.40938 52.51875 115.56563 52.51875Q115.05 52.51875 114.51875 52.784374Q114.00313 53.034374 113.26875 53.7375L113.2375 53.846874L113.26875 54.253124L113.26875 58.534374Q113.26875 59.440624 113.3625 59.675Q113.47188 59.89375 113.75313 60.05Q114.03438 60.190624 114.72188 60.190624L114.72188 60.55L110.19063 60.55L110.19063 60.190624Q110.94063 60.190624 111.20625 60.01875Q111.4875 59.846874 111.59688 59.4875Q111.64375 59.33125 111.64375 58.534374L111.64375 54.675Q111.64375 53.58125 111.33125 53.1125Q110.89375 52.4875 110.12813 52.4875Q109.59688 52.4875 109.08125 52.76875Q108.26875 53.190624 107.83125 53.7375L107.83125 58.534374Q107.83125 59.409374 107.95625 59.675Q108.08125 59.940624 108.31563 60.065624Q108.55 60.190624 109.28438 60.190624L109.28438 60.55L104.8625 60.55L104.8625 60.190624Q105.47188 60.190624 105.72188 60.065624Q105.97188 59.940624 106.09688 59.659374Q106.22188 59.3625 106.22188 58.534374L106.22188 55.1125Q106.22188 53.628124 106.12813 53.20625Q106.06563 52.878124 105.90938 52.76875Q105.76875 52.64375 105.51875 52.64375Q105.2375 52.64375 104.8625 52.784374L104.72188 52.440624L107.40938 51.346874L107.83125 51.346874L107.83125 53.2375ZM124.2375 59.253124Q122.8625 60.33125 122.51875 60.4875Q121.9875 60.7375 121.39375 60.7375Q120.47188 60.7375 119.8625 60.1125Q119.26875 59.471874 119.26875 58.425Q119.26875 57.76875 119.55 57.3Q119.95625 56.628124 120.94063 56.05Q121.94063 55.45625 124.2375 54.628124L124.2375 54.26875Q124.2375 52.925 123.81563 52.440624Q123.39375 51.940624 122.58125 51.940624Q121.97188 51.940624 121.6125 52.26875Q121.2375 52.596874 121.2375 53.034374L121.25313 53.596874Q121.25313 54.05 121.01875 54.3Q120.8 54.534374 120.425 54.534374Q120.06563 54.534374 119.83125 54.284374Q119.6125 54.01875 119.6125 53.58125Q119.6125 52.753124 120.47188 52.05Q121.33125 51.346874 122.87813 51.346874Q124.06563 51.346874 124.83125 51.7375Q125.40938 52.05 125.675 52.690624Q125.8625 53.1125 125.8625 54.409374L125.8625 57.440624Q125.8625 58.721874 125.90938 59.01875Q125.95625 59.3 126.06563 59.39375Q126.175 59.4875 126.33125 59.4875Q126.4875 59.4875 126.59688 59.425Q126.8 59.3 127.39375 58.70625L127.39375 59.253124Q126.3 60.721874 125.3 60.721874Q124.81563 60.721874 124.53438 60.39375Q124.25313 60.065624 124.2375 59.253124ZM124.2375 58.628124L124.2375 55.221874Q122.76875 55.8 122.34688 56.05Q121.56563 56.471874 121.2375 56.940624Q120.90938 57.409374 120.90938 57.971874Q120.90938 58.675 121.31563 59.14375Q121.7375 59.596874 122.28438 59.596874Q123.03438 59.596874 124.2375 58.628124ZM134.675 54.971874Q134.675 56.971874 135.64375 58.096874Q136.62813 59.2375 137.94063 59.2375Q138.81563 59.2375 139.45625 58.753124Q140.1125 58.26875 140.56563 57.096874L140.8625 57.284374Q140.65938 58.628124 139.675 59.7375Q138.69063 60.83125 137.20625 60.83125Q135.58125 60.83125 134.44063 59.58125Q133.3 58.315624 133.3 56.190624Q133.3 53.89375 134.47188 52.6125Q135.64375 51.33125 137.425 51.33125Q138.925 51.33125 139.89375 52.33125Q140.8625 53.315624 140.8625 54.971874L134.675 54.971874ZM134.675 54.409374L138.81563 54.409374Q138.76875 53.55 138.6125 53.190624Q138.37813 52.64375 137.89375 52.33125Q137.40938 52.01875 136.87813 52.01875Q136.06563 52.01875 135.425 52.659374Q134.78438 53.284374 134.675 54.409374ZM150.09688 51.346874L150.09688 62.846874Q150.09688 63.70625 150.20625 63.940624Q150.33125 64.19063 150.58125 64.33125Q150.83125 64.47188 151.55 64.47188L151.55 64.83125L147.03438 64.83125L147.03438 64.47188L147.22188 64.47188Q147.76875 64.47188 148.05 64.31563Q148.25313 64.20625 148.3625 63.925Q148.4875 63.64375 148.4875 62.846874L148.4875 59.003124Q147.59688 60.05 146.925 60.440624Q146.26875 60.83125 145.55 60.83125Q144.25313 60.83125 143.2375 59.64375Q142.22188 58.45625 142.22188 56.471874Q142.22188 54.20625 143.56563 52.784374Q144.90938 51.346874 146.81563 51.346874Q147.37813 51.346874 147.84688 51.503124Q148.31563 51.659374 148.675 51.971874Q149.25313 51.690624 149.76875 51.346874L150.09688 51.346874ZM148.4875 58.378124L148.4875 54.175Q148.4875 53.45625 148.28438 53.034374Q148.09688 52.6125 147.6125 52.315624Q147.12813 52.01875 146.51875 52.01875Q145.425 52.01875 144.64375 52.95625Q143.8625 53.878124 143.8625 55.76875Q143.8625 57.565624 144.64375 58.503124Q145.44063 59.440624 146.56563 59.440624Q147.14375 59.440624 147.59688 59.190624Q148.05 58.940624 148.4875 58.378124ZM160.01875 51.596874L160.01875 57.01875Q160.01875 58.58125 160.08125 58.925Q160.15938 59.26875 160.31563 59.409374Q160.4875 59.55 160.70625 59.55Q161.00313 59.55 161.37813 59.378124L161.51875 59.721874L158.84688 60.83125L158.40938 60.83125L158.40938 58.925Q157.25313 60.175 156.64375 60.503124Q156.05 60.83125 155.3625 60.83125Q154.6125 60.83125 154.06563 60.39375Q153.51875 59.95625 153.3 59.26875Q153.08125 58.58125 153.08125 57.33125L153.08125 53.346874Q153.08125 52.70625 152.94063 52.471874Q152.81563 52.221874 152.53438 52.096874Q152.26875 51.95625 151.56563 51.971874L151.56563 51.596874L154.70625 51.596874L154.70625 57.596874Q154.70625 58.846874 155.14375 59.2375Q155.58125 59.628124 156.19063 59.628124Q156.6125 59.628124 157.14375 59.3625Q157.675 59.096874 158.40938 58.346874L158.40938 53.284374Q158.40938 52.51875 158.12813 52.253124Q157.84688 51.9875 156.97188 51.971874L156.97188 51.596874L160.01875 51.596874ZM166.2375 59.253124Q164.8625 60.33125 164.51875 60.4875Q163.9875 60.7375 163.39375 60.7375Q162.47188 60.7375 161.8625 60.1125Q161.26875 59.471874 161.26875 58.425Q161.26875 57.76875 161.55 57.3Q161.95625 56.628124 162.94063 56.05Q163.94063 55.45625 166.2375 54.628124L166.2375 54.26875Q166.2375 52.925 165.81563 52.440624Q165.39375 51.940624 164.58125 51.940624Q163.97188 51.940624 163.6125 52.26875Q163.2375 52.596874 163.2375 53.034374L163.25313 53.596874Q163.25313 54.05 163.01875 54.3Q162.8 54.534374 162.425 54.534374Q162.06563 54.534374 161.83125 54.284374Q161.6125 54.01875 161.6125 53.58125Q161.6125 52.753124 162.47188 52.05Q163.33125 51.346874 164.87813 51.346874Q166.06563 51.346874 166.83125 51.7375Q167.40938 52.05 167.675 52.690624Q167.8625 53.1125 167.8625 54.409374L167.8625 57.440624Q167.8625 58.721874 167.90938 59.01875Q167.95625 59.3 168.06563 59.39375Q168.175 59.4875 168.33125 59.4875Q168.4875 59.4875 168.59688 59.425Q168.8 59.3 169.39375 58.70625L169.39375 59.253124Q168.3 60.721874 167.3 60.721874Q166.81563 60.721874 166.53438 60.39375Q166.25313 60.065624 166.2375 59.253124ZM166.2375 58.628124L166.2375 55.221874Q164.76875 55.8 164.34688 56.05Q163.56563 56.471874 163.2375 56.940624Q162.90938 57.409374 162.90938 57.971874Q162.90938 58.675 163.31563 59.14375Q163.7375 59.596874 164.28438 59.596874Q165.03438 59.596874 166.2375 58.628124ZM172.76875 48.659374L172.76875 51.596874L174.8625 51.596874L174.8625 52.284374L172.76875 52.284374L172.76875 58.08125Q172.76875 58.95625 173.01875 59.26875Q173.26875 59.565624 173.65938 59.565624Q173.9875 59.565624 174.28438 59.3625Q174.59688 59.159374 174.75313 58.76875L175.14375 58.76875Q174.8 59.721874 174.175 60.20625Q173.55 60.690624 172.87813 60.690624Q172.425 60.690624 171.9875 60.440624Q171.56563 60.190624 171.3625 59.7375Q171.15938 59.26875 171.15938 58.3L171.15938 52.284374L169.75313 52.284374L169.75313 51.971874Q170.28438 51.753124 170.84688 51.2375Q171.40938 50.721874 171.84688 50.01875Q172.06563 49.64375 172.47188 48.659374L172.76875 48.659374ZM179.55 51.346874Q181.58125 51.346874 182.81563 52.878124Q183.8625 54.20625 183.8625 55.909374Q183.8625 57.1125 183.28438 58.346874Q182.70625 59.565624 181.69063 60.20625Q180.69063 60.83125 179.44063 60.83125Q177.425 60.83125 176.2375 59.20625Q175.22188 57.846874 175.22188 56.159374Q175.22188 54.940624 175.83125 53.721874Q176.44063 52.503124 177.44063 51.925Q178.44063 51.346874 179.55 51.346874ZM179.25313 51.971874Q178.7375 51.971874 178.20625 52.284374Q177.69063 52.596874 177.3625 53.3625Q177.03438 54.128124 177.03438 55.346874Q177.03438 57.3 177.81563 58.721874Q178.59688 60.128124 179.8625 60.128124Q180.81563 60.128124 181.425 59.346874Q182.03438 58.565624 182.03438 56.659374Q182.03438 54.284374 181.01875 52.909374Q180.31563 51.971874 179.25313 51.971874ZM187.8 51.346874L187.8 53.346874Q188.90938 51.346874 190.09688 51.346874Q190.62813 51.346874 190.97188 51.675Q191.33125 51.9875 191.33125 52.425Q191.33125 52.8 191.08125 53.065624Q190.83125 53.33125 190.47188 53.33125Q190.14375 53.33125 189.70625 53.003124Q189.28438 52.659374 189.08125 52.659374Q188.90938 52.659374 188.70625 52.846874Q188.26875 53.253124 187.8 54.175L187.8 58.45625Q187.8 59.20625 187.97188 59.58125Q188.1125 59.846874 188.425 60.01875Q188.75313 60.190624 189.3625 60.190624L189.3625 60.55L184.76875 60.55L184.76875 60.190624Q185.45625 60.190624 185.78438 59.9875Q186.03438 59.83125 186.12813 59.4875Q186.175 59.315624 186.175 58.534374L186.175 55.065624Q186.175 53.503124 186.1125 53.20625Q186.05 52.909374 185.87813 52.784374Q185.70625 52.64375 185.45625 52.64375Q185.15938 52.64375 184.76875 52.784374L184.675 52.440624L187.37813 51.346874L187.8 51.346874ZM194.45625 46.659374Q194.8625 46.659374 195.14375 46.95625Q195.44063 47.2375 195.44063 47.64375Q195.44063 48.065624 195.14375 48.3625Q194.8625 48.64375 194.45625 48.64375Q194.03438 48.64375 193.7375 48.3625Q193.45625 48.065624 193.45625 47.64375Q193.45625 47.2375 193.7375 46.95625Q194.03438 46.659374 194.45625 46.659374ZM195.26875 51.346874L195.26875 58.534374Q195.26875 59.3625 195.37813 59.64375Q195.50313 59.925 195.7375 60.065624Q195.9875 60.190624 196.6125 60.190624L196.6125 60.55L192.26875 60.55L192.26875 60.190624Q192.925 60.190624 193.14375 60.065624Q193.37813 59.940624 193.50313 59.659374Q193.64375 59.3625 193.64375 58.534374L193.64375 55.08125Q193.64375 53.628124 193.55 53.190624Q193.4875 52.878124 193.33125 52.76875Q193.19063 52.64375 192.94063 52.64375Q192.65938 52.64375 192.26875 52.784374L192.14375 52.440624L194.83125 51.346874L195.26875 51.346874ZM203.2375 59.253124Q201.8625 60.33125 201.51875 60.4875Q200.9875 60.7375 200.39375 60.7375Q199.47188 60.7375 198.8625 60.1125Q198.26875 59.471874 198.26875 58.425Q198.26875 57.76875 198.55 57.3Q198.95625 56.628124 199.94063 56.05Q200.94063 55.45625 203.2375 54.628124L203.2375 54.26875Q203.2375 52.925 202.81563 52.440624Q202.39375 51.940624 201.58125 51.940624Q200.97188 51.940624 200.6125 52.26875Q200.2375 52.596874 200.2375 53.034374L200.25313 53.596874Q200.25313 54.05 200.01875 54.3Q199.8 54.534374 199.425 54.534374Q199.06563 54.534374 198.83125 54.284374Q198.6125 54.01875 198.6125 53.58125Q198.6125 52.753124 199.47188 52.05Q200.33125 51.346874 201.87813 51.346874Q203.06563 51.346874 203.83125 51.7375Q204.40938 52.05 204.675 52.690624Q204.8625 53.1125 204.8625 54.409374L204.8625 57.440624Q204.8625 58.721874 204.90938 59.01875Q204.95625 59.3 205.06563 59.39375Q205.175 59.4875 205.33125 59.4875Q205.4875 59.4875 205.59688 59.425Q205.8 59.3 206.39375 58.70625L206.39375 59.253124Q205.3 60.721874 204.3 60.721874Q203.81563 60.721874 203.53438 60.39375Q203.25313 60.065624 203.2375 59.253124ZM203.2375 58.628124L203.2375 55.221874Q201.76875 55.8 201.34688 56.05Q200.56563 56.471874 200.2375 56.940624Q199.90938 57.409374 199.90938 57.971874Q199.90938 58.675 200.31563 59.14375Q200.7375 59.596874 201.28438 59.596874Q202.03438 59.596874 203.2375 58.628124ZM210.25313 46.659374L210.25313 58.534374Q210.25313 59.3625 210.37813 59.64375Q210.50313 59.909374 210.75313 60.05Q211.00313 60.190624 211.69063 60.190624L211.69063 60.55L207.31563 60.55L207.31563 60.190624Q207.925 60.190624 208.14375 60.065624Q208.37813 59.940624 208.50313 59.659374Q208.62813 59.3625 208.62813 58.534374L208.62813 50.409374Q208.62813 48.89375 208.55 48.55Q208.4875 48.190624 208.33125 48.065624Q208.19063 47.940624 207.95625 47.940624Q207.70625 47.940624 207.31563 48.096874L207.14375 47.753124L209.81563 46.659374L210.25313 46.659374ZM216.9875 57.425L216.58125 57.425Q216.65938 56.190624 216.89375 55.39375Q217.12813 54.58125 217.87813 53.14375Q218.47188 52.05 218.64375 51.45625Q218.81563 50.8625 218.81563 50.253124Q218.81563 49.01875 218.15938 48.284374Q217.50313 47.55 216.55 47.55Q215.69063 47.55 215.20625 47.95625Q214.72188 48.346874 214.72188 48.815624Q214.72188 49.175 215.00313 49.70625Q215.3 50.2375 215.3 50.503124Q215.3 50.8625 215.08125 51.1125Q214.8625 51.346874 214.53438 51.346874Q214.12813 51.346874 213.78438 50.940624Q213.45625 50.534374 213.45625 49.8Q213.45625 48.70625 214.39375 47.8625Q215.34688 47.003124 216.97188 47.003124Q218.97188 47.003124 219.925 48.175Q220.62813 49.034374 220.62813 50.08125Q220.62813 50.8 220.3 51.55Q219.9875 52.3 219.09688 53.315624Q217.69063 54.909374 217.3625 55.58125Q217.05 56.253124 216.9875 57.425ZM216.84688 58.628124Q217.3 58.628124 217.6125 58.95625Q217.94063 59.26875 217.94063 59.721874Q217.94063 60.175 217.6125 60.503124Q217.3 60.815624 216.84688 60.815624Q216.39375 60.815624 216.08125 60.503124Q215.76875 60.175 215.76875 59.721874Q215.76875 59.26875 216.08125 58.95625Q216.39375 58.628124 216.84688 58.628124Z" fill-rule="nonzero"/></svg>