<svg version="1.1" viewBox="0.0 0.0 600.0 371.0" fill="none" stroke="none" stroke-linecap="square" stroke-miterlimit="10" width="600" height="371" xmlns:xlink="http://www.w3.org/1999/xlink" xmlns="http://www.w3.org/2000/svg"><path fill="#ffffff" d="M0 0L600.0 0L600.0 371.0L0 371.0L0 0Z" fill-rule="nonzero"/><path fill="#ed7d31" d="M101.14985 50.27632C135.54358 17.978458 180.95198 0 228.13333 0L228.13333 92.75C204.54265 92.75 181.83846 101.73923 164.64159 117.88816Z" fill-rule="nonzero"/><path fill="#4472c4" d="M228.13333 0C317.1788 0 393.66217 63.272526 410.34763 150.74077C427.03308 238.209 379.21283 325.19373 296.42044 357.97354C213.62805 390.75336 119.22346 360.07947 71.510506 284.89587C23.79755 209.71228 36.238483 111.23215 101.14985 50.27632L164.64159 117.88816C132.18591 148.36607 125.96544 197.60614 149.82191 235.19794C173.67839 272.78973 220.88069 288.12668 262.2769 271.73676C303.6731 255.34686 327.5832 211.8545 319.24048 168.12038C310.89774 124.38626 272.65607 92.75 228.13333 92.75Z" fill-rule="nonzero"/><path fill="#000000" d="M265.8929 321.13574Q264.79916 320.2295 264.47104 319.68262Q264.15854 319.13574 264.15854 318.55762Q264.15854 317.65137 264.84604 316.99512Q265.54916 316.33887 266.7054 316.33887Q267.8304 316.33887 268.5023 316.94824Q269.1898 317.55762 269.1898 318.33887Q269.1898 318.8545 268.8148 319.40137Q268.4554 319.94824 267.28354 320.667Q268.48666 321.6045 268.8773 322.13574Q269.3929 322.83887 269.3929 323.6045Q269.3929 324.58887 268.6429 325.292Q267.90854 325.9795 266.7054 325.9795Q265.3773 325.9795 264.6429 325.15137Q264.04916 324.4795 264.04916 323.69824Q264.04916 323.07324 264.4554 322.4795Q264.8773 321.87012 265.8929 321.13574ZM266.97104 320.40137Q267.78354 319.667 268.0023 319.24512Q268.22104 318.80762 268.22104 318.27637Q268.22104 317.55762 267.8148 317.15137Q267.42416 316.74512 266.72104 316.74512Q266.0179 316.74512 265.5804 317.15137Q265.1429 317.542 265.1429 318.08887Q265.1429 318.44824 265.3148 318.80762Q265.5023 319.15137 265.84604 319.4795L266.97104 320.40137ZM266.22104 321.40137Q265.6429 321.87012 265.36166 322.44824Q265.09604 323.01074 265.09604 323.667Q265.09604 324.542 265.5804 325.07324Q266.0648 325.6045 266.8148 325.6045Q267.54916 325.6045 267.98666 325.18262Q268.4398 324.76074 268.4398 324.167Q268.4398 323.68262 268.17416 323.292Q267.6898 322.57324 266.22104 321.40137ZM272.8929 321.13574Q271.79916 320.2295 271.47104 319.68262Q271.15854 319.13574 271.15854 318.55762Q271.15854 317.65137 271.84604 316.99512Q272.54916 316.33887 273.7054 316.33887Q274.8304 316.33887 275.5023 316.94824Q276.1898 317.55762 276.1898 318.33887Q276.1898 318.8545 275.8148 319.40137Q275.4554 319.94824 274.28354 320.667Q275.48666 321.6045 275.8773 322.13574Q276.3929 322.83887 276.3929 323.6045Q276.3929 324.58887 275.6429 325.292Q274.90854 325.9795 273.7054 325.9795Q272.3773 325.9795 271.6429 325.15137Q271.04916 324.4795 271.04916 323.69824Q271.04916 323.07324 271.4554 322.4795Q271.8773 321.87012 272.8929 321.13574ZM273.97104 320.40137Q274.78354 319.667 275.0023 319.24512Q275.22104 318.80762 275.22104 318.27637Q275.22104 317.55762 274.8148 317.15137Q274.42416 316.74512 273.72104 316.74512Q273.0179 316.74512 272.5804 317.15137Q272.1429 317.542 272.1429 318.08887Q272.1429 318.44824 272.3148 318.80762Q272.5023 319.15137 272.84604 319.4795L273.97104 320.40137ZM273.22104 321.40137Q272.6429 321.87012 272.36166 322.44824Q272.09604 323.01074 272.09604 323.667Q272.09604 324.542 272.5804 325.07324Q273.0648 325.6045 273.8148 325.6045Q274.54916 325.6045 274.98666 325.18262Q275.4398 324.76074 275.4398 324.167Q275.4398 323.68262 275.17416 323.292Q274.6898 322.57324 273.22104 321.40137ZM277.9554 328.13574L277.9554 327.83887Q278.65854 327.6045 279.04916 327.12012Q279.4398 326.63574 279.4398 326.08887Q279.4398 325.94824 279.3773 325.87012Q279.3304 325.80762 279.28354 325.80762Q279.2054 325.80762 278.9554 325.93262Q278.8304 325.99512 278.6898 325.99512Q278.36166 325.99512 278.15854 325.80762Q277.9554 325.6045 277.9554 325.26074Q277.9554 324.917 278.2054 324.68262Q278.47104 324.43262 278.84604 324.43262Q279.28354 324.43262 279.6429 324.83887Q280.0023 325.2295 280.0023 325.87012Q280.0023 326.57324 279.5023 327.18262Q279.0179 327.792 277.9554 328.13574ZM281.7054 321.2295Q281.7054 319.63574 282.1898 318.49512Q282.67416 317.3545 283.4554 316.792Q284.0804 316.33887 284.73666 316.33887Q285.79916 316.33887 286.6429 317.43262Q287.7054 318.77637 287.7054 321.08887Q287.7054 322.69824 287.23666 323.82324Q286.78354 324.94824 286.04916 325.46387Q285.3304 325.9795 284.65854 325.9795Q283.34604 325.9795 282.4554 324.40137Q281.7054 323.08887 281.7054 321.2295ZM283.04916 321.40137Q283.04916 323.30762 283.5179 324.52637Q283.90854 325.542 284.6898 325.542Q285.04916 325.542 285.4398 325.21387Q285.84604 324.87012 286.04916 324.1045Q286.36166 322.917 286.36166 320.77637Q286.36166 319.19824 286.03354 318.13574Q285.79916 317.3545 285.40854 317.02637Q285.1273 316.792 284.72104 316.792Q284.2679 316.792 283.8929 317.21387Q283.40854 317.77637 283.22104 318.99512Q283.04916 320.21387 283.04916 321.40137ZM297.72104 316.32324L290.97104 326.19824L290.36166 326.19824L297.11166 316.32324L297.72104 316.32324ZM290.6898 316.32324Q291.61166 316.32324 292.1273 317.08887Q292.6429 317.8545 292.6429 318.8545Q292.6429 320.042 292.0648 320.69824Q291.48666 321.33887 290.67416 321.33887Q290.1429 321.33887 289.6898 321.042Q289.23666 320.74512 288.97104 320.167Q288.7054 319.57324 288.7054 318.8545Q288.7054 318.13574 288.97104 317.52637Q289.2523 316.917 289.72104 316.62012Q290.1898 316.32324 290.6898 316.32324ZM290.67416 316.71387Q290.3304 316.71387 290.04916 317.12012Q289.78354 317.52637 289.78354 318.83887Q289.78354 319.792 289.9398 320.292Q290.04916 320.667 290.29916 320.87012Q290.4398 320.99512 290.65854 320.99512Q290.98666 320.99512 291.22104 320.63574Q291.54916 320.12012 291.54916 318.88574Q291.54916 317.58887 291.22104 317.05762Q291.0023 316.71387 290.67416 316.71387ZM297.40854 321.21387Q297.8929 321.21387 298.3773 321.52637Q298.86166 321.82324 299.11166 322.417Q299.3773 322.99512 299.3773 323.69824Q299.3773 324.917 298.79916 325.55762Q298.22104 326.19824 297.42416 326.19824Q296.92416 326.19824 296.4554 325.88574Q295.98666 325.57324 295.72104 325.01074Q295.4554 324.43262 295.4554 323.69824Q295.4554 322.9795 295.72104 322.38574Q295.98666 321.792 296.4554 321.51074Q296.92416 321.21387 297.40854 321.21387ZM297.40854 321.57324Q297.0804 321.57324 296.84604 321.93262Q296.53354 322.417 296.53354 323.74512Q296.53354 324.9795 296.84604 325.46387Q297.0804 325.80762 297.40854 325.80762Q297.72104 325.80762 297.97104 325.43262Q298.29916 324.93262 298.29916 323.71387Q298.29916 322.43262 297.97104 321.917Q297.7523 321.57324 297.40854 321.57324Z" fill-rule="nonzero"/><path fill="#000000" d="M157.70189 46.833004L159.95189 45.72363L160.18626 45.72363L160.18626 53.551754Q160.18626 54.333004 160.24876 54.53613Q160.31126 54.72363 160.51439 54.833004Q160.71751 54.926754 161.35814 54.94238L161.35814 55.19238L157.87376 55.19238L157.87376 54.94238Q158.53001 54.926754 158.71751 54.833004Q158.90501 54.72363 158.98314 54.56738Q159.06126 54.395504 159.06126 53.551754L159.06126 48.551754Q159.06126 47.53613 158.98314 47.25488Q158.93626 47.03613 158.81126 46.94238Q158.68626 46.833004 158.51439 46.833004Q158.24876 46.833004 157.81126 47.03613L157.70189 46.833004ZM169.48314 53.41113L168.82689 55.19238L163.35814 55.19238L163.35814 54.94238Q165.78001 52.739254 166.76439 51.34863Q167.74876 49.94238 167.74876 48.78613Q167.74876 47.91113 167.20189 47.34863Q166.67064 46.770504 165.90501 46.770504Q165.23314 46.770504 164.68626 47.176754Q164.13939 47.583004 163.88939 48.34863L163.62376 48.34863Q163.79564 47.083004 164.49876 46.41113Q165.21751 45.72363 166.28001 45.72363Q167.40501 45.72363 168.15501 46.458004Q168.92064 47.176754 168.92064 48.16113Q168.92064 48.864254 168.59251 49.56738Q168.07689 50.676754 166.95189 51.91113Q165.24876 53.770504 164.81126 54.16113L167.23314 54.16113Q167.98314 54.16113 168.28001 54.114254Q168.57689 54.051754 168.81126 53.87988Q169.04564 53.708004 169.23314 53.41113L169.48314 53.41113ZM170.81126 57.520504L170.81126 57.22363Q171.51439 56.989254 171.90501 56.50488Q172.29564 56.020504 172.29564 55.47363Q172.29564 55.333004 172.23314 55.25488Q172.18626 55.19238 172.13939 55.19238Q172.06126 55.19238 171.81126 55.31738Q171.68626 55.37988 171.54564 55.37988Q171.21751 55.37988 171.01439 55.19238Q170.81126 54.989254 170.81126 54.645504Q170.81126 54.301754 171.06126 54.06738Q171.32689 53.81738 171.70189 53.81738Q172.13939 53.81738 172.49876 54.22363Q172.85814 54.614254 172.85814 55.25488Q172.85814 55.958004 172.35814 56.56738Q171.87376 57.176754 170.81126 57.520504ZM174.56126 50.614254Q174.56126 49.020504 175.04564 47.87988Q175.53001 46.739254 176.31126 46.176754Q176.93626 45.72363 177.59251 45.72363Q178.65501 45.72363 179.49876 46.81738Q180.56126 48.16113 180.56126 50.47363Q180.56126 52.083004 180.09251 53.208004Q179.63939 54.333004 178.90501 54.84863Q178.18626 55.364254 177.51439 55.364254Q176.20189 55.364254 175.31126 53.78613Q174.56126 52.47363 174.56126 50.614254ZM175.90501 50.78613Q175.90501 52.69238 176.37376 53.91113Q176.76439 54.926754 177.54564 54.926754Q177.90501 54.926754 178.29564 54.59863Q178.70189 54.25488 178.90501 53.489254Q179.21751 52.301754 179.21751 50.16113Q179.21751 48.583004 178.88939 47.520504Q178.65501 46.739254 178.26439 46.41113Q177.98314 46.176754 177.57689 46.176754Q177.12376 46.176754 176.74876 46.59863Q176.26439 47.16113 176.07689 48.37988Q175.90501 49.59863 175.90501 50.78613ZM190.57689 45.708004L183.82689 55.583004L183.21751 55.583004L189.96751 45.708004L190.57689 45.708004ZM183.54564 45.708004Q184.46751 45.708004 184.98314 46.47363Q185.49876 47.239254 185.49876 48.239254Q185.49876 49.426754 184.92064 50.083004Q184.34251 50.72363 183.53001 50.72363Q182.99876 50.72363 182.54564 50.426754Q182.09251 50.12988 181.82689 49.551754Q181.56126 48.958004 181.56126 48.239254Q181.56126 47.520504 181.82689 46.91113Q182.10814 46.301754 182.57689 46.00488Q183.04564 45.708004 183.54564 45.708004ZM183.53001 46.09863Q183.18626 46.09863 182.90501 46.50488Q182.63939 46.91113 182.63939 48.22363Q182.63939 49.176754 182.79564 49.676754Q182.90501 50.051754 183.15501 50.25488Q183.29564 50.37988 183.51439 50.37988Q183.84251 50.37988 184.07689 50.020504Q184.40501 49.50488 184.40501 48.270504Q184.40501 46.97363 184.07689 46.44238Q183.85814 46.09863 183.53001 46.09863ZM190.26439 50.59863Q190.74876 50.59863 191.23314 50.91113Q191.71751 51.208004 191.96751 51.801754Q192.23314 52.37988 192.23314 53.083004Q192.23314 54.301754 191.65501 54.94238Q191.07689 55.583004 190.28001 55.583004Q189.78001 55.583004 189.31126 55.270504Q188.84251 54.958004 188.57689 54.395504Q188.31126 53.81738 188.31126 53.083004Q188.31126 52.364254 188.57689 51.770504Q188.84251 51.176754 189.31126 50.895504Q189.78001 50.59863 190.26439 50.59863ZM190.26439 50.958004Q189.93626 50.958004 189.70189 51.31738Q189.38939 51.801754 189.38939 53.12988Q189.38939 54.364254 189.70189 54.84863Q189.93626 55.19238 190.26439 55.19238Q190.57689 55.19238 190.82689 54.81738Q191.15501 54.31738 191.15501 53.09863Q191.15501 51.81738 190.82689 51.301754Q190.60814 50.958004 190.26439 50.958004Z" fill-rule="nonzero"/><path fill="#4472c4" d="M493.0 11.5C493.0 14.813708 490.31372 17.5 487.0 17.5C483.68628 17.5 481.0 14.813708 481.0 11.5C481.0 8.186292 483.68628 5.5 487.0 5.5C490.31372 5.5 493.0 8.186292 493.0 11.5Z" fill-rule="nonzero"/><path fill="#1a1a1a" d="M510.15625 13.5625L505.03125 13.5625L504.125 15.65625Q503.79688 16.421875 503.79688 16.8125Q503.79688 17.109375 504.07812 17.34375Q504.375 17.5625 505.32812 17.640625L505.32812 18.0L501.15625 18.0L501.15625 17.640625Q501.98438 17.484375 502.23438 17.25Q502.73438 16.78125 503.32812 15.359375L508.0 4.453125L508.32812 4.453125L512.9375 15.46875Q513.5 16.796875 513.9531 17.203125Q514.40625 17.59375 515.21875 17.640625L515.21875 18.0L510.0 18.0L510.0 17.640625Q510.78125 17.59375 511.0625 17.375Q511.34375 17.15625 511.34375 16.828125Q511.34375 16.390625 510.95312 15.46875L510.15625 13.5625ZM509.875 12.84375L507.625 7.484375L505.32812 12.84375L509.875 12.84375ZM518.2344 10.6875Q519.8125 8.796875 521.2344 8.796875Q521.96875 8.796875 522.4844 9.15625Q523.0156 9.515625 523.3281 10.359375Q523.5469 10.953125 523.5469 12.15625L523.5469 15.984375Q523.5469 16.828125 523.6875 17.125Q523.7969 17.375 524.03125 17.515625Q524.2656 17.640625 524.90625 17.640625L524.90625 18.0L520.4844 18.0L520.4844 17.640625L520.6719 17.640625Q521.2969 17.640625 521.5469 17.453125Q521.7969 17.265625 521.8906 16.890625Q521.9375 16.75 521.9375 15.984375L521.9375 12.3125Q521.9375 11.09375 521.6094 10.546875Q521.2969 9.984375 520.5469 9.984375Q519.3906 9.984375 518.2344 11.265625L518.2344 15.984375Q518.2344 16.890625 518.34375 17.09375Q518.4844 17.390625 518.71875 17.515625Q518.9531 17.640625 519.6875 17.640625L519.6875 18.0L515.2656 18.0L515.2656 17.640625L515.4531 17.640625Q516.1406 17.640625 516.375 17.296875Q516.625 16.953125 516.625 15.984375L516.625 12.65625Q516.625 11.046875 516.5469 10.703125Q516.46875 10.34375 516.3125 10.21875Q516.1719 10.09375 515.9219 10.09375Q515.6406 10.09375 515.2656 10.234375L515.125 9.890625L517.8125 8.796875L518.2344 8.796875L518.2344 10.6875ZM530.9375 17.0Q530.2969 17.671875 529.6719 17.984375Q529.0469 18.28125 528.3125 18.28125Q526.8594 18.28125 525.7656 17.0625Q524.6719 15.828125 524.6719 13.890625Q524.6719 11.96875 525.875 10.375Q527.09375 8.78125 528.9844 8.78125Q530.1719 8.78125 530.9375 9.53125L530.9375 7.875Q530.9375 6.34375 530.8594 6.0Q530.7969 5.640625 530.6406 5.515625Q530.4844 5.390625 530.25 5.390625Q530.0 5.390625 529.5781 5.546875L529.4531 5.203125L532.1094 4.109375L532.5625 4.109375L532.5625 14.453125Q532.5625 16.03125 532.625 16.375Q532.7031 16.71875 532.8594 16.859375Q533.03125 17.0 533.2344 17.0Q533.5 17.0 533.9375 16.828125L534.0469 17.171875L531.3906 18.28125L530.9375 18.28125L530.9375 17.0ZM530.9375 16.3125L530.9375 11.703125Q530.8906 11.03125 530.59375 10.484375Q530.2969 9.9375 529.8125 9.671875Q529.3281 9.390625 528.875 9.390625Q528.0156 9.390625 527.34375 10.15625Q526.4531 11.171875 526.4531 13.125Q526.4531 15.09375 527.3125 16.15625Q528.1719 17.203125 529.21875 17.203125Q530.1094 17.203125 530.9375 16.3125ZM537.25 8.796875L537.25 10.796875Q538.3594 8.796875 539.5469 8.796875Q540.0781 8.796875 540.4219 9.125Q540.78125 9.4375 540.78125 9.875Q540.78125 10.25 540.53125 10.515625Q540.28125 10.78125 539.9219 10.78125Q539.59375 10.78125 539.15625 10.453125Q538.7344 10.109375 538.53125 10.109375Q538.3594 10.109375 538.15625 10.296875Q537.71875 10.703125 537.25 11.625L537.25 15.90625Q537.25 16.65625 537.4219 17.03125Q537.5625 17.296875 537.875 17.46875Q538.2031 17.640625 538.8125 17.640625L538.8125 18.0L534.21875 18.0L534.21875 17.640625Q534.90625 17.640625 535.2344 17.4375Q535.4844 17.28125 535.5781 16.9375Q535.625 16.765625 535.625 15.984375L535.625 12.515625Q535.625 10.953125 535.5625 10.65625Q535.5 10.359375 535.3281 10.234375Q535.15625 10.09375 534.90625 10.09375Q534.6094 10.09375 534.21875 10.234375L534.125 9.890625L536.8281 8.796875L537.25 8.796875ZM546.0 8.796875Q548.03125 8.796875 549.2656 10.328125Q550.3125 11.65625 550.3125 13.359375Q550.3125 14.5625 549.7344 15.796875Q549.15625 17.015625 548.1406 17.65625Q547.1406 18.28125 545.8906 18.28125Q543.875 18.28125 542.6875 16.65625Q541.6719 15.296875 541.6719 13.609375Q541.6719 12.390625 542.28125 11.171875Q542.8906 9.953125 543.8906 9.375Q544.8906 8.796875 546.0 8.796875ZM545.7031 9.421875Q545.1875 9.421875 544.65625 9.734375Q544.1406 10.046875 543.8125 10.8125Q543.4844 11.578125 543.4844 12.796875Q543.4844 14.75 544.2656 16.171875Q545.0469 17.578125 546.3125 17.578125Q547.2656 17.578125 547.875 16.796875Q548.4844 16.015625 548.4844 14.109375Q548.4844 11.734375 547.46875 10.359375Q546.7656 9.421875 545.7031 9.421875ZM553.90625 4.109375Q554.3125 4.109375 554.59375 4.40625Q554.8906 4.6875 554.8906 5.09375Q554.8906 5.515625 554.59375 5.8125Q554.3125 6.09375 553.90625 6.09375Q553.4844 6.09375 553.1875 5.8125Q552.90625 5.515625 552.90625 5.09375Q552.90625 4.6875 553.1875 4.40625Q553.4844 4.109375 553.90625 4.109375ZM554.71875 8.796875L554.71875 15.984375Q554.71875 16.8125 554.8281 17.09375Q554.9531 17.375 555.1875 17.515625Q555.4375 17.640625 556.0625 17.640625L556.0625 18.0L551.71875 18.0L551.71875 17.640625Q552.375 17.640625 552.59375 17.515625Q552.8281 17.390625 552.9531 17.109375Q553.09375 16.8125 553.09375 15.984375L553.09375 12.53125Q553.09375 11.078125 553.0 10.640625Q552.9375 10.328125 552.78125 10.21875Q552.6406 10.09375 552.3906 10.09375Q552.1094 10.09375 551.71875 10.234375L551.59375 9.890625L554.28125 8.796875L554.71875 8.796875ZM563.9375 17.0Q563.2969 17.671875 562.6719 17.984375Q562.0469 18.28125 561.3125 18.28125Q559.8594 18.28125 558.7656 17.0625Q557.6719 15.828125 557.6719 13.890625Q557.6719 11.96875 558.875 10.375Q560.09375 8.78125 561.9844 8.78125Q563.1719 8.78125 563.9375 9.53125L563.9375 7.875Q563.9375 6.34375 563.8594 6.0Q563.7969 5.640625 563.6406 5.515625Q563.4844 5.390625 563.25 5.390625Q563.0 5.390625 562.5781 5.546875L562.4531 5.203125L565.1094 4.109375L565.5625 4.109375L565.5625 14.453125Q565.5625 16.03125 565.625 16.375Q565.7031 16.71875 565.8594 16.859375Q566.03125 17.0 566.2344 17.0Q566.5 17.0 566.9375 16.828125L567.0469 17.171875L564.3906 18.28125L563.9375 18.28125L563.9375 17.0ZM563.9375 16.3125L563.9375 11.703125Q563.8906 11.03125 563.59375 10.484375Q563.2969 9.9375 562.8125 9.671875Q562.3281 9.390625 561.875 9.390625Q561.0156 9.390625 560.34375 10.15625Q559.4531 11.171875 559.4531 13.125Q559.4531 15.09375 560.3125 16.15625Q561.1719 17.203125 562.21875 17.203125Q563.1094 17.203125 563.9375 16.3125Z" fill-rule="nonzero"/><path fill="#ed7d31" d="M493.0 44.5C493.0 47.81371 490.31372 50.5 487.0 50.5C483.68628 50.5 481.0 47.81371 481.0 44.5C481.0 41.18629 483.68628 38.5 487.0 38.5C490.31372 38.5 493.0 41.18629 493.0 44.5Z" fill-rule="nonzero"/><path fill="#1a1a1a" d="M507.17188 50.640625L507.17188 51.0L501.5 51.0L501.5 50.640625L501.96875 50.640625Q502.78125 50.640625 503.15625 50.15625Q503.39062 49.84375 503.39062 48.65625L503.39062 40.09375Q503.39062 39.09375 503.26562 38.765625Q503.17188 38.53125 502.85938 38.359375Q502.4375 38.125 501.96875 38.125L501.5 38.125L501.5 37.75L507.17188 37.75L507.17188 38.125L506.6875 38.125Q505.89062 38.125 505.51562 38.59375Q505.26562 38.90625 505.26562 40.09375L505.26562 48.65625Q505.26562 49.65625 505.39062 49.984375Q505.5 50.234375 505.8125 50.40625Q506.21875 50.640625 506.6875 50.640625L507.17188 50.640625ZM514.3125 37.453125Q516.8906 37.453125 518.78125 39.421875Q520.6719 41.375 520.6719 44.296875Q520.6719 47.3125 518.7656 49.3125Q516.8594 51.296875 514.15625 51.296875Q511.42188 51.296875 509.5625 49.359375Q507.70312 47.421875 507.70312 44.328125Q507.70312 41.171875 509.85938 39.1875Q511.71875 37.453125 514.3125 37.453125ZM514.125 38.171875Q512.3594 38.171875 511.28125 39.484375Q509.9375 41.125 509.9375 44.296875Q509.9375 47.53125 511.32812 49.28125Q512.3906 50.609375 514.1406 50.609375Q516.0 50.609375 517.21875 49.15625Q518.4375 47.703125 518.4375 44.5625Q518.4375 41.171875 517.09375 39.5Q516.03125 38.171875 514.125 38.171875ZM530.1719 37.453125L530.1719 42.03125L529.8125 42.03125Q529.6406 40.71875 529.1719 39.9375Q528.71875 39.15625 527.875 38.703125Q527.0469 38.234375 526.1406 38.234375Q525.125 38.234375 524.4531 38.859375Q523.7969 39.46875 523.7969 40.265625Q523.7969 40.875 524.21875 41.375Q524.8281 42.109375 527.1094 43.328125Q528.9531 44.3125 529.625 44.859375Q530.3125 45.390625 530.6719 46.109375Q531.0469 46.828125 531.0469 47.625Q531.0469 49.125 529.875 50.21875Q528.71875 51.296875 526.875 51.296875Q526.2969 51.296875 525.7969 51.21875Q525.5 51.171875 524.5469 50.859375Q523.59375 50.546875 523.3281 50.546875Q523.09375 50.546875 522.9531 50.703125Q522.8125 50.84375 522.7344 51.296875L522.375 51.296875L522.375 46.765625L522.7344 46.765625Q523.0 48.1875 523.4219 48.90625Q523.8594 49.609375 524.7344 50.078125Q525.625 50.546875 526.6719 50.546875Q527.8906 50.546875 528.59375 49.90625Q529.3125 49.25 529.3125 48.375Q529.3125 47.890625 529.0469 47.390625Q528.78125 46.890625 528.2031 46.453125Q527.8281 46.171875 526.125 45.21875Q524.4219 44.265625 523.7031 43.703125Q523.0 43.125 522.625 42.453125Q522.25 41.765625 522.25 40.9375Q522.25 39.515625 523.34375 38.484375Q524.4375 37.453125 526.125 37.453125Q527.1875 37.453125 528.3594 37.96875Q528.90625 38.21875 529.1406 38.21875Q529.3906 38.21875 529.5469 38.0625Q529.71875 37.90625 529.8125 37.453125L530.1719 37.453125ZM543.21875 54.921875L543.21875 55.28125Q541.7344 54.53125 540.75 53.546875Q539.34375 52.125 538.5781 50.203125Q537.8281 48.28125 537.8281 46.203125Q537.8281 43.171875 539.3125 40.6875Q540.8125 38.1875 543.21875 37.109375L543.21875 37.515625Q542.0156 38.1875 541.2344 39.34375Q540.46875 40.484375 540.0781 42.265625Q539.7031 44.03125 539.7031 45.953125Q539.7031 48.046875 540.03125 49.75Q540.28125 51.09375 540.6406 51.90625Q541.0 52.734375 541.6094 53.484375Q542.21875 54.234375 543.21875 54.921875ZM553.15625 46.5625L548.03125 46.5625L547.125 48.65625Q546.7969 49.421875 546.7969 49.8125Q546.7969 50.109375 547.0781 50.34375Q547.375 50.5625 548.3281 50.640625L548.3281 51.0L544.15625 51.0L544.15625 50.640625Q544.9844 50.484375 545.2344 50.25Q545.7344 49.78125 546.3281 48.359375L551.0 37.453125L551.3281 37.453125L555.9375 48.46875Q556.5 49.796875 556.9531 50.203125Q557.40625 50.59375 558.21875 50.640625L558.21875 51.0L553.0 51.0L553.0 50.640625Q553.78125 50.59375 554.0625 50.375Q554.34375 50.15625 554.34375 49.828125Q554.34375 49.390625 553.9531 48.46875L553.15625 46.5625ZM552.875 45.84375L550.625 40.484375L548.3281 45.84375L552.875 45.84375ZM557.9844 42.9375L560.7344 41.828125L561.1094 41.828125L561.1094 43.921875Q561.7969 42.734375 562.5 42.265625Q563.2031 41.796875 563.96875 41.796875Q565.3125 41.796875 566.21875 42.84375Q567.3125 44.140625 567.3125 46.203125Q567.3125 48.515625 565.9844 50.03125Q564.8906 51.28125 563.2344 51.28125Q562.5156 51.28125 561.9844 51.0625Q561.59375 50.921875 561.1094 50.484375L561.1094 53.203125Q561.1094 54.125 561.21875 54.375Q561.3281 54.625 561.6094 54.765625Q561.8906 54.921875 562.625 54.921875L562.625 55.28125L557.9375 55.28125L557.9375 54.921875L558.1719 54.921875Q558.71875 54.921875 559.09375 54.71875Q559.28125 54.609375 559.375 54.359375Q559.4844 54.125 559.4844 53.15625L559.4844 44.6875Q559.4844 43.828125 559.40625 43.59375Q559.3281 43.359375 559.15625 43.25Q558.9844 43.125 558.6875 43.125Q558.4531 43.125 558.09375 43.25L557.9844 42.9375ZM561.1094 44.5L561.1094 47.828125Q561.1094 48.921875 561.1875 49.265625Q561.3281 49.828125 561.8594 50.265625Q562.3906 50.6875 563.2031 50.6875Q564.1875 50.6875 564.78125 49.921875Q565.5781 48.921875 565.5781 47.125Q565.5781 45.078125 564.6875 43.96875Q564.0625 43.203125 563.2031 43.203125Q562.7344 43.203125 562.2656 43.4375Q561.9219 43.609375 561.1094 44.5ZM567.9844 42.9375L570.7344 41.828125L571.1094 41.828125L571.1094 43.921875Q571.7969 42.734375 572.5 42.265625Q573.2031 41.796875 573.96875 41.796875Q575.3125 41.796875 576.21875 42.84375Q577.3125 44.140625 577.3125 46.203125Q577.3125 48.515625 575.9844 50.03125Q574.8906 51.28125 573.2344 51.28125Q572.5156 51.28125 571.9844 51.0625Q571.59375 50.921875 571.1094 50.484375L571.1094 53.203125Q571.1094 54.125 571.21875 54.375Q571.3281 54.625 571.6094 54.765625Q571.8906 54.921875 572.625 54.921875L572.625 55.28125L567.9375 55.28125L567.9375 54.921875L568.1719 54.921875Q568.71875 54.921875 569.09375 54.71875Q569.28125 54.609375 569.375 54.359375Q569.4844 54.125 569.4844 53.15625L569.4844 44.6875Q569.4844 43.828125 569.40625 43.59375Q569.3281 43.359375 569.15625 43.25Q568.9844 43.125 568.6875 43.125Q568.4531 43.125 568.09375 43.25L567.9844 42.9375ZM571.1094 44.5L571.1094 47.828125Q571.1094 48.921875 571.1875 49.265625Q571.3281 49.828125 571.8594 50.265625Q572.3906 50.6875 573.2031 50.6875Q574.1875 50.6875 574.78125 49.921875Q575.5781 48.921875 575.5781 47.125Q575.5781 45.078125 574.6875 43.96875Q574.0625 43.203125 573.2031 43.203125Q572.7344 43.203125 572.2656 43.4375Q571.9219 43.609375 571.1094 44.5ZM581.7031 37.109375L581.7031 48.984375Q581.7031 49.8125 581.8281 50.09375Q581.9531 50.359375 582.2031 50.5Q582.4531 50.640625 583.1406 50.640625L583.1406 51.0L578.7656 51.0L578.7656 50.640625Q579.375 50.640625 579.59375 50.515625Q579.8281 50.390625 579.9531 50.109375Q580.0781 49.8125 580.0781 48.984375L580.0781 40.859375Q580.0781 39.34375 580.0 39.0Q579.9375 38.640625 579.78125 38.515625Q579.6406 38.390625 579.40625 38.390625Q579.15625 38.390625 578.7656 38.546875L578.59375 38.203125L581.2656 37.109375L581.7031 37.109375ZM586.125 45.421875Q586.125 47.421875 587.09375 48.546875Q588.0781 49.6875 589.3906 49.6875Q590.2656 49.6875 590.90625 49.203125Q591.5625 48.71875 592.0156 47.546875L592.3125 47.734375Q592.1094 49.078125 591.125 50.1875Q590.1406 51.28125 588.65625 51.28125Q587.03125 51.28125 585.8906 50.03125Q584.75 48.765625 584.75 46.640625Q584.75 44.34375 585.9219 43.0625Q587.09375 41.78125 588.875 41.78125Q590.375 41.78125 591.34375 42.78125Q592.3125 43.765625 592.3125 45.421875L586.125 45.421875ZM586.125 44.859375L590.2656 44.859375Q590.21875 44.0 590.0625 43.640625Q589.8281 43.09375 589.34375 42.78125Q588.8594 42.46875 588.3281 42.46875Q587.5156 42.46875 586.875 43.109375Q586.2344 43.734375 586.125 44.859375ZM593.4531 37.515625L593.4531 37.109375Q594.9375 37.84375 595.9219 38.84375Q597.3125 40.265625 598.0781 42.1875Q598.84375 44.109375 598.84375 46.1875Q598.84375 49.21875 597.34375 51.703125Q595.8594 54.203125 593.4531 55.28125L593.4531 54.921875Q594.65625 54.25 595.4219 53.09375Q596.2031 51.953125 596.5781 50.1875Q596.9531 48.40625 596.9531 46.484375Q596.9531 44.390625 596.6406 42.671875Q596.3906 41.328125 596.0156 40.515625Q595.65625 39.703125 595.0469 38.953125Q594.4531 38.203125 593.4531 37.515625Z" fill-rule="nonzero"/></svg>